<?xml version="1.0" standalone="no"?>
<!DOCTYPE svg PUBLIC "-//W3C//DTD SVG 1.1//EN" "http://www.w3.org/Graphics/SVG/1.1/DTD/svg11.dtd" >
<svg xmlns="http://www.w3.org/2000/svg" xmlns:xlink="http://www.w3.org/1999/xlink" version="1.1">
<metadata>
Created by FontForge 20170731 at Fri May 25 22:45:13 2018
 By Aleksey,,,
Copyright (c) 2018 by Mans Greback. All rights reserved.
</metadata>
<defs>
<font id="Aliment-Light" horiz-adv-x="822" >
  <font-face 
    font-family="Aliment"
    font-weight="300"
    font-stretch="normal"
    units-per-em="1000"
    panose-1="0 0 0 0 0 0 0 0 0 0"
    ascent="800"
    descent="-200"
    x-height="688"
    cap-height="688"
    bbox="-170 -343 1332 1012"
    underline-thickness="50"
    underline-position="-150"
    unicode-range="U+000D-FB02"
  />
<missing-glyph horiz-adv-x="367" 
 />
    <glyph glyph-name=".notdef" horiz-adv-x="367" 
 />
    <glyph glyph-name=".null" horiz-adv-x="0" 
 />
    <glyph glyph-name="nonmarkingreturn" unicode="&#xd;" horiz-adv-x="367" 
 />
    <glyph glyph-name="NULL" horiz-adv-x="0" 
 />
    <glyph glyph-name="NULL" horiz-adv-x="0" 
 />
    <glyph glyph-name="space" unicode=" " horiz-adv-x="367" 
 />
    <glyph glyph-name="exclam" unicode="!" horiz-adv-x="276" 
d="M187 255h-102l-27 445h156zM221 83q0 -32 -22 -57.5t-61 -25.5q-19 0 -34.5 7t-26 18.5t-16 26.5t-5.5 31q0 32 21 57.5t61 25.5q39 0 61 -25.5t22 -57.5z" />
    <glyph glyph-name="quotedbl" unicode="&#x22;" horiz-adv-x="457" 
d="M45 700h137l-19 -327h-103zM275 700h137l-19 -327h-103z" />
    <glyph glyph-name="numbersign" unicode="#" horiz-adv-x="687" 
d="M382 135h-146l-18 -95h-102l18 95h-89l19 108h91l31 161h-96l19 107h98l21 110h102l-21 -110h146l21 110h102l-21 -110h85l-18 -107h-88l-31 -161h92l-18 -108h-95l-18 -95h-102zM257 243h146l31 161h-146z" />
    <glyph glyph-name="dollar" unicode="$" horiz-adv-x="675" 
d="M282 3q-103 11 -159.5 53.5t-77.5 98.5l106 33q20 -31 55 -51t88 -28l25 214q-41 9 -81 20.5t-72.5 31.5t-53.5 51t-23 78q-3 37 14 72.5t52 63t87 44t120 16.5l10 84h77l-11 -91q53 -9 94 -29.5t63 -48.5l-72 -69q-36 30 -97 39l-20 -173q41 -8 81 -20t72 -34t51.5 -57
t19.5 -88q0 -41 -17.5 -78.5t-52 -67t-85 -47.5t-117.5 -20l-9 -84h-77zM520 216q0 20 -10 34.5t-27 25t-40 18t-49 13.5l-23 -200q73 5 111 36t38 73zM213 496q1 -16 11 -27t25.5 -19t36.5 -13.5t45 -10.5l18 162q-65 -3 -102 -27.5t-34 -64.5z" />
    <glyph glyph-name="percent" unicode="%" horiz-adv-x="900" 
d="M854 207q0 -47 -15.5 -85.5t-43 -65.5t-65 -41.5t-81.5 -14.5q-51 0 -88 16.5t-61 45t-36 66t-12 79.5q0 33 9 66l-224 -273h-159l247 301q-38 -15 -83 -15q-51 0 -88 17t-61 45.5t-36 66t-12 78.5q0 39 12 76t36 66t61 47t88 18q44 0 81.5 -15t65.5 -42t43.5 -65
t15.5 -85q0 -23 -5 -48l210 255h158l-249 -304q18 8 39.5 13t47.5 5q44 0 81.5 -15t65 -42t43 -65t15.5 -85zM334 493q0 19 -5 38.5t-15.5 35.5t-28 25.5t-42.5 9.5q-23 0 -39.5 -9.5t-27 -25.5t-15 -35.5t-4.5 -38.5q0 -20 4.5 -39.5t15 -35t27 -25t39.5 -9.5
q25 0 42.5 9.5t28 25t15.5 35t5 39.5zM741 207q0 19 -5 38.5t-15.5 35t-28 25t-42.5 9.5q-23 0 -39.5 -9.5t-27 -25t-15 -35t-4.5 -38.5q0 -20 4.5 -39.5t15 -35t27 -25t39.5 -9.5q25 0 42.5 9.5t28 25t15.5 35t5 39.5z" />
    <glyph glyph-name="ampersand" unicode="&#x26;" horiz-adv-x="778" 
d="M673 389q2 -63 -12.5 -119.5t-43.5 -104.5q29 -19 58 -36.5t58 -32.5l-40 -96q-36 18 -71.5 39.5t-70.5 45.5q-45 -40 -103.5 -62.5t-130.5 -22.5q-74 0 -130 24t-90.5 61.5t-46 83.5t2 91t53.5 84t109 61q-37 57 -41 110t17.5 94t64 66t98.5 25q54 0 92.5 -20t60 -51.5
t24.5 -70.5t-12.5 -77.5t-50.5 -71.5t-90 -53q34 -34 74.5 -68.5t85.5 -67.5q27 35 45 77.5t24 91.5h66zM324 108q38 1 72.5 12t65.5 31q-55 45 -103 90.5t-86 89.5q-43 -13 -68 -35t-34 -47t-2 -50.5t27 -46t52.5 -33t75.5 -11.5zM357 589q-29 0 -47.5 -12t-25.5 -33
t-0.5 -49t27.5 -60q2 -2 3.5 -5t3.5 -5q36 7 60 22t37 33t15 37.5t-6 35.5t-25 26t-42 10z" />
    <glyph glyph-name="quotesingle" unicode="'" horiz-adv-x="226" 
d="M45 700h137l-19 -327h-103z" />
    <glyph glyph-name="parenleft" unicode="(" horiz-adv-x="382" 
d="M193 350q0 -62 11 -120t30.5 -107.5t45.5 -88t57 -61.5l-77 -47q-42 24 -81 66.5t-68.5 97.5t-47.5 121.5t-18 138.5t18 137.5t48 120.5t69 97.5t80 68.5l77 -47q-31 -26 -57 -64.5t-45.5 -87.5t-30.5 -106t-11 -119z" />
    <glyph glyph-name="parenright" unicode=")" horiz-adv-x="382" 
d="M189 350q0 62 -11 120t-30.5 107.5t-45.5 88t-57 61.5l77 47q42 -24 81 -66.5t68.5 -97.5t47.5 -121.5t18 -138.5t-18 -137.5t-48 -120.5t-69 -97.5t-80 -68.5l-77 47q31 26 57 64.5t45.5 87.5t30.5 106t11 119z" />
    <glyph glyph-name="asterisk" unicode="*" horiz-adv-x="625" 
d="M96 683l173 -115l-12 195h111l-11 -192l165 112l59 -88l-192 -99l192 -100l-59 -88l-165 112l11 -191h-111l11 195l-172 -116l-51 88l187 100l-187 99z" />
    <glyph glyph-name="plus" unicode="+" horiz-adv-x="638" 
d="M378 402h215v-111h-215v-218h-111v218h-222v111h222v211h111v-211z" />
    <glyph glyph-name="comma" unicode="," horiz-adv-x="288" 
d="M103 194h140l-103 -293h-95z" />
    <glyph glyph-name="hyphen" unicode="-" horiz-adv-x="557" 
d="M45 239v130h467v-130h-467z" />
    <glyph glyph-name="period" unicode="." horiz-adv-x="255" 
d="M210 83q0 -32 -22 -57.5t-61 -25.5q-19 0 -34.5 7t-26 18.5t-16 26.5t-5.5 31q0 32 21 57.5t61 25.5q39 0 61 -25.5t22 -57.5z" />
    <glyph glyph-name="slash" unicode="/" horiz-adv-x="709" 
d="M505 700h160l-461 -840h-159z" />
    <glyph glyph-name="zero" unicode="0" horiz-adv-x="715" 
d="M526 350q0 45 -12 85.5t-34.5 71t-54 48t-70.5 17.5q-37 0 -67.5 -17t-52.5 -46.5t-34 -70t-12 -88.5t12 -88.5t34 -70.5t52.5 -47t67.5 -17q39 0 71 18t54 49t34 71t12 85zM667 350q0 -81 -24.5 -146t-67 -110.5t-100 -69.5t-122.5 -24q-70 0 -126.5 27t-96 74.5
t-61 111t-21.5 137.5q0 73 21.5 137t61 111.5t96 74.5t126.5 27q65 0 122.5 -25t100 -71t67 -110.5t24.5 -143.5z" />
    <glyph glyph-name="one" unicode="1" horiz-adv-x="363" 
d="M112 0v639l59 61h89v-700h-148z" />
    <glyph glyph-name="two" unicode="2" horiz-adv-x="666" 
d="M56 422q-11 54 3.5 104.5t50.5 89t91.5 61.5t126.5 23q70 0 122 -19.5t85 -51.5t47.5 -74t10.5 -87t-26.5 -90t-62.5 -84l-198 -184h314v-110h-587l366 352q41 38 53 79t0.5 74.5t-43.5 55.5t-80 22q-36 0 -64.5 -13t-46.5 -34.5t-25 -51t1 -62.5h-138v0z" />
    <glyph glyph-name="three" unicode="3" horiz-adv-x="681" 
d="M86 493q-9 33 0 69.5t39 67t83 50.5t133 20q68 0 116.5 -13.5t79 -36.5t45 -53.5t14.5 -64.5q0 -43 -26 -83t-87 -65q76 -19 114.5 -63t38.5 -104q0 -39 -17.5 -78t-55 -69.5t-96.5 -50t-141 -19.5q-80 0 -137 23t-91 59.5t-45.5 82.5t-2.5 92h136q-5 -29 2.5 -54
t26 -43.5t47.5 -29t67 -10.5q42 0 72.5 9.5t50.5 26t30 38t10 45.5q0 18 -8.5 35t-29 31t-53.5 22.5t-82 8.5h-89v85h77q40 0 67.5 9t45 22.5t25 29.5t7.5 30q0 15 -6.5 30t-21 26t-37 18t-54.5 7q-71 0 -98 -29.5t-20 -70.5h-129v0z" />
    <glyph glyph-name="four" unicode="4" horiz-adv-x="670" 
d="M543 755v-514h82v-102h-82v-139h-135v139h-394zM432 232v249l-195 -249h195z" />
    <glyph glyph-name="five" unicode="5" horiz-adv-x="672" 
d="M486 263q0 54 -26.5 85.5t-67.5 39.5t-90 -7.5t-94 -54.5h-136l53 374h443v-109h-330l-20 -178q46 28 94.5 41.5t94 13.5t85.5 -14t70 -41t47.5 -66.5t17.5 -91.5q0 -56 -22 -103t-61 -81t-93 -52.5t-118 -18.5t-117 15.5t-91 44.5t-59 71.5t-21 96.5h141q0 -25 12.5 -45
t33.5 -34t48 -21.5t56 -7.5q32 0 59.5 10.5t47.5 29.5t31.5 45.5t11.5 57.5z" />
    <glyph glyph-name="six" unicode="6" horiz-adv-x="671" 
d="M478 257q0 43 -21.5 72.5t-59.5 39.5t-90 -2t-112 -52q0 -55 11.5 -93t31.5 -62t46.5 -35t56.5 -11q28 0 53 11.5t43.5 31t29.5 45.5t11 55zM343 0q-63 0 -117.5 21t-95 63t-63.5 105t-23 147q0 79 24.5 145.5t68.5 115t105.5 76t135.5 27.5q58 0 112.5 -14t86.5 -35
l-24 -102q-26 21 -71.5 35.5t-96.5 8.5q-41 -2 -74 -17t-57.5 -41t-39.5 -62t-19 -79q84 49 162 59t138 -12t95.5 -72.5t35.5 -123.5q0 -48 -20 -92t-56.5 -78t-89 -54.5t-117.5 -20.5z" />
    <glyph glyph-name="seven" unicode="7" horiz-adv-x="629" 
d="M308 -26l-118 53l251 551h-396v122h598z" />
    <glyph glyph-name="eight" unicode="8" horiz-adv-x="688" 
d="M43 207q0 57 34.5 105.5t105.5 74.5q-52 24 -75 60.5t-23 73.5q0 34 15 66.5t46.5 57.5t80.5 40t117 15t117 -15t80.5 -40t46.5 -57.5t15 -66.5q0 -40 -23 -76t-74 -59q70 -26 104.5 -74t34.5 -105q0 -39 -19.5 -76.5t-58 -66.5t-94.5 -46.5t-129 -17.5
q-76 0 -132.5 17.5t-94 46.5t-56 66.5t-18.5 76.5zM344 115q37 0 65 10t47.5 26t29.5 36t10 39q0 50 -42 83t-110 33q-34 0 -62 -9t-48.5 -24.5t-31.5 -36.5t-11 -46q0 -19 9.5 -39t28 -36t47.5 -26t68 -10zM344 592q-34 0 -57.5 -7.5t-38.5 -19.5t-22 -28t-7 -34
q0 -36 33.5 -58t91.5 -22t92 22t34 58q0 35 -31 62t-95 27z" />
    <glyph glyph-name="nine" unicode="9" horiz-adv-x="669" 
d="M191 443q0 -43 21.5 -72.5t59.5 -39.5t90 2t112 52q0 55 -11.5 93t-31.5 62t-46.5 35t-56.5 11q-28 0 -53 -11.5t-43.5 -31t-29.5 -45.5t-11 -55zM326 700q63 0 117.5 -21t95 -63t63.5 -105t23 -147q0 -79 -24.5 -145.5t-68.5 -115t-105.5 -76t-135.5 -27.5
q-58 0 -112.5 14t-86.5 35l24 102q26 -21 71.5 -35.5t96.5 -8.5q40 1 73.5 16.5t58 41.5t39.5 62t19 79q-84 -49 -162 -59t-138 12t-95.5 72.5t-35.5 123.5q0 48 19.5 92t56.5 78t89.5 54.5t117.5 20.5z" />
    <glyph glyph-name="colon" unicode=":" horiz-adv-x="255" 
d="M210 83q0 -32 -22 -57.5t-61 -25.5q-19 0 -34.5 7t-26 18.5t-16 26.5t-5.5 31q0 32 21 57.5t61 25.5q39 0 61 -25.5t22 -57.5zM210 455q0 -32 -22 -57.5t-61 -25.5q-19 0 -34.5 7t-26 18.5t-16 26.5t-5.5 31q0 32 21 57.5t61 25.5q39 0 61 -25.5t22 -57.5z" />
    <glyph glyph-name="semicolon" unicode=";" horiz-adv-x="290" 
d="M103 194h140l-103 -293h-95zM244 455q0 -32 -22 -57.5t-61 -25.5q-19 0 -34.5 7t-26 18.5t-16 26.5t-5.5 31q0 32 21 57.5t61 25.5q39 0 61 -25.5t22 -57.5z" />
    <glyph glyph-name="less" unicode="&#x3c;" horiz-adv-x="487" 
d="M442 538l-228 -194l228 -189l-64 -74l-333 262l333 261z" />
    <glyph glyph-name="equal" unicode="=" horiz-adv-x="638" 
d="M45 408v99h548v-99h-548zM45 193v98h548v-98h-548z" />
    <glyph glyph-name="greater" unicode="&#x3e;" horiz-adv-x="487" 
d="M109 604l333 -261l-333 -262l-64 74l228 189l-228 194z" />
    <glyph glyph-name="question" unicode="?" horiz-adv-x="611" 
d="M48 487q-7 36 6.5 74t46.5 69t85 50.5t121 19.5q62 0 111 -17.5t82.5 -46t50 -66.5t14.5 -78q-2 -47 -21.5 -76.5t-47 -50t-58.5 -34.5t-57 -29t-42.5 -33.5t-13.5 -48.5h-97q-7 48 5 78t33.5 50.5t48.5 34t51.5 27.5t42.5 32t21 47q1 22 -8.5 41t-27.5 33.5t-43 22.5
t-56 8q-38 0 -65 -10.5t-43 -26.5t-22 -35t-2 -35h-115zM360 73q0 -28 -21.5 -50.5t-62.5 -22.5q-39 0 -61 22.5t-22 50.5q0 27 21.5 49t61.5 22q41 0 62.5 -22t21.5 -49z" />
    <glyph glyph-name="at" unicode="@" horiz-adv-x="1020" 
d="M318 488q20 39 69 69t127 30q98 0 155.5 -48t57.5 -140v-140q0 -22 10 -42.5t42 -20.5q33 0 55 40.5t22 127.5q0 76 -24.5 138t-69.5 105t-109 66.5t-143 23.5q-76 0 -139.5 -24.5t-109 -69.5t-70.5 -109t-25 -144q0 -84 24 -148.5t67.5 -108t104 -66t134.5 -22.5
q56 0 96 11t84 38l72 -59q-35 -27 -98 -51.5t-152 -24.5q-113 0 -197.5 33t-141.5 90.5t-85.5 136.5t-28.5 171q0 89 30.5 167.5t89.5 137t145.5 92.5t199.5 34q110 0 196.5 -31t146 -85.5t91 -129.5t31.5 -163q0 -62 -15.5 -109.5t-43 -80.5t-64.5 -50t-79 -17
q-45 0 -78.5 19t-51.5 52q-28 -34 -69 -50.5t-90 -16.5q-39 0 -73.5 11.5t-60 32t-40.5 47.5t-15 59q0 29 11 55t34.5 45.5t60.5 31t90 11.5q39 0 73 -1t61 2q-8 93 -120 93q-39 0 -75.5 -13t-60.5 -40zM626 347q-41 -10 -115 -10q-63 0 -88.5 -18.5t-25.5 -48.5
q0 -32 29 -51.5t80 -19.5q34 0 57 10t37 25.5t20 36t6 41.5v35z" />
    <glyph glyph-name="A" unicode="A" horiz-adv-x="839" 
d="M847 -1h-170l-68 121l-186 -43l-193 42l-67 -120h-171l427 746zM264 181h312l-156 280z" />
    <glyph glyph-name="B" unicode="B" horiz-adv-x="752" 
d="M485 463q49 -2 90.5 -21t71 -49.5t46 -71t16.5 -86.5q0 -50 -19 -93.5t-52 -75.5t-77 -50t-93 -18h-426v690h300q30 0 57 -10t48.5 -27.5t35.5 -42t18 -53.5q5 -22 0 -47.5t-16 -44.5zM173 457h157q23 0 39 16.5t16 39.5q0 18 -7 29t-19 16.5t-27 7.5t-31 2h-128v-111z
M447 123q26 0 48.5 10.5t39.5 28t27 41t10 49.5q0 25 -10 48.5t-27 41t-39.5 28t-48.5 10.5h-274v-257h274z" />
    <glyph glyph-name="C" unicode="C" 
d="M179 343q0 -55 20 -98.5t53.5 -73.5t76.5 -46.5t88 -17.5q37 -1 72.5 8t66.5 29.5t55 52t37 74.5l140 -40q-18 -60 -53.5 -110.5t-84 -87t-108 -57t-124.5 -20.5q-80 0 -150 30.5t-122.5 83t-83 122.5t-30.5 150t30.5 150.5t83 123t122.5 83t150 30.5q65 0 124.5 -20.5
t108 -57.5t84 -87t53.5 -110l-140 -39q-12 36 -34 67t-52 53.5t-66.5 35t-76.5 12.5q-47 0 -90.5 -18t-76.5 -50t-53 -76t-20 -96z" />
    <glyph glyph-name="D" unicode="D" horiz-adv-x="762" 
d="M374 688q71 0 134 -27t110 -74t74 -110t27 -134t-27 -134t-74 -110t-110 -74t-134 -27h-332v690h332zM374 138q42 0 79.5 15.5t65.5 43.5t44 65.5t16 79.5t-16 79.5t-44 65.5t-65.5 44t-79.5 16h-191v-408z" />
    <glyph glyph-name="E" unicode="E" horiz-adv-x="661" 
d="M188 562v-173h339v-93h-339v-173h430v-125h-576v690h576v-125z" />
    <glyph glyph-name="F" unicode="F" horiz-adv-x="693" 
d="M700 542q-129 0 -256 -0.5t-256 -0.5v-198h419v-106h-419v-239h-146v690h658v-146v0z" />
    <glyph glyph-name="G" unicode="G" horiz-adv-x="884" 
d="M852 341q0 -20 -0.5 -40.5t-0.5 -40.5h-118q-14 -59 -46.5 -108.5t-78 -86t-101.5 -57t-119 -20.5q-74 0 -138.5 28t-113 76.5t-76.5 113t-28 138.5q0 73 28 138t76.5 113.5t113 76.5t138.5 28q60 0 115 -19.5t99 -53.5t76.5 -81t47.5 -102h-153q-26 48 -75 79t-109 31
q-44 0 -82 -16.5t-66.5 -45t-45 -66.5t-16.5 -82q0 -41 16 -79t44 -67t66 -46.5t83 -17.5q35 0 66.5 10.5t57.5 29.5t45 45t29 57h-116v65h382v0z" />
    <glyph glyph-name="H" unicode="H" horiz-adv-x="734" 
d="M690 688v-690h-145v278h-357v-278h-146v690h146v-305h357v305h145z" />
    <glyph glyph-name="I" unicode="I" horiz-adv-x="230" 
d="M42 -2v690h146v-690h-146z" />
    <glyph glyph-name="J" unicode="J" horiz-adv-x="723" 
d="M679 688v-381q0 -66 -25 -124t-68.5 -101.5t-101.5 -68.5t-124 -25q-63 0 -119 23t-98.5 62.5t-69.5 93t-31 115.5h147q4 -32 19.5 -59t38 -47t52 -31.5t62.5 -11.5q36 0 67.5 13.5t55 37.5t37 55.5t13.5 67.5v381h145z" />
    <glyph glyph-name="K" unicode="K" horiz-adv-x="722" 
d="M577 -78l-389 396v-314h-146v690h146v-314l389 396l100 -99l-328 -328l328 -328z" />
    <glyph glyph-name="L" unicode="L" horiz-adv-x="672" 
d="M630 144v-146h-588v690h146v-544h442z" />
    <glyph glyph-name="M" unicode="M" horiz-adv-x="966" 
d="M922 757v-759h-145v401l-295 -360l-294 360v-401h-146v759l440 -509z" />
    <glyph glyph-name="N" unicode="N" 
d="M779 688v-768l-591 540v-461h-146v764l592 -540v465h145z" />
    <glyph glyph-name="O" unicode="O" horiz-adv-x="838" 
d="M419 730q80 0 150 -30.5t122.5 -83t83 -123t30.5 -150.5t-30.5 -150t-83 -122.5t-122.5 -83t-150 -30.5t-150.5 30.5t-123 83t-83 122.5t-30.5 150t30.5 150.5t83 123t123 83t150.5 30.5zM419 102q49 0 93 19t76.5 51.5t51.5 76.5t19 94q0 49 -19 93t-51.5 76.5
t-76.5 51.5t-93 19q-50 0 -94 -19t-76.5 -51.5t-51.5 -76.5t-19 -93q0 -50 19 -94t51.5 -76.5t76.5 -51.5t94 -19z" />
    <glyph glyph-name="P" unicode="P" horiz-adv-x="734" 
d="M441 687q54 0 100 -19.5t79.5 -53t52.5 -79.5t19 -98t-19 -98t-53 -80t-79.5 -53.5t-99.5 -19.5h-253v-188h-146v690h131.5t98.5 -0.5t71 -0.5h48h50zM425 300q60 0 93.5 35t33.5 89q0 66 -34.5 97t-96.5 31h-233v-253z" />
    <glyph glyph-name="Q" unicode="Q" horiz-adv-x="801" 
d="M679 -88l-122 122q-38 -22 -80.5 -34t-89.5 -12q-74 0 -138.5 28t-112.5 76.5t-76 113t-28 138.5q0 73 28 138t76 113.5t112.5 76.5t138.5 28q73 0 138 -28t113.5 -76.5t76.5 -113.5t28 -138q0 -67 -23.5 -126t-64.5 -106l113 -114zM177 345q0 -44 16.5 -82t45 -67
t67 -45.5t82.5 -16.5q43 0 81.5 16.5t67 45.5t45 67t16.5 82q0 43 -16.5 81.5t-45 67t-67 45t-81.5 16.5q-44 0 -82.5 -16.5t-67 -45t-45 -67t-16.5 -81.5z" />
    <glyph glyph-name="R" unicode="R" horiz-adv-x="744" 
d="M387 190h-198v-193h-146v690h399q52 0 97.5 -19.5t79.5 -53.5t53.5 -80t19.5 -98q0 -36 -11 -69.5t-30.5 -61t-47 -48t-59.5 -31.5l177 -193l-100 -96zM553 425q0 37 -14.5 62t-38.5 39t-55 20t-65 6h-191v-254h191q34 0 65 6t55 20t38.5 38.5t14.5 62.5z" />
    <glyph glyph-name="S" unicode="S" horiz-adv-x="980" 
d="M960 688v-146h-223q-33 0 -64.5 -8.5t-56 -31.5t-39.5 -65.5t-15 -109.5q-2 -74 -20 -134.5t-56 -103.5t-97.5 -67t-143.5 -24h-225v146h226q33 0 63.5 8.5t54.5 32t39 65.5t15 109q1 73 18 133.5t53 104t92 67.5t135 24h244z" />
    <glyph glyph-name="T" unicode="T" horiz-adv-x="784" 
d="M770 688q0 -37 -0.5 -73t-0.5 -73h-303v-544h-145v544h-304v146h753v0z" />
    <glyph glyph-name="U" unicode="U" horiz-adv-x="783" 
d="M740 688v-351q0 -72 -27.5 -135.5t-74.5 -111t-111 -75t-136 -27.5t-135.5 27.5t-111 75t-75 111t-27.5 135.5v351h146v-351q0 -42 16 -79t43.5 -65t65 -44t79.5 -16t79 16t64.5 44t43.5 65t16 79v351h145z" />
    <glyph glyph-name="V" unicode="V" horiz-adv-x="855" 
d="M862 688l-435 -746l-435 746h171l264 -464l265 464h170z" />
    <glyph glyph-name="W" unicode="W" horiz-adv-x="1203" 
d="M1211 688l-359 -759l-250 507l-251 -507l-359 759h164l204 -451l242 494l241 -494l204 451h164z" />
    <glyph glyph-name="X" unicode="X" horiz-adv-x="830" 
d="M512 343l326 -345h-187l-236 242l-236 -242h-187l326 345l-326 345h187l236 -242l236 242h187z" />
    <glyph glyph-name="Y" unicode="Y" horiz-adv-x="816" 
d="M481 292v-293h-145v293l-343 342l103 103l313 -312l312 312l103 -103z" />
    <glyph glyph-name="Z" unicode="Z" horiz-adv-x="949" 
d="M353 144h549v-146h-860l510 544h-475v146h786z" />
    <glyph glyph-name="bracketleft" unicode="[" horiz-adv-x="402" 
d="M45 -63v826h312v-103h-168v-620h168v-103h-312z" />
    <glyph glyph-name="backslash" unicode="\" horiz-adv-x="709" 
d="M665 -140h-160l-460 840h159z" />
    <glyph glyph-name="bracketright" unicode="]" horiz-adv-x="402" 
d="M357 763v-826h-312v103h168v620h-168v103h312z" />
    <glyph glyph-name="asciicircum" unicode="^" horiz-adv-x="551" 
d="M225 676h101l180 -229h-132l-99 109l-98 -109h-132z" />
    <glyph glyph-name="underscore" unicode="_" horiz-adv-x="660" 
d="M45 -108v111h571v-111h-571z" />
    <glyph glyph-name="grave" unicode="`" horiz-adv-x="450" 
d="M125 738l280 -257l-47 -68l-313 221z" />
    <glyph glyph-name="a" unicode="a" horiz-adv-x="839" 
d="M847 -1h-170l-68 121l-186 -43l-193 42l-67 -120h-171l427 746zM264 181h312l-156 280z" />
    <glyph glyph-name="b" unicode="b" horiz-adv-x="752" 
d="M485 463q49 -2 90.5 -21t71 -49.5t46 -71t16.5 -86.5q0 -50 -19 -93.5t-52 -75.5t-77 -50t-93 -18h-426v690h300q30 0 57 -10t48.5 -27.5t35.5 -42t18 -53.5q5 -22 0 -47.5t-16 -44.5zM173 457h157q23 0 39 16.5t16 39.5q0 18 -7 29t-19 16.5t-27 7.5t-31 2h-128v-111z
M447 123q26 0 48.5 10.5t39.5 28t27 41t10 49.5q0 25 -10 48.5t-27 41t-39.5 28t-48.5 10.5h-274v-257h274z" />
    <glyph glyph-name="c" unicode="c" 
d="M179 343q0 -55 20 -98.5t53.5 -73.5t76.5 -46.5t88 -17.5q37 -1 72.5 8t66.5 29.5t55 52t37 74.5l140 -40q-18 -60 -53.5 -110.5t-84 -87t-108 -57t-124.5 -20.5q-80 0 -150 30.5t-122.5 83t-83 122.5t-30.5 150t30.5 150.5t83 123t122.5 83t150 30.5q65 0 124.5 -20.5
t108 -57.5t84 -87t53.5 -110l-140 -39q-12 36 -34 67t-52 53.5t-66.5 35t-76.5 12.5q-47 0 -90.5 -18t-76.5 -50t-53 -76t-20 -96z" />
    <glyph glyph-name="d" unicode="d" horiz-adv-x="762" 
d="M374 688q71 0 134 -27t110 -74t74 -110t27 -134t-27 -134t-74 -110t-110 -74t-134 -27h-332v690h332zM374 138q42 0 79.5 15.5t65.5 43.5t44 65.5t16 79.5t-16 79.5t-44 65.5t-65.5 44t-79.5 16h-191v-408z" />
    <glyph glyph-name="e" unicode="e" horiz-adv-x="661" 
d="M188 562v-173h339v-93h-339v-173h430v-125h-576v690h576v-125z" />
    <glyph glyph-name="f" unicode="f" horiz-adv-x="693" 
d="M700 542q-129 0 -256 -0.5t-256 -0.5v-198h419v-106h-419v-239h-146v690h658v-146v0z" />
    <glyph glyph-name="g" unicode="g" horiz-adv-x="884" 
d="M852 341q0 -20 -0.5 -40.5t-0.5 -40.5h-118q-14 -59 -46.5 -108.5t-78 -86t-101.5 -57t-119 -20.5q-74 0 -138.5 28t-113 76.5t-76.5 113t-28 138.5q0 73 28 138t76.5 113.5t113 76.5t138.5 28q60 0 115 -19.5t99 -53.5t76.5 -81t47.5 -102h-153q-26 48 -75 79t-109 31
q-44 0 -82 -16.5t-66.5 -45t-45 -66.5t-16.5 -82q0 -41 16 -79t44 -67t66 -46.5t83 -17.5q35 0 66.5 10.5t57.5 29.5t45 45t29 57h-116v65h382v0z" />
    <glyph glyph-name="h" unicode="h" horiz-adv-x="734" 
d="M690 688v-690h-145v278h-357v-278h-146v690h146v-305h357v305h145z" />
    <glyph glyph-name="i" unicode="i" horiz-adv-x="230" 
d="M42 -2v690h146v-690h-146z" />
    <glyph glyph-name="j" unicode="j" horiz-adv-x="723" 
d="M679 688v-381q0 -66 -25 -124t-68.5 -101.5t-101.5 -68.5t-124 -25q-63 0 -119 23t-98.5 62.5t-69.5 93t-31 115.5h147q4 -32 19.5 -59t38 -47t52 -31.5t62.5 -11.5q36 0 67.5 13.5t55 37.5t37 55.5t13.5 67.5v381h145z" />
    <glyph glyph-name="k" unicode="k" horiz-adv-x="722" 
d="M577 -78l-389 396v-314h-146v690h146v-314l389 396l100 -99l-328 -328l328 -328z" />
    <glyph glyph-name="l" unicode="l" horiz-adv-x="672" 
d="M630 144v-146h-588v690h146v-544h442z" />
    <glyph glyph-name="m" unicode="m" horiz-adv-x="966" 
d="M922 757v-759h-145v401l-295 -360l-294 360v-401h-146v759l440 -509z" />
    <glyph glyph-name="n" unicode="n" 
d="M779 688v-768l-591 540v-461h-146v764l592 -540v465h145z" />
    <glyph glyph-name="o" unicode="o" horiz-adv-x="838" 
d="M419 730q80 0 150 -30.5t122.5 -83t83 -123t30.5 -150.5t-30.5 -150t-83 -122.5t-122.5 -83t-150 -30.5t-150.5 30.5t-123 83t-83 122.5t-30.5 150t30.5 150.5t83 123t123 83t150.5 30.5zM419 102q49 0 93 19t76.5 51.5t51.5 76.5t19 94q0 49 -19 93t-51.5 76.5
t-76.5 51.5t-93 19q-50 0 -94 -19t-76.5 -51.5t-51.5 -76.5t-19 -93q0 -50 19 -94t51.5 -76.5t76.5 -51.5t94 -19z" />
    <glyph glyph-name="p" unicode="p" horiz-adv-x="734" 
d="M441 687q54 0 100 -19.5t79.5 -53t52.5 -79.5t19 -98t-19 -98t-53 -80t-79.5 -53.5t-99.5 -19.5h-253v-188h-146v690h131.5t98.5 -0.5t71 -0.5h48h50zM425 300q60 0 93.5 35t33.5 89q0 66 -34.5 97t-96.5 31h-233v-253z" />
    <glyph glyph-name="q" unicode="q" horiz-adv-x="801" 
d="M679 -88l-122 122q-38 -22 -80.5 -34t-89.5 -12q-74 0 -138.5 28t-112.5 76.5t-76 113t-28 138.5q0 73 28 138t76 113.5t112.5 76.5t138.5 28q73 0 138 -28t113.5 -76.5t76.5 -113.5t28 -138q0 -67 -23.5 -126t-64.5 -106l113 -114zM177 345q0 -44 16.5 -82t45 -67
t67 -45.5t82.5 -16.5q43 0 81.5 16.5t67 45.5t45 67t16.5 82q0 43 -16.5 81.5t-45 67t-67 45t-81.5 16.5q-44 0 -82.5 -16.5t-67 -45t-45 -67t-16.5 -81.5z" />
    <glyph glyph-name="r" unicode="r" horiz-adv-x="744" 
d="M387 190h-198v-193h-146v690h399q52 0 97.5 -19.5t79.5 -53.5t53.5 -80t19.5 -98q0 -36 -11 -69.5t-30.5 -61t-47 -48t-59.5 -31.5l177 -193l-100 -96zM553 425q0 37 -14.5 62t-38.5 39t-55 20t-65 6h-191v-254h191q34 0 65 6t55 20t38.5 38.5t14.5 62.5z" />
    <glyph glyph-name="s" unicode="s" horiz-adv-x="980" 
d="M960 688v-146h-223q-33 0 -64.5 -8.5t-56 -31.5t-39.5 -65.5t-15 -109.5q-2 -74 -20 -134.5t-56 -103.5t-97.5 -67t-143.5 -24h-225v146h226q33 0 63.5 8.5t54.5 32t39 65.5t15 109q1 73 18 133.5t53 104t92 67.5t135 24h244z" />
    <glyph glyph-name="t" unicode="t" horiz-adv-x="784" 
d="M770 688q0 -37 -0.5 -73t-0.5 -73h-303v-544h-145v544h-304v146h753v0z" />
    <glyph glyph-name="u" unicode="u" horiz-adv-x="783" 
d="M740 688v-351q0 -72 -27.5 -135.5t-74.5 -111t-111 -75t-136 -27.5t-135.5 27.5t-111 75t-75 111t-27.5 135.5v351h146v-351q0 -42 16 -79t43.5 -65t65 -44t79.5 -16t79 16t64.5 44t43.5 65t16 79v351h145z" />
    <glyph glyph-name="v" unicode="v" horiz-adv-x="855" 
d="M862 688l-435 -746l-435 746h171l264 -464l265 464h170z" />
    <glyph glyph-name="w" unicode="w" horiz-adv-x="1203" 
d="M1211 688l-359 -759l-250 507l-251 -507l-359 759h164l204 -451l242 494l241 -494l204 451h164z" />
    <glyph glyph-name="x" unicode="x" horiz-adv-x="830" 
d="M512 343l326 -345h-187l-236 242l-236 -242h-187l326 345l-326 345h187l236 -242l236 242h187z" />
    <glyph glyph-name="y" unicode="y" horiz-adv-x="816" 
d="M481 292v-293h-145v293l-343 342l103 103l313 -312l312 312l103 -103z" />
    <glyph glyph-name="z" unicode="z" horiz-adv-x="949" 
d="M353 144h549v-146h-860l510 544h-475v146h786z" />
    <glyph glyph-name="braceleft" unicode="{" horiz-adv-x="443" 
d="M45 398q61 0 91 15.5t40.5 41.5t8.5 58.5t-5 67t0 67t24.5 58.5t67 41.5t127.5 15.5v-111q-46 1 -71 -8t-36.5 -25t-12.5 -38t1 -47t4 -51t-3.5 -50.5t-21.5 -46t-50 -36.5q34 -15 50 -36.5t21.5 -45.5t3.5 -50.5t-4 -51t-1 -46.5t12.5 -38.5t36.5 -25.5t71 -8v-110
q-82 0 -127.5 15.5t-67 41t-24.5 58.5t0 67t5 67t-8.5 58.5t-40.5 41t-91 15.5v96z" />
    <glyph glyph-name="bar" unicode="|" horiz-adv-x="223" 
d="M45 749h133v-938h-133v938z" />
    <glyph glyph-name="braceright" unicode="}" horiz-adv-x="443" 
d="M398 303q-61 0 -91 -15.5t-40.5 -41.5t-8.5 -58.5t5 -67t0 -67t-24.5 -58.5t-67 -41.5t-127.5 -15.5v111q46 -1 71 8t36.5 25t12.5 38t-1 47t-4 51t3.5 50t21.5 45.5t50 36.5q-34 15 -50 36.5t-21.5 46t-3.5 50.5t4 51t1 47t-12.5 38.5t-36.5 25.5t-71 8v110
q82 0 127.5 -15.5t67 -41t24.5 -58.5t0 -67t-5 -67t8.5 -58.5t40.5 -41t91 -15.5v-96z" />
    <glyph glyph-name="asciitilde" unicode="~" horiz-adv-x="576" 
d="M507 403q22 -49 23 -93t-15.5 -77.5t-48 -53.5t-74.5 -20q-31 0 -54.5 10t-41 24.5t-31.5 32t-27 32t-26 24.5t-29 10q-34 0 -34 -37.5t36 -95.5h-117q-23 53 -23 97.5t17.5 77t48.5 51t72 18.5q32 0 56 -10t42.5 -24.5t33 -32t27.5 -32t25.5 -24.5t27.5 -10t21.5 12
t6 31t-8.5 42.5t-22 47.5h115v0z" />
    <glyph glyph-name="uni00A0" unicode="&#xa0;" horiz-adv-x="367" 
 />
    <glyph glyph-name="exclamdown" unicode="&#xa1;" horiz-adv-x="276" 
d="M89 345h102l27 -445h-156zM55 517q0 32 22 57.5t61 25.5q19 0 34.5 -7t26 -18.5t16 -26.5t5.5 -31q0 -32 -21 -57.5t-61 -25.5q-39 0 -61 25.5t-22 57.5z" />
    <glyph glyph-name="cent" unicode="&#xa2;" horiz-adv-x="601" 
d="M557 120q-45 -33 -96.5 -51.5t-109.5 -18.5h-17t-16 1l-32 -135h-73l35 148q-48 15 -85.5 42t-63.5 64.5t-40 83t-14 96.5q0 63 21.5 118t61 95.5t96 63.5t127.5 23q9 0 17.5 -0.5t17.5 -1.5l32 136h73l-36 -151q58 -18 102 -53l-56 -81q-27 21 -70 32l-87 -370
q6 -1 12.5 -1h13.5q40 0 74.5 11.5t54.5 29.5zM175 350q0 -57 26 -102t74 -68l85 359q-44 -2 -78 -17t-58 -40.5t-36.5 -59t-12.5 -72.5z" />
    <glyph glyph-name="sterling" unicode="&#xa3;" horiz-adv-x="661" 
d="M468 480q2 22 -4 42.5t-20 36.5t-35.5 25t-51.5 9q-35 0 -61.5 -15.5t-42 -45.5t-18 -74t10.5 -101l3 -16h174v-72h-163q5 -64 -12 -106t-62 -59h430v-104h-571v91q58 7 82.5 48t14.5 130h-74v72h62l-3 16q-17 81 -7 144.5t41.5 108t81.5 67.5t114 23q53 0 96 -16.5
t72.5 -46t43.5 -69.5t9 -88h-110v0z" />
    <glyph glyph-name="currency" unicode="&#xa4;" horiz-adv-x="682" 
d="M569 350q0 -42 -9 -74t-23 -57l100 -92l-73 -81l-95 103q-27 -20 -60 -28.5t-68 -8.5q-37 0 -68 8.5t-55 27.5l-92 -102l-81 81l104 96q-28 50 -28 127q0 70 26 122l-102 93l81 74l84 -93q53 42 131 42q38 0 73 -11t63 -33l87 95l73 -74l-96 -95q13 -23 20.5 -53.5
t7.5 -66.5zM461 350q0 57 -31 92t-88 35q-54 0 -84 -33t-30 -94t28.5 -94.5t85.5 -33.5q61 0 90 35.5t29 92.5z" />
    <glyph glyph-name="yen" unicode="&#xa5;" horiz-adv-x="746" 
d="M436 59v-59h-126v59h-138v72h138v65h-138v73h138v2l-265 429h155l172 -347l174 347h155l-262 -431h128v-73h-131v-65h131v-72h-131z" />
    <glyph glyph-name="brokenbar" unicode="&#xa6;" horiz-adv-x="219" 
d="M174 232v-421h-129v421h129zM45 328v421h129v-421h-129z" />
    <glyph glyph-name="section" unicode="&#xa7;" horiz-adv-x="630" 
d="M563 219q16 -26 17 -64q2 -31 -13.5 -62.5t-50 -57t-88 -41.5t-127.5 -16q-39 0 -75 6t-66.5 17.5t-54 27t-38.5 34.5l74 56q26 -20 64.5 -31t91.5 -11q86 0 123.5 22.5t34.5 52.5q-2 25 -20.5 38t-48 19t-66 8t-74.5 5t-74 10t-64.5 23.5t-45.5 44.5t-17 74l23 57
q-8 14 -12.5 31t-6.5 39q-2 30 14 61.5t50 57t87.5 42t128.5 16.5q78 0 141 -24t93 -62l-75 -51q-49 41 -154 41q-87 0 -124 -22.5t-35 -51.5q2 -24 20.5 -36.5t48 -18.5t66 -8.5t74.5 -6t74 -11.5t64.5 -25.5t45.5 -47.5t17 -77zM459 260q10 35 0 54t-33.5 28.5t-57 12.5
t-69.5 5.5t-71 8.5t-61 21q-11 -35 -1 -54.5t33.5 -28.5t57 -12t69.5 -6t71 -8.5t62 -20.5z" />
    <glyph glyph-name="dieresis" unicode="&#xa8;" horiz-adv-x="566" 
d="M210 596q0 -32 -22 -57.5t-61 -25.5q-19 0 -34.5 7t-26 18.5t-16 26.5t-5.5 31q0 32 21 57.5t61 25.5q39 0 61 -25.5t22 -57.5zM521 596q0 -32 -22 -57.5t-61 -25.5q-19 0 -34.5 7t-26 18.5t-16 26.5t-5.5 31q0 32 21 57.5t61 25.5q39 0 61 -25.5t22 -57.5z" />
    <glyph glyph-name="copyright" unicode="&#xa9;" horiz-adv-x="980" 
d="M850 350q0 74 -24 140t-69.5 115.5t-112.5 78.5t-154 29q-84 0 -151 -29t-113.5 -78.5t-71 -115.5t-24.5 -140q0 -75 24.5 -141t71 -115.5t113.5 -78t151 -28.5q87 0 154 28.5t112.5 78t69.5 115.5t24 141zM935 350q0 -100 -33 -182t-92 -140.5t-141 -90.5t-179 -32
q-103 0 -185.5 35t-140 95.5t-88.5 141.5t-31 173t31 173t88.5 141.5t140 95.5t185.5 35q97 0 179 -32t141 -90.5t92 -140.5t33 -182zM689 169q-38 -42 -88 -62t-108 -20q-51 0 -96.5 19.5t-80 54.5t-54.5 83.5t-20 105.5t20 105t54.5 83t80 54.5t96.5 19.5q58 0 109.5 -21
t86.5 -64l-63 -66q-24 20 -51 30.5t-65 10.5q-26 0 -51 -11t-45 -31t-32.5 -48t-12.5 -62t12.5 -62t32.5 -48t45 -31t51 -11q40 0 66.5 11t47.5 30z" />
    <glyph glyph-name="ordfeminine" unicode="&#xaa;" horiz-adv-x="839" 
d="M847 -1h-170l-68 121l-186 -43l-193 42l-67 -120h-171l427 746zM264 181h312l-156 280z" />
    <glyph glyph-name="guillemotleft" unicode="&#xab;" horiz-adv-x="820" 
d="M378 82l-333 261l333 262l64 -74l-228 -189l228 -194zM716 82l-333 261l333 262l64 -74l-228 -189l228 -194z" />
    <glyph glyph-name="logicalnot" unicode="&#xac;" horiz-adv-x="638" 
d="M593 73h-110v218h-438v111h548v-329z" />
    <glyph glyph-name="uni00AD" unicode="&#xad;" horiz-adv-x="557" 
d="M45 239v130h467v-130h-467z" />
    <glyph glyph-name="registered" unicode="&#xae;" horiz-adv-x="980" 
d="M935 350q0 -100 -33 -182t-92 -140.5t-141 -90.5t-179 -32q-103 0 -185.5 35t-140 95.5t-88.5 141.5t-31 173t31 173t88.5 141.5t140 95.5t185.5 35q97 0 179 -32t141 -90.5t92 -140.5t33 -182zM850 350q0 74 -24 140t-69.5 115.5t-112.5 78.5t-154 29q-84 0 -151 -29
t-113.5 -78.5t-71 -115.5t-24.5 -140q0 -75 24.5 -141t71 -115.5t113.5 -78t151 -28.5q87 0 154 28.5t112.5 78t69.5 115.5t24 141zM515 271h-116v-156h-114v473h276q47 0 81.5 -13.5t57 -35.5t33 -51t10.5 -59q0 -23 -7.5 -46t-22.5 -43.5t-37.5 -36t-52.5 -24.5l132 -164
h-132zM399 497v-150h128q28 0 46.5 6.5t30 17t16.5 23.5t5 26q0 16 -4.5 30.5t-15.5 24.5t-30 16t-48 6h-128z" />
    <glyph glyph-name="macron" unicode="&#xaf;" horiz-adv-x="505" 
d="M45 519v100h415v-100h-415z" />
    <glyph glyph-name="degree" unicode="&#xb0;" horiz-adv-x="420" 
d="M210 698q34 0 64 -13t52.5 -35.5t35.5 -52.5t13 -64t-13 -64t-35.5 -52.5t-52.5 -35.5t-64 -13t-64 13t-52.5 35.5t-35.5 52.5t-13 64t13 64t35.5 52.5t52.5 35.5t64 13zM210 460q29 0 51 22t22 51q0 30 -22 52t-51 22t-51 -22t-22 -52q0 -29 22 -51t51 -22z" />
    <glyph glyph-name="plusminus" unicode="&#xb1;" horiz-adv-x="638" 
d="M378 502h215v-111h-215v-218h-111v218h-222v111h222v211h111v-211zM45 -20v111h548v-111h-548z" />
    <glyph glyph-name="twosuperior" unicode="&#xb2;" horiz-adv-x="519" 
d="M52 496q-6 39 6 75.5t39.5 65t69.5 46t96 17.5q58 0 102.5 -22.5t68.5 -58.5t25 -80.5t-26 -88.5q-15 -24 -41 -47t-56 -42.5t-61.5 -35.5t-58.5 -27h258v-88h-429v88q50 19 95.5 39t82.5 41t64.5 42.5t42.5 42.5q20 30 21 57t-11.5 47.5t-36 32.5t-52.5 12
q-28 0 -49 -10.5t-34.5 -27t-19.5 -37t-4 -41.5h-92v0z" />
    <glyph glyph-name="threesuperior" unicode="&#xb3;" horiz-adv-x="548" 
d="M83 562q0 25 13 49.5t38.5 44t62.5 32t84 12.5q51 0 86.5 -11t57.5 -29t32 -40t10 -43q0 -32 -21 -59t-62 -42q54 -9 85 -37t33 -76q1 -28 -10.5 -55.5t-39 -49t-71.5 -35t-107 -13.5q-55 0 -98.5 13.5t-73.5 36.5t-44.5 53.5t-11.5 65.5h97q-2 -17 6.5 -32.5t25.5 -27
t41.5 -18.5t53.5 -7q63 0 90 22t27 55q0 13 -5.5 25.5t-20.5 22t-41 15t-67 5.5h-64v62h61q57 0 88 18t31 44q0 10 -4 20.5t-14.5 18.5t-28.5 13t-45 5q-51 0 -75 -18.5t-24 -39.5h-95v0z" />
    <glyph glyph-name="acute" unicode="&#xb4;" horiz-adv-x="443" 
d="M392 645l-295 -239l-55 59l262 277z" />
    <glyph glyph-name="mu" unicode="&#xb5;" horiz-adv-x="783" 
d="M740 688v-351q0 -72 -27.5 -135.5t-74.5 -111t-111 -75t-136 -27.5t-135.5 27.5t-111 75t-75 111t-27.5 135.5v351h146v-351q0 -42 16 -79t43.5 -65t65 -44t79.5 -16t79 16t64.5 44t43.5 65t16 79v351h145z" />
    <glyph glyph-name="paragraph" unicode="&#xb6;" horiz-adv-x="782" 
d="M200 470q-29 0 -55 10t-46 29t-32 45t-12 59t12 58.5t32 42.5t46 26t55 9h509v-111h-100v-827h-133v827h-143v-827h-133v659z" />
    <glyph glyph-name="periodcentered" unicode="&#xb7;" horiz-adv-x="255" 
d="M210 345q0 -32 -22 -57.5t-61 -25.5q-19 0 -34.5 7t-26 18.5t-16 26.5t-5.5 31q0 32 21 57.5t61 25.5q39 0 61 -25.5t22 -57.5z" />
    <glyph glyph-name="cedilla" unicode="&#xb8;" horiz-adv-x="414" 
d="M213 -19q41 2 70.5 -8t48.5 -27t28 -39.5t9 -46.5q0 -41 -21 -73t-62 -47.5t-101.5 -12t-139.5 34.5v62q53 -14 90 -16.5t60 4.5t33.5 20.5t10.5 31.5q0 27 -32 42t-104 4v52l55 112h91z" />
    <glyph glyph-name="onesuperior" unicode="&#xb9;" horiz-adv-x="316" 
d="M164 210v273h-119v91q33 0 55 4t36 16t20.5 33.5t7.5 56.5v16h106v-490h-106z" />
    <glyph glyph-name="ordmasculine" unicode="&#xba;" horiz-adv-x="586" 
d="M424 455q0 28 -10 54t-27.5 45t-41.5 30.5t-52 11.5t-52 -11t-41.5 -29.5t-27.5 -44.5t-10 -56t10 -56t27.5 -45t41.5 -30t52 -11t52 11.5t41.5 31t27.5 45t10 54.5zM540 455q0 -60 -21.5 -106t-57 -77t-79.5 -46.5t-89 -15.5q-51 0 -96 18.5t-78.5 51.5t-53.5 77.5
t-20 97.5q0 52 18.5 97t51.5 78t78.5 51.5t99.5 18.5q45 0 89 -16.5t79.5 -48t57 -77t21.5 -103.5z" />
    <glyph glyph-name="guillemotright" unicode="&#xbb;" horiz-adv-x="820" 
d="M109 604l333 -261l-333 -262l-64 74l228 189l-228 194zM447 604l333 -261l-333 -262l-64 74l228 189l-228 194z" />
    <glyph glyph-name="onequarter" unicode="&#xbc;" horiz-adv-x="1010" 
d="M901 490v-323h64v-80h-64v-87h-92v87h-296v61l288 342h100zM773 700h116l-594 -700h-116zM164 210v273h-119v91q34 0 57 5t37 18.5t19.5 38t5.5 64.5h106v-490h-106zM811 167l19 254l-190 -254h171z" />
    <glyph glyph-name="onehalf" unicode="&#xbd;" horiz-adv-x="1062" 
d="M595 286q-6 39 6 75.5t39 65t69 46t96 17.5q59 0 103 -22.5t68 -58.5t25 -80.5t-26 -88.5q-15 -24 -40 -47t-55 -42.5t-62 -35.5t-59 -27h258v-88h-429v88q101 38 177.5 80t107.5 85q20 30 21.5 57t-11.5 47.5t-36.5 32.5t-52.5 12q-28 0 -49 -10.5t-34.5 -27t-19.5 -37
t-4 -41.5h-92zM709 700h117l-594 -700h-117zM270 210h-106v273h-119v91q34 0 57 5t37 18.5t19.5 38t5.5 64.5h106v-490z" />
    <glyph glyph-name="threequarters" unicode="&#xbe;" horiz-adv-x="1085" 
d="M975 490v-323h65v-80h-65v-87h-92v87h-296v61l288 342h100zM83 562q0 25 13 49.5t38.5 44t62.5 32t84 12.5q51 0 86.5 -11t57.5 -29t32 -40t10 -43q0 -32 -21 -59t-62 -42q54 -9 85 -37t33 -76q1 -28 -10.5 -55.5t-39 -49t-71.5 -35t-107 -13.5q-55 0 -98.5 13.5
t-73.5 36.5t-44.5 53.5t-11.5 65.5h97q-2 -17 6.5 -32.5t25.5 -27t41.5 -18.5t53.5 -7q63 0 90 22t27 55q0 13 -5.5 25.5t-20.5 22t-41 15t-67 5.5h-64v62h61q57 0 88 18t31 44q0 10 -4 20.5t-14.5 18.5t-28.5 13t-45 5q-51 0 -75 -18.5t-24 -39.5h-95zM859 700h117
l-594 -700h-117zM885 167l19 253l-189 -253h170z" />
    <glyph glyph-name="questiondown" unicode="&#xbf;" horiz-adv-x="611" 
d="M556 113q7 -36 -6.5 -74t-46.5 -69t-85 -50.5t-121 -19.5q-62 0 -111 17.5t-82.5 46t-50 66t-14.5 78.5q2 46 21.5 76t47 50.5t58.5 34.5t57 29t42.5 33.5t13.5 48.5h97q6 -48 -5.5 -78t-33 -50.5t-48.5 -34t-51.5 -27.5t-42.5 -32t-21 -47q-1 -22 8.5 -41t27.5 -33.5
t43 -22.5t56 -8q38 0 65 10.5t43 26.5t22 35t2 35h115zM244 527q0 28 21.5 50.5t62.5 22.5q39 0 61 -22.5t22 -50.5q0 -27 -21.5 -49t-61.5 -22q-41 0 -62.5 22t-21.5 49z" />
    <glyph glyph-name="Agrave" unicode="&#xc0;" horiz-adv-x="839" 
d="M263 931l280 -257l-46 -66l350 -609h-170l-68 121l-186 -43l-193 42l-67 -120h-171l392 685l-201 143zM264 181h312l-156 280z" />
    <glyph glyph-name="Aacute" unicode="&#xc1;" horiz-adv-x="839" 
d="M628 828l-175 -142l394 -687h-170l-68 121l-186 -43l-193 42l-67 -120h-171l339 592l-53 57l262 277zM264 181h312l-156 280z" />
    <glyph glyph-name="Acircumflex" unicode="&#xc2;" horiz-adv-x="839" 
d="M847 -1h-170l-68 121l-186 -43l-193 42l-67 -120h-171l427 746zM369 918h100l180 -222h-132l-99 106l-97 -106h-132zM264 181h312l-156 280z" />
    <glyph glyph-name="Atilde" unicode="&#xc3;" horiz-adv-x="839" 
d="M639 939q22 -49 23 -93t-15.5 -77.5t-48 -53.5t-74.5 -20q-32 0 -55.5 10t-41.5 25l420 -731h-170l-68 121l-186 -43l-193 42l-67 -120h-171l424 741q-15 15 -27 30.5t-23.5 28t-23.5 21t-27 8.5q-34 0 -34 -37.5t36 -95.5h-117q-23 53 -23 97.5t17.5 77t48.5 51t72 18.5
q32 0 56 -10t42.5 -24.5t33 -32t27.5 -32t25.5 -24.5t27.5 -10t21.5 12t6 31t-8.5 42.5t-22 47.5h115zM264 181h312l-156 280z" />
    <glyph glyph-name="Adieresis" unicode="&#xc4;" horiz-adv-x="839" 
d="M847 -1h-170l-68 121l-186 -43l-193 42l-67 -120h-171l427 746zM264 181h312l-156 280zM346 818q0 -32 -22 -57.5t-61 -25.5q-19 0 -34.5 7t-26 18.5t-16 26.5t-5.5 31q0 32 21 57.5t61 25.5q39 0 61 -25.5t22 -57.5zM657 818q0 -32 -22 -57.5t-61 -25.5q-19 0 -34.5 7
t-26 18.5t-16 26.5t-5.5 31q0 32 21 57.5t61 25.5q39 0 61 -25.5t22 -57.5z" />
    <glyph glyph-name="Aring" unicode="&#xc5;" horiz-adv-x="839" 
d="M419 924q34 0 64 -13t52.5 -35.5t35.5 -52.5t13 -64q0 -48 -24.5 -87t-64.5 -60l352 -613h-170l-68 121l-186 -43l-193 42l-67 -120h-171l351 613q-40 21 -64.5 60t-24.5 87q0 34 13 64t35.5 52.5t52.5 35.5t64 13zM264 181h312l-156 280zM449 693q19 9 31 26.5t12 39.5
q0 30 -22 52t-51 22t-51 -22t-22 -52q0 -22 12 -39.5t31 -26.5l30 52z" />
    <glyph glyph-name="AE" unicode="&#xc6;" horiz-adv-x="1220" 
d="M757 562v-173h339v-93h-339v-173h430v-125h-576v117h-308l-99 -116h-189l596 689h576v-125zM611 202v271l-233 -271h233z" />
    <glyph glyph-name="Ccedilla" unicode="&#xc7;" 
d="M179 343q0 -55 20 -98.5t53.5 -73.5t76.5 -46.5t88 -17.5q37 -1 72.5 8t66.5 29.5t55 52t37 74.5l140 -40q-17 -57 -50.5 -106t-79 -85t-101.5 -58t-117 -25l-16 -42q41 2 70.5 -8t48.5 -27t28 -39.5t9 -46.5q0 -41 -21 -73t-62 -47.5t-101.5 -12t-139.5 34.5v62
q53 -14 90 -16.5t60 4.5t33.5 20.5t10.5 31.5q0 27 -32 42t-104 4v52l33 67q-67 12 -124.5 46.5t-100 84.5t-66.5 113.5t-24 134.5q0 80 30.5 150.5t83 123t122.5 83t150 30.5q65 0 124.5 -20.5t108 -57.5t84 -87t53.5 -110l-140 -39q-12 36 -34 67t-52 53.5t-66.5 35
t-76.5 12.5q-47 0 -90.5 -18t-76.5 -50t-53 -76t-20 -96z" />
    <glyph glyph-name="Egrave" unicode="&#xc8;" horiz-adv-x="661" 
d="M230 939l273 -251h115v-125l-430 -1v-173h339v-93h-339v-173h430v-125h-576v690h316l-208 147z" />
    <glyph glyph-name="Eacute" unicode="&#xc9;" horiz-adv-x="661" 
d="M521 850l-200 -162h297v-125l-430 -1v-173h339v-93h-339v-173h430v-125h-576v690h146l245 259z" />
    <glyph glyph-name="Ecircumflex" unicode="&#xca;" horiz-adv-x="661" 
d="M188 562v-173h339v-93h-339v-173h430v-125h-576v690h576v-125zM280 934h101l180 -229h-132l-99 109l-98 -109h-132z" />
    <glyph glyph-name="Edieresis" unicode="&#xcb;" horiz-adv-x="661" 
d="M568 743q0 -32 -20 -55h70v-125l-430 -1v-173h339v-93h-339v-173h430v-125h-576v690h70q-20 23 -20 55t21 57.5t61 25.5q39 0 61 -25.5t22 -57.5t-20 -55h186q-20 23 -20 55t21 57.5t61 25.5q39 0 61 -25.5t22 -57.5z" />
    <glyph glyph-name="Igrave" unicode="&#xcc;" horiz-adv-x="230" 
d="M42 -2v690h63l-212 150l80 104l280 -257l-47 -68l-18 12v-631h-146z" />
    <glyph glyph-name="Iacute" unicode="&#xcd;" horiz-adv-x="230" 
d="M352 877l-234 -189h70v-690h-146v656l-40 43l262 277z" />
    <glyph glyph-name="Icircumflex" unicode="&#xce;" horiz-adv-x="230" 
d="M42 -2v690h146v-690h-146zM65 901h101l180 -229h-132l-99 109l-98 -109h-132z" />
    <glyph glyph-name="Idieresis" unicode="&#xcf;" horiz-adv-x="230" 
d="M42 -2v690h146v-690h-146zM42 788q0 -32 -22 -57.5t-61 -25.5q-19 0 -34.5 7t-26 18.5t-16 26.5t-5.5 31q0 32 21 57.5t61 25.5q39 0 61 -25.5t22 -57.5zM353 788q0 -32 -22 -57.5t-61 -25.5q-19 0 -34.5 7t-26 18.5t-16 26.5t-5.5 31q0 32 21 57.5t61 25.5
q39 0 61 -25.5t22 -57.5z" />
    <glyph glyph-name="Eth" unicode="&#xd0;" horiz-adv-x="762" 
d="M374 688q71 0 134 -27t110 -74t74 -110t27 -134t-27 -134t-74 -110t-110 -74t-134 -27h-332v309h-87v80h87v301h332zM374 128q44 0 83 16.5t68.5 46t46.5 68.5t17 83t-17 83t-46.5 68.5t-68.5 46.5t-83 17h-191v-170h152v-80h-152v-178z" />
    <glyph glyph-name="Ntilde" unicode="&#xd1;" 
d="M779 688v-768l-591 540v-461h-146v764l592 -540v465h145zM630 928q22 -49 23 -93t-15.5 -77.5t-48 -53.5t-74.5 -20q-31 0 -54.5 10t-41 24.5t-31.5 32t-27 32t-26 24.5t-29 10q-34 0 -34 -37.5t36 -95.5h-117q-23 53 -23 97.5t17.5 77t48.5 51t72 18.5q32 0 56 -10
t42.5 -24.5t33 -32t27.5 -32t25.5 -24.5t27.5 -10t21.5 12t6 31t-8.5 42.5t-22 47.5h115z" />
    <glyph glyph-name="Ograve" unicode="&#xd2;" horiz-adv-x="838" 
d="M292 947l264 -243q54 -21 100 -56.5t79 -82.5t51.5 -103.5t18.5 -118.5q0 -80 -30.5 -150t-83 -122.5t-122.5 -83t-150 -30.5t-150.5 30.5t-123 83t-83 122.5t-30.5 150q0 75 26.5 141t72.5 117.5t109 84.5t135 41l-163 116zM419 102q49 0 93 19t76.5 51.5t51.5 76.5
t19 94q0 49 -19 93t-51.5 76.5t-76.5 51.5t-93 19q-50 0 -94 -19t-76.5 -51.5t-51.5 -76.5t-19 -93q0 -50 19 -94t51.5 -76.5t76.5 -51.5t94 -19z" />
    <glyph glyph-name="Oacute" unicode="&#xd3;" horiz-adv-x="838" 
d="M611 865l-168 -136q76 -5 142 -37t115 -83.5t77 -120t28 -145.5q0 -80 -30.5 -150t-83 -122.5t-122.5 -83t-150 -30.5t-150.5 30.5t-123 83t-83 122.5t-30.5 150q0 61 18 117.5t51 103t78 82.5t99 57l245 259zM419 102q49 0 93 19t76.5 51.5t51.5 76.5t19 94q0 49 -19 93
t-51.5 76.5t-76.5 51.5t-93 19q-50 0 -94 -19t-76.5 -51.5t-51.5 -76.5t-19 -93q0 -50 19 -94t51.5 -76.5t76.5 -51.5t94 -19z" />
    <glyph glyph-name="Ocircumflex" unicode="&#xd4;" horiz-adv-x="838" 
d="M419 730q80 0 150 -30.5t122.5 -83t83 -123t30.5 -150.5t-30.5 -150t-83 -122.5t-122.5 -83t-150 -30.5t-150.5 30.5t-123 83t-83 122.5t-30.5 150t30.5 150.5t83 123t123 83t150.5 30.5zM419 102q49 0 93 19t76.5 51.5t51.5 76.5t19 94q0 49 -19 93t-51.5 76.5
t-76.5 51.5t-93 19q-50 0 -94 -19t-76.5 -51.5t-51.5 -76.5t-19 -93q0 -50 19 -94t51.5 -76.5t76.5 -51.5t94 -19zM368 965h101l180 -229h-132l-99 109l-98 -109h-132z" />
    <glyph glyph-name="Otilde" unicode="&#xd5;" horiz-adv-x="838" 
d="M419 730q80 0 150 -30.5t122.5 -83t83 -123t30.5 -150.5t-30.5 -150t-83 -122.5t-122.5 -83t-150 -30.5t-150.5 30.5t-123 83t-83 122.5t-30.5 150t30.5 150.5t83 123t123 83t150.5 30.5zM419 102q49 0 93 19t76.5 51.5t51.5 76.5t19 94q0 49 -19 93t-51.5 76.5
t-76.5 51.5t-93 19q-50 0 -94 -19t-76.5 -51.5t-51.5 -76.5t-19 -93q0 -50 19 -94t51.5 -76.5t76.5 -51.5t94 -19zM646 973q22 -49 23 -93t-15.5 -77.5t-48 -53.5t-74.5 -20q-31 0 -54.5 10t-41 24.5t-31.5 32t-27 32t-26 24.5t-29 10q-34 0 -34 -37.5t36 -95.5h-117
q-23 53 -23 97.5t17.5 77t48.5 51t72 18.5q32 0 56 -10t42.5 -24.5t33 -32t27.5 -32t25.5 -24.5t27.5 -10t21.5 12t6 31t-8.5 42.5t-22 47.5h115z" />
    <glyph glyph-name="Odieresis" unicode="&#xd6;" horiz-adv-x="838" 
d="M345 761q0 -20 -10 -40q40 9 84 9q42 0 83 -9q-10 17 -10 40q0 32 21 57.5t61 25.5q39 0 61 -25.5t22 -57.5q0 -26 -14 -47.5t-40 -30.5q45 -25 82 -60.5t64 -79t41.5 -94.5t14.5 -106q0 -80 -30.5 -150t-83 -122.5t-122.5 -83t-150 -30.5t-150.5 30.5t-123 83t-83 122.5
t-30.5 150q0 55 14.5 105.5t41 94.5t63.5 79.5t82 59.5q-26 9 -39.5 31t-13.5 48q0 32 21 57.5t61 25.5q39 0 61 -25.5t22 -57.5zM419 102q49 0 93 19t76.5 51.5t51.5 76.5t19 94q0 49 -19 93t-51.5 76.5t-76.5 51.5t-93 19q-50 0 -94 -19t-76.5 -51.5t-51.5 -76.5t-19 -93
q0 -50 19 -94t51.5 -76.5t76.5 -51.5t94 -19z" />
    <glyph glyph-name="multiply" unicode="&#xd7;" horiz-adv-x="616" 
d="M387 344l184 -180l-84 -81l-179 182l-182 -182l-81 88l179 179l-179 181l78 74l179 -177l177 177l88 -81z" />
    <glyph glyph-name="Oslash" unicode="&#xd8;" horiz-adv-x="838" 
d="M419 730q29 0 57 -4t54 -12l44 81l131 -63l-49 -84q68 -54 108.5 -132.5t40.5 -172.5q0 -80 -30.5 -150t-83 -122.5t-122.5 -83t-150 -30.5q-52 0 -102 14l-44 -86l-132 52l49 95q-72 53 -115 133.5t-43 177.5q0 80 30.5 150.5t83 123t123 83t150.5 30.5zM419 102
q49 0 93 19t76.5 51.5t51.5 76.5t19 94q0 49 -19 93t-51.5 76.5t-76.5 51.5t-93 19q-50 0 -94 -19t-76.5 -51.5t-51.5 -76.5t-19 -93q0 -50 19 -94t51.5 -76.5t76.5 -51.5t94 -19z" />
    <glyph glyph-name="Ugrave" unicode="&#xd9;" horiz-adv-x="783" 
d="M740 688v-351q0 -72 -27.5 -135.5t-74.5 -111t-111 -75t-136 -27.5t-135.5 27.5t-111 75t-75 111t-27.5 135.5v351h146v-351q0 -42 16 -79t43.5 -65t65 -44t79.5 -16t79 16t64.5 44t43.5 65t16 79v351h145zM277 959l280 -257l-47 -68l-313 221z" />
    <glyph glyph-name="Uacute" unicode="&#xda;" horiz-adv-x="783" 
d="M740 688v-351q0 -72 -27.5 -135.5t-74.5 -111t-111 -75t-136 -27.5t-135.5 27.5t-111 75t-75 111t-27.5 135.5v351h146v-351q0 -42 16 -79t43.5 -65t65 -44t79.5 -16t79 16t64.5 44t43.5 65t16 79v351h145zM592 876l-295 -239l-55 59l262 277z" />
    <glyph glyph-name="Ucircumflex" unicode="&#xdb;" horiz-adv-x="783" 
d="M740 688v-351q0 -72 -27.5 -135.5t-74.5 -111t-111 -75t-136 -27.5t-135.5 27.5t-111 75t-75 111t-27.5 135.5v351h146v-351q0 -42 16 -79t43.5 -65t65 -44t79.5 -16t79 16t64.5 44t43.5 65t16 79v351h145zM341 953h101l180 -229h-132l-99 109l-98 -109h-132z" />
    <glyph glyph-name="Udieresis" unicode="&#xdc;" horiz-adv-x="783" 
d="M740 688v-351q0 -72 -27.5 -135.5t-74.5 -111t-111 -75t-136 -27.5t-135.5 27.5t-111 75t-75 111t-27.5 135.5v351h146v-351q0 -42 16 -79t43.5 -65t65 -44t79.5 -16t79 16t64.5 44t43.5 65t16 79v351h145zM318 818q0 -32 -22 -57.5t-61 -25.5q-19 0 -34.5 7t-26 18.5
t-16 26.5t-5.5 31q0 32 21 57.5t61 25.5q39 0 61 -25.5t22 -57.5zM629 818q0 -32 -22 -57.5t-61 -25.5q-19 0 -34.5 7t-26 18.5t-16 26.5t-5.5 31q0 32 21 57.5t61 25.5q39 0 61 -25.5t22 -57.5z" />
    <glyph glyph-name="Yacute" unicode="&#xdd;" horiz-adv-x="816" 
d="M481 292v-293h-145v293l-343 342l103 103l313 -312l312 312l103 -103zM600 871l-295 -239l-55 59l262 277z" />
    <glyph glyph-name="Thorn" unicode="&#xde;" horiz-adv-x="746" 
d="M451 601q53 0 99 -20t79.5 -54t53 -79.5t19.5 -97.5t-19.5 -97.5t-53.5 -79.5t-80 -53.5t-98 -19.5h-263v-102h-146v690h146v-87h263zM425 221q26 0 49 10t40.5 27t27.5 40.5t10 49.5q0 127 -139 127h-225v-253h137h70.5t26 -0.5z" />
    <glyph glyph-name="germandbls" unicode="&#xdf;" horiz-adv-x="752" 
d="M173 -2h-131v480q0 43 15 83t45.5 71t76 49.5t106.5 18.5q49 0 87.5 -12t65.5 -32.5t43 -47t19 -55.5q5 -22 0.5 -46.5t-15.5 -43.5q49 -2 90.5 -21t71 -49.5t46 -71t16.5 -86.5q0 -50 -19 -93.5t-52 -75.5t-77 -50t-93 -18h-178v125h157q26 0 48.5 10.5t39.5 28t27 41
t10 49.5q0 25 -10 48.5t-27 41t-39.5 28t-48.5 10.5h-166v77h49q25 0 40 14t15 37q0 12 -5.5 24.5t-18 22.5t-33 16.5t-50.5 6.5q-25 0 -44.5 -9t-33 -23t-20.5 -31.5t-7 -34.5v-482z" />
    <glyph glyph-name="agrave" unicode="&#xe0;" horiz-adv-x="839" 
d="M263 931l280 -257l-46 -66l350 -609h-170l-68 121l-186 -43l-193 42l-67 -120h-171l392 685l-201 143zM264 181h312l-156 280z" />
    <glyph glyph-name="aacute" unicode="&#xe1;" horiz-adv-x="839" 
d="M628 828l-175 -142l394 -687h-170l-68 121l-186 -43l-193 42l-67 -120h-171l339 592l-53 57l262 277zM264 181h312l-156 280z" />
    <glyph glyph-name="acircumflex" unicode="&#xe2;" horiz-adv-x="839" 
d="M847 -1h-170l-68 121l-186 -43l-193 42l-67 -120h-171l427 746zM369 918h100l180 -222h-132l-99 106l-97 -106h-132zM264 181h312l-156 280z" />
    <glyph glyph-name="atilde" unicode="&#xe3;" horiz-adv-x="839" 
d="M639 939q22 -49 23 -93t-15.5 -77.5t-48 -53.5t-74.5 -20q-32 0 -55.5 10t-41.5 25l420 -731h-170l-68 121l-186 -43l-193 42l-67 -120h-171l424 741q-15 15 -27 30.5t-23.5 28t-23.5 21t-27 8.5q-34 0 -34 -37.5t36 -95.5h-117q-23 53 -23 97.5t17.5 77t48.5 51t72 18.5
q32 0 56 -10t42.5 -24.5t33 -32t27.5 -32t25.5 -24.5t27.5 -10t21.5 12t6 31t-8.5 42.5t-22 47.5h115zM264 181h312l-156 280z" />
    <glyph glyph-name="adieresis" unicode="&#xe4;" horiz-adv-x="839" 
d="M847 -1h-170l-68 121l-186 -43l-193 42l-67 -120h-171l427 746zM264 181h312l-156 280zM346 818q0 -32 -22 -57.5t-61 -25.5q-19 0 -34.5 7t-26 18.5t-16 26.5t-5.5 31q0 32 21 57.5t61 25.5q39 0 61 -25.5t22 -57.5zM657 818q0 -32 -22 -57.5t-61 -25.5q-19 0 -34.5 7
t-26 18.5t-16 26.5t-5.5 31q0 32 21 57.5t61 25.5q39 0 61 -25.5t22 -57.5z" />
    <glyph glyph-name="aring" unicode="&#xe5;" horiz-adv-x="839" 
d="M419 924q34 0 64 -13t52.5 -35.5t35.5 -52.5t13 -64q0 -48 -24.5 -87t-64.5 -60l352 -613h-170l-68 121l-186 -43l-193 42l-67 -120h-171l351 613q-40 21 -64.5 60t-24.5 87q0 34 13 64t35.5 52.5t52.5 35.5t64 13zM264 181h312l-156 280zM449 693q19 9 31 26.5t12 39.5
q0 30 -22 52t-51 22t-51 -22t-22 -52q0 -22 12 -39.5t31 -26.5l30 52z" />
    <glyph glyph-name="ae" unicode="&#xe6;" horiz-adv-x="1220" 
d="M757 562v-173h339v-93h-339v-173h430v-125h-576v117h-308l-99 -116h-189l596 689h576v-125zM611 202v271l-233 -271h233z" />
    <glyph glyph-name="ccedilla" unicode="&#xe7;" 
d="M179 343q0 -55 20 -98.5t53.5 -73.5t76.5 -46.5t88 -17.5q37 -1 72.5 8t66.5 29.5t55 52t37 74.5l140 -40q-17 -57 -50.5 -106t-79 -85t-101.5 -58t-117 -25l-16 -42q41 2 70.5 -8t48.5 -27t28 -39.5t9 -46.5q0 -41 -21 -73t-62 -47.5t-101.5 -12t-139.5 34.5v62
q53 -14 90 -16.5t60 4.5t33.5 20.5t10.5 31.5q0 27 -32 42t-104 4v52l33 67q-67 12 -124.5 46.5t-100 84.5t-66.5 113.5t-24 134.5q0 80 30.5 150.5t83 123t122.5 83t150 30.5q65 0 124.5 -20.5t108 -57.5t84 -87t53.5 -110l-140 -39q-12 36 -34 67t-52 53.5t-66.5 35
t-76.5 12.5q-47 0 -90.5 -18t-76.5 -50t-53 -76t-20 -96z" />
    <glyph glyph-name="egrave" unicode="&#xe8;" horiz-adv-x="661" 
d="M230 939l273 -251h115v-125l-430 -1v-173h339v-93h-339v-173h430v-125h-576v690h316l-208 147z" />
    <glyph glyph-name="eacute" unicode="&#xe9;" horiz-adv-x="661" 
d="M521 850l-200 -162h297v-125l-430 -1v-173h339v-93h-339v-173h430v-125h-576v690h146l245 259z" />
    <glyph glyph-name="ecircumflex" unicode="&#xea;" horiz-adv-x="661" 
d="M188 562v-173h339v-93h-339v-173h430v-125h-576v690h576v-125zM280 934h101l180 -229h-132l-99 109l-98 -109h-132z" />
    <glyph glyph-name="edieresis" unicode="&#xeb;" horiz-adv-x="661" 
d="M568 743q0 -32 -20 -55h70v-125l-430 -1v-173h339v-93h-339v-173h430v-125h-576v690h70q-20 23 -20 55t21 57.5t61 25.5q39 0 61 -25.5t22 -57.5t-20 -55h186q-20 23 -20 55t21 57.5t61 25.5q39 0 61 -25.5t22 -57.5z" />
    <glyph glyph-name="igrave" unicode="&#xec;" horiz-adv-x="230" 
d="M42 -2v690h63l-212 150l80 104l280 -257l-47 -68l-18 12v-631h-146z" />
    <glyph glyph-name="iacute" unicode="&#xed;" horiz-adv-x="230" 
d="M352 877l-234 -189h70v-690h-146v656l-40 43l262 277z" />
    <glyph glyph-name="icircumflex" unicode="&#xee;" horiz-adv-x="230" 
d="M42 -2v690h146v-690h-146zM65 901h101l180 -229h-132l-99 109l-98 -109h-132z" />
    <glyph glyph-name="idieresis" unicode="&#xef;" horiz-adv-x="230" 
d="M42 -2v690h146v-690h-146zM42 788q0 -32 -22 -57.5t-61 -25.5q-19 0 -34.5 7t-26 18.5t-16 26.5t-5.5 31q0 32 21 57.5t61 25.5q39 0 61 -25.5t22 -57.5zM353 788q0 -32 -22 -57.5t-61 -25.5q-19 0 -34.5 7t-26 18.5t-16 26.5t-5.5 31q0 32 21 57.5t61 25.5
q39 0 61 -25.5t22 -57.5z" />
    <glyph glyph-name="eth" unicode="&#xf0;" horiz-adv-x="762" 
d="M374 688q71 0 134 -27t110 -74t74 -110t27 -134t-27 -134t-74 -110t-110 -74t-134 -27h-332v309h-87v80h87v301h332zM374 128q44 0 83 16.5t68.5 46t46.5 68.5t17 83t-17 83t-46.5 68.5t-68.5 46.5t-83 17h-191v-170h152v-80h-152v-178z" />
    <glyph glyph-name="ntilde" unicode="&#xf1;" 
d="M779 688v-768l-591 540v-461h-146v764l592 -540v465h145zM630 928q22 -49 23 -93t-15.5 -77.5t-48 -53.5t-74.5 -20q-31 0 -54.5 10t-41 24.5t-31.5 32t-27 32t-26 24.5t-29 10q-34 0 -34 -37.5t36 -95.5h-117q-23 53 -23 97.5t17.5 77t48.5 51t72 18.5q32 0 56 -10
t42.5 -24.5t33 -32t27.5 -32t25.5 -24.5t27.5 -10t21.5 12t6 31t-8.5 42.5t-22 47.5h115z" />
    <glyph glyph-name="ograve" unicode="&#xf2;" horiz-adv-x="838" 
d="M292 947l264 -243q54 -21 100 -56.5t79 -82.5t51.5 -103.5t18.5 -118.5q0 -80 -30.5 -150t-83 -122.5t-122.5 -83t-150 -30.5t-150.5 30.5t-123 83t-83 122.5t-30.5 150q0 75 26.5 141t72.5 117.5t109 84.5t135 41l-163 116zM419 102q49 0 93 19t76.5 51.5t51.5 76.5
t19 94q0 49 -19 93t-51.5 76.5t-76.5 51.5t-93 19q-50 0 -94 -19t-76.5 -51.5t-51.5 -76.5t-19 -93q0 -50 19 -94t51.5 -76.5t76.5 -51.5t94 -19z" />
    <glyph glyph-name="oacute" unicode="&#xf3;" horiz-adv-x="838" 
d="M611 865l-168 -136q76 -5 142 -37t115 -83.5t77 -120t28 -145.5q0 -80 -30.5 -150t-83 -122.5t-122.5 -83t-150 -30.5t-150.5 30.5t-123 83t-83 122.5t-30.5 150q0 61 18 117.5t51 103t78 82.5t99 57l245 259zM419 102q49 0 93 19t76.5 51.5t51.5 76.5t19 94q0 49 -19 93
t-51.5 76.5t-76.5 51.5t-93 19q-50 0 -94 -19t-76.5 -51.5t-51.5 -76.5t-19 -93q0 -50 19 -94t51.5 -76.5t76.5 -51.5t94 -19z" />
    <glyph glyph-name="ocircumflex" unicode="&#xf4;" horiz-adv-x="838" 
d="M419 730q80 0 150 -30.5t122.5 -83t83 -123t30.5 -150.5t-30.5 -150t-83 -122.5t-122.5 -83t-150 -30.5t-150.5 30.5t-123 83t-83 122.5t-30.5 150t30.5 150.5t83 123t123 83t150.5 30.5zM419 102q49 0 93 19t76.5 51.5t51.5 76.5t19 94q0 49 -19 93t-51.5 76.5
t-76.5 51.5t-93 19q-50 0 -94 -19t-76.5 -51.5t-51.5 -76.5t-19 -93q0 -50 19 -94t51.5 -76.5t76.5 -51.5t94 -19zM368 965h101l180 -229h-132l-99 109l-98 -109h-132z" />
    <glyph glyph-name="otilde" unicode="&#xf5;" horiz-adv-x="838" 
d="M419 730q80 0 150 -30.5t122.5 -83t83 -123t30.5 -150.5t-30.5 -150t-83 -122.5t-122.5 -83t-150 -30.5t-150.5 30.5t-123 83t-83 122.5t-30.5 150t30.5 150.5t83 123t123 83t150.5 30.5zM419 102q49 0 93 19t76.5 51.5t51.5 76.5t19 94q0 49 -19 93t-51.5 76.5
t-76.5 51.5t-93 19q-50 0 -94 -19t-76.5 -51.5t-51.5 -76.5t-19 -93q0 -50 19 -94t51.5 -76.5t76.5 -51.5t94 -19zM646 973q22 -49 23 -93t-15.5 -77.5t-48 -53.5t-74.5 -20q-31 0 -54.5 10t-41 24.5t-31.5 32t-27 32t-26 24.5t-29 10q-34 0 -34 -37.5t36 -95.5h-117
q-23 53 -23 97.5t17.5 77t48.5 51t72 18.5q32 0 56 -10t42.5 -24.5t33 -32t27.5 -32t25.5 -24.5t27.5 -10t21.5 12t6 31t-8.5 42.5t-22 47.5h115z" />
    <glyph glyph-name="odieresis" unicode="&#xf6;" horiz-adv-x="838" 
d="M345 761q0 -20 -10 -40q40 9 84 9q42 0 83 -9q-10 17 -10 40q0 32 21 57.5t61 25.5q39 0 61 -25.5t22 -57.5q0 -26 -14 -47.5t-40 -30.5q45 -25 82 -60.5t64 -79t41.5 -94.5t14.5 -106q0 -80 -30.5 -150t-83 -122.5t-122.5 -83t-150 -30.5t-150.5 30.5t-123 83t-83 122.5
t-30.5 150q0 55 14.5 105.5t41 94.5t63.5 79.5t82 59.5q-26 9 -39.5 31t-13.5 48q0 32 21 57.5t61 25.5q39 0 61 -25.5t22 -57.5zM419 102q49 0 93 19t76.5 51.5t51.5 76.5t19 94q0 49 -19 93t-51.5 76.5t-76.5 51.5t-93 19q-50 0 -94 -19t-76.5 -51.5t-51.5 -76.5t-19 -93
q0 -50 19 -94t51.5 -76.5t76.5 -51.5t94 -19z" />
    <glyph glyph-name="divide" unicode="&#xf7;" horiz-adv-x="330" 
d="M-109 295v111h548v-111h-548zM247 164q0 -32 -22 -57.5t-61 -25.5q-19 0 -34.5 7t-26 18.5t-16 26.5t-5.5 31q0 32 21 57.5t61 25.5q39 0 61 -25.5t22 -57.5zM247 536q0 -32 -22 -57.5t-61 -25.5q-19 0 -34.5 7t-26 18.5t-16 26.5t-5.5 31q0 32 21 57.5t61 25.5
q39 0 61 -25.5t22 -57.5z" />
    <glyph glyph-name="oslash" unicode="&#xf8;" horiz-adv-x="838" 
d="M419 730q29 0 57 -4t54 -12l44 81l131 -63l-49 -84q68 -54 108.5 -132.5t40.5 -172.5q0 -80 -30.5 -150t-83 -122.5t-122.5 -83t-150 -30.5q-52 0 -102 14l-44 -86l-132 52l49 95q-72 53 -115 133.5t-43 177.5q0 80 30.5 150.5t83 123t123 83t150.5 30.5zM419 102
q49 0 93 19t76.5 51.5t51.5 76.5t19 94q0 49 -19 93t-51.5 76.5t-76.5 51.5t-93 19q-50 0 -94 -19t-76.5 -51.5t-51.5 -76.5t-19 -93q0 -50 19 -94t51.5 -76.5t76.5 -51.5t94 -19z" />
    <glyph glyph-name="ugrave" unicode="&#xf9;" horiz-adv-x="783" 
d="M740 688v-351q0 -72 -27.5 -135.5t-74.5 -111t-111 -75t-136 -27.5t-135.5 27.5t-111 75t-75 111t-27.5 135.5v351h146v-351q0 -42 16 -79t43.5 -65t65 -44t79.5 -16t79 16t64.5 44t43.5 65t16 79v351h145zM277 959l280 -257l-47 -68l-313 221z" />
    <glyph glyph-name="uacute" unicode="&#xfa;" horiz-adv-x="783" 
d="M740 688v-351q0 -72 -27.5 -135.5t-74.5 -111t-111 -75t-136 -27.5t-135.5 27.5t-111 75t-75 111t-27.5 135.5v351h146v-351q0 -42 16 -79t43.5 -65t65 -44t79.5 -16t79 16t64.5 44t43.5 65t16 79v351h145zM592 876l-295 -239l-55 59l262 277z" />
    <glyph glyph-name="ucircumflex" unicode="&#xfb;" horiz-adv-x="783" 
d="M740 688v-351q0 -72 -27.5 -135.5t-74.5 -111t-111 -75t-136 -27.5t-135.5 27.5t-111 75t-75 111t-27.5 135.5v351h146v-351q0 -42 16 -79t43.5 -65t65 -44t79.5 -16t79 16t64.5 44t43.5 65t16 79v351h145zM341 953h101l180 -229h-132l-99 109l-98 -109h-132z" />
    <glyph glyph-name="udieresis" unicode="&#xfc;" horiz-adv-x="783" 
d="M740 688v-351q0 -72 -27.5 -135.5t-74.5 -111t-111 -75t-136 -27.5t-135.5 27.5t-111 75t-75 111t-27.5 135.5v351h146v-351q0 -42 16 -79t43.5 -65t65 -44t79.5 -16t79 16t64.5 44t43.5 65t16 79v351h145zM318 818q0 -32 -22 -57.5t-61 -25.5q-19 0 -34.5 7t-26 18.5
t-16 26.5t-5.5 31q0 32 21 57.5t61 25.5q39 0 61 -25.5t22 -57.5zM629 818q0 -32 -22 -57.5t-61 -25.5q-19 0 -34.5 7t-26 18.5t-16 26.5t-5.5 31q0 32 21 57.5t61 25.5q39 0 61 -25.5t22 -57.5z" />
    <glyph glyph-name="yacute" unicode="&#xfd;" horiz-adv-x="816" 
d="M481 292v-293h-145v293l-343 342l103 103l313 -312l312 312l103 -103zM600 871l-295 -239l-55 59l262 277z" />
    <glyph glyph-name="thorn" unicode="&#xfe;" horiz-adv-x="746" 
d="M451 601q53 0 99 -20t79.5 -54t53 -79.5t19.5 -97.5t-19.5 -97.5t-53.5 -79.5t-80 -53.5t-98 -19.5h-263v-102h-146v690h146v-87h263zM425 221q26 0 49 10t40.5 27t27.5 40.5t10 49.5q0 127 -139 127h-225v-253h137h70.5t26 -0.5z" />
    <glyph glyph-name="ydieresis" unicode="&#xff;" horiz-adv-x="816" 
d="M481 292v-293h-145v293l-343 342l103 103l313 -312l312 312l103 -103zM337 803q0 -32 -22 -57.5t-61 -25.5q-19 0 -34.5 7t-26 18.5t-16 26.5t-5.5 31q0 32 21 57.5t61 25.5q39 0 61 -25.5t22 -57.5zM643 803q0 -32 -22 -57.5t-61 -25.5q-19 0 -34.5 7t-26 18.5t-16 26.5
t-5.5 31q0 32 21 57.5t61 25.5q39 0 61 -25.5t22 -57.5z" />
    <glyph glyph-name="Amacron" unicode="&#x100;" horiz-adv-x="839" 
d="M445 699l402 -700h-170l-68 121l-186 -43l-193 42l-67 -120h-171l400 700h-180v100h415v-100h-182zM264 181h312l-156 280z" />
    <glyph glyph-name="amacron" unicode="&#x101;" horiz-adv-x="839" 
d="M445 699l402 -700h-170l-68 121l-186 -43l-193 42l-67 -120h-171l400 700h-180v100h415v-100h-182zM264 181h312l-156 280z" />
    <glyph glyph-name="Abreve" unicode="&#x102;" horiz-adv-x="839" 
d="M654 887q25 -92 -20.5 -151.5t-169.5 -69.5l383 -667h-170l-68 121l-186 -43l-193 42l-67 -120h-171l382 668q-121 10 -167.5 69.5t-15.5 150.5h126q-34 -116 102 -116q74 0 98.5 28t11.5 88h125zM264 181h312l-156 280z" />
    <glyph glyph-name="abreve" unicode="&#x103;" horiz-adv-x="839" 
d="M654 887q25 -92 -20.5 -151.5t-169.5 -69.5l383 -667h-170l-68 121l-186 -43l-193 42l-67 -120h-171l382 668q-121 10 -167.5 69.5t-15.5 150.5h126q-34 -116 102 -116q74 0 98.5 28t11.5 88h125zM264 181h312l-156 280z" />
    <glyph glyph-name="Aogonek" unicode="&#x104;" horiz-adv-x="839" 
d="M612 -161q0 -20 16 -34t43 -20t64 -1.5t80 21.5v-84q-72 -29 -135.5 -34.5t-111.5 8t-75.5 45t-27.5 75.5q0 42 21 69.5t52.5 47t68.5 34.5t71 33h-1l-68 121l-186 -43l-193 42l-67 -120h-171l427 746l428 -746h-36q-28 -33 -62.5 -53.5t-65 -36.5t-51 -31.5t-20.5 -38.5
zM264 181h312l-156 280z" />
    <glyph glyph-name="aogonek" unicode="&#x105;" horiz-adv-x="839" 
d="M612 -161q0 -20 16 -34t43 -20t64 -1.5t80 21.5v-84q-72 -29 -135.5 -34.5t-111.5 8t-75.5 45t-27.5 75.5q0 42 21 69.5t52.5 47t68.5 34.5t71 33h-1l-68 121l-186 -43l-193 42l-67 -120h-171l427 746l428 -746h-36q-28 -33 -62.5 -53.5t-65 -36.5t-51 -31.5t-20.5 -38.5
zM264 181h312l-156 280z" />
    <glyph glyph-name="Cacute" unicode="&#x106;" 
d="M634 872l-179 -145q59 -6 112 -28.5t96.5 -58.5t75.5 -83.5t49 -102.5l-140 -39q-12 36 -34 67t-52 53.5t-66.5 35t-76.5 12.5q-47 0 -90.5 -18t-76.5 -50t-53 -76t-20 -96q0 -55 20 -98.5t53.5 -73.5t76.5 -46.5t88 -17.5q37 -1 72.5 8t66.5 29.5t55 52t37 74.5l140 -40
q-18 -60 -53.5 -110.5t-84 -87t-108 -57t-124.5 -20.5q-80 0 -150 30.5t-122.5 83t-83 122.5t-30.5 150q0 64 20 123t56 107.5t85.5 84t108.5 54.5l244 258z" />
    <glyph glyph-name="cacute" unicode="&#x107;" 
d="M634 872l-179 -145q59 -6 112 -28.5t96.5 -58.5t75.5 -83.5t49 -102.5l-140 -39q-12 36 -34 67t-52 53.5t-66.5 35t-76.5 12.5q-47 0 -90.5 -18t-76.5 -50t-53 -76t-20 -96q0 -55 20 -98.5t53.5 -73.5t76.5 -46.5t88 -17.5q37 -1 72.5 8t66.5 29.5t55 52t37 74.5l140 -40
q-18 -60 -53.5 -110.5t-84 -87t-108 -57t-124.5 -20.5q-80 0 -150 30.5t-122.5 83t-83 122.5t-30.5 150q0 64 20 123t56 107.5t85.5 84t108.5 54.5l244 258z" />
    <glyph glyph-name="Ccircumflex" unicode="&#x108;" 
d="M179 343q0 -55 20 -98.5t53.5 -73.5t76.5 -46.5t88 -17.5q37 -1 72.5 8t66.5 29.5t55 52t37 74.5l140 -40q-18 -60 -53.5 -110.5t-84 -87t-108 -57t-124.5 -20.5q-80 0 -150 30.5t-122.5 83t-83 122.5t-30.5 150t30.5 150.5t83 123t122.5 83t150 30.5q65 0 124.5 -20.5
t108 -57.5t84 -87t53.5 -110l-140 -39q-12 36 -34 67t-52 53.5t-66.5 35t-76.5 12.5q-47 0 -90.5 -18t-76.5 -50t-53 -76t-20 -96zM381 961h101l180 -229h-132l-99 109l-98 -109h-132z" />
    <glyph glyph-name="ccircumflex" unicode="&#x109;" 
d="M179 343q0 -55 20 -98.5t53.5 -73.5t76.5 -46.5t88 -17.5q37 -1 72.5 8t66.5 29.5t55 52t37 74.5l140 -40q-18 -60 -53.5 -110.5t-84 -87t-108 -57t-124.5 -20.5q-80 0 -150 30.5t-122.5 83t-83 122.5t-30.5 150t30.5 150.5t83 123t122.5 83t150 30.5q65 0 124.5 -20.5
t108 -57.5t84 -87t53.5 -110l-140 -39q-12 36 -34 67t-52 53.5t-66.5 35t-76.5 12.5q-47 0 -90.5 -18t-76.5 -50t-53 -76t-20 -96zM381 961h101l180 -229h-132l-99 109l-98 -109h-132z" />
    <glyph glyph-name="Cdotaccent" unicode="&#x10a;" 
d="M511 784q0 -37 -26 -61q54 -10 102 -33.5t87.5 -59t68.5 -80t45 -96.5l-140 -39q-12 36 -34 67t-52 53.5t-66.5 35t-76.5 12.5q-47 0 -90.5 -18t-76.5 -50t-53 -76t-20 -96q0 -55 20 -98.5t53.5 -73.5t76.5 -46.5t88 -17.5q37 -1 72.5 8t66.5 29.5t55 52t37 74.5l140 -40
q-18 -60 -53.5 -110.5t-84 -87t-108 -57t-124.5 -20.5q-80 0 -150 30.5t-122.5 83t-83 122.5t-30.5 150q0 73 26 139t71.5 117t107 84.5t132.5 42.5q-23 25 -23 59q0 32 21 57.5t61 25.5q39 0 61 -25.5t22 -57.5z" />
    <glyph glyph-name="cdotaccent" unicode="&#x10b;" 
d="M511 784q0 -37 -26 -61q54 -10 102 -33.5t87.5 -59t68.5 -80t45 -96.5l-140 -39q-12 36 -34 67t-52 53.5t-66.5 35t-76.5 12.5q-47 0 -90.5 -18t-76.5 -50t-53 -76t-20 -96q0 -55 20 -98.5t53.5 -73.5t76.5 -46.5t88 -17.5q37 -1 72.5 8t66.5 29.5t55 52t37 74.5l140 -40
q-18 -60 -53.5 -110.5t-84 -87t-108 -57t-124.5 -20.5q-80 0 -150 30.5t-122.5 83t-83 122.5t-30.5 150q0 73 26 139t71.5 117t107 84.5t132.5 42.5q-23 25 -23 59q0 32 21 57.5t61 25.5q39 0 61 -25.5t22 -57.5z" />
    <glyph glyph-name="Ccaron" unicode="&#x10c;" 
d="M508 718q50 -12 94.5 -36.5t80.5 -59t63 -77t42 -91.5l-140 -39q-12 36 -34 67t-52 53.5t-66.5 35t-76.5 12.5q-47 0 -90.5 -18t-76.5 -50t-53 -76t-20 -96q0 -55 20 -98.5t53.5 -73.5t76.5 -46.5t88 -17.5q37 -1 72.5 8t66.5 29.5t55 52t37 74.5l140 -40
q-18 -60 -53.5 -110.5t-84 -87t-108 -57t-124.5 -20.5q-80 0 -150 30.5t-122.5 83t-83 122.5t-30.5 150q0 70 23.5 133t65 113.5t98.5 85t123 47.5l-146 186h132l99 -109l98 109h132z" />
    <glyph glyph-name="ccaron" unicode="&#x10d;" 
d="M508 718q50 -12 94.5 -36.5t80.5 -59t63 -77t42 -91.5l-140 -39q-12 36 -34 67t-52 53.5t-66.5 35t-76.5 12.5q-47 0 -90.5 -18t-76.5 -50t-53 -76t-20 -96q0 -55 20 -98.5t53.5 -73.5t76.5 -46.5t88 -17.5q37 -1 72.5 8t66.5 29.5t55 52t37 74.5l140 -40
q-18 -60 -53.5 -110.5t-84 -87t-108 -57t-124.5 -20.5q-80 0 -150 30.5t-122.5 83t-83 122.5t-30.5 150q0 70 23.5 133t65 113.5t98.5 85t123 47.5l-146 186h132l99 -109l98 109h132z" />
    <glyph glyph-name="Dcaron" unicode="&#x10e;" horiz-adv-x="762" 
d="M419 685q63 -9 118 -39t95.5 -75.5t63.5 -104t23 -123.5q0 -71 -27 -134t-74 -110t-110 -74t-134 -27h-332v690h203l-142 181h132l99 -109l98 109h132zM374 138q42 0 79.5 15.5t65.5 43.5t44 65.5t16 79.5t-16 79.5t-44 65.5t-65.5 44t-79.5 16h-191v-408z" />
    <glyph glyph-name="dcaron" unicode="&#x10f;" horiz-adv-x="762" 
d="M419 685q63 -9 118 -39t95.5 -75.5t63.5 -104t23 -123.5q0 -71 -27 -134t-74 -110t-110 -74t-134 -27h-332v690h203l-142 181h132l99 -109l98 109h132zM374 138q42 0 79.5 15.5t65.5 43.5t44 65.5t16 79.5t-16 79.5t-44 65.5t-65.5 44t-79.5 16h-191v-408z" />
    <glyph glyph-name="Dcroat" unicode="&#x110;" horiz-adv-x="762" 
d="M374 688q71 0 134 -27t110 -74t74 -110t27 -134t-27 -134t-74 -110t-110 -74t-134 -27h-332v308h-73v82h73v300h332zM374 138q42 0 79.5 15.5t65.5 43.5t44 65.5t16 79.5t-16 79.5t-44 65.5t-65.5 44t-79.5 16h-191v-159h186v-82h-186v-167z" />
    <glyph glyph-name="dcroat" unicode="&#x111;" horiz-adv-x="762" 
d="M374 688q71 0 134 -27t110 -74t74 -110t27 -134t-27 -134t-74 -110t-110 -74t-134 -27h-332v308h-73v82h73v300h332zM374 138q42 0 79.5 15.5t65.5 43.5t44 65.5t16 79.5t-16 79.5t-44 65.5t-65.5 44t-79.5 16h-191v-159h186v-82h-186v-167z" />
    <glyph glyph-name="Emacron" unicode="&#x112;" horiz-adv-x="661" 
d="M188 562v-173h339v-93h-339v-173h430v-125h-576v690h576v-125zM122 731v100h415v-100h-415z" />
    <glyph glyph-name="emacron" unicode="&#x113;" horiz-adv-x="661" 
d="M188 562v-173h339v-93h-339v-173h430v-125h-576v690h576v-125zM122 731v100h415v-100h-415z" />
    <glyph glyph-name="Edotaccent" unicode="&#x116;" horiz-adv-x="661" 
d="M412 755q0 -20 -8.5 -37.5t-24.5 -29.5h239v-125l-430 -1v-173h339v-93h-339v-173h430v-125h-576v690h237q-16 12 -24 29.5t-8 37.5q0 32 21 57.5t61 25.5q39 0 61 -25.5t22 -57.5z" />
    <glyph glyph-name="edotaccent" unicode="&#x117;" horiz-adv-x="661" 
d="M412 755q0 -20 -8.5 -37.5t-24.5 -29.5h239v-125l-430 -1v-173h339v-93h-339v-173h430v-125h-576v690h237q-16 12 -24 29.5t-8 37.5q0 32 21 57.5t61 25.5q39 0 61 -25.5t22 -57.5z" />
    <glyph glyph-name="Eogonek" unicode="&#x118;" horiz-adv-x="661" 
d="M277 -148q0 -20 16 -34t43 -20t64 -1.5t80 21.5v-84q-72 -29 -135.5 -34.5t-111.5 8t-75.5 45t-27.5 75.5q0 37 17 63t43.5 45t59 33t64.5 29h-272v690h576v-125l-430 -1v-173h339v-93h-339v-173h430v-125h-154q-28 -29 -61 -47t-61 -32.5t-46.5 -29.5t-18.5 -37z" />
    <glyph glyph-name="eogonek" unicode="&#x119;" horiz-adv-x="661" 
d="M277 -148q0 -20 16 -34t43 -20t64 -1.5t80 21.5v-84q-72 -29 -135.5 -34.5t-111.5 8t-75.5 45t-27.5 75.5q0 37 17 63t43.5 45t59 33t64.5 29h-272v690h576v-125l-430 -1v-173h339v-93h-339v-173h430v-125h-154q-28 -29 -61 -47t-61 -32.5t-46.5 -29.5t-18.5 -37z" />
    <glyph glyph-name="Ecaron" unicode="&#x11a;" horiz-adv-x="661" 
d="M426 688h192v-125l-430 -1v-173h339v-93h-339v-173h430v-125h-576v690h208l-142 181h132l99 -109l98 109h132z" />
    <glyph glyph-name="ecaron" unicode="&#x11b;" horiz-adv-x="661" 
d="M426 688h192v-125l-430 -1v-173h339v-93h-339v-173h430v-125h-576v690h208l-142 181h132l99 -109l98 109h132z" />
    <glyph glyph-name="Gcircumflex" unicode="&#x11c;" horiz-adv-x="884" 
d="M852 341q0 -20 -0.5 -40.5t-0.5 -40.5h-118q-14 -59 -46.5 -108.5t-78 -86t-101.5 -57t-119 -20.5q-74 0 -138.5 28t-113 76.5t-76.5 113t-28 138.5q0 73 28 138t76.5 113.5t113 76.5t138.5 28q60 0 115 -19.5t99 -53.5t76.5 -81t47.5 -102h-153q-26 48 -75 79t-109 31
q-44 0 -82 -16.5t-66.5 -45t-45 -66.5t-16.5 -82q0 -41 16 -79t44 -67t66 -46.5t83 -17.5q35 0 66.5 10.5t57.5 29.5t45 45t29 57h-116v65h382zM352 955h101l180 -229h-132l-99 109l-98 -109h-132z" />
    <glyph glyph-name="gcircumflex" unicode="&#x11d;" horiz-adv-x="884" 
d="M852 341q0 -20 -0.5 -40.5t-0.5 -40.5h-118q-14 -59 -46.5 -108.5t-78 -86t-101.5 -57t-119 -20.5q-74 0 -138.5 28t-113 76.5t-76.5 113t-28 138.5q0 73 28 138t76.5 113.5t113 76.5t138.5 28q60 0 115 -19.5t99 -53.5t76.5 -81t47.5 -102h-153q-26 48 -75 79t-109 31
q-44 0 -82 -16.5t-66.5 -45t-45 -66.5t-16.5 -82q0 -41 16 -79t44 -67t66 -46.5t83 -17.5q35 0 66.5 10.5t57.5 29.5t45 45t29 57h-116v65h382zM352 955h101l180 -229h-132l-99 109l-98 -109h-132z" />
    <glyph glyph-name="Gbreve" unicode="&#x11e;" horiz-adv-x="884" 
d="M629 832q17 -61 3.5 -108t-61.5 -76q57 -35 97 -87.5t58 -116.5h-153q-26 48 -75 79t-109 31q-44 0 -82 -16.5t-66.5 -45t-45 -66.5t-16.5 -82q0 -41 16 -79t44 -67t66 -46.5t83 -17.5q35 0 66.5 10.5t57.5 29.5t45 45t29 57h-116v65h382q0 -20 -0.5 -40.5t-0.5 -40.5
h-118q-14 -59 -46.5 -108.5t-78 -86t-101.5 -57t-119 -20.5q-74 0 -138.5 28t-113 76.5t-76.5 113t-28 138.5q0 49 13 95t37 86t57 72.5t73 55.5q-42 29 -54 75t8 104h126q-34 -116 102 -116q74 0 98.5 28t11.5 88h125v0z" />
    <glyph glyph-name="gbreve" unicode="&#x11f;" horiz-adv-x="884" 
d="M629 832q17 -61 3.5 -108t-61.5 -76q57 -35 97 -87.5t58 -116.5h-153q-26 48 -75 79t-109 31q-44 0 -82 -16.5t-66.5 -45t-45 -66.5t-16.5 -82q0 -41 16 -79t44 -67t66 -46.5t83 -17.5q35 0 66.5 10.5t57.5 29.5t45 45t29 57h-116v65h382q0 -20 -0.5 -40.5t-0.5 -40.5
h-118q-14 -59 -46.5 -108.5t-78 -86t-101.5 -57t-119 -20.5q-74 0 -138.5 28t-113 76.5t-76.5 113t-28 138.5q0 49 13 95t37 86t57 72.5t73 55.5q-42 29 -54 75t8 104h126q-34 -116 102 -116q74 0 98.5 28t11.5 88h125v0z" />
    <glyph glyph-name="Gdotaccent" unicode="&#x120;" horiz-adv-x="884" 
d="M468 762q0 -19 -8 -36.5t-23 -29.5q52 -7 98.5 -29t84 -55t65 -76t41.5 -92h-153q-26 48 -75 79t-109 31q-44 0 -82 -16.5t-66.5 -45t-45 -66.5t-16.5 -82q0 -41 16 -79t44 -67t66 -46.5t83 -17.5q35 0 66.5 10.5t57.5 29.5t45 45t29 57h-116v65h382q0 -20 -0.5 -40.5
t-0.5 -40.5h-118q-14 -59 -46.5 -108.5t-78 -86t-101.5 -57t-119 -20.5q-74 0 -138.5 28t-113 76.5t-76.5 113t-28 138.5q0 66 23 126t63.5 107t96 78t119.5 41q-15 12 -23 29.5t-8 36.5q0 32 21 57.5t61 25.5q39 0 61 -25.5t22 -57.5z" />
    <glyph glyph-name="gdotaccent" unicode="&#x121;" horiz-adv-x="884" 
d="M468 762q0 -19 -8 -36.5t-23 -29.5q52 -7 98.5 -29t84 -55t65 -76t41.5 -92h-153q-26 48 -75 79t-109 31q-44 0 -82 -16.5t-66.5 -45t-45 -66.5t-16.5 -82q0 -41 16 -79t44 -67t66 -46.5t83 -17.5q35 0 66.5 10.5t57.5 29.5t45 45t29 57h-116v65h382q0 -20 -0.5 -40.5
t-0.5 -40.5h-118q-14 -59 -46.5 -108.5t-78 -86t-101.5 -57t-119 -20.5q-74 0 -138.5 28t-113 76.5t-76.5 113t-28 138.5q0 66 23 126t63.5 107t96 78t119.5 41q-15 12 -23 29.5t-8 36.5q0 32 21 57.5t61 25.5q39 0 61 -25.5t22 -57.5z" />
    <glyph glyph-name="uni0122" unicode="&#x122;" horiz-adv-x="884" 
d="M852 341q0 -20 -0.5 -40.5t-0.5 -40.5h-118q-14 -59 -46.5 -108.5t-78 -86t-101.5 -57t-119 -20.5q-74 0 -138.5 28t-113 76.5t-76.5 113t-28 138.5q0 73 28 138t76.5 113.5t113 76.5t138.5 28q60 0 115 -19.5t99 -53.5t76.5 -81t47.5 -102h-153q-26 48 -75 79t-109 31
q-44 0 -82 -16.5t-66.5 -45t-45 -66.5t-16.5 -82q0 -41 16 -79t44 -67t66 -46.5t83 -17.5q35 0 66.5 10.5t57.5 29.5t45 45t29 57h-116v65h382zM320 -38h140l-103 -293h-95z" />
    <glyph glyph-name="uni0123" unicode="&#x123;" horiz-adv-x="884" 
d="M852 341q0 -20 -0.5 -40.5t-0.5 -40.5h-118q-14 -59 -46.5 -108.5t-78 -86t-101.5 -57t-119 -20.5q-74 0 -138.5 28t-113 76.5t-76.5 113t-28 138.5q0 73 28 138t76.5 113.5t113 76.5t138.5 28q60 0 115 -19.5t99 -53.5t76.5 -81t47.5 -102h-153q-26 48 -75 79t-109 31
q-44 0 -82 -16.5t-66.5 -45t-45 -66.5t-16.5 -82q0 -41 16 -79t44 -67t66 -46.5t83 -17.5q35 0 66.5 10.5t57.5 29.5t45 45t29 57h-116v65h382zM320 -38h140l-103 -293h-95z" />
    <glyph glyph-name="Hcircumflex" unicode="&#x124;" horiz-adv-x="734" 
d="M690 688v-690h-145v278h-357v-278h-146v690h146v-305h357v305h145zM317 939h101l180 -229h-132l-99 109l-98 -109h-132z" />
    <glyph glyph-name="hcircumflex" unicode="&#x125;" horiz-adv-x="734" 
d="M690 688v-690h-145v278h-357v-278h-146v690h146v-305h357v305h145zM317 939h101l180 -229h-132l-99 109l-98 -109h-132z" />
    <glyph glyph-name="Hbar" unicode="&#x126;" horiz-adv-x="734" 
d="M690 688v-690h-145v278h-357v-278h-146v690h146v-130h357v130h145zM545 383v67h-357v-67h357z" />
    <glyph glyph-name="hbar" unicode="&#x127;" horiz-adv-x="734" 
d="M690 688v-690h-145v278h-357v-278h-146v690h146v-130h357v130h145zM545 383v67h-357v-67h357z" />
    <glyph glyph-name="Itilde" unicode="&#x128;" horiz-adv-x="230" 
d="M42 -2v690h146v-690h-146zM335 936q22 -49 23 -93t-15.5 -77.5t-48 -53.5t-74.5 -20q-31 0 -54.5 10t-41 24.5t-31.5 32t-27 32t-26 24.5t-29 10q-34 0 -34 -37.5t36 -95.5h-117q-23 53 -23 97.5t17.5 77t48.5 51t72 18.5q32 0 56 -10t42.5 -24.5t33 -32t27.5 -32
t25.5 -24.5t27.5 -10t21.5 12t6 31t-8.5 42.5t-22 47.5h115z" />
    <glyph glyph-name="itilde" unicode="&#x129;" horiz-adv-x="230" 
d="M42 -2v690h146v-690h-146zM335 936q22 -49 23 -93t-15.5 -77.5t-48 -53.5t-74.5 -20q-31 0 -54.5 10t-41 24.5t-31.5 32t-27 32t-26 24.5t-29 10q-34 0 -34 -37.5t36 -95.5h-117q-23 53 -23 97.5t17.5 77t48.5 51t72 18.5q32 0 56 -10t42.5 -24.5t33 -32t27.5 -32
t25.5 -24.5t27.5 -10t21.5 12t6 31t-8.5 42.5t-22 47.5h115z" />
    <glyph glyph-name="Imacron" unicode="&#x12a;" horiz-adv-x="230" 
d="M42 -2v690h146v-690h-146zM-92 736v100h415v-100h-415z" />
    <glyph glyph-name="imacron" unicode="&#x12b;" horiz-adv-x="230" 
d="M42 -2v690h146v-690h-146zM-92 736v100h415v-100h-415z" />
    <glyph glyph-name="Iogonek" unicode="&#x12e;" horiz-adv-x="230" 
d="M-23 -159q0 -20 16 -34t43 -20t64 -1.5t80 21.5v-84q-72 -29 -135.5 -34.5t-111.5 8t-75.5 45t-27.5 75.5q1 42 21.5 69t51.5 46.5t68 35t71 32.5v688h146v-690h-14q-28 -32 -62.5 -52t-64.5 -35.5t-50 -31t-20 -38.5z" />
    <glyph glyph-name="iogonek" unicode="&#x12f;" horiz-adv-x="230" 
d="M-23 -159q0 -20 16 -34t43 -20t64 -1.5t80 21.5v-84q-72 -29 -135.5 -34.5t-111.5 8t-75.5 45t-27.5 75.5q1 42 21.5 69t51.5 46.5t68 35t71 32.5v688h146v-690h-14q-28 -32 -62.5 -52t-64.5 -35.5t-50 -31t-20 -38.5z" />
    <glyph glyph-name="Idotaccent" unicode="&#x130;" horiz-adv-x="230" 
d="M42 -2v690h146v-690h-146zM198 809q0 -32 -22 -57.5t-61 -25.5q-19 0 -34.5 7t-26 18.5t-16 26.5t-5.5 31q0 32 21 57.5t61 25.5q39 0 61 -25.5t22 -57.5z" />
    <glyph glyph-name="dotlessi" unicode="&#x131;" horiz-adv-x="230" 
d="M42 -2v690h146v-690h-146z" />
    <glyph glyph-name="Jcircumflex" unicode="&#x134;" horiz-adv-x="723" 
d="M679 688v-381q0 -66 -25 -124t-68.5 -101.5t-101.5 -68.5t-124 -25q-63 0 -119 23t-98.5 62.5t-69.5 93t-31 115.5h147q4 -32 19.5 -59t38 -47t52 -31.5t62.5 -11.5q36 0 67.5 13.5t55 37.5t37 55.5t13.5 67.5v381h145zM526 930h101l180 -229h-132l-99 109l-98 -109h-132
z" />
    <glyph glyph-name="jcircumflex" unicode="&#x135;" horiz-adv-x="723" 
d="M679 688v-381q0 -66 -25 -124t-68.5 -101.5t-101.5 -68.5t-124 -25q-63 0 -119 23t-98.5 62.5t-69.5 93t-31 115.5h147q4 -32 19.5 -59t38 -47t52 -31.5t62.5 -11.5q36 0 67.5 13.5t55 37.5t37 55.5t13.5 67.5v381h145zM526 930h101l180 -229h-132l-99 109l-98 -109h-132
z" />
    <glyph glyph-name="uni0136" unicode="&#x136;" horiz-adv-x="722" 
d="M577 -78l-389 396v-314h-146v690h146v-314l389 396l100 -99l-328 -328l328 -328zM230 -31h140l-103 -293h-95z" />
    <glyph glyph-name="uni0137" unicode="&#x137;" horiz-adv-x="722" 
d="M577 -78l-389 396v-314h-146v690h146v-314l389 396l100 -99l-328 -328l328 -328zM230 -31h140l-103 -293h-95z" />
    <glyph glyph-name="kgreenlandic" unicode="&#x138;" horiz-adv-x="722" 
d="M577 -78l-389 396v-314h-146v690h146v-314l389 396l100 -99l-328 -328l328 -328z" />
    <glyph glyph-name="Lacute" unicode="&#x139;" horiz-adv-x="672" 
d="M630 144v-146h-588v690h146v-544h442zM576 836l-295 -239l-55 59l262 277z" />
    <glyph glyph-name="lacute" unicode="&#x13a;" horiz-adv-x="672" 
d="M630 144v-146h-588v690h146v-544h442zM576 836l-295 -239l-55 59l262 277z" />
    <glyph glyph-name="uni013B" unicode="&#x13b;" horiz-adv-x="672" 
d="M630 144v-146h-588v690h146v-544h442zM320 -31h140l-103 -293h-95z" />
    <glyph glyph-name="uni013C" unicode="&#x13c;" horiz-adv-x="672" 
d="M630 144v-146h-588v690h146v-544h442zM320 -31h140l-103 -293h-95z" />
    <glyph glyph-name="Lcaron" unicode="&#x13d;" horiz-adv-x="672" 
d="M630 144v-146h-588v690h146v-544h442zM473 804h149l-115 -322h-110z" />
    <glyph glyph-name="lcaron" unicode="&#x13e;" horiz-adv-x="672" 
d="M630 144v-146h-588v690h146v-544h442zM473 804h149l-115 -322h-110z" />
    <glyph glyph-name="Lslash" unicode="&#x141;" horiz-adv-x="672" 
d="M630 144v-146h-588v274l-78 -33v130l78 33v286h146v-223l243 104v-130l-243 -104v-191h442z" />
    <glyph glyph-name="lslash" unicode="&#x142;" horiz-adv-x="672" 
d="M630 144v-146h-588v274l-78 -33v130l78 33v286h146v-223l243 104v-130l-243 -104v-191h442z" />
    <glyph glyph-name="Nacute" unicode="&#x143;" 
d="M779 688v-768l-591 540v-461h-146v764l592 -540v465h145zM671 886l-295 -239l-55 59l262 277z" />
    <glyph glyph-name="nacute" unicode="&#x144;" 
d="M779 688v-768l-591 540v-461h-146v764l592 -540v465h145zM671 886l-295 -239l-55 59l262 277z" />
    <glyph glyph-name="uni0145" unicode="&#x145;" 
d="M779 688v-768l-591 540v-461h-146v764l592 -540v465h145zM320 -31h140l-103 -293h-95z" />
    <glyph glyph-name="uni0146" unicode="&#x146;" 
d="M779 688v-768l-591 540v-461h-146v764l592 -540v465h145zM320 -31h140l-103 -293h-95z" />
    <glyph glyph-name="Ncaron" unicode="&#x147;" 
d="M779 688v-768l-591 540v-461h-146v764l592 -540v465h145zM471 684h-101l-180 229h132l99 -109l98 109h132z" />
    <glyph glyph-name="ncaron" unicode="&#x148;" 
d="M779 688v-768l-591 540v-461h-146v764l592 -540v465h145zM471 684h-101l-180 229h132l99 -109l98 109h132z" />
    <glyph glyph-name="Eng" unicode="&#x14a;" 
d="M779 688v-712q0 -66 -25 -124t-68.5 -101.5t-101.5 -68.5t-124 -25q-63 0 -118.5 23t-98.5 62.5t-69.5 93t-31.5 115.5h147q4 -32 19.5 -59t38.5 -47t52 -31.5t62 -11.5q36 0 67.5 13.5t55.5 37.5t37.5 55.5t13.5 67.5v66l-447 418v-461h-146v764l592 -540v465h145z" />
    <glyph glyph-name="eng" unicode="&#x14b;" 
d="M779 688v-712q0 -66 -25 -124t-68.5 -101.5t-101.5 -68.5t-124 -25q-63 0 -118.5 23t-98.5 62.5t-69.5 93t-31.5 115.5h147q4 -32 19.5 -59t38.5 -47t52 -31.5t62 -11.5q36 0 67.5 13.5t55.5 37.5t37.5 55.5t13.5 67.5v66l-447 418v-461h-146v764l592 -540v465h145z" />
    <glyph glyph-name="Omacron" unicode="&#x14c;" horiz-adv-x="838" 
d="M419 730q80 0 150 -30.5t122.5 -83t83 -123t30.5 -150.5t-30.5 -150t-83 -122.5t-122.5 -83t-150 -30.5t-150.5 30.5t-123 83t-83 122.5t-30.5 150t30.5 150.5t83 123t123 83t150.5 30.5zM419 102q49 0 93 19t76.5 51.5t51.5 76.5t19 94q0 49 -19 93t-51.5 76.5
t-76.5 51.5t-93 19q-50 0 -94 -19t-76.5 -51.5t-51.5 -76.5t-19 -93q0 -50 19 -94t51.5 -76.5t76.5 -51.5t94 -19zM211 757v100h415v-100h-415z" />
    <glyph glyph-name="omacron" unicode="&#x14d;" horiz-adv-x="838" 
d="M419 730q80 0 150 -30.5t122.5 -83t83 -123t30.5 -150.5t-30.5 -150t-83 -122.5t-122.5 -83t-150 -30.5t-150.5 30.5t-123 83t-83 122.5t-30.5 150t30.5 150.5t83 123t123 83t150.5 30.5zM419 102q49 0 93 19t76.5 51.5t51.5 76.5t19 94q0 49 -19 93t-51.5 76.5
t-76.5 51.5t-93 19q-50 0 -94 -19t-76.5 -51.5t-51.5 -76.5t-19 -93q0 -50 19 -94t51.5 -76.5t76.5 -51.5t94 -19zM211 757v100h415v-100h-415z" />
    <glyph glyph-name="Ohungarumlaut" unicode="&#x150;" horiz-adv-x="838" 
d="M584 875l-180 -146q4 0 7.5 0.5t7.5 0.5q26 0 51 -3.5t49 -9.5l241 255l88 -97l-240 -195q44 -25 80 -60t62 -78.5t40.5 -94t14.5 -104.5q0 -80 -30.5 -150t-83 -122.5t-122.5 -83t-150 -30.5t-150.5 30.5t-123 83t-83 122.5t-30.5 150q0 56 15 108t43 96t66 80t85 60
l-7 8l262 277zM419 102q49 0 93 19t76.5 51.5t51.5 76.5t19 94q0 49 -19 93t-51.5 76.5t-76.5 51.5t-93 19q-50 0 -94 -19t-76.5 -51.5t-51.5 -76.5t-19 -93q0 -50 19 -94t51.5 -76.5t76.5 -51.5t94 -19z" />
    <glyph glyph-name="ohungarumlaut" unicode="&#x151;" horiz-adv-x="838" 
d="M584 875l-180 -146q4 0 7.5 0.5t7.5 0.5q26 0 51 -3.5t49 -9.5l241 255l88 -97l-240 -195q44 -25 80 -60t62 -78.5t40.5 -94t14.5 -104.5q0 -80 -30.5 -150t-83 -122.5t-122.5 -83t-150 -30.5t-150.5 30.5t-123 83t-83 122.5t-30.5 150q0 56 15 108t43 96t66 80t85 60
l-7 8l262 277zM419 102q49 0 93 19t76.5 51.5t51.5 76.5t19 94q0 49 -19 93t-51.5 76.5t-76.5 51.5t-93 19q-50 0 -94 -19t-76.5 -51.5t-51.5 -76.5t-19 -93q0 -50 19 -94t51.5 -76.5t76.5 -51.5t94 -19z" />
    <glyph glyph-name="OE" unicode="&#x152;" horiz-adv-x="1267" 
d="M809 562v-173h339v-93h-339v-173h430v-125h-576v46q-51 -41 -113 -64t-131 -23q-80 0 -150.5 30.5t-123 83t-83 122.5t-30.5 150t30.5 150.5t83 123t123 83t150.5 30.5q69 0 131 -23t113 -64v45h576v-125zM419 102q49 0 93 19t76.5 51.5t51.5 76.5t19 94q0 49 -19 93
t-51.5 76.5t-76.5 51.5t-93 19q-50 0 -94 -19t-76.5 -51.5t-51.5 -76.5t-19 -93q0 -50 19 -94t51.5 -76.5t76.5 -51.5t94 -19z" />
    <glyph glyph-name="oe" unicode="&#x153;" horiz-adv-x="1267" 
d="M809 562v-173h339v-93h-339v-173h430v-125h-576v46q-51 -41 -113 -64t-131 -23q-80 0 -150.5 30.5t-123 83t-83 122.5t-30.5 150t30.5 150.5t83 123t123 83t150.5 30.5q69 0 131 -23t113 -64v45h576v-125zM419 102q49 0 93 19t76.5 51.5t51.5 76.5t19 94q0 49 -19 93
t-51.5 76.5t-76.5 51.5t-93 19q-50 0 -94 -19t-76.5 -51.5t-51.5 -76.5t-19 -93q0 -50 19 -94t51.5 -76.5t76.5 -51.5t94 -19z" />
    <glyph glyph-name="Racute" unicode="&#x154;" horiz-adv-x="744" 
d="M568 856l-209 -169h83q52 0 97.5 -19.5t79.5 -53.5t53.5 -80t19.5 -98q0 -36 -11 -69.5t-30.5 -61t-47 -48t-59.5 -31.5l177 -193l-100 -96l-234 253h-198v-193h-146v690h185l252 266zM553 425q0 37 -14.5 62t-38.5 39t-55 20t-65 6h-191v-254h191q34 0 65 6t55 20
t38.5 38.5t14.5 62.5z" />
    <glyph glyph-name="racute" unicode="&#x155;" horiz-adv-x="744" 
d="M568 856l-209 -169h83q52 0 97.5 -19.5t79.5 -53.5t53.5 -80t19.5 -98q0 -36 -11 -69.5t-30.5 -61t-47 -48t-59.5 -31.5l177 -193l-100 -96l-234 253h-198v-193h-146v690h185l252 266zM553 425q0 37 -14.5 62t-38.5 39t-55 20t-65 6h-191v-254h191q34 0 65 6t55 20
t38.5 38.5t14.5 62.5z" />
    <glyph glyph-name="uni0156" unicode="&#x156;" horiz-adv-x="744" 
d="M387 190h-198v-193h-146v690h399q52 0 97.5 -19.5t79.5 -53.5t53.5 -80t19.5 -98q0 -36 -11 -69.5t-30.5 -61t-47 -48t-59.5 -31.5l177 -193l-100 -96zM553 425q0 37 -14.5 62t-38.5 39t-55 20t-65 6h-191v-254h191q34 0 65 6t55 20t38.5 38.5t14.5 62.5zM320 -31h140
l-103 -293h-95z" />
    <glyph glyph-name="uni0157" unicode="&#x157;" horiz-adv-x="744" 
d="M387 190h-198v-193h-146v690h399q52 0 97.5 -19.5t79.5 -53.5t53.5 -80t19.5 -98q0 -36 -11 -69.5t-30.5 -61t-47 -48t-59.5 -31.5l177 -193l-100 -96zM553 425q0 37 -14.5 62t-38.5 39t-55 20t-65 6h-191v-254h191q34 0 65 6t55 20t38.5 38.5t14.5 62.5zM320 -31h140
l-103 -293h-95z" />
    <glyph glyph-name="Rcaron" unicode="&#x158;" horiz-adv-x="744" 
d="M401 687h41q52 0 97.5 -19.5t79.5 -53.5t53.5 -80t19.5 -98q0 -36 -11 -69.5t-30.5 -61t-47 -48t-59.5 -31.5l177 -193l-100 -96l-234 253h-198v-193h-146v690h216l-159 203h132l99 -109l98 109h132zM553 425q0 37 -14.5 62t-38.5 39t-55 20t-65 6h-191v-254h191
q34 0 65 6t55 20t38.5 38.5t14.5 62.5z" />
    <glyph glyph-name="rcaron" unicode="&#x159;" horiz-adv-x="744" 
d="M401 687h41q52 0 97.5 -19.5t79.5 -53.5t53.5 -80t19.5 -98q0 -36 -11 -69.5t-30.5 -61t-47 -48t-59.5 -31.5l177 -193l-100 -96l-234 253h-198v-193h-146v690h216l-159 203h132l99 -109l98 109h132zM553 425q0 37 -14.5 62t-38.5 39t-55 20t-65 6h-191v-254h191
q34 0 65 6t55 20t38.5 38.5t14.5 62.5z" />
    <glyph glyph-name="Sacute" unicode="&#x15a;" horiz-adv-x="980" 
d="M969 843l-192 -155h183v-146h-223q-33 0 -64.5 -8.5t-56 -31.5t-39.5 -65.5t-15 -109.5q-2 -74 -20 -134.5t-56 -103.5t-97.5 -67t-143.5 -24h-225v146h226q33 0 63.5 8.5t54.5 32t39 65.5t15 109q1 63 13.5 116.5t38.5 95t67 69.5t98 40l246 260z" />
    <glyph glyph-name="sacute" unicode="&#x15b;" horiz-adv-x="980" 
d="M969 843l-192 -155h183v-146h-223q-33 0 -64.5 -8.5t-56 -31.5t-39.5 -65.5t-15 -109.5q-2 -74 -20 -134.5t-56 -103.5t-97.5 -67t-143.5 -24h-225v146h226q33 0 63.5 8.5t54.5 32t39 65.5t15 109q1 63 13.5 116.5t38.5 95t67 69.5t98 40l246 260z" />
    <glyph glyph-name="Scircumflex" unicode="&#x15c;" horiz-adv-x="980" 
d="M960 688v-146h-223q-33 0 -64.5 -8.5t-56 -31.5t-39.5 -65.5t-15 -109.5q-2 -74 -20 -134.5t-56 -103.5t-97.5 -67t-143.5 -24h-225v146h226q33 0 63.5 8.5t54.5 32t39 65.5t15 109q1 73 18 133.5t53 104t92 67.5t135 24h244zM694 944h101l180 -229h-132l-99 109
l-98 -109h-132z" />
    <glyph glyph-name="scircumflex" unicode="&#x15d;" horiz-adv-x="980" 
d="M960 688v-146h-223q-33 0 -64.5 -8.5t-56 -31.5t-39.5 -65.5t-15 -109.5q-2 -74 -20 -134.5t-56 -103.5t-97.5 -67t-143.5 -24h-225v146h226q33 0 63.5 8.5t54.5 32t39 65.5t15 109q1 73 18 133.5t53 104t92 67.5t135 24h244zM694 944h101l180 -229h-132l-99 109
l-98 -109h-132z" />
    <glyph glyph-name="Scedilla" unicode="&#x15e;" horiz-adv-x="980" 
d="M960 688v-146h-223q-33 0 -64.5 -8.5t-56 -31.5t-39.5 -65.5t-15 -109.5q-2 -73 -19.5 -133t-55 -103.5t-96 -67.5t-140.5 -25l-22 -58q41 2 70.5 -8t48.5 -27t28 -39.5t9 -46.5q0 -41 -21 -73t-62 -47.5t-101.5 -12t-139.5 34.5v62q53 -14 90 -16.5t60 4.5t33.5 20.5
t10.5 31.5q0 27 -32 42t-104 4v52l38 77h-137v146h226q33 0 63.5 8.5t54.5 32t39 65.5t15 109q1 73 18 133.5t53 104t92 67.5t135 24h244z" />
    <glyph glyph-name="scedilla" unicode="&#x15f;" horiz-adv-x="980" 
d="M960 688v-146h-223q-33 0 -64.5 -8.5t-56 -31.5t-39.5 -65.5t-15 -109.5q-2 -73 -19.5 -133t-55 -103.5t-96 -67.5t-140.5 -25l-22 -58q41 2 70.5 -8t48.5 -27t28 -39.5t9 -46.5q0 -41 -21 -73t-62 -47.5t-101.5 -12t-139.5 34.5v62q53 -14 90 -16.5t60 4.5t33.5 20.5
t10.5 31.5q0 27 -32 42t-104 4v52l38 77h-137v146h226q33 0 63.5 8.5t54.5 32t39 65.5t15 109q1 73 18 133.5t53 104t92 67.5t135 24h244z" />
    <glyph glyph-name="Scaron" unicode="&#x160;" horiz-adv-x="980" 
d="M799 688h161v-146h-223q-33 0 -64.5 -8.5t-56 -31.5t-39.5 -65.5t-15 -109.5q-2 -74 -20 -134.5t-56 -103.5t-97.5 -67t-143.5 -24h-225v146h226q33 0 63.5 8.5t54.5 32t39 65.5t15 109q1 68 16 125.5t46 100t79.5 69t117.5 32.5l-170 217h132l99 -109l98 109h132z" />
    <glyph glyph-name="scaron" unicode="&#x161;" horiz-adv-x="980" 
d="M799 688h161v-146h-223q-33 0 -64.5 -8.5t-56 -31.5t-39.5 -65.5t-15 -109.5q-2 -74 -20 -134.5t-56 -103.5t-97.5 -67t-143.5 -24h-225v146h226q33 0 63.5 8.5t54.5 32t39 65.5t15 109q1 68 16 125.5t46 100t79.5 69t117.5 32.5l-170 217h132l99 -109l98 109h132z" />
    <glyph glyph-name="uni0162" unicode="&#x162;" horiz-adv-x="784" 
d="M770 688q0 -37 -0.5 -73t-0.5 -73h-303v-544h-145v544h-304v146h753zM320 -31h140l-103 -293h-95z" />
    <glyph glyph-name="uni0163" unicode="&#x163;" horiz-adv-x="784" 
d="M770 688q0 -37 -0.5 -73t-0.5 -73h-303v-544h-145v544h-304v146h753zM320 -31h140l-103 -293h-95z" />
    <glyph glyph-name="Tcaron" unicode="&#x164;" horiz-adv-x="784" 
d="M467 688h303q0 -37 -0.5 -73t-0.5 -73h-303v-544h-145v544h-304v146h303l-157 200h132l99 -109l98 109h132z" />
    <glyph glyph-name="tcaron" unicode="&#x165;" horiz-adv-x="784" 
d="M467 688h303q0 -37 -0.5 -73t-0.5 -73h-303v-544h-145v544h-304v146h303l-157 200h132l99 -109l98 109h132z" />
    <glyph glyph-name="Tbar" unicode="&#x166;" horiz-adv-x="784" 
d="M466 261v-263h-145v263h-137v100h137v181h-304v146h753q0 -37 -0.5 -73t-0.5 -73h-303v-181h133v-100h-133z" />
    <glyph glyph-name="tbar" unicode="&#x167;" horiz-adv-x="784" 
d="M466 261v-263h-145v263h-137v100h137v181h-304v146h753q0 -37 -0.5 -73t-0.5 -73h-303v-181h133v-100h-133z" />
    <glyph glyph-name="Utilde" unicode="&#x168;" horiz-adv-x="783" 
d="M740 688v-351q0 -72 -27.5 -135.5t-74.5 -111t-111 -75t-136 -27.5t-135.5 27.5t-111 75t-75 111t-27.5 135.5v351h146v-351q0 -42 16 -79t43.5 -65t65 -44t79.5 -16t79 16t64.5 44t43.5 65t16 79v351h145zM611 942q22 -49 23 -93t-15.5 -77.5t-48 -53.5t-74.5 -20
q-31 0 -54.5 10t-41 24.5t-31.5 32t-27 32t-26 24.5t-29 10q-34 0 -34 -37.5t36 -95.5h-117q-23 53 -23 97.5t17.5 77t48.5 51t72 18.5q32 0 56 -10t42.5 -24.5t33 -32t27.5 -32t25.5 -24.5t27.5 -10t21.5 12t6 31t-8.5 42.5t-22 47.5h115z" />
    <glyph glyph-name="utilde" unicode="&#x169;" horiz-adv-x="783" 
d="M740 688v-351q0 -72 -27.5 -135.5t-74.5 -111t-111 -75t-136 -27.5t-135.5 27.5t-111 75t-75 111t-27.5 135.5v351h146v-351q0 -42 16 -79t43.5 -65t65 -44t79.5 -16t79 16t64.5 44t43.5 65t16 79v351h145zM611 942q22 -49 23 -93t-15.5 -77.5t-48 -53.5t-74.5 -20
q-31 0 -54.5 10t-41 24.5t-31.5 32t-27 32t-26 24.5t-29 10q-34 0 -34 -37.5t36 -95.5h-117q-23 53 -23 97.5t17.5 77t48.5 51t72 18.5q32 0 56 -10t42.5 -24.5t33 -32t27.5 -32t25.5 -24.5t27.5 -10t21.5 12t6 31t-8.5 42.5t-22 47.5h115z" />
    <glyph glyph-name="Umacron" unicode="&#x16a;" horiz-adv-x="783" 
d="M740 688v-351q0 -72 -27.5 -135.5t-74.5 -111t-111 -75t-136 -27.5t-135.5 27.5t-111 75t-75 111t-27.5 135.5v351h146v-351q0 -42 16 -79t43.5 -65t65 -44t79.5 -16t79 16t64.5 44t43.5 65t16 79v351h145zM184 731v100h415v-100h-415z" />
    <glyph glyph-name="umacron" unicode="&#x16b;" horiz-adv-x="783" 
d="M740 688v-351q0 -72 -27.5 -135.5t-74.5 -111t-111 -75t-136 -27.5t-135.5 27.5t-111 75t-75 111t-27.5 135.5v351h146v-351q0 -42 16 -79t43.5 -65t65 -44t79.5 -16t79 16t64.5 44t43.5 65t16 79v351h145zM184 731v100h415v-100h-415z" />
    <glyph glyph-name="Ubreve" unicode="&#x16c;" horiz-adv-x="783" 
d="M740 688v-351q0 -72 -27.5 -135.5t-74.5 -111t-111 -75t-136 -27.5t-135.5 27.5t-111 75t-75 111t-27.5 135.5v351h146v-351q0 -42 16 -79t43.5 -65t65 -44t79.5 -16t79 16t64.5 44t43.5 65t16 79v351h145zM642 909q14 -50 7 -90.5t-35.5 -70t-80 -45.5t-126.5 -16
q-73 0 -124 16t-79.5 45.5t-35 70t10.5 90.5h126q-34 -116 102 -116q74 0 98.5 28t11.5 88h125z" />
    <glyph glyph-name="ubreve" unicode="&#x16d;" horiz-adv-x="783" 
d="M740 688v-351q0 -72 -27.5 -135.5t-74.5 -111t-111 -75t-136 -27.5t-135.5 27.5t-111 75t-75 111t-27.5 135.5v351h146v-351q0 -42 16 -79t43.5 -65t65 -44t79.5 -16t79 16t64.5 44t43.5 65t16 79v351h145zM642 909q14 -50 7 -90.5t-35.5 -70t-80 -45.5t-126.5 -16
q-73 0 -124 16t-79.5 45.5t-35 70t10.5 90.5h126q-34 -116 102 -116q74 0 98.5 28t11.5 88h125z" />
    <glyph glyph-name="Uring" unicode="&#x16e;" horiz-adv-x="783" 
d="M740 688v-351q0 -72 -27.5 -135.5t-74.5 -111t-111 -75t-136 -27.5t-135.5 27.5t-111 75t-75 111t-27.5 135.5v351h146v-351q0 -42 16 -79t43.5 -65t65 -44t79.5 -16t79 16t64.5 44t43.5 65t16 79v351h145zM391 915q34 0 64 -13t52.5 -35.5t35.5 -52.5t13 -64t-13 -64
t-35.5 -52.5t-52.5 -35.5t-64 -13t-64 13t-52.5 35.5t-35.5 52.5t-13 64t13 64t35.5 52.5t52.5 35.5t64 13zM391 677q29 0 51 22t22 51q0 30 -22 52t-51 22t-51 -22t-22 -52q0 -29 22 -51t51 -22z" />
    <glyph glyph-name="uring" unicode="&#x16f;" horiz-adv-x="783" 
d="M740 688v-351q0 -72 -27.5 -135.5t-74.5 -111t-111 -75t-136 -27.5t-135.5 27.5t-111 75t-75 111t-27.5 135.5v351h146v-351q0 -42 16 -79t43.5 -65t65 -44t79.5 -16t79 16t64.5 44t43.5 65t16 79v351h145zM391 915q34 0 64 -13t52.5 -35.5t35.5 -52.5t13 -64t-13 -64
t-35.5 -52.5t-52.5 -35.5t-64 -13t-64 13t-52.5 35.5t-35.5 52.5t-13 64t13 64t35.5 52.5t52.5 35.5t64 13zM391 677q29 0 51 22t22 51q0 30 -22 52t-51 22t-51 -22t-22 -52q0 -29 22 -51t51 -22z" />
    <glyph glyph-name="Uhungarumlaut" unicode="&#x170;" horiz-adv-x="783" 
d="M507 850l-295 -239l-24 25v-299q0 -42 16 -79t43.5 -65t65 -44t79.5 -16t79 16t64.5 44t43.5 65t16 79v351h145v-351q0 -72 -27.5 -135.5t-74.5 -111t-111 -75t-136 -27.5t-135.5 27.5t-111 75t-75 111t-27.5 135.5v351h132l245 259zM771 850l-295 -239l-55 59l262 277z
" />
    <glyph glyph-name="uhungarumlaut" unicode="&#x171;" horiz-adv-x="783" 
d="M507 850l-295 -239l-24 25v-299q0 -42 16 -79t43.5 -65t65 -44t79.5 -16t79 16t64.5 44t43.5 65t16 79v351h145v-351q0 -72 -27.5 -135.5t-74.5 -111t-111 -75t-136 -27.5t-135.5 27.5t-111 75t-75 111t-27.5 135.5v351h132l245 259zM771 850l-295 -239l-55 59l262 277z
" />
    <glyph glyph-name="Uogonek" unicode="&#x172;" horiz-adv-x="783" 
d="M311 -138q0 -20 16 -34t43 -20t64 -1.5t80 21.5v-84q-72 -29 -135.5 -34.5t-111.5 8t-75.5 45t-27.5 75.5q0 33 13.5 57.5t35.5 42.5t49.5 31.5t56.5 26.5q-59 12 -110 43.5t-88 76.5t-58 101.5t-21 119.5v351h146v-351q0 -42 16 -79t43.5 -65t65 -44t79.5 -16t79 16
t64.5 44t43.5 65t16 79v351h145v-351q0 -59 -18.5 -112.5t-51.5 -97t-78 -76t-99 -48.5q-28 -27 -60 -44t-59 -31.5t-45 -29t-18 -36.5z" />
    <glyph glyph-name="uogonek" unicode="&#x173;" horiz-adv-x="783" 
d="M311 -138q0 -20 16 -34t43 -20t64 -1.5t80 21.5v-84q-72 -29 -135.5 -34.5t-111.5 8t-75.5 45t-27.5 75.5q0 33 13.5 57.5t35.5 42.5t49.5 31.5t56.5 26.5q-59 12 -110 43.5t-88 76.5t-58 101.5t-21 119.5v351h146v-351q0 -42 16 -79t43.5 -65t65 -44t79.5 -16t79 16
t64.5 44t43.5 65t16 79v351h145v-351q0 -59 -18.5 -112.5t-51.5 -97t-78 -76t-99 -48.5q-28 -27 -60 -44t-59 -31.5t-45 -29t-18 -36.5z" />
    <glyph glyph-name="Wcircumflex" unicode="&#x174;" horiz-adv-x="1203" 
d="M1211 688l-359 -759l-250 507l-251 -507l-359 759h164l204 -451l242 494l241 -494l204 451h164zM551 929h101l180 -229h-132l-99 109l-98 -109h-132z" />
    <glyph glyph-name="wcircumflex" unicode="&#x175;" horiz-adv-x="1203" 
d="M1211 688l-359 -759l-250 507l-251 -507l-359 759h164l204 -451l242 494l241 -494l204 451h164zM551 929h101l180 -229h-132l-99 109l-98 -109h-132z" />
    <glyph glyph-name="Ycircumflex" unicode="&#x176;" horiz-adv-x="816" 
d="M481 292v-293h-145v293l-343 342l103 103l313 -312l312 312l103 -103zM357 917h101l180 -229h-132l-99 109l-98 -109h-132z" />
    <glyph glyph-name="ycircumflex" unicode="&#x177;" horiz-adv-x="816" 
d="M481 292v-293h-145v293l-343 342l103 103l313 -312l312 312l103 -103zM357 917h101l180 -229h-132l-99 109l-98 -109h-132z" />
    <glyph glyph-name="Ydieresis" unicode="&#x178;" horiz-adv-x="816" 
d="M481 292v-293h-145v293l-343 342l103 103l313 -312l312 312l103 -103zM337 803q0 -32 -22 -57.5t-61 -25.5q-19 0 -34.5 7t-26 18.5t-16 26.5t-5.5 31q0 32 21 57.5t61 25.5q39 0 61 -25.5t22 -57.5zM643 803q0 -32 -22 -57.5t-61 -25.5q-19 0 -34.5 7t-26 18.5t-16 26.5
t-5.5 31q0 32 21 57.5t61 25.5q39 0 61 -25.5t22 -57.5z" />
    <glyph glyph-name="Zacute" unicode="&#x179;" horiz-adv-x="949" 
d="M753 853l-204 -165h314l-510 -544h549v-146h-860l510 544h-475v146h340l248 262z" />
    <glyph glyph-name="zacute" unicode="&#x17a;" horiz-adv-x="949" 
d="M753 853l-204 -165h314l-510 -544h549v-146h-860l510 544h-475v146h340l248 262z" />
    <glyph glyph-name="Zdotaccent" unicode="&#x17b;" horiz-adv-x="949" 
d="M541 747q0 -17 -6 -32.5t-18 -26.5h346l-510 -544h549v-146h-860l510 544h-475v146h322q-11 11 -17 26.5t-6 32.5q0 32 21 57.5t61 25.5q39 0 61 -25.5t22 -57.5z" />
    <glyph glyph-name="zdotaccent" unicode="&#x17c;" horiz-adv-x="949" 
d="M541 747q0 -17 -6 -32.5t-18 -26.5h346l-510 -544h549v-146h-860l510 544h-475v146h322q-11 11 -17 26.5t-6 32.5q0 32 21 57.5t61 25.5q39 0 61 -25.5t22 -57.5z" />
    <glyph glyph-name="Zcaron" unicode="&#x17d;" horiz-adv-x="949" 
d="M534 688h329l-510 -544h549v-146h-860l510 544h-475v146h320l-162 206h132l99 -109l98 109h132z" />
    <glyph glyph-name="zcaron" unicode="&#x17e;" horiz-adv-x="949" 
d="M534 688h329l-510 -544h549v-146h-860l510 544h-475v146h320l-162 206h132l99 -109l98 109h132z" />
    <glyph glyph-name="florin" unicode="&#x192;" horiz-adv-x="473" 
d="M93 -114q52 0 73.5 34.5t24.5 92t-5.5 131.5t-16.5 153h-124v102h115q-4 72 2.5 138t33.5 116t79 80t139 30v-111q-43 0 -68 -19.5t-37 -53.5t-13 -80.5t3 -99.5h129v-102h-119q7 -61 13 -123t5.5 -120t-11 -108.5t-37 -88.5t-71.5 -59.5t-115 -21.5v110z" />
    <glyph glyph-name="circumflex" unicode="&#x2c6;" horiz-adv-x="551" 
d="M225 676h101l180 -229h-132l-99 109l-98 -109h-132z" />
    <glyph glyph-name="caron" unicode="&#x2c7;" horiz-adv-x="551" 
d="M326 447h-101l-180 229h132l99 -109l98 109h132z" />
    <glyph glyph-name="breve" unicode="&#x2d8;" horiz-adv-x="575" 
d="M520 676q14 -50 7 -90.5t-35.5 -70t-80 -45.5t-126.5 -16q-73 0 -124 16t-79.5 45.5t-35 70t10.5 90.5h126q-34 -116 102 -116q74 0 98.5 28t11.5 88h125v0z" />
    <glyph glyph-name="dotaccent" unicode="&#x2d9;" horiz-adv-x="255" 
d="M210 596q0 -32 -22 -57.5t-61 -25.5q-19 0 -34.5 7t-26 18.5t-16 26.5t-5.5 31q0 32 21 57.5t61 25.5q39 0 61 -25.5t22 -57.5z" />
    <glyph glyph-name="ring" unicode="&#x2da;" horiz-adv-x="420" 
d="M210 698q34 0 64 -13t52.5 -35.5t35.5 -52.5t13 -64t-13 -64t-35.5 -52.5t-52.5 -35.5t-64 -13t-64 13t-52.5 35.5t-35.5 52.5t-13 64t13 64t35.5 52.5t52.5 35.5t64 13zM210 460q29 0 51 22t22 51q0 30 -22 52t-51 22t-51 -22t-22 -52q0 -29 22 -51t51 -22z" />
    <glyph glyph-name="ogonek" unicode="&#x2db;" horiz-adv-x="443" 
d="M192 -134q0 -20 16 -34t43 -20t64 -1.5t80 21.5v-84q-72 -29 -135.5 -34.5t-111.5 8t-75.5 45t-27.5 75.5q0 34 14.5 58t37 42.5t51 32t58 27t57.5 27.5t49 33l86 -28q-27 -36 -63 -58t-67.5 -38.5t-53.5 -32t-22 -39.5z" />
    <glyph glyph-name="tilde" unicode="&#x2dc;" horiz-adv-x="576" 
d="M507 728q22 -49 23 -93t-15.5 -77.5t-48 -53.5t-74.5 -20q-31 0 -54.5 10t-41 24.5t-31.5 32t-27 32t-26 24.5t-29 10q-34 0 -34 -37.5t36 -95.5h-117q-23 53 -23 97.5t17.5 77t48.5 51t72 18.5q32 0 56 -10t42.5 -24.5t33 -32t27.5 -32t25.5 -24.5t27.5 -10t21.5 12
t6 31t-8.5 42.5t-22 47.5h115v0z" />
    <glyph glyph-name="hungarumlaut" unicode="&#x2dd;" horiz-adv-x="510" 
d="M392 645l-295 -239l-55 59l262 277zM656 645l-295 -239l-55 59l262 277z" />
    <glyph glyph-name="uni1E02" unicode="&#x1e02;" horiz-adv-x="752" 
d="M485 463q49 -2 90.5 -21t71 -49.5t46 -71t16.5 -86.5q0 -50 -19 -93.5t-52 -75.5t-77 -50t-93 -18h-426v690h300q30 0 57 -10t48.5 -27.5t35.5 -42t18 -53.5q5 -22 0 -47.5t-16 -44.5zM173 457h157q23 0 39 16.5t16 39.5q0 18 -7 29t-19 16.5t-27 7.5t-31 2h-128v-111z
M447 123q26 0 48.5 10.5t39.5 28t27 41t10 49.5q0 25 -10 48.5t-27 41t-39.5 28t-48.5 10.5h-274v-257h274zM320 797q0 -32 -22 -57.5t-61 -25.5q-19 0 -34.5 7t-26 18.5t-16 26.5t-5.5 31q0 32 21 57.5t61 25.5q39 0 61 -25.5t22 -57.5z" />
    <glyph glyph-name="uni1E03" unicode="&#x1e03;" horiz-adv-x="752" 
d="M485 463q49 -2 90.5 -21t71 -49.5t46 -71t16.5 -86.5q0 -50 -19 -93.5t-52 -75.5t-77 -50t-93 -18h-426v690h300q30 0 57 -10t48.5 -27.5t35.5 -42t18 -53.5q5 -22 0 -47.5t-16 -44.5zM173 457h157q23 0 39 16.5t16 39.5q0 18 -7 29t-19 16.5t-27 7.5t-31 2h-128v-111z
M447 123q26 0 48.5 10.5t39.5 28t27 41t10 49.5q0 25 -10 48.5t-27 41t-39.5 28t-48.5 10.5h-274v-257h274zM320 797q0 -32 -22 -57.5t-61 -25.5q-19 0 -34.5 7t-26 18.5t-16 26.5t-5.5 31q0 32 21 57.5t61 25.5q39 0 61 -25.5t22 -57.5z" />
    <glyph glyph-name="uni1E0A" unicode="&#x1e0a;" horiz-adv-x="762" 
d="M374 688q71 0 134 -27t110 -74t74 -110t27 -134t-27 -134t-74 -110t-110 -74t-134 -27h-332v690h332zM374 138q42 0 79.5 15.5t65.5 43.5t44 65.5t16 79.5t-16 79.5t-44 65.5t-65.5 44t-79.5 16h-191v-408zM381 792q0 -32 -22 -57.5t-61 -25.5q-19 0 -34.5 7t-26 18.5
t-16 26.5t-5.5 31q0 32 21 57.5t61 25.5q39 0 61 -25.5t22 -57.5z" />
    <glyph glyph-name="uni1E0B" unicode="&#x1e0b;" horiz-adv-x="762" 
d="M374 688q71 0 134 -27t110 -74t74 -110t27 -134t-27 -134t-74 -110t-110 -74t-134 -27h-332v690h332zM374 138q42 0 79.5 15.5t65.5 43.5t44 65.5t16 79.5t-16 79.5t-44 65.5t-65.5 44t-79.5 16h-191v-408zM381 792q0 -32 -22 -57.5t-61 -25.5q-19 0 -34.5 7t-26 18.5
t-16 26.5t-5.5 31q0 32 21 57.5t61 25.5q39 0 61 -25.5t22 -57.5z" />
    <glyph glyph-name="uni1E1E" unicode="&#x1e1e;" horiz-adv-x="693" 
d="M700 542q-129 0 -256 -0.5t-256 -0.5v-198h419v-106h-419v-239h-146v690h658v-146zM465 793q0 -32 -22 -57.5t-61 -25.5q-19 0 -34.5 7t-26 18.5t-16 26.5t-5.5 31q0 32 21 57.5t61 25.5q39 0 61 -25.5t22 -57.5z" />
    <glyph glyph-name="uni1E1F" unicode="&#x1e1f;" horiz-adv-x="693" 
d="M700 542q-129 0 -256 -0.5t-256 -0.5v-198h419v-106h-419v-239h-146v690h658v-146zM465 793q0 -32 -22 -57.5t-61 -25.5q-19 0 -34.5 7t-26 18.5t-16 26.5t-5.5 31q0 32 21 57.5t61 25.5q39 0 61 -25.5t22 -57.5z" />
    <glyph glyph-name="uni1E40" unicode="&#x1e40;" horiz-adv-x="966" 
d="M922 757v-759h-145v401l-295 -360l-294 360v-401h-146v759l440 -509zM564 695q0 -32 -22 -57.5t-61 -25.5q-19 0 -34.5 7t-26 18.5t-16 26.5t-5.5 31q0 32 21 57.5t61 25.5q39 0 61 -25.5t22 -57.5z" />
    <glyph glyph-name="uni1E41" unicode="&#x1e41;" horiz-adv-x="966" 
d="M922 757v-759h-145v401l-295 -360l-294 360v-401h-146v759l440 -509zM564 695q0 -32 -22 -57.5t-61 -25.5q-19 0 -34.5 7t-26 18.5t-16 26.5t-5.5 31q0 32 21 57.5t61 25.5q39 0 61 -25.5t22 -57.5z" />
    <glyph glyph-name="uni1E56" unicode="&#x1e56;" horiz-adv-x="734" 
d="M441 687q54 0 100 -19.5t79.5 -53t52.5 -79.5t19 -98t-19 -98t-53 -80t-79.5 -53.5t-99.5 -19.5h-253v-188h-146v690h131.5t98.5 -0.5t71 -0.5h48h50zM425 300q60 0 93.5 35t33.5 89q0 66 -34.5 97t-96.5 31h-233v-253zM424 801q0 -32 -22 -57.5t-61 -25.5q-19 0 -34.5 7
t-26 18.5t-16 26.5t-5.5 31q0 32 21 57.5t61 25.5q39 0 61 -25.5t22 -57.5z" />
    <glyph glyph-name="uni1E57" unicode="&#x1e57;" horiz-adv-x="734" 
d="M441 687q54 0 100 -19.5t79.5 -53t52.5 -79.5t19 -98t-19 -98t-53 -80t-79.5 -53.5t-99.5 -19.5h-253v-188h-146v690h131.5t98.5 -0.5t71 -0.5h48h50zM425 300q60 0 93.5 35t33.5 89q0 66 -34.5 97t-96.5 31h-233v-253zM424 801q0 -32 -22 -57.5t-61 -25.5q-19 0 -34.5 7
t-26 18.5t-16 26.5t-5.5 31q0 32 21 57.5t61 25.5q39 0 61 -25.5t22 -57.5z" />
    <glyph glyph-name="uni1E60" unicode="&#x1e60;" horiz-adv-x="980" 
d="M960 688v-146h-223q-33 0 -64.5 -8.5t-56 -31.5t-39.5 -65.5t-15 -109.5q-2 -74 -20 -134.5t-56 -103.5t-97.5 -67t-143.5 -24h-225v146h226q33 0 63.5 8.5t54.5 32t39 65.5t15 109q1 73 18 133.5t53 104t92 67.5t135 24h244zM835 801q0 -32 -22 -57.5t-61 -25.5
q-19 0 -34.5 7t-26 18.5t-16 26.5t-5.5 31q0 32 21 57.5t61 25.5q39 0 61 -25.5t22 -57.5z" />
    <glyph glyph-name="uni1E61" unicode="&#x1e61;" horiz-adv-x="980" 
d="M960 688v-146h-223q-33 0 -64.5 -8.5t-56 -31.5t-39.5 -65.5t-15 -109.5q-2 -74 -20 -134.5t-56 -103.5t-97.5 -67t-143.5 -24h-225v146h226q33 0 63.5 8.5t54.5 32t39 65.5t15 109q1 73 18 133.5t53 104t92 67.5t135 24h244zM835 801q0 -32 -22 -57.5t-61 -25.5
q-19 0 -34.5 7t-26 18.5t-16 26.5t-5.5 31q0 32 21 57.5t61 25.5q39 0 61 -25.5t22 -57.5z" />
    <glyph glyph-name="uni1E6A" unicode="&#x1e6a;" horiz-adv-x="784" 
d="M770 688q0 -37 -0.5 -73t-0.5 -73h-303v-544h-145v544h-304v146h753zM474 808q0 -32 -22 -57.5t-61 -25.5q-19 0 -34.5 7t-26 18.5t-16 26.5t-5.5 31q0 32 21 57.5t61 25.5q39 0 61 -25.5t22 -57.5z" />
    <glyph glyph-name="uni1E6B" unicode="&#x1e6b;" horiz-adv-x="784" 
d="M770 688q0 -37 -0.5 -73t-0.5 -73h-303v-544h-145v544h-304v146h753zM474 808q0 -32 -22 -57.5t-61 -25.5q-19 0 -34.5 7t-26 18.5t-16 26.5t-5.5 31q0 32 21 57.5t61 25.5q39 0 61 -25.5t22 -57.5z" />
    <glyph glyph-name="Wgrave" unicode="&#x1e80;" horiz-adv-x="1203" 
d="M1211 688l-359 -759l-250 507l-251 -507l-359 759h164l204 -451l242 494l241 -494l204 451h164zM470 1012l280 -257l-47 -68l-313 221z" />
    <glyph glyph-name="wgrave" unicode="&#x1e81;" horiz-adv-x="1203" 
d="M1211 688l-359 -759l-250 507l-251 -507l-359 759h164l204 -451l242 494l241 -494l204 451h164zM470 1012l280 -257l-47 -68l-313 221z" />
    <glyph glyph-name="Wacute" unicode="&#x1e82;" horiz-adv-x="1203" 
d="M813 886l-206 -167l236 -482l204 451h164l-359 -759l-250 507l-251 -507l-359 759h164l204 -451l229 467l-71 -57l-55 59l262 277z" />
    <glyph glyph-name="wacute" unicode="&#x1e83;" horiz-adv-x="1203" 
d="M813 886l-206 -167l236 -482l204 451h164l-359 -759l-250 507l-251 -507l-359 759h164l204 -451l229 467l-71 -57l-55 59l262 277z" />
    <glyph glyph-name="Wdieresis" unicode="&#x1e84;" horiz-adv-x="1203" 
d="M1211 688l-359 -759l-250 507l-251 -507l-359 759h164l204 -451l242 494l241 -494l204 451h164zM528 813q0 -32 -22 -57.5t-61 -25.5q-19 0 -34.5 7t-26 18.5t-16 26.5t-5.5 31q0 32 21 57.5t61 25.5q39 0 61 -25.5t22 -57.5zM840 813q0 -32 -22 -57.5t-61 -25.5
q-19 0 -34.5 7t-26 18.5t-16 26.5t-5.5 31q0 32 21 57.5t61 25.5q39 0 61 -25.5t22 -57.5z" />
    <glyph glyph-name="wdieresis" unicode="&#x1e85;" horiz-adv-x="1203" 
d="M1211 688l-359 -759l-250 507l-251 -507l-359 759h164l204 -451l242 494l241 -494l204 451h164zM528 813q0 -32 -22 -57.5t-61 -25.5q-19 0 -34.5 7t-26 18.5t-16 26.5t-5.5 31q0 32 21 57.5t61 25.5q39 0 61 -25.5t22 -57.5zM840 813q0 -32 -22 -57.5t-61 -25.5
q-19 0 -34.5 7t-26 18.5t-16 26.5t-5.5 31q0 32 21 57.5t61 25.5q39 0 61 -25.5t22 -57.5z" />
    <glyph glyph-name="Ygrave" unicode="&#x1ef2;" horiz-adv-x="816" 
d="M481 292v-293h-145v293l-343 342l103 103l313 -312l312 312l103 -103zM226 983l280 -257l-47 -68l-313 221z" />
    <glyph glyph-name="ygrave" unicode="&#x1ef3;" horiz-adv-x="816" 
d="M481 292v-293h-145v293l-343 342l103 103l313 -312l312 312l103 -103zM226 983l280 -257l-47 -68l-313 221z" />
    <glyph glyph-name="endash" unicode="&#x2013;" horiz-adv-x="785" 
d="M42 239v130h701v-130h-701z" />
    <glyph glyph-name="emdash" unicode="&#x2014;" horiz-adv-x="1019" 
d="M43 239v130h934v-130h-934z" />
    <glyph glyph-name="quoteleft" unicode="&#x2018;" horiz-adv-x="314" 
d="M189 385h-149l115 322h110z" />
    <glyph glyph-name="quoteright" unicode="&#x2019;" horiz-adv-x="314" 
d="M121 707h149l-115 -322h-110z" />
    <glyph glyph-name="quotesinglbase" unicode="&#x201a;" horiz-adv-x="314" 
d="M121 207h149l-115 -322h-110z" />
    <glyph glyph-name="quotedblleft" unicode="&#x201c;" horiz-adv-x="543" 
d="M193 385h-149l115 322h110zM422 385h-149l115 322h110z" />
    <glyph glyph-name="quotedblright" unicode="&#x201d;" horiz-adv-x="543" 
d="M121 707h149l-115 -322h-110zM350 707h149l-115 -322h-110z" />
    <glyph glyph-name="quotedblbase" unicode="&#x201e;" horiz-adv-x="551" 
d="M119 207h149l-115 -322h-110zM360 207h149l-115 -322h-110z" />
    <glyph glyph-name="dagger" unicode="&#x2020;" horiz-adv-x="575" 
d="M340 461v-650h-111v650h-184v110h184v178h111v-178h190v-110h-190z" />
    <glyph glyph-name="daggerdbl" unicode="&#x2021;" horiz-adv-x="575" 
d="M340 2v-191h-111v191h-184v110h184v349h-184v110h184v178h111v-178h190v-110h-190v-349h190v-110h-190z" />
    <glyph glyph-name="bullet" unicode="&#x2022;" horiz-adv-x="380" 
d="M335 365q0 -66 -40 -104.5t-105 -38.5q-29 0 -55 10t-46 29t-32 45t-12 59t12 58.5t32 42.5t46 26t55 9q65 0 105 -35t40 -101z" />
    <glyph glyph-name="ellipsis" unicode="&#x2026;" horiz-adv-x="786" 
d="M749 83q0 -32 -22 -57.5t-61 -25.5q-19 0 -34.5 7t-26 18.5t-16 26.5t-5.5 31q0 32 21 57.5t61 25.5q39 0 61 -25.5t22 -57.5zM211 83q0 -32 -22 -57.5t-61 -25.5q-19 0 -34.5 7t-26 18.5t-16 26.5t-5.5 31q0 32 21 57.5t61 25.5q39 0 61 -25.5t22 -57.5zM480 83
q0 -32 -22 -57.5t-61 -25.5q-19 0 -34.5 7t-26 18.5t-16 26.5t-5.5 31q0 32 21 57.5t61 25.5q39 0 61 -25.5t22 -57.5z" />
    <glyph glyph-name="perthousand" unicode="&#x2030;" horiz-adv-x="1174" 
d="M448 493q0 -23 -5 -48l210 255h158l-249 -304q18 8 39.5 13t47.5 5q45 0 82 -15t65 -42q24 26 59.5 41.5t83.5 15.5q44 0 81.5 -15t65.5 -42t43.5 -65t15.5 -85t-15.5 -85.5t-43.5 -65.5t-65.5 -41.5t-81.5 -14.5q-48 0 -84 15t-60 41q-28 -27 -65 -41.5t-81 -14.5
q-51 0 -88 16.5t-61 45t-36 66t-12 79.5q0 33 9 66l-224 -273h-159l247 301q-38 -15 -83 -15q-51 0 -88 17t-61 45.5t-36 66t-12 78.5q0 39 12 76t36 66t61 47t88 18q44 0 81.5 -15t65.5 -42t43.5 -65t15.5 -85zM1032 207q0 19 -5 38.5t-15.5 35t-28.5 25t-43 9.5
q-23 0 -39.5 -9.5t-27 -25t-15 -35t-4.5 -38.5q0 -20 4.5 -39.5t15 -35t27 -25t39.5 -9.5q25 0 43 9.5t28.5 25t15.5 35t5 39.5zM334 493q0 19 -5 38.5t-15.5 35.5t-28 25.5t-42.5 9.5q-23 0 -39.5 -9.5t-27 -25.5t-15 -35.5t-4.5 -38.5q0 -20 4.5 -39.5t15 -35t27 -25
t39.5 -9.5q25 0 42.5 9.5t28 25t15.5 35t5 39.5zM741 214q-1 19 -6 37t-16 32t-28 23t-41 9q-23 0 -39.5 -9.5t-27 -25t-15 -35t-4.5 -38.5q0 -20 4.5 -39.5t15 -35t27 -25t39.5 -9.5q24 0 40.5 8.5t27.5 22.5t16.5 32t6.5 37v16z" />
    <glyph glyph-name="guilsinglleft" unicode="&#x2039;" horiz-adv-x="487" 
d="M378 82l-333 261l333 262l64 -74l-228 -189l228 -194z" />
    <glyph glyph-name="guilsinglright" unicode="&#x203a;" horiz-adv-x="487" 
d="M109 604l333 -261l-333 -262l-64 74l228 189l-228 194z" />
    <glyph glyph-name="fraction" unicode="&#x2044;" horiz-adv-x="709" 
d="M505 700h160l-461 -840h-159z" />
    <glyph glyph-name="Euro" unicode="&#x20ac;" horiz-adv-x="664" 
d="M247 384q-1 -8 -1.5 -17t-0.5 -17v-19.5t2 -18.5h215v-55h-205q20 -69 68 -108t116 -39q39 0 70 11.5t51 29.5l58 -81q-32 -32 -84.5 -51t-110.5 -19q-60 0 -111 18t-90.5 52t-67 81t-39.5 106h-72v55h64q-1 9 -1 18.5v19.5v17t1 17h-64v56h72q12 58 39.5 106t67 82.5
t90.5 53t111 18.5q58 0 110.5 -19t84.5 -51l-56 -81q-23 19 -54 29.5t-69 10.5q-69 0 -116.5 -40t-67.5 -109h205v-56h-215z" />
    <glyph glyph-name="trademark" unicode="&#x2122;" horiz-adv-x="1346" 
d="M1190 217v364l-191 -288h-58l-184 285v-361h-110v532h121l206 -311l205 311h122v-532h-111zM366 634v-417h-130v417h-191v115h520v-115h-199z" />
    <glyph glyph-name="minus" unicode="&#x2212;" horiz-adv-x="638" 
d="M45 291v111h548v-111h-548z" />
    <glyph glyph-name="fi" unicode="&#xfb01;" horiz-adv-x="923" 
d="M700 542q-129 0 -256 -0.5t-256 -0.5v-198h419v-106h-419v-239h-146v690h658v-146zM747 -2v690h146v-690h-146z" />
    <glyph glyph-name="fl" unicode="&#xfb02;" horiz-adv-x="1365" 
d="M699 542q-129 0 -256 -0.5t-256 -0.5v-198h419v-106h-419v-239h-146v690h658v-146zM1332 144v-146h-588v690h146v-544h442z" />
    </font>
</defs>
</svg>
