<?xml version="1.0" standalone="no"?>
<!DOCTYPE svg PUBLIC "-//W3C//DTD SVG 1.1//EN" "http://www.w3.org/Graphics/SVG/1.1/DTD/svg11.dtd" >
<svg xmlns="http://www.w3.org/2000/svg" xmlns:xlink="http://www.w3.org/1999/xlink" version="1.1">
<metadata>
Created by FontForge 20170731 at Fri May 25 22:45:12 2018
 By Aleksey,,,
Copyright (c) 2018 by Mans Greback. All rights reserved.
</metadata>
<defs>
<font id="Aliment-Medium" horiz-adv-x="798" >
  <font-face 
    font-family="Aliment"
    font-weight="500"
    font-stretch="normal"
    units-per-em="1000"
    panose-1="0 0 0 0 0 0 0 0 0 0"
    ascent="800"
    descent="-200"
    x-height="691"
    cap-height="691"
    bbox="-153.031 -368 1357 1038"
    underline-thickness="50"
    underline-position="-150"
    unicode-range="U+000D-FB02"
  />
<missing-glyph horiz-adv-x="393" 
 />
    <glyph glyph-name=".notdef" horiz-adv-x="393" 
 />
    <glyph glyph-name=".null" horiz-adv-x="0" 
 />
    <glyph glyph-name="nonmarkingreturn" unicode="&#xd;" horiz-adv-x="393" 
 />
    <glyph glyph-name="NULL" horiz-adv-x="0" 
 />
    <glyph glyph-name="NULL" horiz-adv-x="0" 
 />
    <glyph glyph-name="space" unicode=" " horiz-adv-x="393" 
 />
    <glyph glyph-name="exclam" unicode="!" horiz-adv-x="315" 
d="M226 280h-140l-41 420h222zM264 106q0 -20 -7 -39t-20.5 -34t-33 -24t-45.5 -9t-45.5 9t-32.5 24t-20 34t-7 39q0 19 6.5 38t19.5 33.5t33 23.5t46 9t45.5 -9t33 -23.5t20.5 -33.5t7 -38z" />
    <glyph glyph-name="quotedbl" unicode="&#x22;" horiz-adv-x="513" 
d="M36 700h193l-29 -338h-140zM283 700h193l-29 -338h-140z" />
    <glyph glyph-name="numbersign" unicode="#" horiz-adv-x="683" 
d="M358 119h-106l-15 -79h-140l15 79h-76l26 146h78l22 116h-83l26 147h86l18 93h140l-18 -93h106l18 93h140l-18 -93h70l-26 -147h-73l-22 -116h78l-26 -146h-80l-15 -79h-140zM280 265h106l22 116h-106z" />
    <glyph glyph-name="dollar" unicode="$" horiz-adv-x="699" 
d="M286 3q-57 6 -99 22t-72 38.5t-49.5 50t-29.5 57.5l146 43q20 -23 49 -39.5t72 -24.5l17 150q-44 7 -87 19t-78 33.5t-57.5 55t-24.5 85.5q-2 36 16.5 72.5t56 66t93 48.5t127.5 20l10 84h99l-11 -93q60 -11 104.5 -34t67.5 -51l-97 -94q-19 11 -41.5 19t-50.5 12
l-14 -119q42 -6 83 -17.5t73.5 -34t53 -58.5t20.5 -91q0 -44 -18.5 -83t-54.5 -69t-88 -49t-118 -22l-9 -84h-99zM510 226q0 25 -26 37.5t-67 20.5l-16 -137q55 7 82 29t27 50zM248 480q2 -20 26 -29.5t62 -14.5l12 110q-47 -5 -74.5 -22t-25.5 -44z" />
    <glyph glyph-name="percent" unicode="%" horiz-adv-x="919" 
d="M882 212q0 -48 -17.5 -87t-48 -67t-72 -43t-89.5 -15q-53 0 -92 15.5t-66 42t-41.5 62t-17.5 74.5l-154 -194h-219l219 275q-8 -1 -15 -1h-15q-56 0 -97 17t-68 46.5t-40 68t-13 80.5q0 40 13 78.5t40 68.5t68 48.5t97 18.5q43 0 81 -12.5t68 -36t49 -57t25 -75.5
l144 181h219l-220 -276q8 1 17 1.5t18 0.5q48 0 89.5 -15t72 -43t48 -67.5t17.5 -88.5zM726 212q0 15 -3.5 29.5t-12 26t-21.5 18.5t-32 7q-17 0 -29.5 -7t-20 -18.5t-11 -26t-3.5 -29.5q0 -14 3.5 -28.5t11 -26t20 -18.5t29.5 -7q19 0 32 7t21.5 18.5t12 26t3.5 28.5z
M324 486q0 15 -3.5 29.5t-12 26t-21.5 18.5t-32 7q-17 0 -29.5 -7t-20 -18.5t-11 -26t-3.5 -29.5q0 -14 3.5 -28.5t11 -25.5t20 -18t29.5 -7q19 0 32 7t21.5 18t12 25.5t3.5 28.5z" />
    <glyph glyph-name="ampersand" unicode="&#x26;" horiz-adv-x="787" 
d="M688 395q2 -56 -9.5 -108t-35.5 -98q26 -16 53 -29.5t54 -26.5l-51 -133q-38 17 -75 36.5t-72 42.5q-46 -37 -105 -58t-130 -21q-76 0 -133 23.5t-92.5 61t-48 83.5t-0.5 90.5t50 83t103 61.5q-35 57 -35.5 110.5t24 95t70 66.5t104.5 25q58 0 98.5 -19.5t64.5 -51
t30 -71t-6.5 -79t-43.5 -75.5t-81 -60q53 -45 115 -88q25 29 42.5 64.5t25.5 74.5h84zM328 149q48 3 94 23q-41 32 -77 66t-68 67q-46 -14 -63.5 -41t-9.5 -53t40 -45t84 -17zM363 548q-21 0 -34.5 -9t-18 -24.5t1.5 -37.5t25 -47q39 9 58 29t21 39.5t-12 34.5t-41 15z" />
    <glyph glyph-name="quotesingle" unicode="'" horiz-adv-x="266" 
d="M36 700h193l-29 -338h-140z" />
    <glyph glyph-name="parenleft" unicode="(" horiz-adv-x="429" 
d="M247 350q0 -62 11.5 -119t31 -105t46.5 -85t57 -60l-104 -62q-48 24 -93.5 66.5t-81 98.5t-57 124t-21.5 142t22 140.5t57.5 122t81 98.5t92.5 69l104 -62q-30 -25 -57 -62.5t-46.5 -85t-31 -103t-11.5 -117.5z" />
    <glyph glyph-name="parenright" unicode=")" horiz-adv-x="429" 
d="M182 350q0 62 -11.5 119t-31 105t-46.5 85t-57 60l104 62q48 -24 93.5 -66.5t81 -98.5t57 -124t21.5 -142t-22 -141t-57.5 -122.5t-81 -98t-92.5 -68.5l-104 62q30 25 57 62.5t46.5 84.5t31 103t11.5 118z" />
    <glyph glyph-name="asterisk" unicode="*" horiz-adv-x="638" 
d="M109 694l149 -106l-15 175h152l-15 -171l142 102l79 -122l-174 -83l174 -82l-79 -122l-142 102l15 -170h-152l14 173l-148 -105l-73 122l171 82l-171 83z" />
    <glyph glyph-name="plus" unicode="+" horiz-adv-x="638" 
d="M398 422h203v-152h-203v-204h-152v204h-210v152h210v197h152v-197z" />
    <glyph glyph-name="comma" unicode="," horiz-adv-x="319" 
d="M84 209h199l-118 -317h-129z" />
    <glyph glyph-name="hyphen" unicode="-" horiz-adv-x="550" 
d="M36 225v181h478v-181h-478z" />
    <glyph glyph-name="period" unicode="." horiz-adv-x="283" 
d="M247 106q0 -20 -7 -39t-20.5 -34t-33 -24t-45.5 -9t-45.5 9t-32.5 24t-20 34t-7 39q0 19 6.5 38t19.5 33.5t33 23.5t46 9t45.5 -9t33 -23.5t20.5 -33.5t7 -38z" />
    <glyph glyph-name="slash" unicode="/" horiz-adv-x="749" 
d="M489 700h223l-452 -840h-224z" />
    <glyph glyph-name="zero" unicode="0" horiz-adv-x="725" 
d="M491 350q0 34 -9.5 64.5t-26.5 53t-41 35.5t-53 13q-27 0 -50.5 -12.5t-40.5 -34.5t-26.5 -52.5t-9.5 -66.5t9.5 -66.5t26.5 -52.5t40.5 -34.5t50.5 -12.5q29 0 53 13.5t41 36t26.5 52.5t9.5 64zM687 350q0 -81 -25.5 -146t-69.5 -110.5t-104 -69.5t-129 -24
q-74 0 -133 27t-101 74.5t-64.5 111t-22.5 137.5q0 73 22.5 137t64 111.5t101 74.5t133.5 27q69 0 129 -25t104 -71t69.5 -110.5t25.5 -143.5z" />
    <glyph glyph-name="one" unicode="1" horiz-adv-x="405" 
d="M100 0v619l79 81h132v-700h-211z" />
    <glyph glyph-name="two" unicode="2" horiz-adv-x="688" 
d="M49 411q-10 55 5 107t53 92.5t98 65t139 24.5q74 0 128 -19t88.5 -51t49.5 -74t12.5 -87t-23.5 -90.5t-59 -85.5l-148 -141h259v-152h-628l360 360q32 31 42 63t2.5 57.5t-30 42t-56.5 16.5q-26 0 -47 -10t-34 -27.5t-17.5 -41t1.5 -49.5h-195v0z" />
    <glyph glyph-name="three" unicode="3" horiz-adv-x="706" 
d="M74 480q-9 33 0.5 71.5t41.5 71.5t90.5 55t147.5 22q76 0 129.5 -14t87.5 -38t49 -55t15 -65q0 -42 -23.5 -80.5t-79.5 -64.5q68 -22 103 -65.5t35 -100.5q0 -39 -18.5 -77.5t-58.5 -69.5t-103 -50.5t-152 -19.5q-88 0 -149 24t-97 62t-48 86t-2 96h192
q-7 -41 21.5 -68.5t88.5 -27.5q63 0 92 24.5t29 58.5q0 13 -6 25.5t-21 22t-40 15.5t-62 6h-107v105h95q30 0 50 6t32.5 15.5t18 20.5t5.5 22q0 23 -20 40t-67 17q-53 0 -73 -21t-15 -49h-181v0z" />
    <glyph glyph-name="four" unicode="4" horiz-adv-x="693" 
d="M579 785v-524h78v-136h-78v-125h-189v125h-398zM435 244v189l-144 -189h144z" />
    <glyph glyph-name="five" unicode="5" horiz-adv-x="691" 
d="M455 273q0 39 -19.5 61.5t-49.5 28.5t-66 -4.5t-69 -38.5h-191l54 380h479v-153h-319l-14 -135q62 37 131.5 46t128 -10.5t97 -68t38.5 -126.5q0 -55 -23 -101.5t-65 -80t-100 -52.5t-127 -19q-71 0 -127.5 17t-95.5 49t-60 78t-21 105h199q0 -18 9.5 -32.5t24.5 -24.5
t35 -15.5t41 -5.5q48 0 79 28.5t31 73.5z" />
    <glyph glyph-name="six" unicode="6" horiz-adv-x="698" 
d="M451 264q0 30 -15 51.5t-42 29t-63.5 -0.5t-79.5 -36q0 -40 8 -68t22 -45.5t32.5 -25.5t39.5 -8q20 0 38 8t31.5 22t21 33t7.5 40zM358 0q-69 0 -128 21.5t-102.5 64t-68 105.5t-24.5 145q0 79 25.5 145.5t72.5 115t113 76t147 27.5q29 0 61 -3.5t62 -10.5t55 -16t41 -19
l-27 -144q-12 10 -32 20t-44.5 16.5t-52.5 9t-56 -2.5q-66 -5 -104.5 -45t-44.5 -102q78 42 151.5 48.5t131 -17.5t92.5 -74.5t35 -121.5q0 -44 -19.5 -87t-58 -76.5t-95 -54t-130.5 -20.5z" />
    <glyph glyph-name="seven" unicode="7" horiz-adv-x="644" 
d="M327 -35l-163 76l235 489h-363v170h644z" />
    <glyph glyph-name="eight" unicode="8" horiz-adv-x="718" 
d="M35 210q0 54 31.5 100t98.5 74q-48 26 -68 61t-20 70q0 34 15.5 67t49.5 59.5t87.5 42.5t129.5 16t129.5 -16t87 -42.5t49 -59.5t15.5 -67q0 -37 -19.5 -72t-65.5 -60q66 -29 96.5 -74t30.5 -99q0 -39 -20 -77t-60 -67.5t-101 -47.5t-142 -18q-84 0 -145 18t-101 47.5
t-59 67.5t-19 77zM359 162q27 0 48 7t35.5 18.5t22 26t7.5 28.5q0 35 -31.5 59t-81.5 24t-81.5 -24t-31.5 -59q0 -14 7 -28.5t21 -26t35 -18.5t50 -7zM359 549q-50 0 -72 -19.5t-22 -45.5t25 -42t69 -16q43 0 68.5 16t25.5 42t-23 45.5t-71 19.5z" />
    <glyph glyph-name="nine" unicode="9" horiz-adv-x="694" 
d="M244 436q0 -30 15 -51.5t42 -29t63.5 0.5t79.5 36q0 40 -8 68t-22 45.5t-32.5 25.5t-39.5 8q-20 0 -38 -8t-31.5 -22t-21 -33t-7.5 -40zM337 700q69 0 128 -21.5t102.5 -64t68 -105.5t24.5 -145q0 -79 -25.5 -145.5t-72.5 -115t-113 -76t-147 -27.5q-29 0 -61 3.5
t-62 10.5t-55 15.5t-41 19.5l27 144q12 -10 32 -20t44.5 -16.5t52.5 -9t56 2.5q66 5 104.5 45t44.5 102q-78 -42 -151.5 -48.5t-131 17.5t-92.5 74.5t-35 121.5q0 44 19.5 87t57.5 76.5t95 54t131 20.5z" />
    <glyph glyph-name="colon" unicode=":" horiz-adv-x="283" 
d="M247 106q0 -20 -7 -39t-20.5 -34t-33 -24t-45.5 -9t-45.5 9t-32.5 24t-20 34t-7 39q0 19 6.5 38t19.5 33.5t33 23.5t46 9t45.5 -9t33 -23.5t20.5 -33.5t7 -38zM247 457q0 -20 -7 -39t-20.5 -34t-33 -24t-45.5 -9t-45.5 9t-32.5 24t-20 34t-7 39q0 19 6.5 38t19.5 33.5
t33 23.5t46 9t45.5 -9t33 -23.5t20.5 -33.5t7 -38z" />
    <glyph glyph-name="semicolon" unicode=";" horiz-adv-x="320" 
d="M84 209h199l-118 -317h-129zM283 457q0 -20 -7 -39t-20.5 -34t-33 -24t-45.5 -9t-45.5 9t-32.5 24t-20 34t-7 39q0 19 6.5 38t19.5 33.5t33 23.5t46 9t45.5 -9t33 -23.5t20.5 -33.5t7 -38z" />
    <glyph glyph-name="less" unicode="&#x3c;" horiz-adv-x="504" 
d="M468 529l-201 -184l201 -182l-86 -98l-346 278l346 278z" />
    <glyph glyph-name="equal" unicode="=" horiz-adv-x="638" 
d="M36 397v135h565v-135h-565zM36 168v134h565v-134h-565z" />
    <glyph glyph-name="greater" unicode="&#x3e;" horiz-adv-x="504" 
d="M122 621l346 -278l-346 -278l-86 98l201 182l-201 184z" />
    <glyph glyph-name="question" unicode="?" horiz-adv-x="621" 
d="M39 478q-7 37 7.5 76.5t49.5 72t89.5 53t127.5 20.5q66 0 117 -18t85.5 -47.5t52 -67.5t16.5 -77q-2 -47 -20.5 -77.5t-45 -50.5t-57.5 -33.5t-57 -26t-42.5 -28.5t-15.5 -41h-132q-7 49 2.5 80t28.5 50.5t43 32t46 23.5t38.5 24.5t20.5 36.5q2 31 -24.5 53.5t-72.5 22.5
q-29 0 -48.5 -8t-31 -19.5t-16 -25t-1.5 -25.5h-160zM388 89q0 -17 -6.5 -33t-20 -28.5t-33.5 -20t-47 -7.5q-52 0 -78.5 27.5t-26.5 61.5q0 17 6.5 33t19.5 28.5t33 20t46 7.5q27 0 47 -7.5t33.5 -20t20 -28.5t6.5 -33z" />
    <glyph glyph-name="at" unicode="@" horiz-adv-x="1053" 
d="M326 491q21 44 72.5 73.5t130.5 29.5q51 0 92.5 -12.5t71 -37t46 -61t16.5 -84.5v-132q0 -19 7 -35t31 -16q25 0 41.5 33t16.5 115q0 72 -22 129.5t-63.5 98t-102 62.5t-136.5 22q-72 0 -131.5 -21.5t-101.5 -63.5t-65 -102.5t-23 -138.5q0 -80 21.5 -140.5t60.5 -101
t94 -61t123 -20.5q52 0 91 12.5t76 36.5l105 -76q-17 -14 -42 -29t-58.5 -28.5t-75.5 -22t-93 -8.5q-121 0 -209.5 34t-147 93t-87 139t-28.5 172q0 89 31.5 168.5t93 139t153.5 94.5t213 35q118 0 209.5 -32t153.5 -87.5t94.5 -130t32.5 -160.5q0 -64 -18.5 -114t-50 -84.5
t-74 -52.5t-90.5 -18q-42 0 -78.5 17.5t-59.5 48.5q-29 -31 -68 -45.5t-84 -14.5q-39 0 -73.5 12.5t-60 34t-40.5 49.5t-15 60q0 29 11 56t34.5 47.5t60.5 33t90 12.5q31 0 60 -1t55 0q-10 70 -101 70q-35 0 -67.5 -9.5t-59.5 -30.5zM524 219q27 0 44.5 7.5t28 20t15 29
t5.5 34.5v19q-34 -7 -88 -7q-48 0 -67 -13.5t-19 -36.5q0 -24 21.5 -38.5t59.5 -14.5z" />
    <glyph glyph-name="A" unicode="A" horiz-adv-x="879" 
d="M895 -2h-247l-59 104l-146 -65l-153 64l-59 -103h-246l454 764zM327 166h225l-112 198z" />
    <glyph glyph-name="B" unicode="B" horiz-adv-x="752" 
d="M512 458q46 -5 84 -23.5t65 -47.5t41.5 -67.5t14.5 -81.5q0 -53 -20 -97t-54.5 -75.5t-79.5 -49.5t-94 -18h-434v693h323q28 0 55.5 -8t50 -23.5t39 -37t23.5 -48.5q11 -26 6 -59.5t-20 -56.5zM214 448h120q18 0 31 13t13 31q0 27 -20 35t-44 8h-100v-87zM427 166
q41 0 69 29t28 70q0 20 -7.5 38.5t-20.5 32t-31 21.5t-38 8h-213v-200z" />
    <glyph glyph-name="C" unicode="C" horiz-adv-x="811" 
d="M235 344q0 -41 15 -73t39.5 -54.5t56.5 -34.5t67 -13q27 -1 53.5 6t49 22t40.5 38t28 54l202 -57q-18 -60 -54 -111t-85 -87.5t-108.5 -57.5t-125.5 -21q-81 0 -151.5 30.5t-123.5 83.5t-83.5 124t-30.5 151q0 81 30.5 151.5t83.5 123.5t123.5 83.5t151.5 30.5
q66 0 125.5 -21t108.5 -57.5t85 -87.5t54 -111l-202 -56q-9 27 -25.5 49.5t-38.5 39t-49 26t-57 9.5q-35 0 -67.5 -13.5t-57.5 -37.5t-39.5 -57t-14.5 -72z" />
    <glyph glyph-name="D" unicode="D" horiz-adv-x="754" 
d="M373 691q72 0 135 -27.5t110 -74.5t74 -110t27 -135t-27 -135t-74 -110t-110 -74t-135 -27h-338v693h338zM373 196q30 0 57 11.5t47.5 31.5t32 47t11.5 58q0 30 -11.5 57t-32 47t-47.5 31.5t-57 11.5h-140v-295h140z" />
    <glyph glyph-name="E" unicode="E" horiz-adv-x="658" 
d="M244 522v-127h289v-103h-289v-127h379v-167h-588v693h588v-167z" />
    <glyph glyph-name="F" unicode="F" horiz-adv-x="690" 
d="M705 482q-116 0 -230.5 -0.5t-230.5 -0.5v-140h371v-130h-371v-213h-209v693h670v-209v0z" />
    <glyph glyph-name="G" unicode="G" horiz-adv-x="884" 
d="M859 335q0 -20 -0.5 -40.5t-0.5 -40.5h-109q-15 -59 -48.5 -109.5t-80.5 -87.5t-105 -58t-122 -21q-76 0 -143 29t-117 79t-79 117t-29 143t29 143t79 117.5t117 79.5t143 29q67 0 126.5 -22.5t107 -62.5t79.5 -93.5t44 -116.5h-215q-19 35 -56 60t-84 25
q-33 0 -61.5 -12.5t-50.5 -34t-34.5 -50.5t-12.5 -62q0 -32 12 -61t33 -51t50 -35t63 -13q53 0 92 28t54 73h-82v48h401v0z" />
    <glyph glyph-name="H" unicode="H" horiz-adv-x="763" 
d="M728 691v-693h-209v268h-275v-268h-209v693h209v-296h275v296h209z" />
    <glyph glyph-name="I" unicode="I" horiz-adv-x="279" 
d="M35 -2v693h209v-693h-209z" />
    <glyph glyph-name="J" unicode="J" horiz-adv-x="758" 
d="M722 690v-370q0 -71 -27 -134t-73.5 -109.5t-109.5 -73.5t-134 -27q-68 0 -128.5 25t-107 68t-75 101t-33.5 125h212q4 -23 16 -43t29.5 -35t39.5 -23.5t47 -8.5q28 0 53 10.5t43.5 29t29 43t10.5 52.5v371z" />
    <glyph glyph-name="K" unicode="K" horiz-adv-x="793" 
d="M615 -92l-371 386v-292h-209v693h209v-293l371 386l145 -146l-294 -294l294 -294z" />
    <glyph glyph-name="L" unicode="L" horiz-adv-x="665" 
d="M630 207v-209h-595v693h209v-484h386z" />
    <glyph glyph-name="M" unicode="M" horiz-adv-x="958" 
d="M923 773v-775h-209v295l-235 -272l-235 272v-295h-209v775l444 -467z" />
    <glyph glyph-name="N" unicode="N" horiz-adv-x="848" 
d="M813 691v-793l-569 475v-374h-209v784l569 -475v383h209z" />
    <glyph glyph-name="O" unicode="O" horiz-adv-x="827" 
d="M414 734q80 0 151 -30.5t123.5 -83.5t83 -124t30.5 -151q0 -81 -30.5 -151.5t-83 -123.5t-123.5 -83.5t-151 -30.5q-81 0 -151.5 30.5t-123.5 83.5t-83.5 123.5t-30.5 151.5q0 80 30.5 151t83.5 124t123.5 83.5t151.5 30.5zM414 164q37 0 70 14t57.5 38.5t38.5 57.5
t14 70t-14 70t-38.5 57.5t-57.5 38.5t-70 14q-38 0 -70.5 -14t-57 -38.5t-38.5 -57.5t-14 -70t14 -70t38.5 -57.5t57 -38.5t70.5 -14z" />
    <glyph glyph-name="P" unicode="P" horiz-adv-x="742" 
d="M446 690q56 0 103.5 -20.5t82.5 -56t55 -83t20 -102.5q0 -54 -20 -101.5t-55.5 -83.5t-83 -56.5t-102.5 -20.5h-202v-168h-209v693h135.5t102 -0.5t73.5 -0.5h49h51zM413 312q45 0 71 26t26 68q0 48 -26.5 72t-73.5 24h-166v-191z" />
    <glyph glyph-name="Q" unicode="Q" horiz-adv-x="805" 
d="M662 -98l-113 113q-35 -19 -74.5 -29t-81.5 -10q-77 0 -144 29t-117 79.5t-79 117.5t-29 143t29 143t79 117t117 79t144 29q76 0 143 -29t117 -79t79 -117t29 -143q0 -65 -21 -122.5t-59 -104.5l99 -99zM233 346q0 -33 12.5 -62.5t34.5 -51t51 -34t62 -12.5t62 12.5
t51 34t34.5 51t12.5 62.5t-12.5 62t-34.5 51t-51 34.5t-62 12.5t-62 -12.5t-51 -34.5t-34.5 -51t-12.5 -62z" />
    <glyph glyph-name="R" unicode="R" horiz-adv-x="756" 
d="M387 175h-143v-178h-209v693h411q54 0 102 -20.5t83.5 -56.5t56 -83.5t20.5 -101.5q0 -63 -31.5 -113t-80.5 -75l164 -175l-139 -136zM510 406q0 27 -10.5 45.5t-28 30t-40.5 16t-48 4.5h-139v-192h139q25 0 48 4.5t40.5 16t28 30t10.5 45.5z" />
    <glyph glyph-name="S" unicode="S" horiz-adv-x="952" 
d="M932 691v-209h-230q-24 0 -46.5 -8.5t-39 -28.5t-27 -52.5t-10.5 -80.5q-3 -72 -23.5 -130t-61 -99t-103.5 -63t-150 -22h-221v209h233q24 0 45.5 8.5t37.5 28t26 52.5t10 81q3 70 21.5 128t55.5 99.5t93 64t133 22.5h257z" />
    <glyph glyph-name="T" unicode="T" horiz-adv-x="790" 
d="M774 482h-274v-484h-209v484h-273v209h756v-209z" />
    <glyph glyph-name="U" unicode="U" 
d="M762 691v-351q0 -75 -28.5 -141.5t-78 -116t-115.5 -78t-141 -28.5t-141.5 28.5t-116 78t-78 116t-28.5 141.5v351h209v-351q0 -32 12 -60.5t33 -49.5t49.5 -33t60.5 -12t60.5 12t49.5 33t33.5 49.5t12.5 60.5v351h207z" />
    <glyph glyph-name="V" unicode="V" horiz-adv-x="890" 
d="M905 691l-460 -763l-460 763h246l214 -368l213 368h247z" />
    <glyph glyph-name="W" unicode="W" horiz-adv-x="1217" 
d="M1232 691l-389 -773l-235 434l-234 -434l-389 773h237l168 -358l218 411l218 -411l168 358h238z" />
    <glyph glyph-name="X" unicode="X" horiz-adv-x="858" 
d="M564 344l309 -346h-257l-187 198l-187 -198h-257l309 346l-309 347h257l187 -199l187 199h257z" />
    <glyph glyph-name="Y" unicode="Y" horiz-adv-x="850" 
d="M529 280v-282h-209v282l-335 335l148 148l292 -292l292 292l148 -148z" />
    <glyph glyph-name="Z" unicode="Z" horiz-adv-x="950" 
d="M460 207h447v-209h-872l426 484h-398v209h823z" />
    <glyph glyph-name="bracketleft" unicode="[" horiz-adv-x="446" 
d="M36 -63v826h373v-141h-168v-545h168v-140h-373z" />
    <glyph glyph-name="backslash" unicode="\" horiz-adv-x="749" 
d="M712 -140h-223l-453 840h224z" />
    <glyph glyph-name="bracketright" unicode="]" horiz-adv-x="446" 
d="M410 763v-826h-373v141h168v545h-168v140h373z" />
    <glyph glyph-name="asciicircum" unicode="^" horiz-adv-x="580" 
d="M223 682h135l185 -246h-178l-75 81l-76 -81h-178z" />
    <glyph glyph-name="underscore" unicode="_" horiz-adv-x="673" 
d="M36 -129v152h600v-152h-600z" />
    <glyph glyph-name="grave" unicode="`" horiz-adv-x="470" 
d="M146 762l288 -260l-63 -89l-335 204z" />
    <glyph glyph-name="a" unicode="a" horiz-adv-x="879" 
d="M895 -2h-247l-59 104l-146 -65l-153 64l-59 -103h-246l454 764zM327 166h225l-112 198z" />
    <glyph glyph-name="b" unicode="b" horiz-adv-x="752" 
d="M512 458q46 -5 84 -23.5t65 -47.5t41.5 -67.5t14.5 -81.5q0 -53 -20 -97t-54.5 -75.5t-79.5 -49.5t-94 -18h-434v693h323q28 0 55.5 -8t50 -23.5t39 -37t23.5 -48.5q11 -26 6 -59.5t-20 -56.5zM214 448h120q18 0 31 13t13 31q0 27 -20 35t-44 8h-100v-87zM427 166
q41 0 69 29t28 70q0 20 -7.5 38.5t-20.5 32t-31 21.5t-38 8h-213v-200z" />
    <glyph glyph-name="c" unicode="c" horiz-adv-x="811" 
d="M235 344q0 -41 15 -73t39.5 -54.5t56.5 -34.5t67 -13q27 -1 53.5 6t49 22t40.5 38t28 54l202 -57q-18 -60 -54 -111t-85 -87.5t-108.5 -57.5t-125.5 -21q-81 0 -151.5 30.5t-123.5 83.5t-83.5 124t-30.5 151q0 81 30.5 151.5t83.5 123.5t123.5 83.5t151.5 30.5
q66 0 125.5 -21t108.5 -57.5t85 -87.5t54 -111l-202 -56q-9 27 -25.5 49.5t-38.5 39t-49 26t-57 9.5q-35 0 -67.5 -13.5t-57.5 -37.5t-39.5 -57t-14.5 -72z" />
    <glyph glyph-name="d" unicode="d" horiz-adv-x="754" 
d="M373 691q72 0 135 -27.5t110 -74.5t74 -110t27 -135t-27 -135t-74 -110t-110 -74t-135 -27h-338v693h338zM373 196q30 0 57 11.5t47.5 31.5t32 47t11.5 58q0 30 -11.5 57t-32 47t-47.5 31.5t-57 11.5h-140v-295h140z" />
    <glyph glyph-name="e" unicode="e" horiz-adv-x="658" 
d="M244 522v-127h289v-103h-289v-127h379v-167h-588v693h588v-167z" />
    <glyph glyph-name="f" unicode="f" horiz-adv-x="690" 
d="M705 482q-116 0 -230.5 -0.5t-230.5 -0.5v-140h371v-130h-371v-213h-209v693h670v-209v0z" />
    <glyph glyph-name="g" unicode="g" horiz-adv-x="884" 
d="M859 335q0 -20 -0.5 -40.5t-0.5 -40.5h-109q-15 -59 -48.5 -109.5t-80.5 -87.5t-105 -58t-122 -21q-76 0 -143 29t-117 79t-79 117t-29 143t29 143t79 117.5t117 79.5t143 29q67 0 126.5 -22.5t107 -62.5t79.5 -93.5t44 -116.5h-215q-19 35 -56 60t-84 25
q-33 0 -61.5 -12.5t-50.5 -34t-34.5 -50.5t-12.5 -62q0 -32 12 -61t33 -51t50 -35t63 -13q53 0 92 28t54 73h-82v48h401v0z" />
    <glyph glyph-name="h" unicode="h" horiz-adv-x="763" 
d="M728 691v-693h-209v268h-275v-268h-209v693h209v-296h275v296h209z" />
    <glyph glyph-name="i" unicode="i" horiz-adv-x="279" 
d="M35 -2v693h209v-693h-209z" />
    <glyph glyph-name="j" unicode="j" horiz-adv-x="758" 
d="M722 690v-370q0 -71 -27 -134t-73.5 -109.5t-109.5 -73.5t-134 -27q-68 0 -128.5 25t-107 68t-75 101t-33.5 125h212q4 -23 16 -43t29.5 -35t39.5 -23.5t47 -8.5q28 0 53 10.5t43.5 29t29 43t10.5 52.5v371z" />
    <glyph glyph-name="k" unicode="k" horiz-adv-x="793" 
d="M615 -92l-371 386v-292h-209v693h209v-293l371 386l145 -146l-294 -294l294 -294z" />
    <glyph glyph-name="l" unicode="l" horiz-adv-x="665" 
d="M630 207v-209h-595v693h209v-484h386z" />
    <glyph glyph-name="m" unicode="m" horiz-adv-x="958" 
d="M923 773v-775h-209v295l-235 -272l-235 272v-295h-209v775l444 -467z" />
    <glyph glyph-name="n" unicode="n" horiz-adv-x="848" 
d="M813 691v-793l-569 475v-374h-209v784l569 -475v383h209z" />
    <glyph glyph-name="o" unicode="o" horiz-adv-x="827" 
d="M414 734q80 0 151 -30.5t123.5 -83.5t83 -124t30.5 -151q0 -81 -30.5 -151.5t-83 -123.5t-123.5 -83.5t-151 -30.5q-81 0 -151.5 30.5t-123.5 83.5t-83.5 123.5t-30.5 151.5q0 80 30.5 151t83.5 124t123.5 83.5t151.5 30.5zM414 164q37 0 70 14t57.5 38.5t38.5 57.5
t14 70t-14 70t-38.5 57.5t-57.5 38.5t-70 14q-38 0 -70.5 -14t-57 -38.5t-38.5 -57.5t-14 -70t14 -70t38.5 -57.5t57 -38.5t70.5 -14z" />
    <glyph glyph-name="p" unicode="p" horiz-adv-x="742" 
d="M446 690q56 0 103.5 -20.5t82.5 -56t55 -83t20 -102.5q0 -54 -20 -101.5t-55.5 -83.5t-83 -56.5t-102.5 -20.5h-202v-168h-209v693h135.5t102 -0.5t73.5 -0.5h49h51zM413 312q45 0 71 26t26 68q0 48 -26.5 72t-73.5 24h-166v-191z" />
    <glyph glyph-name="q" unicode="q" horiz-adv-x="805" 
d="M662 -98l-113 113q-35 -19 -74.5 -29t-81.5 -10q-77 0 -144 29t-117 79.5t-79 117.5t-29 143t29 143t79 117t117 79t144 29q76 0 143 -29t117 -79t79 -117t29 -143q0 -65 -21 -122.5t-59 -104.5l99 -99zM233 346q0 -33 12.5 -62.5t34.5 -51t51 -34t62 -12.5t62 12.5
t51 34t34.5 51t12.5 62.5t-12.5 62t-34.5 51t-51 34.5t-62 12.5t-62 -12.5t-51 -34.5t-34.5 -51t-12.5 -62z" />
    <glyph glyph-name="r" unicode="r" horiz-adv-x="756" 
d="M387 175h-143v-178h-209v693h411q54 0 102 -20.5t83.5 -56.5t56 -83.5t20.5 -101.5q0 -63 -31.5 -113t-80.5 -75l164 -175l-139 -136zM510 406q0 27 -10.5 45.5t-28 30t-40.5 16t-48 4.5h-139v-192h139q25 0 48 4.5t40.5 16t28 30t10.5 45.5z" />
    <glyph glyph-name="s" unicode="s" horiz-adv-x="952" 
d="M932 691v-209h-230q-24 0 -46.5 -8.5t-39 -28.5t-27 -52.5t-10.5 -80.5q-3 -72 -23.5 -130t-61 -99t-103.5 -63t-150 -22h-221v209h233q24 0 45.5 8.5t37.5 28t26 52.5t10 81q3 70 21.5 128t55.5 99.5t93 64t133 22.5h257z" />
    <glyph glyph-name="t" unicode="t" horiz-adv-x="790" 
d="M774 482h-274v-484h-209v484h-273v209h756v-209z" />
    <glyph glyph-name="u" unicode="u" 
d="M762 691v-351q0 -75 -28.5 -141.5t-78 -116t-115.5 -78t-141 -28.5t-141.5 28.5t-116 78t-78 116t-28.5 141.5v351h209v-351q0 -32 12 -60.5t33 -49.5t49.5 -33t60.5 -12t60.5 12t49.5 33t33.5 49.5t12.5 60.5v351h207z" />
    <glyph glyph-name="v" unicode="v" horiz-adv-x="890" 
d="M905 691l-460 -763l-460 763h246l214 -368l213 368h247z" />
    <glyph glyph-name="w" unicode="w" horiz-adv-x="1217" 
d="M1232 691l-389 -773l-235 434l-234 -434l-389 773h237l168 -358l218 411l218 -411l168 358h238z" />
    <glyph glyph-name="x" unicode="x" horiz-adv-x="858" 
d="M564 344l309 -346h-257l-187 198l-187 -198h-257l309 346l-309 347h257l187 -199l187 199h257z" />
    <glyph glyph-name="y" unicode="y" horiz-adv-x="850" 
d="M529 280v-282h-209v282l-335 335l148 148l292 -292l292 292l148 -148z" />
    <glyph glyph-name="z" unicode="z" horiz-adv-x="950" 
d="M460 207h447v-209h-872l426 484h-398v209h823z" />
    <glyph glyph-name="braceleft" unicode="{" horiz-adv-x="454" 
d="M36 415q58 0 86 15t38.5 39.5t10 55.5t-0.5 64t6.5 64t31 55.5t74 39.5t135.5 15v-152q-53 1 -75.5 -12.5t-29.5 -36t-4.5 -51t0 -58t-17 -56.5t-53.5 -47q39 -20 53.5 -47t17 -56.5t0 -58t4.5 -50.5t29.5 -35.5t75.5 -12.5v-152q-86 0 -135.5 15t-74 39.5t-31 55.5
t-6.5 64t0.5 64t-10 55.5t-38.5 39.5t-86 15v129z" />
    <glyph glyph-name="bar" unicode="|" horiz-adv-x="260" 
d="M36 749h187v-938h-187v938z" />
    <glyph glyph-name="braceright" unicode="}" horiz-adv-x="454" 
d="M418 286q-58 0 -86 -15t-38.5 -39.5t-10 -55.5t0.5 -64t-6.5 -64t-31 -55.5t-74 -39.5t-135.5 -15v152q52 -1 75 12.5t29.5 36t4.5 51t0.5 57.5t16.5 56.5t54 47.5q-40 20 -54 47t-16.5 56.5t-0.5 58t-4.5 50.5t-29.5 35.5t-75 12.5v152q86 0 135.5 -15t74 -39.5
t31 -55.5t6.5 -64t-0.5 -64t10 -55.5t38.5 -39.5t86 -15v-129z" />
    <glyph glyph-name="asciitilde" unicode="~" horiz-adv-x="611" 
d="M543 428q29 -56 31 -107t-17.5 -91t-58 -63.5t-90.5 -23.5q-35 0 -60 10t-43.5 24.5t-31.5 32t-24.5 32t-22.5 24.5t-24 10q-14 0 -20 -11t-3 -29t15 -42t34 -51h-161q-29 60 -29.5 112t20 90.5t58.5 60.5t86 22q36 0 62 -10t45 -24.5t33 -32t25.5 -32t22 -24.5t22.5 -10
q13 0 16.5 13t0 33t-15 43t-28.5 44h158v0z" />
    <glyph glyph-name="uni00A0" unicode="&#xa0;" horiz-adv-x="393" 
 />
    <glyph glyph-name="exclamdown" unicode="&#xa1;" horiz-adv-x="315" 
d="M89 320h140l41 -420h-222zM51 494q0 20 7 39t20.5 34t33 24t45.5 9q25 0 45 -9t33 -24t20 -34t7 -39t-6.5 -38.5t-19.5 -33t-33 -23.5t-46 -9t-45.5 9t-33 23.5t-20.5 33t-7 38.5z" />
    <glyph glyph-name="cent" unicode="&#xa2;" horiz-adv-x="616" 
d="M579 120q-51 -34 -107.5 -52t-114.5 -18h-13l-31 -134h-94l35 147q-52 14 -92.5 41t-68.5 64.5t-42.5 83.5t-14.5 98q0 63 22 118t63.5 95.5t101 63.5t134.5 23q8 0 17 -0.5t18 -1.5l32 136h94l-37 -155q27 -9 52 -21t46 -28l-70 -114q-26 16 -61 24l-68 -288h7
q35 0 68 9.5t50 23.5zM219 350q0 -42 18.5 -74.5t54.5 -52.5l64 273q-67 -8 -102 -48.5t-35 -97.5z" />
    <glyph glyph-name="sterling" unicode="&#xa3;" horiz-adv-x="650" 
d="M430 459q5 41 -16 68t-63 27q-26 0 -45.5 -12.5t-30 -37.5t-11 -61.5t10.5 -85.5v-1h166v-94h-155q-1 -45 -19 -75.5t-57 -45.5h404v-141h-578v122q51 8 73.5 38.5t16.5 101.5h-72v94h57v1q-17 80 -6 143.5t43 108t84 68t118 23.5q55 0 100.5 -17.5t76.5 -49.5t46 -76
t9 -98h-152v0z" />
    <glyph glyph-name="currency" unicode="&#xa4;" horiz-adv-x="699" 
d="M586 350q0 -38 -7 -68t-19 -53l102 -89l-103 -110l-91 103q-26 -15 -56.5 -22t-62.5 -7q-68 0 -114 28l-89 -102l-110 110l107 92q-24 48 -24 118q0 62 22 112l-105 91l110 103l81 -95q24 17 54.5 26t67.5 9q35 0 68 -9t60 -28l82 97l103 -103l-99 -92q11 -23 17 -51
t6 -60zM438 350q0 42 -22.5 68t-64.5 26q-40 0 -62 -24.5t-22 -69.5t20.5 -69.5t63.5 -24.5q45 0 66 26t21 68z" />
    <glyph glyph-name="yen" unicode="&#xa5;" horiz-adv-x="771" 
d="M473 52v-52h-175v52h-122v94h122v50h-122v93h112l-252 411h218l131 -320l132 320h217l-246 -411h99v-93h-114v-50h114v-94h-114z" />
    <glyph glyph-name="brokenbar" unicode="&#xa6;" horiz-adv-x="254" 
d="M218 240v-429h-182v429h182zM36 319v430h182v-430h-182z" />
    <glyph glyph-name="section" unicode="&#xa7;" horiz-adv-x="662" 
d="M605 232q8 -14 12 -30t5 -37q1 -33 -17 -67.5t-55.5 -63t-95 -46.5t-136.5 -18q-46 0 -87 7.5t-75 20.5t-59.5 30t-41.5 36l99 75q29 -17 66.5 -25.5t90.5 -8.5q69 0 103.5 16t32.5 39q-2 20 -20 29t-47.5 12.5t-66 4t-75 3t-74.5 10.5t-64.5 26t-46 49t-17.5 80l22 44
q-8 14 -12.5 32.5t-5.5 42.5q-1 33 17 67t55.5 62.5t95 46.5t136.5 18q46 0 87 -7.5t74.5 -20.5t59.5 -29.5t42 -35.5l-100 -69q-52 34 -156 34q-69 0 -103.5 -16t-32.5 -39q1 -19 19.5 -27.5t47.5 -11.5t66 -4t75 -4.5t74.5 -12.5t64.5 -29t45.5 -53t17.5 -84zM457 280
q4 26 -6.5 40t-31 20.5t-48.5 8t-58.5 3t-60.5 4.5t-54 13q-5 -26 5.5 -40t31 -21t48.5 -8.5t58.5 -3t60.5 -4.5t55 -12z" />
    <glyph glyph-name="dieresis" unicode="&#xa8;" horiz-adv-x="601" 
d="M247 588q0 -20 -7 -39t-20.5 -34t-33 -24t-45.5 -9t-45.5 9t-32.5 24t-20 34t-7 39q0 19 6.5 38t19.5 33.5t33 23.5t46 9t45.5 -9t33 -23.5t20.5 -33.5t7 -38zM564 588q0 -20 -7 -39t-20.5 -34t-33 -24t-45.5 -9t-45.5 9t-32.5 24t-20 34t-7 39q0 19 6.5 38t19.5 33.5
t33 23.5t46 9t45.5 -9t33 -23.5t20.5 -33.5t7 -38z" />
    <glyph glyph-name="copyright" unicode="&#xa9;" horiz-adv-x="991" 
d="M841 350q0 72 -22.5 136t-66.5 111.5t-108 75.5t-148 28q-82 0 -146 -28t-108.5 -75.5t-68 -111.5t-23.5 -136t23.5 -136t68 -112t108.5 -76t146 -28q84 0 148 28t108 76t66.5 112t22.5 136zM955 350q0 -104 -34 -188.5t-95 -144.5t-145.5 -93t-184.5 -33q-107 0 -192 36
t-144.5 98.5t-91.5 146t-32 178.5q0 94 32 178t91.5 146t144.5 98.5t192 36.5q100 0 184.5 -33t145.5 -93.5t95 -145t34 -187.5zM704 162q-42 -46 -96 -66.5t-112 -20.5q-54 0 -102 20.5t-83 57.5t-55.5 87.5t-20.5 109.5t20.5 109.5t55.5 87t83 57.5t102 21q58 0 114 -22
t94 -72l-82 -90q-23 15 -45 23.5t-54 8.5q-20 0 -40 -9t-36 -25t-25.5 -39t-9.5 -50q0 -28 9.5 -50.5t25.5 -38.5t36 -25t40 -9q35 0 56.5 9.5t39.5 23.5z" />
    <glyph glyph-name="ordfeminine" unicode="&#xaa;" horiz-adv-x="879" 
d="M895 -2h-247l-59 104l-146 -65l-153 64l-59 -103h-246l454 764zM327 166h225l-112 198z" />
    <glyph glyph-name="guillemotleft" unicode="&#xab;" horiz-adv-x="859" 
d="M382 65l-346 278l346 278l86 -98l-201 -182l201 -184zM740 65l-346 278l346 278l86 -98l-201 -182l201 -184z" />
    <glyph glyph-name="logicalnot" unicode="&#xac;" horiz-adv-x="638" 
d="M601 66h-152v204h-413v152h565v-356z" />
    <glyph glyph-name="uni00AD" unicode="&#xad;" horiz-adv-x="550" 
d="M36 225v181h478v-181h-478z" />
    <glyph glyph-name="registered" unicode="&#xae;" horiz-adv-x="991" 
d="M955 350q0 -104 -34 -188.5t-95 -144.5t-145.5 -93t-184.5 -33q-107 0 -192 36t-144.5 98.5t-91.5 146t-32 178.5q0 94 32 178t91.5 146t144.5 98.5t192 36.5q100 0 184.5 -33t145.5 -93.5t95 -145t34 -187.5zM841 350q0 72 -22.5 136t-66.5 111.5t-108 75.5t-148 28
q-82 0 -146 -28t-108.5 -75.5t-68 -111.5t-23.5 -136t23.5 -136t68 -112t108.5 -76t146 -28q88 0 154.5 30.5t110.5 84.5h-160l-83 146h-86v-146h-158v479h301q47 0 82 -14t58 -37.5t34 -53.5t11 -61q0 -44 -25.5 -85.5t-76.5 -63.5l112 -153q35 47 53 104t18 122zM432 470
v-112h90q42 0 59 17t17 38q0 25 -15.5 41t-60.5 16h-90z" />
    <glyph glyph-name="macron" unicode="&#xaf;" horiz-adv-x="509" 
d="M36 505v134h437v-134h-437z" />
    <glyph glyph-name="degree" unicode="&#xb0;" horiz-adv-x="431" 
d="M216 698q37 0 69.5 -14t57 -38.5t38.5 -57t14 -69.5t-14 -69.5t-38.5 -57t-57 -38.5t-69.5 -14t-70 14t-57.5 38.5t-38.5 57t-14 69.5t14 69.5t38.5 57t57.5 38.5t70 14zM216 462q23 0 39.5 17t16.5 40t-16.5 39.5t-39.5 16.5t-40 -16.5t-17 -39.5t17 -40t40 -17z" />
    <glyph glyph-name="plusminus" unicode="&#xb1;" horiz-adv-x="638" 
d="M398 522h203v-152h-203v-204h-152v204h-210v152h210v197h152v-197zM36 -48v152h565v-152h-565z" />
    <glyph glyph-name="twosuperior" unicode="&#xb2;" horiz-adv-x="519" 
d="M43 487q-6 40 6.5 78.5t41 68.5t73 48t102.5 18q62 0 107 -23t69.5 -58.5t25.5 -79t-24 -83.5q-13 -21 -34 -40.5t-45.5 -36t-51 -30t-50.5 -22.5h219v-117h-446v117q108 39 175 73t95 71q15 22 16 42t-8 35.5t-26.5 25t-39.5 9.5t-38 -8.5t-26.5 -22t-14.5 -31t-2 -34.5
h-124v0z" />
    <glyph glyph-name="threesuperior" unicode="&#xb3;" horiz-adv-x="544" 
d="M69 551q0 27 14 53.5t40 48t64.5 34.5t86.5 13q55 0 92.5 -11.5t60.5 -29.5t33.5 -40t10.5 -44q0 -32 -19 -57.5t-55 -40.5q51 -11 79 -38.5t30 -71.5q2 -30 -11.5 -58.5t-43 -50.5t-75.5 -35t-109 -13q-57 0 -101 14t-73.5 38.5t-44 56.5t-11.5 68h131q-2 -26 23.5 -46
t69.5 -20q45 0 65.5 16.5t20.5 41.5q0 10 -4 19t-15 16t-31 11.5t-51 4.5h-68v77h68q45 0 69 12.5t24 32.5q0 16 -14 29.5t-56 13.5q-38 0 -55 -14t-17 -30h-128v0z" />
    <glyph glyph-name="acute" unicode="&#xb4;" horiz-adv-x="455" 
d="M415 635l-306 -234l-74 78l259 289z" />
    <glyph glyph-name="mu" unicode="&#xb5;" 
d="M762 691v-351q0 -75 -28.5 -141.5t-78 -116t-115.5 -78t-141 -28.5t-141.5 28.5t-116 78t-78 116t-28.5 141.5v351h209v-351q0 -32 12 -60.5t33 -49.5t49.5 -33t60.5 -12t60.5 12t49.5 33t33.5 49.5t12.5 60.5v351h207z" />
    <glyph glyph-name="paragraph" unicode="&#xb6;" horiz-adv-x="875" 
d="M215 425q-34 0 -65 11.5t-55 33.5t-38 52.5t-14 68.5t14 67.5t38 49.5t55 30.5t65 10.5h604v-154h-100v-784h-187v784h-130v-784h-187v614z" />
    <glyph glyph-name="periodcentered" unicode="&#xb7;" horiz-adv-x="283" 
d="M247 347q0 -20 -7 -39t-20.5 -34t-33 -24t-45.5 -9t-45.5 9t-32.5 24t-20 34t-7 39q0 19 6.5 38t19.5 33.5t33 23.5t46 9t45.5 -9t33 -23.5t20.5 -33.5t7 -38z" />
    <glyph glyph-name="cedilla" unicode="&#xb8;" horiz-adv-x="433" 
d="M240 -10q41 1 71 -10.5t49 -30t28 -42t9 -47.5q0 -46 -25.5 -80.5t-73 -50.5t-114 -9.5t-148.5 42.5v77q93 -24 136 -13t43 40q0 23 -29.5 33.5t-96.5 2.5v62l69 121h122z" />
    <glyph glyph-name="onesuperior" unicode="&#xb9;" horiz-adv-x="338" 
d="M155 210v246h-119v122q34 0 56.5 5.5t36.5 19t20 37t6 60.5h146v-490h-146z" />
    <glyph glyph-name="ordmasculine" unicode="&#xba;" horiz-adv-x="588" 
d="M389 455q0 21 -7.5 39.5t-20 32.5t-30 22.5t-37.5 8.5q-42 0 -69 -29.5t-27 -73.5q0 -45 27 -74.5t69 -29.5q20 0 37.5 8.5t30 22.5t20 33t7.5 40zM551 455q0 -60 -22.5 -106t-59 -77t-82.5 -46.5t-93 -15.5q-53 0 -100 18.5t-82 51.5t-55.5 77.5t-20.5 97.5
q0 52 19.5 97t54 78t81.5 51.5t103 18.5q47 0 93 -16.5t82.5 -48t59 -77t22.5 -103.5z" />
    <glyph glyph-name="guillemotright" unicode="&#xbb;" horiz-adv-x="860" 
d="M122 621l346 -278l-346 -278l-86 98l201 182l-201 184zM481 621l346 -278l-346 -278l-86 98l201 182l-201 184z" />
    <glyph glyph-name="onequarter" unicode="&#xbc;" horiz-adv-x="1037" 
d="M946 490v-305h55v-105h-55v-80h-123v80h-281v81l274 329h130zM766 700h154l-585 -700h-154zM301 210h-146v246h-119v122q34 0 56.5 5.5t36.5 19t20 37t6 60.5h146v-490zM828 185l25 213l-148 -213h123z" />
    <glyph glyph-name="onehalf" unicode="&#xbd;" horiz-adv-x="1107" 
d="M632 277q-6 40 6.5 78.5t41 68.5t73 48t102.5 18q62 0 107 -23t69.5 -58.5t25.5 -79t-24 -83.5q-13 -21 -34 -40.5t-46 -36t-51.5 -30t-50.5 -22.5h220v-117h-446v117q107 39 174.5 73t95.5 71q15 22 16 42t-8 35.5t-26.5 25t-39.5 9.5t-38 -8.5t-26.5 -22t-14.5 -31
t-2 -34.5h-124zM717 700h154l-585 -700h-154zM301 210h-146v246h-119v122q34 0 56.5 5.5t36.5 19t20 37t6 60.5h146v-490z" />
    <glyph glyph-name="threequarters" unicode="&#xbe;" horiz-adv-x="1114" 
d="M1022 490v-305h55v-105h-55v-80h-122v80h-282v81l274 329h130zM69 551q0 27 14 53.5t40 48t64.5 34.5t86.5 13q55 0 92.5 -11.5t60.5 -29.5t33.5 -40t10.5 -44q0 -32 -19 -57.5t-55 -40.5q51 -11 79 -38.5t30 -71.5q2 -30 -11.5 -58.5t-43 -50.5t-75.5 -35t-109 -13
q-57 0 -101 14t-73.5 38.5t-44 56.5t-11.5 68h131q-2 -26 23.5 -46t69.5 -20q45 0 65.5 16.5t20.5 41.5q0 10 -4 19t-15 16t-31 11.5t-51 4.5h-68v77h68q45 0 69 12.5t24 32.5q0 16 -14 29.5t-56 13.5q-38 0 -55 -14t-17 -30h-128zM850 700h155l-586 -700h-154zM905 185
l24 213l-148 -213h124z" />
    <glyph glyph-name="questiondown" unicode="&#xbf;" horiz-adv-x="621" 
d="M577 122q7 -38 -7.5 -77t-49.5 -71.5t-89.5 -53t-127.5 -20.5q-66 0 -117 18t-85.5 47.5t-52 67.5t-16.5 77q1 47 20 77.5t45.5 50.5t57.5 33.5t57 26t42.5 28.5t15.5 41h132q7 -49 -2.5 -80t-28.5 -50.5t-43 -32t-46 -23.5t-38.5 -24.5t-20.5 -36.5q-2 -31 24.5 -53.5
t72.5 -22.5q28 0 48 8t31.5 19.5t16 25t1.5 25.5h160zM228 511q0 17 6.5 33t20 28.5t33.5 20t47 7.5q52 0 78.5 -27.5t26.5 -61.5q0 -17 -6.5 -33t-19.5 -28.5t-33 -20t-46 -7.5q-27 0 -47 7.5t-33.5 20t-20 28.5t-6.5 33z" />
    <glyph glyph-name="Agrave" unicode="&#xc0;" horiz-adv-x="879" 
d="M302 953l288 -260l-60 -84l365 -611h-247l-59 104l-146 -65l-153 64l-59 -103h-246l408 687l-201 123zM327 166h225l-112 198z" />
    <glyph glyph-name="Aacute" unicode="&#xc1;" horiz-adv-x="879" 
d="M652 824l-172 -132l415 -694h-247l-59 104l-146 -65l-153 64l-59 -103h-246l355 598l-68 72l259 289zM327 166h225l-112 198z" />
    <glyph glyph-name="Acircumflex" unicode="&#xc2;" horiz-adv-x="879" 
d="M895 -2h-247l-59 104l-146 -65l-153 64l-59 -103h-246l454 764zM371 956h135l184 -230h-178l-74 76l-76 -76h-177zM327 166h225l-112 198z" />
    <glyph glyph-name="Atilde" unicode="&#xc3;" horiz-adv-x="879" 
d="M677 967q29 -56 31 -107t-17.5 -91t-58 -63.5t-90.5 -23.5q-18 0 -33 2.5t-29 7.5l415 -694h-247l-59 104l-146 -65l-153 64l-59 -103h-246l436 734q-14 14 -24.5 28.5t-20 26.5t-19 20t-21.5 8q-14 0 -20 -11t-3 -29t15 -42t34 -51h-161q-29 60 -29.5 112t20 90.5
t58.5 60.5t86 22q36 0 62 -10t45 -24.5t33 -32t25.5 -32t22 -24.5t22.5 -10q13 0 16.5 13t0 33t-15 43t-28.5 44h158zM327 166h225l-112 198z" />
    <glyph glyph-name="Adieresis" unicode="&#xc4;" horiz-adv-x="879" 
d="M895 -2h-247l-59 104l-146 -65l-153 64l-59 -103h-246l454 764zM386 833q0 -20 -7 -39t-20.5 -34t-33 -24t-45.5 -9t-45.5 9t-32.5 24t-20 34t-7 39q0 19 6.5 38t19.5 33.5t33 23.5t46 9t45.5 -9t33 -23.5t20.5 -33.5t7 -38zM703 833q0 -20 -7 -39t-20.5 -34t-33 -24
t-45.5 -9t-45.5 9t-32.5 24t-20 34t-7 39q0 19 6.5 38t19.5 33.5t33 23.5t46 9t45.5 -9t33 -23.5t20.5 -33.5t7 -38zM327 166h225l-112 198z" />
    <glyph glyph-name="Aring" unicode="&#xc5;" horiz-adv-x="879" 
d="M440 949q37 0 69.5 -14t57 -38.5t38.5 -57t14 -69.5q0 -51 -25.5 -92t-66.5 -64l368 -616h-247l-59 104l-146 -65l-153 64l-59 -103h-246l366 616q-41 23 -66 64t-25 92q0 37 14 69.5t38.5 57t57.5 38.5t70 14zM327 166h225l-112 198zM464 719q14 7 23 20.5t9 30.5
q0 23 -16.5 39.5t-39.5 16.5t-40 -16.5t-17 -39.5q0 -16 8.5 -29.5t22.5 -21.5l25 43z" />
    <glyph glyph-name="AE" unicode="&#xc6;" horiz-adv-x="1247" 
d="M841 522v-127h289v-103h-289v-127h379v-167h-588v90h-247l-76 -90h-279l602 693h588v-167zM632 190v188l-160 -188h160z" />
    <glyph glyph-name="Ccedilla" unicode="&#xc7;" horiz-adv-x="811" 
d="M235 344q0 -41 15 -73t39.5 -54.5t56.5 -34.5t67 -13q27 -1 53.5 6t49 22t40.5 38t28 54l202 -57q-17 -56 -49 -103.5t-75.5 -83.5t-96.5 -59t-112 -29l-14 -34q41 1 71 -10.5t49 -30t28 -42t9 -47.5q0 -46 -25.5 -80.5t-73 -50.5t-114 -9.5t-148.5 42.5v77
q93 -24 136 -13t43 40q0 23 -29.5 33.5t-96.5 2.5v62l38 68q-65 15 -120 50t-95.5 85t-63.5 112.5t-23 131.5q0 81 30.5 151.5t83.5 123.5t123.5 83.5t151.5 30.5q66 0 125.5 -21t108.5 -57.5t85 -87.5t54 -111l-202 -56q-9 27 -25.5 49.5t-38.5 39t-49 26t-57 9.5
q-35 0 -67.5 -13.5t-57.5 -37.5t-39.5 -57t-14.5 -72z" />
    <glyph glyph-name="Egrave" unicode="&#xc8;" horiz-adv-x="658" 
d="M239 942l278 -251h106v-167l-379 -2v-127h289v-103h-289v-127h379v-167h-588v693h268l-174 106z" />
    <glyph glyph-name="Eacute" unicode="&#xc9;" horiz-adv-x="658" 
d="M529 833l-186 -142h280v-167l-379 -2v-127h289v-103h-289v-127h379v-167h-588v693h126l247 275z" />
    <glyph glyph-name="Ecircumflex" unicode="&#xca;" horiz-adv-x="658" 
d="M244 522v-127h289v-103h-289v-127h379v-167h-588v693h588v-167zM262 952h135l185 -246h-178l-75 81l-76 -81h-178z" />
    <glyph glyph-name="Edieresis" unicode="&#xcb;" horiz-adv-x="658" 
d="M593 753q0 -34 -19 -62h49v-167l-379 -2v-127h289v-103h-289v-127h379v-167h-588v693h47q-18 27 -18 62q0 19 6.5 38t19.5 33.5t33 23.5t46 9t45.5 -9t33 -23.5t20.5 -33.5t7 -38q0 -34 -19 -62h144q-18 27 -18 62q0 19 6.5 38t19.5 33.5t33 23.5t46 9t45.5 -9t33 -23.5
t20.5 -33.5t7 -38z" />
    <glyph glyph-name="Igrave" unicode="&#xcc;" horiz-adv-x="279" 
d="M35 -2v693h87l-210 128l110 145l288 -260l-63 -89l-3 2v-619h-209z" />
    <glyph glyph-name="Iacute" unicode="&#xcd;" horiz-adv-x="279" 
d="M371 856l-216 -165h89v-693h-209v655l-44 47l259 289z" />
    <glyph glyph-name="Icircumflex" unicode="&#xce;" horiz-adv-x="279" 
d="M35 -2v688h-150l187 246h135l185 -246h-148v-688h-209zM67 691h142l-70 76z" />
    <glyph glyph-name="Idieresis" unicode="&#xcf;" horiz-adv-x="279" 
d="M35 -2v682q-24 -13 -55 -13q-26 0 -45.5 9t-32.5 24t-20 34t-7 39q0 19 6.5 38t19.5 33.5t33 23.5t46 9t45.5 -9t33 -23.5t20.5 -33.5t7 -38q0 -24 -9 -45.5t-27 -36.5h178q-18 15 -27 36.5t-9 45.5q0 19 6.5 38t19.5 33.5t33 23.5t46 9t45.5 -9t33 -23.5t20.5 -33.5
t7 -38q0 -20 -7 -39t-20.5 -34t-33 -24t-45.5 -9q-29 0 -53 13v-682h-209z" />
    <glyph glyph-name="Eth" unicode="&#xd0;" horiz-adv-x="754" 
d="M373 691q72 0 135 -27.5t110 -74.5t74 -110t27 -135t-27 -135t-74 -110t-110 -74t-135 -27h-338v309h-79v81h79v303h338zM373 176q34 0 65 13t53.5 36t36 53.5t13.5 65.5q0 34 -13.5 64.5t-36 53.5t-53.5 36t-65 13h-140v-123h126v-81h-126v-131h140z" />
    <glyph glyph-name="Ntilde" unicode="&#xd1;" horiz-adv-x="848" 
d="M662 944q20 -39 27 -77t2 -71t-20.5 -60t-40.5 -45h183v-793l-569 475v-374h-209v784l569 -475v367q-37 -16 -77 -16q-35 0 -60 10t-43.5 24.5t-31.5 32t-24.5 32t-22.5 24.5t-24 10q-14 0 -20 -11t-3 -29t15 -42t34 -51h-161q-29 60 -29.5 112t20 90.5t58.5 60.5t86 22
q36 0 62 -10t45 -24.5t33 -32t25.5 -32t22 -24.5t22.5 -10q13 0 16.5 13t0 33t-15 43t-28.5 44h158v0z" />
    <glyph glyph-name="Ograve" unicode="&#xd2;" horiz-adv-x="827" 
d="M295 950l276 -250q51 -23 93.5 -59t73 -82t47.5 -100.5t17 -113.5q0 -81 -30.5 -151.5t-83 -123.5t-123.5 -83.5t-151 -30.5q-81 0 -151.5 30.5t-123.5 83.5t-83.5 123.5t-30.5 151.5q0 68 22 129.5t61.5 111.5t93.5 85t118 51l-135 83zM414 164q37 0 70 14t57.5 38.5
t38.5 57.5t14 70t-14 70t-38.5 57.5t-57.5 38.5t-70 14q-38 0 -70.5 -14t-57 -38.5t-38.5 -57.5t-14 -70t14 -70t38.5 -57.5t57 -38.5t70.5 -14z" />
    <glyph glyph-name="Oacute" unicode="&#xd3;" horiz-adv-x="827" 
d="M623 840l-146 -111q69 -12 128.5 -46.5t103 -85.5t68.5 -115.5t25 -136.5q0 -81 -30.5 -151.5t-83 -123.5t-123.5 -83.5t-151 -30.5q-81 0 -151.5 30.5t-123.5 83.5t-83.5 123.5t-30.5 151.5q0 60 17 114.5t48 101t74 82.5t95 59l243 271zM414 164q37 0 70 14t57.5 38.5
t38.5 57.5t14 70t-14 70t-38.5 57.5t-57.5 38.5t-70 14q-38 0 -70.5 -14t-57 -38.5t-38.5 -57.5t-14 -70t14 -70t38.5 -57.5t57 -38.5t70.5 -14z" />
    <glyph glyph-name="Ocircumflex" unicode="&#xd4;" horiz-adv-x="827" 
d="M414 734q80 0 151 -30.5t123.5 -83.5t83 -124t30.5 -151q0 -81 -30.5 -151.5t-83 -123.5t-123.5 -83.5t-151 -30.5q-81 0 -151.5 30.5t-123.5 83.5t-83.5 123.5t-30.5 151.5q0 80 30.5 151t83.5 124t123.5 83.5t151.5 30.5zM414 164q37 0 70 14t57.5 38.5t38.5 57.5
t14 70t-14 70t-38.5 57.5t-57.5 38.5t-70 14q-38 0 -70.5 -14t-57 -38.5t-38.5 -57.5t-14 -70t14 -70t38.5 -57.5t57 -38.5t70.5 -14zM346 980h135l185 -246h-178l-75 81l-76 -81h-178z" />
    <glyph glyph-name="Otilde" unicode="&#xd5;" horiz-adv-x="827" 
d="M657 992q27 -52 30.5 -100t-12 -86.5t-47.5 -64t-77 -32.5q55 -21 101 -57t79.5 -83.5t52 -104.5t18.5 -119q0 -81 -30.5 -151.5t-83 -123.5t-123.5 -83.5t-151 -30.5q-81 0 -151.5 30.5t-123.5 83.5t-83.5 123.5t-30.5 151.5q0 61 18 117.5t51 103.5t78 83.5t99 57.5
h-90q-29 60 -29.5 112t20 90.5t58.5 60.5t86 22q36 0 62 -10t45 -24.5t33 -32t25.5 -32t22 -24.5t22.5 -10q13 0 16.5 13t0 33t-15 43t-28.5 44h158zM414 164q37 0 70 14t57.5 38.5t38.5 57.5t14 70t-14 70t-38.5 57.5t-57.5 38.5t-70 14q-38 0 -70.5 -14t-57 -38.5
t-38.5 -57.5t-14 -70t14 -70t38.5 -57.5t57 -38.5t70.5 -14zM414 734q4 0 7.5 -0.5t7.5 -0.5q-22 15 -37 33.5t-27 35t-23.5 27.5t-25.5 11q-26 0 -24 -34t36 -82q21 5 42 7.5t44 2.5z" />
    <glyph glyph-name="Odieresis" unicode="&#xd6;" horiz-adv-x="827" 
d="M360 768q0 -22 -7 -39q15 2 30 3.5t31 1.5q15 0 29.5 -1.5t28.5 -3.5q-6 18 -6 39q0 19 6.5 38t19.5 33.5t33 23.5t46 9t45.5 -9t33 -23.5t20.5 -33.5t7 -38q0 -29 -14 -55t-41 -40q40 -26 73.5 -61t57 -77.5t36.5 -90.5t13 -99q0 -81 -30.5 -151.5t-83 -123.5
t-123.5 -83.5t-151 -30.5q-81 0 -151.5 30.5t-123.5 83.5t-83.5 123.5t-30.5 151.5q0 51 13 99t36.5 90.5t56.5 77.5t74 61q-28 14 -42 40t-14 55q0 19 6.5 38t19.5 33.5t33 23.5t46 9t45.5 -9t33 -23.5t20.5 -33.5t7 -38zM414 164q37 0 70 14t57.5 38.5t38.5 57.5t14 70
t-14 70t-38.5 57.5t-57.5 38.5t-70 14q-38 0 -70.5 -14t-57 -38.5t-38.5 -57.5t-14 -70t14 -70t38.5 -57.5t57 -38.5t70.5 -14z" />
    <glyph glyph-name="multiply" unicode="&#xd7;" horiz-adv-x="634" 
d="M428 344l170 -167l-116 -110l-165 166l-166 -166l-115 121l164 164l-164 167l109 103l164 -161l161 161l122 -114z" />
    <glyph glyph-name="Oslash" unicode="&#xd8;" horiz-adv-x="827" 
d="M414 734q22 0 43.5 -2.5t42.5 -7.5l41 76l182 -85l-47 -84q58 -54 92 -127.5t34 -158.5q0 -81 -30.5 -151.5t-83 -123.5t-123.5 -83.5t-151 -30.5q-20 0 -39 2t-38 6l-38 -74l-186 74l46 87q-62 54 -98 129.5t-36 164.5q0 80 30.5 151t83.5 124t123.5 83.5t151.5 30.5z
M414 164q37 0 70 14t57.5 38.5t38.5 57.5t14 70t-14 70t-38.5 57.5t-57.5 38.5t-70 14q-38 0 -70.5 -14t-57 -38.5t-38.5 -57.5t-14 -70t14 -70t38.5 -57.5t57 -38.5t70.5 -14z" />
    <glyph glyph-name="Ugrave" unicode="&#xd9;" 
d="M762 691v-351q0 -75 -28.5 -141.5t-78 -116t-115.5 -78t-141 -28.5t-141.5 28.5t-116 78t-78 116t-28.5 141.5v351h209v-351q0 -32 12 -60.5t33 -49.5t49.5 -33t60.5 -12t60.5 12t49.5 33t33.5 49.5t12.5 60.5v351h207zM282 978l288 -260l-63 -89l-335 204z" />
    <glyph glyph-name="Uacute" unicode="&#xda;" 
d="M762 691v-351q0 -75 -28.5 -141.5t-78 -116t-115.5 -78t-141 -28.5t-141.5 28.5t-116 78t-78 116t-28.5 141.5v351h209v-351q0 -32 12 -60.5t33 -49.5t49.5 -33t60.5 -12t60.5 12t49.5 33t33.5 49.5t12.5 60.5v351h207zM616 866l-306 -234l-74 78l259 289z" />
    <glyph glyph-name="Ucircumflex" unicode="&#xdb;" 
d="M762 691v-351q0 -75 -28.5 -141.5t-78 -116t-115.5 -78t-141 -28.5t-141.5 28.5t-116 78t-78 116t-28.5 141.5v351h209v-351q0 -32 12 -60.5t33 -49.5t49.5 -33t60.5 -12t60.5 12t49.5 33t33.5 49.5t12.5 60.5v351h207zM331 970h135l185 -246h-178l-75 81l-76 -81h-178z
" />
    <glyph glyph-name="Udieresis" unicode="&#xdc;" 
d="M762 691v-351q0 -75 -28.5 -141.5t-78 -116t-115.5 -78t-141 -28.5t-141.5 28.5t-116 78t-78 116t-28.5 141.5v351h209v-351q0 -32 12 -60.5t33 -49.5t49.5 -33t60.5 -12t60.5 12t49.5 33t33.5 49.5t12.5 60.5v351h207zM345 833q0 -20 -7 -39t-20.5 -34t-33 -24t-45.5 -9
t-45.5 9t-32.5 24t-20 34t-7 39q0 19 6.5 38t19.5 33.5t33 23.5t46 9t45.5 -9t33 -23.5t20.5 -33.5t7 -38zM662 833q0 -20 -7 -39t-20.5 -34t-33 -24t-45.5 -9t-45.5 9t-32.5 24t-20 34t-7 39q0 19 6.5 38t19.5 33.5t33 23.5t46 9t45.5 -9t33 -23.5t20.5 -33.5t7 -38z" />
    <glyph glyph-name="Yacute" unicode="&#xdd;" horiz-adv-x="850" 
d="M529 280v-282h-209v282l-335 335l148 148l292 -292l292 292l148 -148zM649 876l-306 -234l-74 78l259 289z" />
    <glyph glyph-name="Thorn" unicode="&#xde;" horiz-adv-x="765" 
d="M466 612q55 0 102.5 -20.5t82.5 -56.5t55.5 -84t20.5 -102t-20.5 -101.5t-56 -83.5t-83 -56.5t-101.5 -20.5h-222v-89h-209v693h209v-80zM413 251q41 0 69 28t28 68q0 48 -27 72t-78 24h-161v-191z" />
    <glyph glyph-name="germandbls" unicode="&#xdf;" horiz-adv-x="752" 
d="M214 -2h-179v474q0 46 16 88t48 74.5t80 52t113 19.5q53 0 93.5 -11.5t69.5 -30t46.5 -43t23.5 -51.5q11 -26 6.5 -57.5t-19.5 -54.5q46 -5 84 -23.5t65 -47.5t41.5 -67.5t14.5 -81.5q0 -53 -20 -97t-54.5 -75.5t-79.5 -49.5t-94 -18h-167v168h125q41 0 69 29t28 70
q0 20 -7.5 38.5t-20.5 32t-31 21.5t-38 8h-130v83h37q20 0 32 11t12 29q0 21 -19 39t-64 18q-19 0 -34 -7t-25.5 -17.5t-16 -24.5t-5.5 -27v-471z" />
    <glyph glyph-name="agrave" unicode="&#xe0;" horiz-adv-x="879" 
d="M302 953l288 -260l-60 -84l365 -611h-247l-59 104l-146 -65l-153 64l-59 -103h-246l408 687l-201 123zM327 166h225l-112 198z" />
    <glyph glyph-name="aacute" unicode="&#xe1;" horiz-adv-x="879" 
d="M652 824l-172 -132l415 -694h-247l-59 104l-146 -65l-153 64l-59 -103h-246l355 598l-68 72l259 289zM327 166h225l-112 198z" />
    <glyph glyph-name="acircumflex" unicode="&#xe2;" horiz-adv-x="879" 
d="M895 -2h-247l-59 104l-146 -65l-153 64l-59 -103h-246l454 764zM371 956h135l184 -230h-178l-74 76l-76 -76h-177zM327 166h225l-112 198z" />
    <glyph glyph-name="atilde" unicode="&#xe3;" horiz-adv-x="879" 
d="M677 967q29 -56 31 -107t-17.5 -91t-58 -63.5t-90.5 -23.5q-18 0 -33 2.5t-29 7.5l415 -694h-247l-59 104l-146 -65l-153 64l-59 -103h-246l436 734q-14 14 -24.5 28.5t-20 26.5t-19 20t-21.5 8q-14 0 -20 -11t-3 -29t15 -42t34 -51h-161q-29 60 -29.5 112t20 90.5
t58.5 60.5t86 22q36 0 62 -10t45 -24.5t33 -32t25.5 -32t22 -24.5t22.5 -10q13 0 16.5 13t0 33t-15 43t-28.5 44h158zM327 166h225l-112 198z" />
    <glyph glyph-name="adieresis" unicode="&#xe4;" horiz-adv-x="879" 
d="M895 -2h-247l-59 104l-146 -65l-153 64l-59 -103h-246l454 764zM386 833q0 -20 -7 -39t-20.5 -34t-33 -24t-45.5 -9t-45.5 9t-32.5 24t-20 34t-7 39q0 19 6.5 38t19.5 33.5t33 23.5t46 9t45.5 -9t33 -23.5t20.5 -33.5t7 -38zM703 833q0 -20 -7 -39t-20.5 -34t-33 -24
t-45.5 -9t-45.5 9t-32.5 24t-20 34t-7 39q0 19 6.5 38t19.5 33.5t33 23.5t46 9t45.5 -9t33 -23.5t20.5 -33.5t7 -38zM327 166h225l-112 198z" />
    <glyph glyph-name="aring" unicode="&#xe5;" horiz-adv-x="879" 
d="M440 949q37 0 69.5 -14t57 -38.5t38.5 -57t14 -69.5q0 -51 -25.5 -92t-66.5 -64l368 -616h-247l-59 104l-146 -65l-153 64l-59 -103h-246l366 616q-41 23 -66 64t-25 92q0 37 14 69.5t38.5 57t57.5 38.5t70 14zM327 166h225l-112 198zM464 719q14 7 23 20.5t9 30.5
q0 23 -16.5 39.5t-39.5 16.5t-40 -16.5t-17 -39.5q0 -16 8.5 -29.5t22.5 -21.5l25 43z" />
    <glyph glyph-name="ae" unicode="&#xe6;" horiz-adv-x="1247" 
d="M841 522v-127h289v-103h-289v-127h379v-167h-588v90h-247l-76 -90h-279l602 693h588v-167zM632 190v188l-160 -188h160z" />
    <glyph glyph-name="ccedilla" unicode="&#xe7;" horiz-adv-x="811" 
d="M235 344q0 -41 15 -73t39.5 -54.5t56.5 -34.5t67 -13q27 -1 53.5 6t49 22t40.5 38t28 54l202 -57q-17 -56 -49 -103.5t-75.5 -83.5t-96.5 -59t-112 -29l-14 -34q41 1 71 -10.5t49 -30t28 -42t9 -47.5q0 -46 -25.5 -80.5t-73 -50.5t-114 -9.5t-148.5 42.5v77
q93 -24 136 -13t43 40q0 23 -29.5 33.5t-96.5 2.5v62l38 68q-65 15 -120 50t-95.5 85t-63.5 112.5t-23 131.5q0 81 30.5 151.5t83.5 123.5t123.5 83.5t151.5 30.5q66 0 125.5 -21t108.5 -57.5t85 -87.5t54 -111l-202 -56q-9 27 -25.5 49.5t-38.5 39t-49 26t-57 9.5
q-35 0 -67.5 -13.5t-57.5 -37.5t-39.5 -57t-14.5 -72z" />
    <glyph glyph-name="egrave" unicode="&#xe8;" horiz-adv-x="658" 
d="M239 942l278 -251h106v-167l-379 -2v-127h289v-103h-289v-127h379v-167h-588v693h268l-174 106z" />
    <glyph glyph-name="eacute" unicode="&#xe9;" horiz-adv-x="658" 
d="M529 833l-186 -142h280v-167l-379 -2v-127h289v-103h-289v-127h379v-167h-588v693h126l247 275z" />
    <glyph glyph-name="ecircumflex" unicode="&#xea;" horiz-adv-x="658" 
d="M244 522v-127h289v-103h-289v-127h379v-167h-588v693h588v-167zM262 952h135l185 -246h-178l-75 81l-76 -81h-178z" />
    <glyph glyph-name="edieresis" unicode="&#xeb;" horiz-adv-x="658" 
d="M593 753q0 -34 -19 -62h49v-167l-379 -2v-127h289v-103h-289v-127h379v-167h-588v693h47q-18 27 -18 62q0 19 6.5 38t19.5 33.5t33 23.5t46 9t45.5 -9t33 -23.5t20.5 -33.5t7 -38q0 -34 -19 -62h144q-18 27 -18 62q0 19 6.5 38t19.5 33.5t33 23.5t46 9t45.5 -9t33 -23.5
t20.5 -33.5t7 -38z" />
    <glyph glyph-name="igrave" unicode="&#xec;" horiz-adv-x="279" 
d="M35 -2v693h87l-210 128l110 145l288 -260l-63 -89l-3 2v-619h-209z" />
    <glyph glyph-name="iacute" unicode="&#xed;" horiz-adv-x="279" 
d="M371 856l-216 -165h89v-693h-209v655l-44 47l259 289z" />
    <glyph glyph-name="icircumflex" unicode="&#xee;" horiz-adv-x="279" 
d="M35 -2v688h-150l187 246h135l185 -246h-148v-688h-209zM67 691h142l-70 76z" />
    <glyph glyph-name="idieresis" unicode="&#xef;" horiz-adv-x="279" 
d="M35 -2v682q-24 -13 -55 -13q-26 0 -45.5 9t-32.5 24t-20 34t-7 39q0 19 6.5 38t19.5 33.5t33 23.5t46 9t45.5 -9t33 -23.5t20.5 -33.5t7 -38q0 -24 -9 -45.5t-27 -36.5h178q-18 15 -27 36.5t-9 45.5q0 19 6.5 38t19.5 33.5t33 23.5t46 9t45.5 -9t33 -23.5t20.5 -33.5
t7 -38q0 -20 -7 -39t-20.5 -34t-33 -24t-45.5 -9q-29 0 -53 13v-682h-209z" />
    <glyph glyph-name="eth" unicode="&#xf0;" horiz-adv-x="754" 
d="M373 691q72 0 135 -27.5t110 -74.5t74 -110t27 -135t-27 -135t-74 -110t-110 -74t-135 -27h-338v309h-79v81h79v303h338zM373 176q34 0 65 13t53.5 36t36 53.5t13.5 65.5q0 34 -13.5 64.5t-36 53.5t-53.5 36t-65 13h-140v-123h126v-81h-126v-131h140z" />
    <glyph glyph-name="ntilde" unicode="&#xf1;" horiz-adv-x="848" 
d="M662 944q20 -39 27 -77t2 -71t-20.5 -60t-40.5 -45h183v-793l-569 475v-374h-209v784l569 -475v367q-37 -16 -77 -16q-35 0 -60 10t-43.5 24.5t-31.5 32t-24.5 32t-22.5 24.5t-24 10q-14 0 -20 -11t-3 -29t15 -42t34 -51h-161q-29 60 -29.5 112t20 90.5t58.5 60.5t86 22
q36 0 62 -10t45 -24.5t33 -32t25.5 -32t22 -24.5t22.5 -10q13 0 16.5 13t0 33t-15 43t-28.5 44h158v0z" />
    <glyph glyph-name="ograve" unicode="&#xf2;" horiz-adv-x="827" 
d="M295 950l276 -250q51 -23 93.5 -59t73 -82t47.5 -100.5t17 -113.5q0 -81 -30.5 -151.5t-83 -123.5t-123.5 -83.5t-151 -30.5q-81 0 -151.5 30.5t-123.5 83.5t-83.5 123.5t-30.5 151.5q0 68 22 129.5t61.5 111.5t93.5 85t118 51l-135 83zM414 164q37 0 70 14t57.5 38.5
t38.5 57.5t14 70t-14 70t-38.5 57.5t-57.5 38.5t-70 14q-38 0 -70.5 -14t-57 -38.5t-38.5 -57.5t-14 -70t14 -70t38.5 -57.5t57 -38.5t70.5 -14z" />
    <glyph glyph-name="oacute" unicode="&#xf3;" horiz-adv-x="827" 
d="M623 840l-146 -111q69 -12 128.5 -46.5t103 -85.5t68.5 -115.5t25 -136.5q0 -81 -30.5 -151.5t-83 -123.5t-123.5 -83.5t-151 -30.5q-81 0 -151.5 30.5t-123.5 83.5t-83.5 123.5t-30.5 151.5q0 60 17 114.5t48 101t74 82.5t95 59l243 271zM414 164q37 0 70 14t57.5 38.5
t38.5 57.5t14 70t-14 70t-38.5 57.5t-57.5 38.5t-70 14q-38 0 -70.5 -14t-57 -38.5t-38.5 -57.5t-14 -70t14 -70t38.5 -57.5t57 -38.5t70.5 -14z" />
    <glyph glyph-name="ocircumflex" unicode="&#xf4;" horiz-adv-x="827" 
d="M414 734q80 0 151 -30.5t123.5 -83.5t83 -124t30.5 -151q0 -81 -30.5 -151.5t-83 -123.5t-123.5 -83.5t-151 -30.5q-81 0 -151.5 30.5t-123.5 83.5t-83.5 123.5t-30.5 151.5q0 80 30.5 151t83.5 124t123.5 83.5t151.5 30.5zM414 164q37 0 70 14t57.5 38.5t38.5 57.5
t14 70t-14 70t-38.5 57.5t-57.5 38.5t-70 14q-38 0 -70.5 -14t-57 -38.5t-38.5 -57.5t-14 -70t14 -70t38.5 -57.5t57 -38.5t70.5 -14zM346 980h135l185 -246h-178l-75 81l-76 -81h-178z" />
    <glyph glyph-name="otilde" unicode="&#xf5;" horiz-adv-x="827" 
d="M657 992q27 -52 30.5 -100t-12 -86.5t-47.5 -64t-77 -32.5q55 -21 101 -57t79.5 -83.5t52 -104.5t18.5 -119q0 -81 -30.5 -151.5t-83 -123.5t-123.5 -83.5t-151 -30.5q-81 0 -151.5 30.5t-123.5 83.5t-83.5 123.5t-30.5 151.5q0 61 18 117.5t51 103.5t78 83.5t99 57.5
h-90q-29 60 -29.5 112t20 90.5t58.5 60.5t86 22q36 0 62 -10t45 -24.5t33 -32t25.5 -32t22 -24.5t22.5 -10q13 0 16.5 13t0 33t-15 43t-28.5 44h158zM414 164q37 0 70 14t57.5 38.5t38.5 57.5t14 70t-14 70t-38.5 57.5t-57.5 38.5t-70 14q-38 0 -70.5 -14t-57 -38.5
t-38.5 -57.5t-14 -70t14 -70t38.5 -57.5t57 -38.5t70.5 -14zM414 734q4 0 7.5 -0.5t7.5 -0.5q-22 15 -37 33.5t-27 35t-23.5 27.5t-25.5 11q-26 0 -24 -34t36 -82q21 5 42 7.5t44 2.5z" />
    <glyph glyph-name="odieresis" unicode="&#xf6;" horiz-adv-x="827" 
d="M360 768q0 -22 -7 -39q15 2 30 3.5t31 1.5q15 0 29.5 -1.5t28.5 -3.5q-6 18 -6 39q0 19 6.5 38t19.5 33.5t33 23.5t46 9t45.5 -9t33 -23.5t20.5 -33.5t7 -38q0 -29 -14 -55t-41 -40q40 -26 73.5 -61t57 -77.5t36.5 -90.5t13 -99q0 -81 -30.5 -151.5t-83 -123.5
t-123.5 -83.5t-151 -30.5q-81 0 -151.5 30.5t-123.5 83.5t-83.5 123.5t-30.5 151.5q0 51 13 99t36.5 90.5t56.5 77.5t74 61q-28 14 -42 40t-14 55q0 19 6.5 38t19.5 33.5t33 23.5t46 9t45.5 -9t33 -23.5t20.5 -33.5t7 -38zM414 164q37 0 70 14t57.5 38.5t38.5 57.5t14 70
t-14 70t-38.5 57.5t-57.5 38.5t-70 14q-38 0 -70.5 -14t-57 -38.5t-38.5 -57.5t-14 -70t14 -70t38.5 -57.5t57 -38.5t70.5 -14z" />
    <glyph glyph-name="divide" unicode="&#xf7;" horiz-adv-x="432" 
d="M321 528q0 -32 -17.5 -60.5t-51.5 -39.5h246v-152h-252q37 -10 56 -39t19 -61q0 -20 -7 -39t-20.5 -34t-33 -24t-45.5 -9t-45.5 9t-32.5 24t-20 34t-7 39q0 32 18 61t55 39h-250v152h245q-34 11 -51 39.5t-17 60.5q0 19 6.5 38t19.5 33.5t33 23.5t46 9t45.5 -9t33 -23.5
t20.5 -33.5t7 -38z" />
    <glyph glyph-name="oslash" unicode="&#xf8;" horiz-adv-x="827" 
d="M414 734q22 0 43.5 -2.5t42.5 -7.5l41 76l182 -85l-47 -84q58 -54 92 -127.5t34 -158.5q0 -81 -30.5 -151.5t-83 -123.5t-123.5 -83.5t-151 -30.5q-20 0 -39 2t-38 6l-38 -74l-186 74l46 87q-62 54 -98 129.5t-36 164.5q0 80 30.5 151t83.5 124t123.5 83.5t151.5 30.5z
M414 164q37 0 70 14t57.5 38.5t38.5 57.5t14 70t-14 70t-38.5 57.5t-57.5 38.5t-70 14q-38 0 -70.5 -14t-57 -38.5t-38.5 -57.5t-14 -70t14 -70t38.5 -57.5t57 -38.5t70.5 -14z" />
    <glyph glyph-name="ugrave" unicode="&#xf9;" 
d="M762 691v-351q0 -75 -28.5 -141.5t-78 -116t-115.5 -78t-141 -28.5t-141.5 28.5t-116 78t-78 116t-28.5 141.5v351h209v-351q0 -32 12 -60.5t33 -49.5t49.5 -33t60.5 -12t60.5 12t49.5 33t33.5 49.5t12.5 60.5v351h207zM282 978l288 -260l-63 -89l-335 204z" />
    <glyph glyph-name="uacute" unicode="&#xfa;" 
d="M762 691v-351q0 -75 -28.5 -141.5t-78 -116t-115.5 -78t-141 -28.5t-141.5 28.5t-116 78t-78 116t-28.5 141.5v351h209v-351q0 -32 12 -60.5t33 -49.5t49.5 -33t60.5 -12t60.5 12t49.5 33t33.5 49.5t12.5 60.5v351h207zM616 866l-306 -234l-74 78l259 289z" />
    <glyph glyph-name="ucircumflex" unicode="&#xfb;" 
d="M762 691v-351q0 -75 -28.5 -141.5t-78 -116t-115.5 -78t-141 -28.5t-141.5 28.5t-116 78t-78 116t-28.5 141.5v351h209v-351q0 -32 12 -60.5t33 -49.5t49.5 -33t60.5 -12t60.5 12t49.5 33t33.5 49.5t12.5 60.5v351h207zM331 970h135l185 -246h-178l-75 81l-76 -81h-178z
" />
    <glyph glyph-name="udieresis" unicode="&#xfc;" 
d="M762 691v-351q0 -75 -28.5 -141.5t-78 -116t-115.5 -78t-141 -28.5t-141.5 28.5t-116 78t-78 116t-28.5 141.5v351h209v-351q0 -32 12 -60.5t33 -49.5t49.5 -33t60.5 -12t60.5 12t49.5 33t33.5 49.5t12.5 60.5v351h207zM345 833q0 -20 -7 -39t-20.5 -34t-33 -24t-45.5 -9
t-45.5 9t-32.5 24t-20 34t-7 39q0 19 6.5 38t19.5 33.5t33 23.5t46 9t45.5 -9t33 -23.5t20.5 -33.5t7 -38zM662 833q0 -20 -7 -39t-20.5 -34t-33 -24t-45.5 -9t-45.5 9t-32.5 24t-20 34t-7 39q0 19 6.5 38t19.5 33.5t33 23.5t46 9t45.5 -9t33 -23.5t20.5 -33.5t7 -38z" />
    <glyph glyph-name="yacute" unicode="&#xfd;" horiz-adv-x="850" 
d="M529 280v-282h-209v282l-335 335l148 148l292 -292l292 292l148 -148zM649 876l-306 -234l-74 78l259 289z" />
    <glyph glyph-name="thorn" unicode="&#xfe;" horiz-adv-x="765" 
d="M466 612q55 0 102.5 -20.5t82.5 -56.5t55.5 -84t20.5 -102t-20.5 -101.5t-56 -83.5t-83 -56.5t-101.5 -20.5h-222v-89h-209v693h209v-80zM413 251q41 0 69 28t28 68q0 48 -27 72t-78 24h-161v-191z" />
    <glyph glyph-name="ydieresis" unicode="&#xff;" horiz-adv-x="850" 
d="M529 280v-282h-209v282l-335 335l148 148l292 -292l292 292l148 -148zM376 803q0 -20 -7 -39t-20.5 -34t-33 -24t-45.5 -9t-45.5 9t-32.5 24t-20 34t-7 39q0 19 6.5 38t19.5 33.5t33 23.5t46 9t45.5 -9t33 -23.5t20.5 -33.5t7 -38zM683 803q0 -20 -7 -39t-20.5 -34
t-33 -24t-45.5 -9t-45.5 9t-32.5 24t-20 34t-7 39q0 19 6.5 38t19.5 33.5t33 23.5t46 9t45.5 -9t33 -23.5t20.5 -33.5t7 -38z" />
    <glyph glyph-name="Amacron" unicode="&#x100;" horiz-adv-x="879" 
d="M481 691l414 -693h-247l-59 104l-146 -65l-153 64l-59 -103h-246l412 693h-176v134h437v-134h-177zM327 166h225l-112 198z" />
    <glyph glyph-name="amacron" unicode="&#x101;" horiz-adv-x="879" 
d="M481 691l414 -693h-247l-59 104l-146 -65l-153 64l-59 -103h-246l412 693h-176v134h437v-134h-177zM327 166h225l-112 198z" />
    <glyph glyph-name="Abreve" unicode="&#x102;" horiz-adv-x="879" 
d="M695 889q14 -46 10 -86t-27.5 -71t-67 -51t-107.5 -26l392 -657h-247l-59 104l-146 -65l-153 64l-59 -103h-246l390 657q-62 7 -105 27.5t-66 51t-26.5 70.5t13.5 85h176q-14 -49 4 -70t69 -21q54 0 72.5 21t7.5 70h175zM327 166h225l-112 198z" />
    <glyph glyph-name="abreve" unicode="&#x103;" horiz-adv-x="879" 
d="M695 889q14 -46 10 -86t-27.5 -71t-67 -51t-107.5 -26l392 -657h-247l-59 104l-146 -65l-153 64l-59 -103h-246l390 657q-62 7 -105 27.5t-66 51t-26.5 70.5t13.5 85h176q-14 -49 4 -70t69 -21q54 0 72.5 21t7.5 70h175zM327 166h225l-112 198z" />
    <glyph glyph-name="Aogonek" unicode="&#x104;" horiz-adv-x="879" 
d="M672 -141q0 -17 13 -28.5t36.5 -15.5t55.5 0.5t71 21.5v-112q-78 -35 -148 -42.5t-123 7.5t-84 49.5t-30 82.5q1 40 18 68t43.5 47.5t58.5 34t64 27.5l-58 103l-146 -65l-153 64l-59 -103h-246l454 764l456 -764h-51q-24 -30 -54 -48.5t-56.5 -32t-44 -26t-17.5 -32.5z
M327 166h225l-112 198z" />
    <glyph glyph-name="aogonek" unicode="&#x105;" horiz-adv-x="879" 
d="M672 -141q0 -17 13 -28.5t36.5 -15.5t55.5 0.5t71 21.5v-112q-78 -35 -148 -42.5t-123 7.5t-84 49.5t-30 82.5q1 40 18 68t43.5 47.5t58.5 34t64 27.5l-58 103l-146 -65l-153 64l-59 -103h-246l454 764l456 -764h-51q-24 -30 -54 -48.5t-56.5 -32t-44 -26t-17.5 -32.5z
M327 166h225l-112 198z" />
    <glyph glyph-name="Cacute" unicode="&#x106;" horiz-adv-x="811" 
d="M650 852l-165 -126q54 -10 101.5 -34.5t86.5 -59.5t68 -80t45 -96l-202 -56q-9 27 -25.5 49.5t-38.5 39t-49 26t-57 9.5q-35 0 -67.5 -13.5t-57.5 -37.5t-39.5 -57t-14.5 -72q0 -41 15 -73t39.5 -54.5t56.5 -34.5t67 -13q27 -1 53.5 6t49 22t40.5 38t28 54l202 -57
q-18 -60 -54 -111t-85 -87.5t-108.5 -57.5t-125.5 -21q-81 0 -151.5 30.5t-123.5 83.5t-83.5 124t-30.5 151q0 63 19 121t53.5 105.5t82 83.5t104.5 56l246 275z" />
    <glyph glyph-name="cacute" unicode="&#x107;" horiz-adv-x="811" 
d="M650 852l-165 -126q54 -10 101.5 -34.5t86.5 -59.5t68 -80t45 -96l-202 -56q-9 27 -25.5 49.5t-38.5 39t-49 26t-57 9.5q-35 0 -67.5 -13.5t-57.5 -37.5t-39.5 -57t-14.5 -72q0 -41 15 -73t39.5 -54.5t56.5 -34.5t67 -13q27 -1 53.5 6t49 22t40.5 38t28 54l202 -57
q-18 -60 -54 -111t-85 -87.5t-108.5 -57.5t-125.5 -21q-81 0 -151.5 30.5t-123.5 83.5t-83.5 124t-30.5 151q0 63 19 121t53.5 105.5t82 83.5t104.5 56l246 275z" />
    <glyph glyph-name="Ccircumflex" unicode="&#x108;" horiz-adv-x="811" 
d="M235 344q0 -41 15 -73t39.5 -54.5t56.5 -34.5t67 -13q27 -1 53.5 6t49 22t40.5 38t28 54l202 -57q-18 -60 -54 -111t-85 -87.5t-108.5 -57.5t-125.5 -21q-81 0 -151.5 30.5t-123.5 83.5t-83.5 124t-30.5 151q0 81 30.5 151.5t83.5 123.5t123.5 83.5t151.5 30.5
q66 0 125.5 -21t108.5 -57.5t85 -87.5t54 -111l-202 -56q-9 27 -25.5 49.5t-38.5 39t-49 26t-57 9.5q-35 0 -67.5 -13.5t-57.5 -37.5t-39.5 -57t-14.5 -72zM363 985h135l185 -246h-178l-75 81l-76 -81h-178z" />
    <glyph glyph-name="ccircumflex" unicode="&#x109;" horiz-adv-x="811" 
d="M235 344q0 -41 15 -73t39.5 -54.5t56.5 -34.5t67 -13q27 -1 53.5 6t49 22t40.5 38t28 54l202 -57q-18 -60 -54 -111t-85 -87.5t-108.5 -57.5t-125.5 -21q-81 0 -151.5 30.5t-123.5 83.5t-83.5 124t-30.5 151q0 81 30.5 151.5t83.5 123.5t123.5 83.5t151.5 30.5
q66 0 125.5 -21t108.5 -57.5t85 -87.5t54 -111l-202 -56q-9 27 -25.5 49.5t-38.5 39t-49 26t-57 9.5q-35 0 -67.5 -13.5t-57.5 -37.5t-39.5 -57t-14.5 -72zM363 985h135l185 -246h-178l-75 81l-76 -81h-178z" />
    <glyph glyph-name="Cdotaccent" unicode="&#x10a;" horiz-adv-x="811" 
d="M531 794q0 -20 -6.5 -39t-20.5 -33q50 -12 95 -37t81.5 -59.5t63.5 -77.5t42 -92l-202 -56q-9 27 -25.5 49.5t-38.5 39t-49 26t-57 9.5q-35 0 -67.5 -13.5t-57.5 -37.5t-39.5 -57t-14.5 -72q0 -41 15 -73t39.5 -54.5t56.5 -34.5t67 -13q27 -1 53.5 6t49 22t40.5 38t28 54
l202 -57q-18 -60 -54 -111t-85 -87.5t-108.5 -57.5t-125.5 -21q-81 0 -151.5 30.5t-123.5 83.5t-83.5 124t-30.5 151q0 72 24 136t67 114.5t101 85t126 46.5q-22 30 -22 68q0 19 6.5 38t19.5 33.5t33 23.5t46 9t45.5 -9t33 -23.5t20.5 -33.5t7 -38z" />
    <glyph glyph-name="cdotaccent" unicode="&#x10b;" horiz-adv-x="811" 
d="M531 794q0 -20 -6.5 -39t-20.5 -33q50 -12 95 -37t81.5 -59.5t63.5 -77.5t42 -92l-202 -56q-9 27 -25.5 49.5t-38.5 39t-49 26t-57 9.5q-35 0 -67.5 -13.5t-57.5 -37.5t-39.5 -57t-14.5 -72q0 -41 15 -73t39.5 -54.5t56.5 -34.5t67 -13q27 -1 53.5 6t49 22t40.5 38t28 54
l202 -57q-18 -60 -54 -111t-85 -87.5t-108.5 -57.5t-125.5 -21q-81 0 -151.5 30.5t-123.5 83.5t-83.5 124t-30.5 151q0 72 24 136t67 114.5t101 85t126 46.5q-22 30 -22 68q0 19 6.5 38t19.5 33.5t33 23.5t46 9t45.5 -9t33 -23.5t20.5 -33.5t7 -38z" />
    <glyph glyph-name="Ccaron" unicode="&#x10c;" horiz-adv-x="811" 
d="M527 716q93 -29 161.5 -97.5t97.5 -162.5l-202 -56q-9 27 -25.5 49.5t-38.5 39t-49 26t-57 9.5q-35 0 -67.5 -13.5t-57.5 -37.5t-39.5 -57t-14.5 -72q0 -41 15 -73t39.5 -54.5t56.5 -34.5t67 -13q27 -1 53.5 6t49 22t40.5 38t28 54l202 -57q-18 -60 -54 -111t-85 -87.5
t-108.5 -57.5t-125.5 -21q-81 0 -151.5 30.5t-123.5 83.5t-83.5 124t-30.5 151q0 68 22 129t60.5 110.5t92 85t116.5 51.5l-145 193h178l75 -81l76 81h178z" />
    <glyph glyph-name="ccaron" unicode="&#x10d;" horiz-adv-x="811" 
d="M527 716q93 -29 161.5 -97.5t97.5 -162.5l-202 -56q-9 27 -25.5 49.5t-38.5 39t-49 26t-57 9.5q-35 0 -67.5 -13.5t-57.5 -37.5t-39.5 -57t-14.5 -72q0 -41 15 -73t39.5 -54.5t56.5 -34.5t67 -13q27 -1 53.5 6t49 22t40.5 38t28 54l202 -57q-18 -60 -54 -111t-85 -87.5
t-108.5 -57.5t-125.5 -21q-81 0 -151.5 30.5t-123.5 83.5t-83.5 124t-30.5 151q0 68 22 129t60.5 110.5t92 85t116.5 51.5l-145 193h178l75 -81l76 81h178z" />
    <glyph glyph-name="Dcaron" unicode="&#x10e;" horiz-adv-x="754" 
d="M447 683q58 -13 108 -44t86.5 -76t57 -101t20.5 -118q0 -72 -27 -135t-74 -110t-110 -74t-135 -27h-338v693h187l-137 183h178l75 -81l76 81h178zM373 196q30 0 57 11.5t47.5 31.5t32 47t11.5 58q0 30 -11.5 57t-32 47t-47.5 31.5t-57 11.5h-140v-295h140z" />
    <glyph glyph-name="dcaron" unicode="&#x10f;" horiz-adv-x="754" 
d="M447 683q58 -13 108 -44t86.5 -76t57 -101t20.5 -118q0 -72 -27 -135t-74 -110t-110 -74t-135 -27h-338v693h187l-137 183h178l75 -81l76 81h178zM373 196q30 0 57 11.5t47.5 31.5t32 47t11.5 58q0 30 -11.5 57t-32 47t-47.5 31.5t-57 11.5h-140v-295h140z" />
    <glyph glyph-name="Dcroat" unicode="&#x110;" horiz-adv-x="754" 
d="M373 691q72 0 135 -27.5t110 -74.5t74 -110t27 -135t-27 -135t-74 -110t-110 -74t-135 -27h-338v308h-70v85h70v300h338zM373 196q30 0 57 11.5t47.5 31.5t32 47t11.5 58q0 30 -11.5 57t-32 47t-47.5 31.5t-57 11.5h-140v-100h138v-85h-138v-110h140z" />
    <glyph glyph-name="dcroat" unicode="&#x111;" horiz-adv-x="754" 
d="M373 691q72 0 135 -27.5t110 -74.5t74 -110t27 -135t-27 -135t-74 -110t-110 -74t-135 -27h-338v308h-70v85h70v300h338zM373 196q30 0 57 11.5t47.5 31.5t32 47t11.5 58q0 30 -11.5 57t-32 47t-47.5 31.5t-57 11.5h-140v-100h138v-85h-138v-110h140z" />
    <glyph glyph-name="Emacron" unicode="&#x112;" horiz-adv-x="658" 
d="M244 522v-127h289v-103h-289v-127h379v-167h-588v693h588v-167zM110 729v134h437v-134h-437z" />
    <glyph glyph-name="emacron" unicode="&#x113;" horiz-adv-x="658" 
d="M244 522v-127h289v-103h-289v-127h379v-167h-588v693h588v-167zM110 729v134h437v-134h-437z" />
    <glyph glyph-name="Edotaccent" unicode="&#x116;" horiz-adv-x="658" 
d="M434 775q0 -25 -10 -47t-29 -37h228v-167l-379 -2v-127h289v-103h-289v-127h379v-167h-588v693h226q-19 15 -28.5 37t-9.5 47q0 19 6.5 38t19.5 33.5t33 23.5t46 9t45.5 -9t33 -23.5t20.5 -33.5t7 -38z" />
    <glyph glyph-name="edotaccent" unicode="&#x117;" horiz-adv-x="658" 
d="M434 775q0 -25 -10 -47t-29 -37h228v-167l-379 -2v-127h289v-103h-289v-127h379v-167h-588v693h226q-19 15 -28.5 37t-9.5 47q0 19 6.5 38t19.5 33.5t33 23.5t46 9t45.5 -9t33 -23.5t20.5 -33.5t7 -38z" />
    <glyph glyph-name="Eogonek" unicode="&#x118;" horiz-adv-x="658" 
d="M327 -132q0 -17 13 -28.5t36.5 -15.5t55.5 0.5t71 21.5v-112q-78 -35 -148 -42.5t-123 7.5t-84 49.5t-30 82.5q1 36 15 62.5t36.5 45.5t51 33t57.5 26h-243v693h588v-167l-379 -2v-127h289v-103h-289v-127h379v-167h-132q-24 -27 -53 -44t-53.5 -29.5t-41 -25
t-16.5 -31.5z" />
    <glyph glyph-name="eogonek" unicode="&#x119;" horiz-adv-x="658" 
d="M327 -132q0 -17 13 -28.5t36.5 -15.5t55.5 0.5t71 21.5v-112q-78 -35 -148 -42.5t-123 7.5t-84 49.5t-30 82.5q1 36 15 62.5t36.5 45.5t51 33t57.5 26h-243v693h588v-167l-379 -2v-127h289v-103h-289v-127h379v-167h-132q-24 -27 -53 -44t-53.5 -29.5t-41 -25
t-16.5 -31.5z" />
    <glyph glyph-name="Ecaron" unicode="&#x11a;" horiz-adv-x="658" 
d="M458 691h165v-167l-379 -2v-127h289v-103h-289v-127h379v-167h-588v693h192l-137 183h178l75 -81l76 81h178z" />
    <glyph glyph-name="ecaron" unicode="&#x11b;" horiz-adv-x="658" 
d="M458 691h165v-167l-379 -2v-127h289v-103h-289v-127h379v-167h-588v693h192l-137 183h178l75 -81l76 81h178z" />
    <glyph glyph-name="Gcircumflex" unicode="&#x11c;" horiz-adv-x="884" 
d="M859 335q0 -20 -0.5 -40.5t-0.5 -40.5h-109q-15 -59 -48.5 -109.5t-80.5 -87.5t-105 -58t-122 -21q-76 0 -143 29t-117 79t-79 117t-29 143t29 143t79 117.5t117 79.5t143 29q67 0 126.5 -22.5t107 -62.5t79.5 -93.5t44 -116.5h-215q-19 35 -56 60t-84 25
q-33 0 -61.5 -12.5t-50.5 -34t-34.5 -50.5t-12.5 -62q0 -32 12 -61t33 -51t50 -35t63 -13q53 0 92 28t54 73h-82v48h401zM339 968h135l185 -246h-178l-75 81l-76 -81h-178z" />
    <glyph glyph-name="gcircumflex" unicode="&#x11d;" horiz-adv-x="884" 
d="M859 335q0 -20 -0.5 -40.5t-0.5 -40.5h-109q-15 -59 -48.5 -109.5t-80.5 -87.5t-105 -58t-122 -21q-76 0 -143 29t-117 79t-79 117t-29 143t29 143t79 117.5t117 79.5t143 29q67 0 126.5 -22.5t107 -62.5t79.5 -93.5t44 -116.5h-215q-19 35 -56 60t-84 25
q-33 0 -61.5 -12.5t-50.5 -34t-34.5 -50.5t-12.5 -62q0 -32 12 -61t33 -51t50 -35t63 -13q53 0 92 28t54 73h-82v48h401zM339 968h135l185 -246h-178l-75 81l-76 -81h-178z" />
    <glyph glyph-name="Gbreve" unicode="&#x11e;" horiz-adv-x="884" 
d="M657 835q18 -60 6 -108.5t-57 -80.5q56 -40 93.5 -98.5t50.5 -127.5h-215q-19 35 -56 60t-84 25q-33 0 -61.5 -12.5t-50.5 -34t-34.5 -50.5t-12.5 -62q0 -32 12 -61t33 -51t50 -35t63 -13q53 0 92 28t54 73h-82v48h401q0 -20 -0.5 -40.5t-0.5 -40.5h-109
q-15 -59 -48.5 -109.5t-80.5 -87.5t-105 -58t-122 -21q-76 0 -143 29t-117 79t-79 117t-29 143q0 97 45.5 177.5t120.5 130.5q-39 32 -48.5 78.5t10.5 102.5h176q-14 -49 4 -70t69 -21q54 0 72.5 21t7.5 70h175v0z" />
    <glyph glyph-name="gbreve" unicode="&#x11f;" horiz-adv-x="884" 
d="M657 835q18 -60 6 -108.5t-57 -80.5q56 -40 93.5 -98.5t50.5 -127.5h-215q-19 35 -56 60t-84 25q-33 0 -61.5 -12.5t-50.5 -34t-34.5 -50.5t-12.5 -62q0 -32 12 -61t33 -51t50 -35t63 -13q53 0 92 28t54 73h-82v48h401q0 -20 -0.5 -40.5t-0.5 -40.5h-109
q-15 -59 -48.5 -109.5t-80.5 -87.5t-105 -58t-122 -21q-76 0 -143 29t-117 79t-79 117t-29 143q0 97 45.5 177.5t120.5 130.5q-39 32 -48.5 78.5t10.5 102.5h176q-14 -49 4 -70t69 -21q54 0 72.5 21t7.5 70h175v0z" />
    <glyph glyph-name="Gdotaccent" unicode="&#x120;" horiz-adv-x="884" 
d="M500 787q0 -23 -8.5 -44t-25.5 -36q54 -11 101.5 -37t84.5 -63.5t62.5 -85t35.5 -101.5h-215q-19 35 -56 60t-84 25q-33 0 -61.5 -12.5t-50.5 -34t-34.5 -50.5t-12.5 -62q0 -32 12 -61t33 -51t50 -35t63 -13q53 0 92 28t54 73h-82v48h401q0 -20 -0.5 -40.5t-0.5 -40.5
h-109q-15 -59 -48.5 -109.5t-80.5 -87.5t-105 -58t-122 -21q-76 0 -143 29t-117 79t-79 117t-29 143q0 67 22.5 127t62 108t94 81t117.5 46q-16 15 -24 35.5t-8 43.5q0 19 6.5 38t19.5 33.5t33 23.5t46 9t45.5 -9t33 -23.5t20.5 -33.5t7 -38z" />
    <glyph glyph-name="gdotaccent" unicode="&#x121;" horiz-adv-x="884" 
d="M500 787q0 -23 -8.5 -44t-25.5 -36q54 -11 101.5 -37t84.5 -63.5t62.5 -85t35.5 -101.5h-215q-19 35 -56 60t-84 25q-33 0 -61.5 -12.5t-50.5 -34t-34.5 -50.5t-12.5 -62q0 -32 12 -61t33 -51t50 -35t63 -13q53 0 92 28t54 73h-82v48h401q0 -20 -0.5 -40.5t-0.5 -40.5
h-109q-15 -59 -48.5 -109.5t-80.5 -87.5t-105 -58t-122 -21q-76 0 -143 29t-117 79t-79 117t-29 143q0 67 22.5 127t62 108t94 81t117.5 46q-16 15 -24 35.5t-8 43.5q0 19 6.5 38t19.5 33.5t33 23.5t46 9t45.5 -9t33 -23.5t20.5 -33.5t7 -38z" />
    <glyph glyph-name="uni0122" unicode="&#x122;" horiz-adv-x="884" 
d="M859 335q0 -20 -0.5 -40.5t-0.5 -40.5h-109q-15 -59 -48.5 -109.5t-80.5 -87.5t-105 -58t-122 -21q-76 0 -143 29t-117 79t-79 117t-29 143t29 143t79 117.5t117 79.5t143 29q67 0 126.5 -22.5t107 -62.5t79.5 -93.5t44 -116.5h-215q-19 35 -56 60t-84 25
q-33 0 -61.5 -12.5t-50.5 -34t-34.5 -50.5t-12.5 -62q0 -32 12 -61t33 -51t50 -35t63 -13q53 0 92 28t54 73h-82v48h401zM293 -45h199l-118 -317h-129z" />
    <glyph glyph-name="uni0123" unicode="&#x123;" horiz-adv-x="884" 
d="M859 335q0 -20 -0.5 -40.5t-0.5 -40.5h-109q-15 -59 -48.5 -109.5t-80.5 -87.5t-105 -58t-122 -21q-76 0 -143 29t-117 79t-79 117t-29 143t29 143t79 117.5t117 79.5t143 29q67 0 126.5 -22.5t107 -62.5t79.5 -93.5t44 -116.5h-215q-19 35 -56 60t-84 25
q-33 0 -61.5 -12.5t-50.5 -34t-34.5 -50.5t-12.5 -62q0 -32 12 -61t33 -51t50 -35t63 -13q53 0 92 28t54 73h-82v48h401zM293 -45h199l-118 -317h-129z" />
    <glyph glyph-name="Hcircumflex" unicode="&#x124;" horiz-adv-x="763" 
d="M728 691v-693h-209v268h-275v-268h-209v693h209v-296h275v296h209zM317 956h135l185 -246h-178l-75 81l-76 -81h-178z" />
    <glyph glyph-name="hcircumflex" unicode="&#x125;" horiz-adv-x="763" 
d="M728 691v-693h-209v268h-275v-268h-209v693h209v-296h275v296h209zM317 956h135l185 -246h-178l-75 81l-76 -81h-178z" />
    <glyph glyph-name="Hbar" unicode="&#x126;" horiz-adv-x="763" 
d="M728 691v-693h-209v268h-275v-268h-209v693h209v-104h275v104h209zM519 395v57h-275v-57h275z" />
    <glyph glyph-name="hbar" unicode="&#x127;" horiz-adv-x="763" 
d="M728 691v-693h-209v268h-275v-268h-209v693h209v-104h275v104h209zM519 395v57h-275v-57h275z" />
    <glyph glyph-name="Itilde" unicode="&#x128;" horiz-adv-x="279" 
d="M35 -2v679h-133q-29 60 -29.5 112t20 90.5t58.5 60.5t86 22q36 0 62 -10t45 -24.5t33 -32t25.5 -32t22 -24.5t22.5 -10q13 0 16.5 13t0 33t-15 43t-28.5 44h158q29 -56 31 -107t-17.5 -91t-57.5 -63.5t-90 -23.5v-679h-209zM37 810q-14 0 -20 -9.5t-4 -25.5t11.5 -38
t27.5 -46h121q-29 13 -48 33t-33 39t-26.5 33t-28.5 14z" />
    <glyph glyph-name="itilde" unicode="&#x129;" horiz-adv-x="279" 
d="M35 -2v679h-133q-29 60 -29.5 112t20 90.5t58.5 60.5t86 22q36 0 62 -10t45 -24.5t33 -32t25.5 -32t22 -24.5t22.5 -10q13 0 16.5 13t0 33t-15 43t-28.5 44h158q29 -56 31 -107t-17.5 -91t-57.5 -63.5t-90 -23.5v-679h-209zM37 810q-14 0 -20 -9.5t-4 -25.5t11.5 -38
t27.5 -46h121q-29 13 -48 33t-33 39t-26.5 33t-28.5 14z" />
    <glyph glyph-name="Imacron" unicode="&#x12a;" horiz-adv-x="279" 
d="M35 -2v693h209v-693h-209zM-79 738v134h437v-134h-437z" />
    <glyph glyph-name="imacron" unicode="&#x12b;" horiz-adv-x="279" 
d="M35 -2v693h209v-693h-209zM-79 738v134h437v-134h-437z" />
    <glyph glyph-name="Iogonek" unicode="&#x12e;" horiz-adv-x="279" 
d="M56 -141q0 -17 13 -28.5t36.5 -15.5t55.5 0.5t71 21.5v-112q-78 -35 -148 -42.5t-123 7.5t-84 49.5t-30 82.5q1 41 18.5 69t44.5 48t60 34t65 27v691h209v-693h-16q-24 -30 -54 -48.5t-56.5 -32t-44 -26t-17.5 -32.5z" />
    <glyph glyph-name="iogonek" unicode="&#x12f;" horiz-adv-x="279" 
d="M56 -141q0 -17 13 -28.5t36.5 -15.5t55.5 0.5t71 21.5v-112q-78 -35 -148 -42.5t-123 7.5t-84 49.5t-30 82.5q1 41 18.5 69t44.5 48t60 34t65 27v691h209v-693h-16q-24 -30 -54 -48.5t-56.5 -32t-44 -26t-17.5 -32.5z" />
    <glyph glyph-name="Idotaccent" unicode="&#x130;" horiz-adv-x="279" 
d="M35 -2v693h209v-693h-209zM245 814q0 -20 -7 -39t-20.5 -34t-33 -24t-45.5 -9t-45.5 9t-32.5 24t-20 34t-7 39q0 19 6.5 38t19.5 33.5t33 23.5t46 9t45.5 -9t33 -23.5t20.5 -33.5t7 -38z" />
    <glyph glyph-name="dotlessi" unicode="&#x131;" horiz-adv-x="279" 
d="M35 -2v693h209v-693h-209z" />
    <glyph glyph-name="Jcircumflex" unicode="&#x134;" horiz-adv-x="758" 
d="M722 690v-370q0 -71 -27 -134t-73.5 -109.5t-109.5 -73.5t-134 -27q-68 0 -128.5 25t-107 68t-75 101t-33.5 125h212q4 -23 16 -43t29.5 -35t39.5 -23.5t47 -8.5q28 0 53 10.5t43.5 29t29 43t10.5 52.5v371zM511 950h135l185 -246h-178l-75 81l-76 -81h-178z" />
    <glyph glyph-name="jcircumflex" unicode="&#x135;" horiz-adv-x="758" 
d="M722 690v-370q0 -71 -27 -134t-73.5 -109.5t-109.5 -73.5t-134 -27q-68 0 -128.5 25t-107 68t-75 101t-33.5 125h212q4 -23 16 -43t29.5 -35t39.5 -23.5t47 -8.5q28 0 53 10.5t43.5 29t29 43t10.5 52.5v371zM511 950h135l185 -246h-178l-75 81l-76 -81h-178z" />
    <glyph glyph-name="uni0136" unicode="&#x136;" horiz-adv-x="793" 
d="M615 -92l-371 386v-292h-209v693h209v-293l371 386l145 -146l-294 -294l294 -294zM233 -31h199l-118 -317h-129z" />
    <glyph glyph-name="uni0137" unicode="&#x137;" horiz-adv-x="793" 
d="M615 -92l-371 386v-292h-209v693h209v-293l371 386l145 -146l-294 -294l294 -294zM233 -31h199l-118 -317h-129z" />
    <glyph glyph-name="kgreenlandic" unicode="&#x138;" horiz-adv-x="793" 
d="M615 -92l-371 386v-292h-209v693h209v-293l371 386l145 -146l-294 -294l294 -294z" />
    <glyph glyph-name="Lacute" unicode="&#x139;" horiz-adv-x="665" 
d="M630 207v-209h-595v693h209v-5l238 266l121 -133l-306 -234l-53 56v-434h386z" />
    <glyph glyph-name="lacute" unicode="&#x13a;" horiz-adv-x="665" 
d="M630 207v-209h-595v693h209v-5l238 266l121 -133l-306 -234l-53 56v-434h386z" />
    <glyph glyph-name="uni013B" unicode="&#x13b;" horiz-adv-x="665" 
d="M630 207v-209h-595v693h209v-484h386zM293 -31h199l-118 -317h-129z" />
    <glyph glyph-name="uni013C" unicode="&#x13c;" horiz-adv-x="665" 
d="M630 207v-209h-595v693h209v-484h386zM293 -31h199l-118 -317h-129z" />
    <glyph glyph-name="Lcaron" unicode="&#x13d;" horiz-adv-x="665" 
d="M630 207v-209h-595v693h209v-484h386zM473 808h210l-131 -331h-152z" />
    <glyph glyph-name="lcaron" unicode="&#x13e;" horiz-adv-x="665" 
d="M630 207v-209h-595v693h209v-484h386zM473 808h210l-131 -331h-152z" />
    <glyph glyph-name="Lslash" unicode="&#x141;" horiz-adv-x="665" 
d="M630 207v-209h-595v259l-78 -32v181l78 32v253h209v-165l190 80v-181l-190 -80v-138h386z" />
    <glyph glyph-name="lslash" unicode="&#x142;" horiz-adv-x="665" 
d="M630 207v-209h-595v259l-78 -32v181l78 32v253h209v-165l190 80v-181l-190 -80v-138h386z" />
    <glyph glyph-name="Nacute" unicode="&#x143;" horiz-adv-x="848" 
d="M813 691v-793l-569 475v-374h-209v784l569 -475v383h209zM689 873l-306 -234l-74 78l259 289z" />
    <glyph glyph-name="nacute" unicode="&#x144;" horiz-adv-x="848" 
d="M813 691v-793l-569 475v-374h-209v784l569 -475v383h209zM689 873l-306 -234l-74 78l259 289z" />
    <glyph glyph-name="uni0145" unicode="&#x145;" horiz-adv-x="848" 
d="M813 691v-793l-569 475v-374h-209v784l569 -475v383h209zM293 -31h199l-118 -317h-129z" />
    <glyph glyph-name="uni0146" unicode="&#x146;" horiz-adv-x="848" 
d="M813 691v-793l-569 475v-374h-209v784l569 -475v383h209zM293 -31h199l-118 -317h-129z" />
    <glyph glyph-name="Ncaron" unicode="&#x147;" horiz-adv-x="848" 
d="M813 691v-793l-569 475v-374h-209v784l569 -475v383h209zM489 683h-135l-185 246h178l75 -81l76 81h178z" />
    <glyph glyph-name="ncaron" unicode="&#x148;" horiz-adv-x="848" 
d="M813 691v-793l-569 475v-374h-209v784l569 -475v383h209zM489 683h-135l-185 246h178l75 -81l76 81h178z" />
    <glyph glyph-name="Eng" unicode="&#x14a;" horiz-adv-x="848" 
d="M813 691v-715q0 -71 -27 -134t-73.5 -109.5t-109 -73.5t-133.5 -27q-68 0 -128.5 25t-107 68t-75.5 101.5t-33 125.5h211q4 -24 16 -44t29.5 -35t40 -23.5t47.5 -8.5q28 0 52.5 10.5t43 29t29 43.5t10.5 53v76l-361 320v-374h-209v784l569 -475v383h209z" />
    <glyph glyph-name="eng" unicode="&#x14b;" horiz-adv-x="848" 
d="M813 691v-715q0 -71 -27 -134t-73.5 -109.5t-109 -73.5t-133.5 -27q-68 0 -128.5 25t-107 68t-75.5 101.5t-33 125.5h211q4 -24 16 -44t29.5 -35t40 -23.5t47.5 -8.5q28 0 52.5 10.5t43 29t29 43.5t10.5 53v76l-361 320v-374h-209v784l569 -475v383h209z" />
    <glyph glyph-name="Omacron" unicode="&#x14c;" horiz-adv-x="827" 
d="M414 734q80 0 151 -30.5t123.5 -83.5t83 -124t30.5 -151q0 -81 -30.5 -151.5t-83 -123.5t-123.5 -83.5t-151 -30.5q-81 0 -151.5 30.5t-123.5 83.5t-83.5 123.5t-30.5 151.5q0 80 30.5 151t83.5 124t123.5 83.5t151.5 30.5zM414 164q37 0 70 14t57.5 38.5t38.5 57.5
t14 70t-14 70t-38.5 57.5t-57.5 38.5t-70 14q-38 0 -70.5 -14t-57 -38.5t-38.5 -57.5t-14 -70t14 -70t38.5 -57.5t57 -38.5t70.5 -14zM194 750v134h437v-134h-437z" />
    <glyph glyph-name="omacron" unicode="&#x14d;" horiz-adv-x="827" 
d="M414 734q80 0 151 -30.5t123.5 -83.5t83 -124t30.5 -151q0 -81 -30.5 -151.5t-83 -123.5t-123.5 -83.5t-151 -30.5q-81 0 -151.5 30.5t-123.5 83.5t-83.5 123.5t-30.5 151.5q0 80 30.5 151t83.5 124t123.5 83.5t151.5 30.5zM414 164q37 0 70 14t57.5 38.5t38.5 57.5
t14 70t-14 70t-38.5 57.5t-57.5 38.5t-70 14q-38 0 -70.5 -14t-57 -38.5t-38.5 -57.5t-14 -70t14 -70t38.5 -57.5t57 -38.5t70.5 -14zM194 750v134h437v-134h-437z" />
    <glyph glyph-name="Ohungarumlaut" unicode="&#x150;" horiz-adv-x="827" 
d="M851 861l-238 -182q42 -26 77 -61.5t60 -78.5t38.5 -92t13.5 -102q0 -81 -30.5 -151.5t-83 -123.5t-123.5 -83.5t-151 -30.5q-81 0 -151.5 30.5t-123.5 83.5t-83.5 123.5t-30.5 151.5q0 54 14.5 104.5t40.5 94.5t62.5 79.5t81.5 60.5l-19 21l259 289l121 -133l-167 -127
q19 -1 37 -2.5t35 -5.5l240 268zM414 164q37 0 70 14t57.5 38.5t38.5 57.5t14 70t-14 70t-38.5 57.5t-57.5 38.5t-70 14q-38 0 -70.5 -14t-57 -38.5t-38.5 -57.5t-14 -70t14 -70t38.5 -57.5t57 -38.5t70.5 -14z" />
    <glyph glyph-name="ohungarumlaut" unicode="&#x151;" horiz-adv-x="827" 
d="M851 861l-238 -182q42 -26 77 -61.5t60 -78.5t38.5 -92t13.5 -102q0 -81 -30.5 -151.5t-83 -123.5t-123.5 -83.5t-151 -30.5q-81 0 -151.5 30.5t-123.5 83.5t-83.5 123.5t-30.5 151.5q0 54 14.5 104.5t40.5 94.5t62.5 79.5t81.5 60.5l-19 21l259 289l121 -133l-167 -127
q19 -1 37 -2.5t35 -5.5l240 268zM414 164q37 0 70 14t57.5 38.5t38.5 57.5t14 70t-14 70t-38.5 57.5t-57.5 38.5t-70 14q-38 0 -70.5 -14t-57 -38.5t-38.5 -57.5t-14 -70t14 -70t38.5 -57.5t57 -38.5t70.5 -14z" />
    <glyph glyph-name="OE" unicode="&#x152;" horiz-adv-x="1211" 
d="M808 522v-127h289v-103h-289v-127h379v-167h-588v5q-42 -23 -88 -35t-97 -12q-81 0 -151.5 30.5t-123.5 83.5t-83.5 123.5t-30.5 151.5q0 80 30.5 151t83.5 124t123.5 83.5t151.5 30.5q51 0 97 -12.5t88 -35.5v5h588v-167zM414 164q37 0 70 14t57.5 38.5t38.5 57.5t14 70
t-14 70t-38.5 57.5t-57.5 38.5t-70 14q-38 0 -70.5 -14t-57 -38.5t-38.5 -57.5t-14 -70t14 -70t38.5 -57.5t57 -38.5t70.5 -14z" />
    <glyph glyph-name="oe" unicode="&#x153;" horiz-adv-x="1211" 
d="M808 522v-127h289v-103h-289v-127h379v-167h-588v5q-42 -23 -88 -35t-97 -12q-81 0 -151.5 30.5t-123.5 83.5t-83.5 123.5t-30.5 151.5q0 80 30.5 151t83.5 124t123.5 83.5t151.5 30.5q51 0 97 -12.5t88 -35.5v5h588v-167zM414 164q37 0 70 14t57.5 38.5t38.5 57.5t14 70
t-14 70t-38.5 57.5t-57.5 38.5t-70 14q-38 0 -70.5 -14t-57 -38.5t-38.5 -57.5t-14 -70t14 -70t38.5 -57.5t57 -38.5t70.5 -14z" />
    <glyph glyph-name="Racute" unicode="&#x154;" horiz-adv-x="756" 
d="M592 835l-190 -145h44q54 0 102 -20.5t83.5 -56.5t56 -83.5t20.5 -101.5q0 -63 -31.5 -113t-80.5 -75l164 -175l-139 -136l-234 246h-143v-178h-209v693h187l249 278zM510 406q0 27 -10.5 45.5t-28 30t-40.5 16t-48 4.5h-139v-192h139q25 0 48 4.5t40.5 16t28 30
t10.5 45.5z" />
    <glyph glyph-name="racute" unicode="&#x155;" horiz-adv-x="756" 
d="M592 835l-190 -145h44q54 0 102 -20.5t83.5 -56.5t56 -83.5t20.5 -101.5q0 -63 -31.5 -113t-80.5 -75l164 -175l-139 -136l-234 246h-143v-178h-209v693h187l249 278zM510 406q0 27 -10.5 45.5t-28 30t-40.5 16t-48 4.5h-139v-192h139q25 0 48 4.5t40.5 16t28 30
t10.5 45.5z" />
    <glyph glyph-name="uni0156" unicode="&#x156;" horiz-adv-x="756" 
d="M387 175h-143v-178h-209v693h411q54 0 102 -20.5t83.5 -56.5t56 -83.5t20.5 -101.5q0 -63 -31.5 -113t-80.5 -75l164 -175l-139 -136zM510 406q0 27 -10.5 45.5t-28 30t-40.5 16t-48 4.5h-139v-192h139q25 0 48 4.5t40.5 16t28 30t10.5 45.5zM293 -31h199l-118 -317h-129
z" />
    <glyph glyph-name="uni0157" unicode="&#x157;" horiz-adv-x="756" 
d="M387 175h-143v-178h-209v693h411q54 0 102 -20.5t83.5 -56.5t56 -83.5t20.5 -101.5q0 -63 -31.5 -113t-80.5 -75l164 -175l-139 -136zM510 406q0 27 -10.5 45.5t-28 30t-40.5 16t-48 4.5h-139v-192h139q25 0 48 4.5t40.5 16t28 30t10.5 45.5zM293 -31h199l-118 -317h-129
z" />
    <glyph glyph-name="Rcaron" unicode="&#x158;" horiz-adv-x="756" 
d="M427 690h19q54 0 102 -20.5t83.5 -56.5t56 -83.5t20.5 -101.5q0 -63 -31.5 -113t-80.5 -75l164 -175l-139 -136l-234 246h-143v-178h-209v693h198l-155 207h178l75 -81l76 81h178zM510 406q0 27 -10.5 45.5t-28 30t-40.5 16t-48 4.5h-139v-192h139q25 0 48 4.5t40.5 16
t28 30t10.5 45.5z" />
    <glyph glyph-name="rcaron" unicode="&#x159;" horiz-adv-x="756" 
d="M427 690h19q54 0 102 -20.5t83.5 -56.5t56 -83.5t20.5 -101.5q0 -63 -31.5 -113t-80.5 -75l164 -175l-139 -136l-234 246h-143v-178h-209v693h198l-155 207h178l75 -81l76 81h178zM510 406q0 27 -10.5 45.5t-28 30t-40.5 16t-48 4.5h-139v-192h139q25 0 48 4.5t40.5 16
t28 30t10.5 45.5z" />
    <glyph glyph-name="Sacute" unicode="&#x15a;" horiz-adv-x="952" 
d="M957 827l-178 -136h153v-209h-230q-24 0 -46.5 -8.5t-39 -28.5t-27 -52.5t-10.5 -80.5q-3 -72 -23.5 -130t-61 -99t-103.5 -63t-150 -22h-221v209h233q24 0 45.5 8.5t37.5 28t26 52.5t10 81q2 59 15.5 109.5t40 90t65.5 66.5t93 39l250 278z" />
    <glyph glyph-name="sacute" unicode="&#x15b;" horiz-adv-x="952" 
d="M957 827l-178 -136h153v-209h-230q-24 0 -46.5 -8.5t-39 -28.5t-27 -52.5t-10.5 -80.5q-3 -72 -23.5 -130t-61 -99t-103.5 -63t-150 -22h-221v209h233q24 0 45.5 8.5t37.5 28t26 52.5t10 81q2 59 15.5 109.5t40 90t65.5 66.5t93 39l250 278z" />
    <glyph glyph-name="Scircumflex" unicode="&#x15c;" horiz-adv-x="952" 
d="M932 691v-209h-230q-24 0 -46.5 -8.5t-39 -28.5t-27 -52.5t-10.5 -80.5q-3 -72 -23.5 -130t-61 -99t-103.5 -63t-150 -22h-221v209h233q24 0 45.5 8.5t37.5 28t26 52.5t10 81q3 70 21.5 128t55.5 99.5t93 64t133 22.5h257zM642 963h135l185 -246h-178l-75 81l-76 -81
h-178z" />
    <glyph glyph-name="scircumflex" unicode="&#x15d;" horiz-adv-x="952" 
d="M932 691v-209h-230q-24 0 -46.5 -8.5t-39 -28.5t-27 -52.5t-10.5 -80.5q-3 -72 -23.5 -130t-61 -99t-103.5 -63t-150 -22h-221v209h233q24 0 45.5 8.5t37.5 28t26 52.5t10 81q3 70 21.5 128t55.5 99.5t93 64t133 22.5h257zM642 963h135l185 -246h-178l-75 81l-76 -81
h-178z" />
    <glyph glyph-name="Scedilla" unicode="&#x15e;" horiz-adv-x="952" 
d="M932 691v-209h-230q-24 0 -46.5 -8.5t-39 -28.5t-27 -52.5t-10.5 -80.5q-3 -69 -22 -125t-56 -96.5t-94 -64t-136 -27.5l-23 -56q41 1 71 -10.5t49 -30t28 -42t9 -47.5q0 -46 -25.5 -80.5t-73 -50.5t-114 -9.5t-148.5 42.5v77q93 -24 136 -13t43 40q0 23 -29.5 33.5
t-96.5 2.5v62l46 81h-123v209h233q24 0 45.5 8.5t37.5 28t26 52.5t10 81q3 70 21.5 128t55.5 99.5t93 64t133 22.5h257z" />
    <glyph glyph-name="scedilla" unicode="&#x15f;" horiz-adv-x="952" 
d="M932 691v-209h-230q-24 0 -46.5 -8.5t-39 -28.5t-27 -52.5t-10.5 -80.5q-3 -69 -22 -125t-56 -96.5t-94 -64t-136 -27.5l-23 -56q41 1 71 -10.5t49 -30t28 -42t9 -47.5q0 -46 -25.5 -80.5t-73 -50.5t-114 -9.5t-148.5 42.5v77q93 -24 136 -13t43 40q0 23 -29.5 33.5
t-96.5 2.5v62l46 81h-123v209h233q24 0 45.5 8.5t37.5 28t26 52.5t10 81q3 70 21.5 128t55.5 99.5t93 64t133 22.5h257z" />
    <glyph glyph-name="Scaron" unicode="&#x160;" horiz-adv-x="952" 
d="M783 691h149v-209h-230q-24 0 -46.5 -8.5t-39 -28.5t-27 -52.5t-10.5 -80.5q-3 -72 -23.5 -130t-61 -99t-103.5 -63t-150 -22h-221v209h233q24 0 45.5 8.5t37.5 28t26 52.5t10 81q2 64 18 117.5t46.5 94t76.5 66t109 33.5l-173 230h178l75 -81l76 81h178z" />
    <glyph glyph-name="scaron" unicode="&#x161;" horiz-adv-x="952" 
d="M783 691h149v-209h-230q-24 0 -46.5 -8.5t-39 -28.5t-27 -52.5t-10.5 -80.5q-3 -72 -23.5 -130t-61 -99t-103.5 -63t-150 -22h-221v209h233q24 0 45.5 8.5t37.5 28t26 52.5t10 81q2 64 18 117.5t46.5 94t76.5 66t109 33.5l-173 230h178l75 -81l76 81h178z" />
    <glyph glyph-name="uni0162" unicode="&#x162;" horiz-adv-x="790" 
d="M774 482h-274v-484h-209v484h-273v209h756v-209zM293 -31h199l-118 -317h-129z" />
    <glyph glyph-name="uni0163" unicode="&#x163;" horiz-adv-x="790" 
d="M774 482h-274v-484h-209v484h-273v209h756v-209zM293 -31h199l-118 -317h-129z" />
    <glyph glyph-name="Tcaron" unicode="&#x164;" horiz-adv-x="790" 
d="M489 691h285v-209h-274v-484h-209v484h-273v209h277l-155 207h178l75 -81l76 81h178z" />
    <glyph glyph-name="tcaron" unicode="&#x165;" horiz-adv-x="790" 
d="M489 691h285v-209h-274v-484h-209v484h-273v209h277l-155 207h178l75 -81l76 81h178z" />
    <glyph glyph-name="Tbar" unicode="&#x166;" horiz-adv-x="790" 
d="M500 205v-207h-209v207h-115v134h115v143h-273v209h756v-209h-274v-143h113v-134h-113z" />
    <glyph glyph-name="tbar" unicode="&#x167;" horiz-adv-x="790" 
d="M500 205v-207h-209v207h-115v134h115v143h-273v209h756v-209h-274v-143h113v-134h-113z" />
    <glyph glyph-name="Utilde" unicode="&#x168;" 
d="M637 974q29 -56 31 -107t-17.5 -91t-58 -63.5t-90.5 -23.5q-35 0 -60 10t-43.5 24.5t-31.5 32t-24.5 32t-22.5 24.5t-24 10q-14 0 -20 -11t-3 -29t15 -42t34 -51h-78v-349q0 -32 12 -60.5t33 -49.5t49.5 -33t60.5 -12t60.5 12t49.5 33t33.5 49.5t12.5 60.5v351h207v-351
q0 -75 -28.5 -141.5t-78 -116t-115.5 -78t-141 -28.5t-141.5 28.5t-116 78t-78 116t-28.5 141.5v351h125q-29 60 -29.5 111.5t20.5 89.5t59 60t86 22q36 0 62 -10t45 -24.5t33 -32t25.5 -32t22 -24.5t22.5 -10q13 0 16.5 13t0 33t-15 43t-28.5 44h158v0z" />
    <glyph glyph-name="utilde" unicode="&#x169;" 
d="M637 974q29 -56 31 -107t-17.5 -91t-58 -63.5t-90.5 -23.5q-35 0 -60 10t-43.5 24.5t-31.5 32t-24.5 32t-22.5 24.5t-24 10q-14 0 -20 -11t-3 -29t15 -42t34 -51h-78v-349q0 -32 12 -60.5t33 -49.5t49.5 -33t60.5 -12t60.5 12t49.5 33t33.5 49.5t12.5 60.5v351h207v-351
q0 -75 -28.5 -141.5t-78 -116t-115.5 -78t-141 -28.5t-141.5 28.5t-116 78t-78 116t-28.5 141.5v351h125q-29 60 -29.5 111.5t20.5 89.5t59 60t86 22q36 0 62 -10t45 -24.5t33 -32t25.5 -32t22 -24.5t22.5 -10q13 0 16.5 13t0 33t-15 43t-28.5 44h158v0z" />
    <glyph glyph-name="Umacron" unicode="&#x16a;" 
d="M762 691v-351q0 -75 -28.5 -141.5t-78 -116t-115.5 -78t-141 -28.5t-141.5 28.5t-116 78t-78 116t-28.5 141.5v351h209v-351q0 -32 12 -60.5t33 -49.5t49.5 -33t60.5 -12t60.5 12t49.5 33t33.5 49.5t12.5 60.5v351h207zM180 728v134h437v-134h-437z" />
    <glyph glyph-name="umacron" unicode="&#x16b;" 
d="M762 691v-351q0 -75 -28.5 -141.5t-78 -116t-115.5 -78t-141 -28.5t-141.5 28.5t-116 78t-78 116t-28.5 141.5v351h209v-351q0 -32 12 -60.5t33 -49.5t49.5 -33t60.5 -12t60.5 12t49.5 33t33.5 49.5t12.5 60.5v351h207zM180 728v134h437v-134h-437z" />
    <glyph glyph-name="Ubreve" unicode="&#x16c;" 
d="M762 691v-351q0 -75 -28.5 -141.5t-78 -116t-115.5 -78t-141 -28.5t-141.5 28.5t-116 78t-78 116t-28.5 141.5v351h209v-351q0 -32 12 -60.5t33 -49.5t49.5 -33t60.5 -12t60.5 12t49.5 33t33.5 49.5t12.5 60.5v351h207zM663 921q16 -51 9 -94.5t-38 -75t-87 -49.5
t-139 -18q-80 0 -136 18t-87 50t-37.5 75t11.5 94h176q-14 -49 4 -70t69 -21q54 0 72.5 21t7.5 70h175z" />
    <glyph glyph-name="ubreve" unicode="&#x16d;" 
d="M762 691v-351q0 -75 -28.5 -141.5t-78 -116t-115.5 -78t-141 -28.5t-141.5 28.5t-116 78t-78 116t-28.5 141.5v351h209v-351q0 -32 12 -60.5t33 -49.5t49.5 -33t60.5 -12t60.5 12t49.5 33t33.5 49.5t12.5 60.5v351h207zM663 921q16 -51 9 -94.5t-38 -75t-87 -49.5
t-139 -18q-80 0 -136 18t-87 50t-37.5 75t11.5 94h176q-14 -49 4 -70t69 -21q54 0 72.5 21t7.5 70h175z" />
    <glyph glyph-name="Uring" unicode="&#x16e;" 
d="M399 932q37 0 69.5 -14t57 -38.5t38.5 -57t14 -69.5q0 -32 -11 -62h195v-351q0 -75 -28.5 -141.5t-78 -116t-115.5 -78t-141 -28.5t-141.5 28.5t-116 78t-78 116t-28.5 141.5v351h195q-11 30 -11 62q0 37 14 69.5t38.5 57t57.5 38.5t70 14zM399 185q32 0 60.5 12t49.5 33
t33.5 49.5t12.5 60.5v325q-23 -41 -64.5 -66t-91.5 -25t-91 24t-64 64v-322q0 -32 12 -60.5t33 -49.5t49.5 -33t60.5 -12zM399 696q23 0 39.5 17t16.5 40t-16.5 39.5t-39.5 16.5t-40 -16.5t-17 -39.5t17 -40t40 -17z" />
    <glyph glyph-name="uring" unicode="&#x16f;" 
d="M399 932q37 0 69.5 -14t57 -38.5t38.5 -57t14 -69.5q0 -32 -11 -62h195v-351q0 -75 -28.5 -141.5t-78 -116t-115.5 -78t-141 -28.5t-141.5 28.5t-116 78t-78 116t-28.5 141.5v351h195q-11 30 -11 62q0 37 14 69.5t38.5 57t57.5 38.5t70 14zM399 185q32 0 60.5 12t49.5 33
t33.5 49.5t12.5 60.5v325q-23 -41 -64.5 -66t-91.5 -25t-91 24t-64 64v-322q0 -32 12 -60.5t33 -49.5t49.5 -33t60.5 -12zM399 696q23 0 39.5 17t16.5 40t-16.5 39.5t-39.5 16.5t-40 -16.5t-17 -39.5t17 -40t40 -17z" />
    <glyph glyph-name="Uhungarumlaut" unicode="&#x170;" 
d="M531 835l-287 -220v-275q0 -32 12 -60.5t33 -49.5t49.5 -33t60.5 -12t60.5 12t49.5 33t33.5 49.5t12.5 60.5v310l-64 -49l-74 78l259 289l121 -133l-189 -144h154v-351q0 -75 -28.5 -141.5t-78 -116t-115.5 -78t-141 -28.5t-141.5 28.5t-116 78t-78 116t-28.5 141.5v351
h127l248 277z" />
    <glyph glyph-name="uhungarumlaut" unicode="&#x171;" 
d="M531 835l-287 -220v-275q0 -32 12 -60.5t33 -49.5t49.5 -33t60.5 -12t60.5 12t49.5 33t33.5 49.5t12.5 60.5v310l-64 -49l-74 78l259 289l121 -133l-189 -144h154v-351q0 -75 -28.5 -141.5t-78 -116t-115.5 -78t-141 -28.5t-141.5 28.5t-116 78t-78 116t-28.5 141.5v351
h127l248 277z" />
    <glyph glyph-name="Uogonek" unicode="&#x172;" 
d="M358 -131q0 -17 13 -28.5t36.5 -15.5t55.5 0.5t71 21.5v-112q-78 -35 -148 -42.5t-123 7.5t-84 49.5t-30 82.5q1 34 13.5 59t32.5 43.5t45.5 32.5t52.5 25q-56 17 -103.5 50.5t-82 79t-53.5 101t-19 117.5v351h209v-351q0 -32 12 -60.5t33 -49.5t49.5 -33t60.5 -12
t60.5 12t49.5 33t33.5 49.5t12.5 60.5v351h207v-351q0 -59 -18 -112.5t-50 -98.5t-76.5 -78.5t-96.5 -52.5q-24 -27 -53 -43.5t-53.5 -29t-40.5 -25t-16 -31.5z" />
    <glyph glyph-name="uogonek" unicode="&#x173;" 
d="M358 -131q0 -17 13 -28.5t36.5 -15.5t55.5 0.5t71 21.5v-112q-78 -35 -148 -42.5t-123 7.5t-84 49.5t-30 82.5q1 34 13.5 59t32.5 43.5t45.5 32.5t52.5 25q-56 17 -103.5 50.5t-82 79t-53.5 101t-19 117.5v351h209v-351q0 -32 12 -60.5t33 -49.5t49.5 -33t60.5 -12
t60.5 12t49.5 33t33.5 49.5t12.5 60.5v351h207v-351q0 -59 -18 -112.5t-50 -98.5t-76.5 -78.5t-96.5 -52.5q-24 -27 -53 -43.5t-53.5 -29t-40.5 -25t-16 -31.5z" />
    <glyph glyph-name="Wcircumflex" unicode="&#x174;" horiz-adv-x="1217" 
d="M1232 691l-389 -773l-235 434l-234 -434l-389 773h237l168 -358l218 411l218 -411l168 358h238zM541 953h135l185 -246h-178l-75 81l-76 -81h-178z" />
    <glyph glyph-name="wcircumflex" unicode="&#x175;" horiz-adv-x="1217" 
d="M1232 691l-389 -773l-235 434l-234 -434l-389 773h237l168 -358l218 411l218 -411l168 358h238zM541 953h135l185 -246h-178l-75 81l-76 -81h-178z" />
    <glyph glyph-name="Ycircumflex" unicode="&#x176;" horiz-adv-x="850" 
d="M529 280v-282h-209v282l-335 335l148 148l56 -57l168 221h135l167 -222l58 58l148 -148zM425 471l210 210h-136l-75 81l-76 -81h-133z" />
    <glyph glyph-name="ycircumflex" unicode="&#x177;" horiz-adv-x="850" 
d="M529 280v-282h-209v282l-335 335l148 148l56 -57l168 221h135l167 -222l58 58l148 -148zM425 471l210 210h-136l-75 81l-76 -81h-133z" />
    <glyph glyph-name="Ydieresis" unicode="&#x178;" horiz-adv-x="850" 
d="M529 280v-282h-209v282l-335 335l148 148l292 -292l292 292l148 -148zM376 803q0 -20 -7 -39t-20.5 -34t-33 -24t-45.5 -9t-45.5 9t-32.5 24t-20 34t-7 39q0 19 6.5 38t19.5 33.5t33 23.5t46 9t45.5 -9t33 -23.5t20.5 -33.5t7 -38zM683 803q0 -20 -7 -39t-20.5 -34
t-33 -24t-45.5 -9t-45.5 9t-32.5 24t-20 34t-7 39q0 19 6.5 38t19.5 33.5t33 23.5t46 9t45.5 -9t33 -23.5t20.5 -33.5t7 -38z" />
    <glyph glyph-name="Zacute" unicode="&#x179;" horiz-adv-x="950" 
d="M774 835l-189 -144h301l-426 -484h447v-209h-872l426 484h-398v209h342l248 277z" />
    <glyph glyph-name="zacute" unicode="&#x17a;" horiz-adv-x="950" 
d="M774 835l-189 -144h301l-426 -484h447v-209h-872l426 484h-398v209h342l248 277z" />
    <glyph glyph-name="Zdotaccent" unicode="&#x17b;" horiz-adv-x="950" 
d="M568 766q0 -44 -29 -75h347l-426 -484h447v-209h-872l426 484h-398v209h322q-14 15 -21 34.5t-7 40.5q0 19 6.5 38t19.5 33.5t33 23.5t46 9t45.5 -9t33 -23.5t20.5 -33.5t7 -38z" />
    <glyph glyph-name="zdotaccent" unicode="&#x17c;" horiz-adv-x="950" 
d="M568 766q0 -44 -29 -75h347l-426 -484h447v-209h-872l426 484h-398v209h322q-14 15 -21 34.5t-7 40.5q0 19 6.5 38t19.5 33.5t33 23.5t46 9t45.5 -9t33 -23.5t20.5 -33.5t7 -38z" />
    <glyph glyph-name="Zcaron" unicode="&#x17d;" horiz-adv-x="950" 
d="M559 691h327l-426 -484h447v-209h-872l426 484h-398v209h311l-160 213h178l75 -81l76 81h178z" />
    <glyph glyph-name="zcaron" unicode="&#x17e;" horiz-adv-x="950" 
d="M559 691h327l-426 -484h447v-209h-872l426 484h-398v209h311l-160 213h178l75 -81l76 81h178z" />
    <glyph glyph-name="florin" unicode="&#x192;" horiz-adv-x="498" 
d="M81 -72q45 0 64.5 27.5t24 73.5t-1.5 106.5t-13 127.5h-119v140h107q-2 70 7.5 135.5t41.5 115t92 79.5t159 30v-152q-38 0 -60 -16t-33 -43.5t-13 -65.5t1 -83h123v-140h-109q6 -57 10.5 -115.5t0.5 -112.5t-19 -101.5t-47.5 -82.5t-85 -55t-130.5 -20v152z" />
    <glyph glyph-name="circumflex" unicode="&#x2c6;" horiz-adv-x="580" 
d="M223 682h135l185 -246h-178l-75 81l-76 -81h-178z" />
    <glyph glyph-name="caron" unicode="&#x2c7;" horiz-adv-x="580" 
d="M357 437h-135l-185 246h178l75 -81l76 81h178z" />
    <glyph glyph-name="breve" unicode="&#x2d8;" horiz-adv-x="603" 
d="M554 682q16 -51 9 -94.5t-38 -75t-87 -49.5t-139 -18q-80 0 -136 18t-87 50t-37.5 75t11.5 94h176q-14 -49 4 -70t69 -21q54 0 72.5 21t7.5 70h175v0z" />
    <glyph glyph-name="dotaccent" unicode="&#x2d9;" horiz-adv-x="283" 
d="M247 588q0 -20 -7 -39t-20.5 -34t-33 -24t-45.5 -9t-45.5 9t-32.5 24t-20 34t-7 39q0 19 6.5 38t19.5 33.5t33 23.5t46 9t45.5 -9t33 -23.5t20.5 -33.5t7 -38z" />
    <glyph glyph-name="ring" unicode="&#x2da;" horiz-adv-x="431" 
d="M216 698q37 0 69.5 -14t57 -38.5t38.5 -57t14 -69.5t-14 -69.5t-38.5 -57t-57 -38.5t-69.5 -14t-70 14t-57.5 38.5t-38.5 57t-14 69.5t14 69.5t38.5 57t57.5 38.5t70 14zM216 462q23 0 39.5 17t16.5 40t-16.5 39.5t-39.5 16.5t-40 -16.5t-17 -39.5t17 -40t40 -17z" />
    <glyph glyph-name="ogonek" unicode="&#x2db;" horiz-adv-x="463" 
d="M246 -123q0 -17 13 -28.5t36.5 -15.5t55.5 0.5t71 21.5v-112q-78 -35 -148 -42.5t-123 7.5t-84 49.5t-30 82.5q1 38 16.5 65t39.5 46.5t54.5 33.5t60.5 26t57 24.5t46 29.5l115 -38q-23 -35 -54.5 -55t-59.5 -34t-47 -27t-19 -34z" />
    <glyph glyph-name="tilde" unicode="&#x2dc;" horiz-adv-x="611" 
d="M543 744q29 -56 31 -107t-17.5 -91t-58 -63.5t-90.5 -23.5q-35 0 -60 10t-43.5 24.5t-31.5 32t-24.5 32t-22.5 24.5t-24 10q-14 0 -20 -11t-3 -29t15 -42t34 -51h-161q-29 60 -29.5 112t20 90.5t58.5 60.5t86 22q36 0 62 -10t45 -24.5t33 -32t25.5 -32t22 -24.5t22.5 -10
q13 0 16.5 13t0 33t-15 43t-28.5 44h158v0z" />
    <glyph glyph-name="hungarumlaut" unicode="&#x2dd;" horiz-adv-x="590" 
d="M415 635l-306 -234l-74 78l259 289zM681 635l-306 -234l-74 78l259 289z" />
    <glyph glyph-name="uni1E02" unicode="&#x1e02;" horiz-adv-x="752" 
d="M351 790q0 -32 -17 -59.5t-49 -39.5h73q28 0 55.5 -8t50 -23.5t39 -37t23.5 -48.5q11 -26 6 -59.5t-20 -56.5q46 -5 84 -23.5t65 -47.5t41.5 -67.5t14.5 -81.5q0 -53 -20 -97t-54.5 -75.5t-79.5 -49.5t-94 -18h-434v693h170q-32 12 -48.5 39.5t-16.5 59.5q0 19 6.5 38
t19.5 33.5t33 23.5t46 9t45.5 -9t33 -23.5t20.5 -33.5t7 -38zM427 166q41 0 69 29t28 70q0 20 -7.5 38.5t-20.5 32t-31 21.5t-38 8h-213v-200zM214 448h120q18 0 31 13t13 31q0 27 -20 35t-44 8h-100v-87z" />
    <glyph glyph-name="uni1E03" unicode="&#x1e03;" horiz-adv-x="752" 
d="M351 790q0 -32 -17 -59.5t-49 -39.5h73q28 0 55.5 -8t50 -23.5t39 -37t23.5 -48.5q11 -26 6 -59.5t-20 -56.5q46 -5 84 -23.5t65 -47.5t41.5 -67.5t14.5 -81.5q0 -53 -20 -97t-54.5 -75.5t-79.5 -49.5t-94 -18h-434v693h170q-32 12 -48.5 39.5t-16.5 59.5q0 19 6.5 38
t19.5 33.5t33 23.5t46 9t45.5 -9t33 -23.5t20.5 -33.5t7 -38zM427 166q41 0 69 29t28 70q0 20 -7.5 38.5t-20.5 32t-31 21.5t-38 8h-213v-200zM214 448h120q18 0 31 13t13 31q0 27 -20 35t-44 8h-100v-87z" />
    <glyph glyph-name="uni1E0A" unicode="&#x1e0a;" horiz-adv-x="754" 
d="M405 780q0 -26 -11.5 -50.5t-34.5 -38.5h14q72 0 135 -27.5t110 -74.5t74 -110t27 -135t-27 -135t-74 -110t-110 -74t-135 -27h-338v693h204q-23 14 -34 38.5t-11 50.5q0 19 6.5 38t19.5 33.5t33 23.5t46 9t45.5 -9t33 -23.5t20.5 -33.5t7 -38zM373 196q30 0 57 11.5
t47.5 31.5t32 47t11.5 58q0 30 -11.5 57t-32 47t-47.5 31.5t-57 11.5h-140v-295h140z" />
    <glyph glyph-name="uni1E0B" unicode="&#x1e0b;" horiz-adv-x="754" 
d="M405 780q0 -26 -11.5 -50.5t-34.5 -38.5h14q72 0 135 -27.5t110 -74.5t74 -110t27 -135t-27 -135t-74 -110t-110 -74t-135 -27h-338v693h204q-23 14 -34 38.5t-11 50.5q0 19 6.5 38t19.5 33.5t33 23.5t46 9t45.5 -9t33 -23.5t20.5 -33.5t7 -38zM373 196q30 0 57 11.5
t47.5 31.5t32 47t11.5 58q0 30 -11.5 57t-32 47t-47.5 31.5t-57 11.5h-140v-295h140z" />
    <glyph glyph-name="uni1E1E" unicode="&#x1e1e;" horiz-adv-x="690" 
d="M705 482q-116 0 -230.5 -0.5t-230.5 -0.5v-140h371v-130h-371v-213h-209v693h670v-209zM484 803q0 -20 -7 -39t-20.5 -34t-33 -24t-45.5 -9t-45.5 9t-32.5 24t-20 34t-7 39q0 19 6.5 38t19.5 33.5t33 23.5t46 9t45.5 -9t33 -23.5t20.5 -33.5t7 -38z" />
    <glyph glyph-name="uni1E1F" unicode="&#x1e1f;" horiz-adv-x="690" 
d="M705 482q-116 0 -230.5 -0.5t-230.5 -0.5v-140h371v-130h-371v-213h-209v693h670v-209zM484 803q0 -20 -7 -39t-20.5 -34t-33 -24t-45.5 -9t-45.5 9t-32.5 24t-20 34t-7 39q0 19 6.5 38t19.5 33.5t33 23.5t46 9t45.5 -9t33 -23.5t20.5 -33.5t7 -38z" />
    <glyph glyph-name="uni1E40" unicode="&#x1e40;" horiz-adv-x="958" 
d="M923 773v-775h-209v295l-235 -272l-235 272v-295h-209v775l444 -467zM583 699q0 -20 -7 -39t-20.5 -34t-33 -24t-45.5 -9t-45.5 9t-32.5 24t-20 34t-7 39q0 19 6.5 38t19.5 33.5t33 23.5t46 9t45.5 -9t33 -23.5t20.5 -33.5t7 -38z" />
    <glyph glyph-name="uni1E41" unicode="&#x1e41;" horiz-adv-x="958" 
d="M923 773v-775h-209v295l-235 -272l-235 272v-295h-209v775l444 -467zM583 699q0 -20 -7 -39t-20.5 -34t-33 -24t-45.5 -9t-45.5 9t-32.5 24t-20 34t-7 39q0 19 6.5 38t19.5 33.5t33 23.5t46 9t45.5 -9t33 -23.5t20.5 -33.5t7 -38z" />
    <glyph glyph-name="uni1E56" unicode="&#x1e56;" horiz-adv-x="742" 
d="M446 690q56 0 103.5 -20.5t82.5 -56t55 -83t20 -102.5q0 -54 -20 -101.5t-55.5 -83.5t-83 -56.5t-102.5 -20.5h-202v-168h-209v693h135.5t102 -0.5t73.5 -0.5h49h51zM413 312q45 0 71 26t26 68q0 48 -26.5 72t-73.5 24h-166v-191zM457 803q0 -20 -7 -39t-20.5 -34
t-33 -24t-45.5 -9t-45.5 9t-32.5 24t-20 34t-7 39q0 19 6.5 38t19.5 33.5t33 23.5t46 9t45.5 -9t33 -23.5t20.5 -33.5t7 -38z" />
    <glyph glyph-name="uni1E57" unicode="&#x1e57;" horiz-adv-x="742" 
d="M446 690q56 0 103.5 -20.5t82.5 -56t55 -83t20 -102.5q0 -54 -20 -101.5t-55.5 -83.5t-83 -56.5t-102.5 -20.5h-202v-168h-209v693h135.5t102 -0.5t73.5 -0.5h49h51zM413 312q45 0 71 26t26 68q0 48 -26.5 72t-73.5 24h-166v-191zM457 803q0 -20 -7 -39t-20.5 -34
t-33 -24t-45.5 -9t-45.5 9t-32.5 24t-20 34t-7 39q0 19 6.5 38t19.5 33.5t33 23.5t46 9t45.5 -9t33 -23.5t20.5 -33.5t7 -38z" />
    <glyph glyph-name="uni1E60" unicode="&#x1e60;" horiz-adv-x="952" 
d="M932 691v-209h-230q-24 0 -46.5 -8.5t-39 -28.5t-27 -52.5t-10.5 -80.5q-3 -72 -23.5 -130t-61 -99t-103.5 -63t-150 -22h-221v209h233q24 0 45.5 8.5t37.5 28t26 52.5t10 81q3 70 21.5 128t55.5 99.5t93 64t133 22.5h257zM827 808q0 -20 -7 -39t-20.5 -34t-33 -24
t-45.5 -9t-45.5 9t-32.5 24t-20 34t-7 39q0 19 6.5 38t19.5 33.5t33 23.5t46 9t45.5 -9t33 -23.5t20.5 -33.5t7 -38z" />
    <glyph glyph-name="uni1E61" unicode="&#x1e61;" horiz-adv-x="952" 
d="M932 691v-209h-230q-24 0 -46.5 -8.5t-39 -28.5t-27 -52.5t-10.5 -80.5q-3 -72 -23.5 -130t-61 -99t-103.5 -63t-150 -22h-221v209h233q24 0 45.5 8.5t37.5 28t26 52.5t10 81q3 70 21.5 128t55.5 99.5t93 64t133 22.5h257zM827 808q0 -20 -7 -39t-20.5 -34t-33 -24
t-45.5 -9t-45.5 9t-32.5 24t-20 34t-7 39q0 19 6.5 38t19.5 33.5t33 23.5t46 9t45.5 -9t33 -23.5t20.5 -33.5t7 -38z" />
    <glyph glyph-name="uni1E6A" unicode="&#x1e6a;" horiz-adv-x="790" 
d="M774 482h-274v-484h-209v484h-273v209h756v-209zM500 812q0 -20 -7 -39t-20.5 -34t-33 -24t-45.5 -9t-45.5 9t-32.5 24t-20 34t-7 39q0 19 6.5 38t19.5 33.5t33 23.5t46 9t45.5 -9t33 -23.5t20.5 -33.5t7 -38z" />
    <glyph glyph-name="uni1E6B" unicode="&#x1e6b;" horiz-adv-x="790" 
d="M774 482h-274v-484h-209v484h-273v209h756v-209zM500 812q0 -20 -7 -39t-20.5 -34t-33 -24t-45.5 -9t-45.5 9t-32.5 24t-20 34t-7 39q0 19 6.5 38t19.5 33.5t33 23.5t46 9t45.5 -9t33 -23.5t20.5 -33.5t7 -38z" />
    <glyph glyph-name="Wgrave" unicode="&#x1e80;" horiz-adv-x="1217" 
d="M1232 691l-389 -773l-235 434l-234 -434l-389 773h237l168 -358l218 411l218 -411l168 358h238zM482 1038l288 -260l-63 -89l-335 204z" />
    <glyph glyph-name="wgrave" unicode="&#x1e81;" horiz-adv-x="1217" 
d="M1232 691l-389 -773l-235 434l-234 -434l-389 773h237l168 -358l218 411l218 -411l168 358h238zM482 1038l288 -260l-63 -89l-335 204z" />
    <glyph glyph-name="Wacute" unicode="&#x1e82;" horiz-adv-x="1217" 
d="M841 871l-214 -164l199 -374l168 358h238l-389 -773l-235 434l-234 -434l-389 773h237l168 -358l172 325l-27 -21l-74 78l259 289z" />
    <glyph glyph-name="wacute" unicode="&#x1e83;" horiz-adv-x="1217" 
d="M841 871l-214 -164l199 -374l168 358h238l-389 -773l-235 434l-234 -434l-389 773h237l168 -358l172 325l-27 -21l-74 78l259 289z" />
    <glyph glyph-name="Wdieresis" unicode="&#x1e84;" horiz-adv-x="1217" 
d="M1232 691l-389 -773l-235 434l-234 -434l-389 773h237l168 -358l218 411l218 -411l168 358h238zM555 823q0 -20 -7 -39t-20.5 -34t-33 -24t-45.5 -9t-45.5 9t-32.5 24t-20 34t-7 39q0 19 6.5 38t19.5 33.5t33 23.5t46 9t45.5 -9t33 -23.5t20.5 -33.5t7 -38zM872 823
q0 -20 -7 -39t-20.5 -34t-33 -24t-45.5 -9t-45.5 9t-32.5 24t-20 34t-7 39q0 19 6.5 38t19.5 33.5t33 23.5t46 9t45.5 -9t33 -23.5t20.5 -33.5t7 -38z" />
    <glyph glyph-name="wdieresis" unicode="&#x1e85;" horiz-adv-x="1217" 
d="M1232 691l-389 -773l-235 434l-234 -434l-389 773h237l168 -358l218 411l218 -411l168 358h238zM555 823q0 -20 -7 -39t-20.5 -34t-33 -24t-45.5 -9t-45.5 9t-32.5 24t-20 34t-7 39q0 19 6.5 38t19.5 33.5t33 23.5t46 9t45.5 -9t33 -23.5t20.5 -33.5t7 -38zM872 823
q0 -20 -7 -39t-20.5 -34t-33 -24t-45.5 -9t-45.5 9t-32.5 24t-20 34t-7 39q0 19 6.5 38t19.5 33.5t33 23.5t46 9t45.5 -9t33 -23.5t20.5 -33.5t7 -38z" />
    <glyph glyph-name="Ygrave" unicode="&#x1ef2;" horiz-adv-x="850" 
d="M529 280v-282h-209v282l-335 335l148 148l292 -292l292 292l148 -148zM245 1009l288 -260l-63 -89l-335 204z" />
    <glyph glyph-name="ygrave" unicode="&#x1ef3;" horiz-adv-x="850" 
d="M529 280v-282h-209v282l-335 335l148 148l292 -292l292 292l148 -148zM245 1009l288 -260l-63 -89l-335 204z" />
    <glyph glyph-name="endash" unicode="&#x2013;" horiz-adv-x="786" 
d="M34 225v181h717v-181h-717z" />
    <glyph glyph-name="emdash" unicode="&#x2014;" horiz-adv-x="1024" 
d="M34 225v181h956v-181h-956z" />
    <glyph glyph-name="quoteleft" unicode="&#x2018;" horiz-adv-x="356" 
d="M244 381h-210l131 331h152z" />
    <glyph glyph-name="quoteright" unicode="&#x2019;" horiz-adv-x="356" 
d="M109 711h210l-131 -331h-152z" />
    <glyph glyph-name="quotesinglbase" unicode="&#x201a;" horiz-adv-x="356" 
d="M109 211h210l-131 -331h-152z" />
    <glyph glyph-name="quotedblleft" unicode="&#x201c;" horiz-adv-x="612" 
d="M247 381h-210l131 331h152zM503 381h-210l131 331h152z" />
    <glyph glyph-name="quotedblright" unicode="&#x201d;" horiz-adv-x="612" 
d="M109 711h210l-131 -331h-152zM365 711h210l-131 -331h-152z" />
    <glyph glyph-name="quotedblbase" unicode="&#x201e;" horiz-adv-x="617" 
d="M107 211h210l-131 -331h-152zM371 211h210l-131 -331h-152z" />
    <glyph glyph-name="dagger" unicode="&#x2020;" horiz-adv-x="579" 
d="M362 430v-619h-152v619h-174v152h174v167h152v-167h181v-152h-181z" />
    <glyph glyph-name="daggerdbl" unicode="&#x2021;" horiz-adv-x="579" 
d="M362 -9v-180h-152v180h-174v152h174v287h-174v152h174v167h152v-167h181v-152h-181v-287h181v-152h-181z" />
    <glyph glyph-name="bullet" unicode="&#x2022;" horiz-adv-x="417" 
d="M380 366q0 -77 -47.5 -121.5t-124.5 -44.5q-34 0 -65 11.5t-55 33t-38 52.5t-14 69t14 67.5t38 49.5t55 30.5t65 10.5q77 0 124.5 -40.5t47.5 -117.5z" />
    <glyph glyph-name="ellipsis" unicode="&#x2026;" horiz-adv-x="870" 
d="M840 106q0 -20 -7 -39t-20.5 -34t-33 -24t-45.5 -9t-45.5 9t-32.5 24t-20 34t-7 39q0 19 6.5 38t19.5 33.5t33 23.5t46 9t45.5 -9t33 -23.5t20.5 -33.5t7 -38zM248 106q0 -20 -7 -39t-20.5 -34t-33 -24t-45.5 -9t-45.5 9t-32.5 24t-20 34t-7 39q0 19 6.5 38t19.5 33.5
t33 23.5t46 9t45.5 -9t33 -23.5t20.5 -33.5t7 -38zM544 106q0 -20 -7 -39t-20.5 -34t-33 -24t-45.5 -9t-45.5 9t-32.5 24t-20 34t-7 39q0 19 6.5 38t19.5 33.5t33 23.5t46 9t45.5 -9t33 -23.5t20.5 -33.5t7 -38z" />
    <glyph glyph-name="perthousand" unicode="&#x2030;" horiz-adv-x="1196" 
d="M284 275q-8 -1 -15 -1h-15q-56 0 -97 17t-68 46.5t-40 68t-13 80.5q0 40 13 78.5t40 68.5t68 48.5t97 18.5q43 0 81 -12.5t68 -36t49 -57t25 -75.5l144 181h219l-220 -276q8 1 17 1.5t18 0.5q42 0 79.5 -12t66.5 -34q26 21 61.5 33.5t80.5 12.5q48 0 89.5 -15t72 -43
t48 -67.5t17.5 -88.5q0 -48 -17.5 -87t-48 -67t-72 -43t-89.5 -15q-46 0 -81.5 12t-61.5 32q-29 -21 -66 -32.5t-79 -11.5q-53 0 -92 15.5t-66 42t-41.5 62t-17.5 74.5l-154 -194h-219zM882 206q1 -27 15.5 -50.5t48.5 -23.5q19 0 32 7t21.5 18.5t12 26t3.5 28.5
q0 15 -3.5 29.5t-12 26t-21.5 18.5t-32 7q-34 0 -48.5 -23t-15.5 -52v-12zM726 212q0 15 -3.5 29.5t-12 26t-21.5 18.5t-32 7q-17 0 -29.5 -7t-20 -18.5t-11 -26t-3.5 -29.5q0 -14 3.5 -28.5t11 -26t20 -18.5t29.5 -7q19 0 32 7t21.5 18.5t12 26t3.5 28.5zM324 486
q0 15 -3.5 29.5t-12 26t-21.5 18.5t-32 7q-17 0 -29.5 -7t-20 -18.5t-11 -26t-3.5 -29.5q0 -14 3.5 -28.5t11 -25.5t20 -18t29.5 -7q19 0 32 7t21.5 18t12 25.5t3.5 28.5z" />
    <glyph glyph-name="guilsinglleft" unicode="&#x2039;" horiz-adv-x="504" 
d="M382 65l-346 278l346 278l86 -98l-201 -182l201 -184z" />
    <glyph glyph-name="guilsinglright" unicode="&#x203a;" horiz-adv-x="504" 
d="M122 621l346 -278l-346 -278l-86 98l201 182l-201 184z" />
    <glyph glyph-name="fraction" unicode="&#x2044;" horiz-adv-x="749" 
d="M489 700h223l-452 -840h-224z" />
    <glyph glyph-name="Euro" unicode="&#x20ac;" horiz-adv-x="679" 
d="M293 375q-1 -6 -1 -12.5v-12.5v-14t1 -13h194v-68h-179q20 -51 59.5 -77t93.5 -26q35 0 62.5 9.5t44.5 23.5l74 -115q-16 -16 -39 -29t-50 -22t-56.5 -14t-58.5 -5q-63 0 -117.5 18t-97 51t-72 80t-42.5 106h-73v68h64q-1 7 -1 13.5v13.5v12.5t1 12.5h-64v68h72
q13 59 42.5 106.5t72 81t97.5 51.5t118 18q29 0 58.5 -5t56.5 -14t50 -22t39 -29l-70 -114q-23 15 -51 23.5t-60 8.5q-54 0 -94 -27t-60 -78h180v-68h-194z" />
    <glyph glyph-name="trademark" unicode="&#x2122;" horiz-adv-x="1393" 
d="M1205 217v302l-166 -250h-80l-158 244v-296h-152v532h164l190 -282l189 282h165v-532h-152zM395 591v-374h-182v374h-177v158h544v-158h-185z" />
    <glyph glyph-name="minus" unicode="&#x2212;" horiz-adv-x="638" 
d="M36 270v152h565v-152h-565z" />
    <glyph glyph-name="fi" unicode="&#xfb01;" horiz-adv-x="969" 
d="M705 482q-116 0 -230.5 -0.5t-230.5 -0.5v-140h371v-130h-371v-213h-209v693h670v-209zM733 -2v693h209v-693h-209z" />
    <glyph glyph-name="fl" unicode="&#xfb02;" horiz-adv-x="1356" 
d="M703 482q-116 0 -230.5 -0.5t-230.5 -0.5v-140h371v-130h-371v-213h-209v693h670v-209zM1331 207v-209h-595v693h209v-484h386z" />
    </font>
</defs>
</svg>
