<?xml version="1.0" standalone="no"?>
<!DOCTYPE svg PUBLIC "-//W3C//DTD SVG 1.1//EN" "http://www.w3.org/Graphics/SVG/1.1/DTD/svg11.dtd" >
<svg xmlns="http://www.w3.org/2000/svg" xmlns:xlink="http://www.w3.org/1999/xlink" version="1.1">
<metadata>
Created by FontForge 20170731 at Fri May 25 22:45:12 2018
 By Aleksey,,,
Copyright (c) 2018 by Mans Greback. All rights reserved.
</metadata>
<defs>
<font id="Aliment-Bold" horiz-adv-x="812" >
  <font-face 
    font-family="Aliment"
    font-weight="700"
    font-stretch="normal"
    units-per-em="1000"
    panose-1="0 0 0 0 0 0 0 0 0 0"
    ascent="800"
    descent="-200"
    x-height="694"
    cap-height="694"
    bbox="-135.029 -392 1413 1064"
    underline-thickness="50"
    underline-position="-150"
    unicode-range="U+000D-FB02"
  />
<missing-glyph horiz-adv-x="420" 
 />
    <glyph glyph-name=".notdef" horiz-adv-x="420" 
 />
    <glyph glyph-name=".null" horiz-adv-x="0" 
 />
    <glyph glyph-name="nonmarkingreturn" unicode="&#xd;" horiz-adv-x="420" 
 />
    <glyph glyph-name="NULL" horiz-adv-x="0" 
 />
    <glyph glyph-name="NULL" horiz-adv-x="0" 
 />
    <glyph glyph-name="space" unicode=" " horiz-adv-x="420" 
 />
    <glyph glyph-name="exclam" unicode="!" horiz-adv-x="355" 
d="M266 305h-178l-55 395h288zM306 128q0 -24 -8 -47t-23.5 -41t-39.5 -29t-57 -11q-32 0 -56 11t-39.5 29t-23.5 41t-8 47t7.5 47t23 40.5t39.5 28.5t57 11t57 -11t39.5 -28.5t23.5 -40.5t8 -47z" />
    <glyph glyph-name="quotedbl" unicode="&#x22;" horiz-adv-x="569" 
d="M28 700h249l-39 -348h-178zM291 700h249l-39 -348h-178z" />
    <glyph glyph-name="numbersign" unicode="#" horiz-adv-x="680" 
d="M334 102h-67l-12 -62h-177l12 62h-62l33 186h65l13 71h-70l33 185h73l15 77h177l-15 -77h67l15 77h177l-15 -77h56l-33 -185h-59l-13 -71h64l-33 -186h-67l-12 -62h-177zM303 288h67l13 71h-67z" />
    <glyph glyph-name="dollar" unicode="$" horiz-adv-x="724" 
d="M290 4q-62 7 -107 24.5t-76 42t-50 54.5t-29 62l185 54q20 -18 43 -30.5t55 -19.5l11 90q-46 6 -92.5 16.5t-84 32.5t-62 58.5t-25.5 92.5q-1 36 19 74t59 69.5t98 52.5t136 23l10 84h122l-11 -94q66 -14 113.5 -39t71.5 -53l-120 -121q-20 9 -40.5 15t-46.5 10l-7 -67
q42 -4 83.5 -14.5t74.5 -33t54 -60t21 -95.5q0 -45 -20 -85.5t-56.5 -71t-89 -50.5t-117.5 -24l-10 -85h-122zM501 237q0 13 -16 19.5t-43 10.5l-9 -79q35 6 51.5 20t16.5 29zM282 465q1 -11 16.5 -15.5t41.5 -6.5l7 60q-29 -5 -47.5 -14.5t-17.5 -23.5z" />
    <glyph glyph-name="percent" unicode="%" horiz-adv-x="938" 
d="M909 218q0 -50 -19 -90t-52.5 -68.5t-78.5 -44t-97 -15.5q-92 0 -147.5 39.5t-76.5 99.5l-107 -139h-279l201 262q-57 1 -99 19.5t-70 48.5t-42 69t-14 81q0 41 14.5 80.5t44 70.5t74 50t104.5 19q78 0 138 -33.5t89 -93.5l98 127h278l-201 -262q51 -1 95 -17t77 -44.5
t51.5 -69t18.5 -89.5zM313 480q0 20 -10 36.5t-35 16.5q-23 0 -32.5 -16.5t-9.5 -36.5q0 -19 9.5 -35t32.5 -16q25 0 35 16t10 35zM710 218q0 20 -10 36t-35 16q-23 0 -32.5 -16t-9.5 -36q0 -19 9.5 -35t32.5 -16q25 0 35 16t10 35z" />
    <glyph glyph-name="ampersand" unicode="&#x26;" horiz-adv-x="797" 
d="M703 402q6 -99 -35 -186q25 -12 49.5 -23.5t50.5 -21.5l-62 -171q-81 32 -154 74q-48 -35 -106.5 -54.5t-127.5 -19.5q-78 0 -136.5 23.5t-95 60t-50 82t-3 90.5t46 83.5t97.5 62.5q-32 57 -29 110.5t30.5 95.5t76.5 67t109 25t103 -19t69 -50t35 -70t0 -79.5
t-35.5 -78.5t-70.5 -66q17 -12 34 -23.5t36 -23.5q23 24 40 52t27 60h101zM333 189q11 1 21 3t21 4q-26 21 -49 42t-45 42q-27 -9 -37 -25.5t-3 -32t30 -26t62 -7.5zM370 506q-13 0 -22 -5t-12 -14t1 -22.5t17 -30.5q25 7 36.5 19t12.5 24t-8 20.5t-25 8.5z" />
    <glyph glyph-name="quotesingle" unicode="'" horiz-adv-x="305" 
d="M28 700h249l-39 -348h-178z" />
    <glyph glyph-name="parenleft" unicode="(" horiz-adv-x="477" 
d="M301 350q0 -62 12 -117.5t32.5 -102t47 -82.5t56.5 -58l-131 -77q-53 23 -105 65.5t-93 99.5t-66.5 126t-25.5 146q0 76 26 144t67 124.5t93 99.5t104 69l131 -77q-30 -25 -56.5 -61.5t-47 -82t-32.5 -100t-12 -116.5z" />
    <glyph glyph-name="parenright" unicode=")" horiz-adv-x="477" 
d="M176 350q0 62 -12 117.5t-32.5 102t-47 82.5t-56.5 58l131 77q53 -23 105 -65.5t93 -99.5t66.5 -126.5t25.5 -145.5t-26 -144t-67 -124.5t-93 -99.5t-104 -69l-131 77q30 25 56.5 61t47 82t32.5 100.5t12 116.5z" />
    <glyph glyph-name="asterisk" unicode="*" horiz-adv-x="650" 
d="M121 704l124 -92l-17 151h194l-17 -148l117 89l100 -154l-151 -67l151 -66l-100 -154l-117 88l17 -147h-194l17 150l-124 -91l-93 154l149 66l-149 67z" />
    <glyph glyph-name="plus" unicode="+" horiz-adv-x="638" 
d="M419 443h191v-193h-191v-190h-193v190h-198v193h198v183h193v-183z" />
    <glyph glyph-name="comma" unicode="," horiz-adv-x="351" 
d="M66 223h256l-132 -339h-162z" />
    <glyph glyph-name="hyphen" unicode="-" horiz-adv-x="544" 
d="M28 210v234h488v-234h-488z" />
    <glyph glyph-name="period" unicode="." horiz-adv-x="312" 
d="M283 128q0 -24 -8 -47t-23.5 -41t-39.5 -29t-57 -11q-32 0 -56 11t-39.5 29t-23.5 41t-8 47t7.5 47t23 40.5t39.5 28.5t57 11t57 -11t39.5 -28.5t23.5 -40.5t8 -47z" />
    <glyph glyph-name="slash" unicode="/" horiz-adv-x="788" 
d="M472 700h288l-444 -840h-288z" />
    <glyph glyph-name="zero" unicode="0" horiz-adv-x="736" 
d="M456 350q0 48 -25.5 78.5t-63.5 30.5q-35 0 -61 -30t-26 -79q0 -25 7 -45t19 -34.5t27.5 -22.5t33.5 -8q19 0 35.5 8.5t28.5 23.5t18.5 35t6.5 43zM707 350q0 -81 -26 -146t-72 -110.5t-109 -69.5t-136 -24q-77 0 -139 27t-105.5 74.5t-67 111t-23.5 137.5q0 73 23 137
t66.5 111.5t105.5 74.5t140 27q73 0 136 -25t109 -71t72 -110.5t26 -143.5z" />
    <glyph glyph-name="one" unicode="1" horiz-adv-x="446" 
d="M89 0v600l99 100h174v-700h-273z" />
    <glyph glyph-name="two" unicode="2" horiz-adv-x="711" 
d="M43 401q-11 55 5 108.5t56.5 96t104.5 68.5t150 26q77 0 133.5 -19t92.5 -50.5t52.5 -73t15 -86.5t-21.5 -91t-56 -87l-98 -100h206v-193h-669l354 369q23 23 31.5 45.5t5 40t-17 28.5t-33.5 11q-17 0 -30 -7t-21.5 -20t-10.5 -30t3 -36h-252v0z" />
    <glyph glyph-name="three" unicode="3" horiz-adv-x="732" 
d="M63 467q-9 34 1 74.5t44.5 76t97.5 59t162 23.5q85 0 143 -14.5t94 -39t52 -56.5t16 -66q0 -41 -22 -78.5t-75 -63.5q63 -24 95 -67t32 -98q0 -39 -19 -77.5t-61 -69.5t-109 -50.5t-163 -19.5t-161.5 24.5t-103.5 64.5t-50.5 90t-1.5 100h249q-5 -23 13.5 -39.5
t62.5 -16.5q42 0 61 14.5t19 34.5q0 17 -17.5 29t-68.5 12h-124v125h113q37 0 52 11.5t15 25.5t-13 23.5t-44 9.5q-34 0 -46 -12t-10 -29h-233v0z" />
    <glyph glyph-name="four" unicode="4" horiz-adv-x="717" 
d="M614 816v-534h75v-170h-75v-112h-241v112h-402zM439 257v128l-93 -128h93z" />
    <glyph glyph-name="five" unicode="5" horiz-adv-x="711" 
d="M424 282q0 24 -12 38t-31 18t-42 -1.5t-45 -21.5h-247l57 385h515v-196h-308l-8 -92q37 21 79 31.5t84 10t81 -12.5t69 -37t48 -63t18 -90q0 -54 -24 -100t-68 -79.5t-105.5 -52.5t-136.5 -19q-158 0 -239 71.5t-81 199.5h257q0 -24 21.5 -37t48.5 -13q30 0 49.5 17.5
t19.5 43.5z" />
    <glyph glyph-name="six" unicode="6" horiz-adv-x="725" 
d="M424 270q0 18 -8.5 31.5t-24 19t-37 1.5t-47.5 -21q0 -51 17 -72t42 -21q24 0 41 18t17 44zM372 0q-74 0 -137 22.5t-109.5 65t-72.5 105t-26 143.5q0 79 26.5 145.5t76 115t120 76t157.5 27.5q29 0 64.5 -3.5t69.5 -10.5t62.5 -16t44.5 -19l-30 -185q-12 9 -34 19
t-49 17t-58.5 9.5t-62.5 -3.5q-48 -6 -75 -32.5t-32 -63.5q70 35 140 37.5t125.5 -23t90 -75.5t34.5 -119q0 -42 -19.5 -83.5t-59.5 -74.5t-101.5 -53.5t-144.5 -20.5z" />
    <glyph glyph-name="seven" unicode="7" horiz-adv-x="658" 
d="M346 -45l-208 101l219 427h-329v217h688z" />
    <glyph glyph-name="eight" unicode="8" horiz-adv-x="748" 
d="M28 212q0 51 28 95.5t91 73.5q-42 28 -59.5 62t-17.5 66q0 34 15.5 68t51.5 61.5t94 44.5t143 17t143 -17t94 -44.5t51.5 -61.5t15.5 -68t-17 -68t-58 -61q61 -29 89 -73t28 -95q0 -39 -20.5 -77t-62.5 -68t-107.5 -48.5t-155.5 -18.5q-93 0 -158.5 18.5t-107 48.5
t-61 68t-19.5 77zM374 208q34 0 53.5 15.5t19.5 33.5q0 23 -20.5 36.5t-52.5 13.5t-53 -13.5t-21 -36.5q0 -18 18.5 -33.5t55.5 -15.5zM374 507q-32 0 -47.5 -12t-15.5 -29t17 -26.5t46 -9.5t46 9.5t17 26.5t-16.5 29t-46.5 12z" />
    <glyph glyph-name="nine" unicode="9" horiz-adv-x="719" 
d="M296 430q0 -18 8.5 -31.5t24 -19t37 -1.5t47.5 21q0 51 -17 72t-42 21q-24 0 -41 -18t-17 -44zM348 700q74 0 137 -22.5t109.5 -65t72.5 -105t26 -143.5q0 -79 -27 -145.5t-76.5 -115t-119.5 -76t-157 -27.5q-29 0 -64.5 3.5t-69.5 10.5t-62.5 15.5t-44.5 19.5l30 185
q12 -9 34 -19t49 -17t58 -9.5t63 3.5q48 6 75 32.5t32 63.5q-71 -35 -140.5 -37.5t-125 23t-90 75.5t-34.5 119q0 42 19.5 83.5t59.5 74.5t101.5 53.5t144.5 20.5z" />
    <glyph glyph-name="colon" unicode=":" horiz-adv-x="312" 
d="M283 128q0 -24 -8 -47t-23.5 -41t-39.5 -29t-57 -11q-32 0 -56 11t-39.5 29t-23.5 41t-8 47t7.5 47t23 40.5t39.5 28.5t57 11t57 -11t39.5 -28.5t23.5 -40.5t8 -47zM283 459q0 -24 -8 -47t-23.5 -41t-39.5 -29t-57 -11q-32 0 -56 11t-39.5 29t-23.5 41t-8 47t7.5 47
t23 40.5t39.5 28.5t57 11t57 -11t39.5 -28.5t23.5 -40.5t8 -47z" />
    <glyph glyph-name="semicolon" unicode=";" horiz-adv-x="351" 
d="M66 223h256l-132 -339h-162zM321 459q0 -24 -8 -47t-23.5 -41t-39.5 -29t-57 -11q-32 0 -56 11t-39.5 29t-23.5 41t-8 47t7.5 47t23 40.5t39.5 28.5t57 11t57 -11t39.5 -28.5t23.5 -40.5t8 -47z" />
    <glyph glyph-name="less" unicode="&#x3c;" horiz-adv-x="522" 
d="M493 521l-174 -176l174 -173l-106 -124l-359 295l359 294z" />
    <glyph glyph-name="equal" unicode="=" horiz-adv-x="638" 
d="M28 387v170h582v-170h-582zM28 143v169h582v-169h-582z" />
    <glyph glyph-name="greater" unicode="&#x3e;" horiz-adv-x="522" 
d="M135 637l359 -294l-359 -295l-106 124l174 173l-174 176z" />
    <glyph glyph-name="question" unicode="?" horiz-adv-x="631" 
d="M31 470q-7 39 8.5 79.5t52 74t94 55t134.5 21.5q69 0 122 -18.5t89 -49t54 -68.5t17 -77q-1 -48 -18.5 -78.5t-43.5 -50.5t-56 -32t-56 -23t-43 -23.5t-17 -32.5h-167q-8 50 -0.5 81t23.5 50.5t36.5 30.5t40.5 19.5t35 17.5t20 26q2 17 -13.5 31t-46.5 14q-18 0 -30 -4.5
t-19.5 -11.5t-10 -15.5t-1.5 -15.5h-204zM417 106q0 -20 -8 -39t-24 -34t-40.5 -24t-57.5 -9q-32 0 -56.5 9t-40.5 24t-24 34t-8 39t7.5 39t23.5 33.5t40.5 23.5t57.5 9t57.5 -9t40.5 -23.5t24 -33.5t8 -39z" />
    <glyph glyph-name="at" unicode="@" horiz-adv-x="1087" 
d="M333 494q24 48 77 78t135 30q52 0 96 -13t76 -38.5t49.5 -63.5t17.5 -88v-124q0 -17 3.5 -28.5t20.5 -11.5q8 0 15 6t12 20.5t8 39.5t3 63q0 68 -19.5 122t-58 92t-95 58t-130.5 20q-68 0 -123 -19.5t-94 -58t-60 -95.5t-21 -133t19 -132t54 -93.5t85 -56t112 -18.5
q48 0 86 13t67 35l137 -92q-16 -14 -41 -31.5t-60.5 -32.5t-81.5 -25.5t-104 -10.5q-129 0 -222 35t-152.5 95t-87.5 141t-28 173q0 89 32 169.5t96.5 141.5t161 97t225.5 36q127 0 223 -33t161 -89.5t98 -131.5t33 -159q0 -66 -20.5 -117.5t-56.5 -87.5t-84 -55t-102 -19
q-42 0 -80.5 16.5t-64.5 46.5q-30 -29 -67 -42t-79 -13q-39 0 -73.5 13.5t-60 36t-40.5 51.5t-15 61q0 29 11 57t34.5 49.5t60.5 35t90 13.5q25 0 48.5 -1t46.5 -1q-13 46 -80 46q-32 0 -60.5 -6t-57.5 -22zM543 240q40 0 52 19.5t14 51.5q-14 -2 -29.5 -3t-33.5 -1
q-30 0 -43 -8t-13 -25q0 -15 13.5 -24.5t39.5 -9.5z" />
    <glyph glyph-name="A" unicode="A" horiz-adv-x="920" 
d="M942 -2h-322l-49 82l-108 -84l-114 84l-49 -82h-323l483 780zM391 152h137l-68 116z" />
    <glyph glyph-name="B" unicode="B" horiz-adv-x="753" 
d="M539 454q88 -14 137 -72t49 -142q0 -54 -21 -99t-56.5 -77t-81.5 -49.5t-96 -17.5h-443v697h347q56 0 106 -25t72 -76q7 -15 9.5 -33.5t0.5 -37t-8 -36.5t-15 -32zM255 438h83q14 0 23 9.5t9 23.5q0 17 -12.5 24.5t-29.5 7.5h-73v-65zM408 208q29 0 49 21t20 50t-20 50
t-49 21h-153v-142h153z" />
    <glyph glyph-name="C" unicode="C" horiz-adv-x="801" 
d="M292 346q0 -26 9.5 -47t26 -36t37.5 -23.5t45 -8.5q35 -1 66 18.5t45 57.5l262 -73q-18 -61 -54 -112t-85 -88t-109 -58t-126 -21q-81 0 -152.5 31t-125 84t-84 124.5t-30.5 152.5t30.5 152t84 124t125 84t152.5 31q66 0 126 -21t109 -58t85 -88.5t54 -111.5l-262 -73
q-13 35 -43.5 57.5t-68.5 22.5q-24 0 -45.5 -8.5t-37 -24.5t-25 -38t-9.5 -49z" />
    <glyph glyph-name="D" unicode="D" horiz-adv-x="747" 
d="M371 694q72 0 135.5 -27.5t111 -74.5t75 -110.5t27.5 -135.5t-27.5 -135.5t-75 -111t-111 -75t-135.5 -27.5h-344v697h344zM371 254q19 0 36 7t29.5 19.5t19.5 29t7 35.5t-7 35.5t-19.5 29t-29.5 19.5t-36 7h-87v-182h87z" />
    <glyph glyph-name="E" unicode="E" horiz-adv-x="655" 
d="M300 483v-81h240v-114h-240v-81h327v-210h-600v697h600v-210z" />
    <glyph glyph-name="F" unicode="F" horiz-adv-x="688" 
d="M711 421q-104 0 -206 -0.5t-205 -0.5v-81h324v-153h-324v-189h-273v697h684v-273v0z" />
    <glyph glyph-name="G" unicode="G" horiz-adv-x="885" 
d="M867 330q0 -20 -0.5 -40.5t-0.5 -40.5h-100q-17 -61 -51.5 -112.5t-83 -89t-107.5 -59t-125 -21.5q-79 0 -148.5 30t-121.5 82t-82 121.5t-30 148.5t30 148t82 121t121.5 82t148.5 30q72 0 136.5 -25.5t115 -70.5t83 -106t40.5 -131h-277q-11 21 -36.5 39.5t-59.5 18.5
q-22 0 -41.5 -8.5t-34.5 -23t-23.5 -34t-8.5 -42.5t8.5 -43t22.5 -34.5t33.5 -23t41.5 -8.5q36 0 60.5 17t35.5 43h-48v32h420v0z" />
    <glyph glyph-name="H" unicode="H" horiz-adv-x="793" 
d="M765 694v-697h-271v258h-194v-258h-273v697h273v-286h194v286h271z" />
    <glyph glyph-name="I" unicode="I" horiz-adv-x="327" 
d="M27 -3v697h273v-697h-273z" />
    <glyph glyph-name="J" unicode="J" horiz-adv-x="793" 
d="M765 693v-361q0 -77 -29 -144t-79 -117t-117 -79t-143 -29q-74 0 -139 27t-115 73.5t-81 110t-35 135.5h276q8 -32 33 -52.5t60 -20.5q20 0 37.5 7.5t31 21t21 31.5t7.5 38v360z" />
    <glyph glyph-name="K" unicode="K" horiz-adv-x="865" 
d="M653 -105l-353 376v-272h-273v697h273v-272l353 375l191 -191l-261 -260l261 -262z" />
    <glyph glyph-name="L" unicode="L" horiz-adv-x="659" 
d="M631 270v-273h-604v697h273v-424h331z" />
    <glyph glyph-name="M" unicode="M" horiz-adv-x="951" 
d="M923 790v-793h-272v191l-176 -185l-175 185v-191h-273v793l448 -425z" />
    <glyph glyph-name="N" unicode="N" horiz-adv-x="875" 
d="M575 694q69 0 136.5 0.5t136.5 0.5v-819l-548 411v-289h-273v806l548 -412v302v0z" />
    <glyph glyph-name="O" unicode="O" horiz-adv-x="817" 
d="M409 738q81 0 152 -31t124.5 -84t84 -124.5t30.5 -152.5t-30.5 -152t-84 -124t-124.5 -84t-152 -31t-152.5 31t-125 84t-84 124t-30.5 152t30.5 152.5t84 124.5t125 84t152.5 31zM409 227q24 0 46 9.5t38 25.5t25.5 37.5t9.5 46.5t-9.5 46.5t-25.5 38t-38 26t-46 9.5
q-25 0 -46.5 -9.5t-38 -26t-26 -38t-9.5 -46.5t9.5 -46.5t26 -37.5t38 -25.5t46.5 -9.5z" />
    <glyph glyph-name="P" unicode="P" horiz-adv-x="751" 
d="M450 694q57 0 107 -21.5t87 -58.5t58 -87t21 -107t-21 -106.5t-58 -86.5t-87 -58.5t-107 -21.5h-150v-150h-273v697h423zM402 323q29 0 47 18.5t18 45.5q0 32 -18 49t-49 17h-100v-130h102z" />
    <glyph glyph-name="Q" unicode="Q" horiz-adv-x="810" 
d="M644 -107l-102 102q-33 -14 -69 -22t-75 -8q-79 0 -148.5 30t-121 81.5t-81.5 121t-30 148.5t30 148t81.5 121t121 82t148.5 30t148 -30t121 -82t82 -121t30 -148q0 -63 -19 -118.5t-53 -102.5l86 -86zM290 347q0 -23 8.5 -43t23 -35t34.5 -23.5t43 -8.5q22 0 42 8.5
t35 23.5t24 35t9 43q0 22 -9 42t-24 35t-35 23.5t-42 8.5q-23 0 -43 -8.5t-34.5 -23.5t-23 -35t-8.5 -42z" />
    <glyph glyph-name="R" unicode="R" horiz-adv-x="768" 
d="M386 161h-86v-165h-272v697h423q56 0 105.5 -21.5t86.5 -59t58.5 -87t21.5 -106.5q0 -51 -20.5 -93.5t-54.5 -71.5l152 -156l-179 -178zM468 387q0 35 -24.5 50.5t-56.5 15.5h-87v-131h87q32 0 56.5 15t24.5 50z" />
    <glyph glyph-name="S" unicode="S" horiz-adv-x="924" 
d="M904 694v-273h-237q-31 0 -50 -33t-20 -91q-5 -70 -27.5 -125.5t-66 -94.5t-110 -59.5t-157.5 -20.5h-216v273h241q31 0 48 33t18 91q4 69 24.5 124.5t58 94.5t93.5 60t130 21h271z" />
    <glyph glyph-name="T" unicode="T" horiz-adv-x="796" 
d="M779 694q0 -69 -0.5 -136.5t-0.5 -136.5h-243v-424h-273v424h-244v273h761v0z" />
    <glyph glyph-name="U" unicode="U" 
d="M785 694v-350q0 -78 -30 -147t-81.5 -120.5t-120.5 -81.5t-147 -30t-147 30t-120.5 81.5t-81.5 120.5t-30 147v350h273v-350q0 -23 8.5 -42.5t23 -34t34 -23t41.5 -8.5t41.5 8.5t34 23t23 34t8.5 42.5v350h271z" />
    <glyph glyph-name="V" unicode="V" horiz-adv-x="925" 
d="M947 694l-485 -780l-485 780h323l162 -271l163 271h322z" />
    <glyph glyph-name="W" unicode="W" horiz-adv-x="1230" 
d="M1253 694l-419 -787l-219 362l-219 -362l-419 787h312l131 -264l195 327l195 -327l132 264h311z" />
    <glyph glyph-name="X" unicode="X" horiz-adv-x="887" 
d="M617 346l292 -349h-328l-137 156l-138 -156h-329l292 349l-292 348h329l138 -156l137 156h328z" />
    <glyph glyph-name="Y" unicode="Y" horiz-adv-x="883" 
d="M578 268v-270h-273v270l-327 327l193 193l271 -271l271 271l193 -193z" />
    <glyph glyph-name="Z" unicode="Z" horiz-adv-x="952" 
d="M567 270h346v-273h-886l344 424h-321v273h860z" />
    <glyph glyph-name="bracketleft" unicode="[" horiz-adv-x="489" 
d="M28 -63v826h433v-178h-168v-470h168v-178h-433z" />
    <glyph glyph-name="backslash" unicode="\" horiz-adv-x="788" 
d="M760 -140h-288l-444 840h288z" />
    <glyph glyph-name="bracketright" unicode="]" horiz-adv-x="489" 
d="M461 763v-826h-433v178h168v470h-168v178h433z" />
    <glyph glyph-name="asciicircum" unicode="^" horiz-adv-x="609" 
d="M220 689h170l191 -263h-224l-53 51l-52 -51h-224z" />
    <glyph glyph-name="underscore" unicode="_" horiz-adv-x="685" 
d="M28 -149v193h629v-193h-629z" />
    <glyph glyph-name="grave" unicode="`" horiz-adv-x="491" 
d="M166 787l296 -263l-77 -111l-357 188z" />
    <glyph glyph-name="a" unicode="a" horiz-adv-x="920" 
d="M942 -2h-322l-49 82l-108 -84l-114 84l-49 -82h-323l483 780zM391 152h137l-68 116z" />
    <glyph glyph-name="b" unicode="b" horiz-adv-x="753" 
d="M539 454q88 -14 137 -72t49 -142q0 -54 -21 -99t-56.5 -77t-81.5 -49.5t-96 -17.5h-443v697h347q56 0 106 -25t72 -76q7 -15 9.5 -33.5t0.5 -37t-8 -36.5t-15 -32zM255 438h83q14 0 23 9.5t9 23.5q0 17 -12.5 24.5t-29.5 7.5h-73v-65zM408 208q29 0 49 21t20 50t-20 50
t-49 21h-153v-142h153z" />
    <glyph glyph-name="c" unicode="c" horiz-adv-x="801" 
d="M292 346q0 -26 9.5 -47t26 -36t37.5 -23.5t45 -8.5q35 -1 66 18.5t45 57.5l262 -73q-18 -61 -54 -112t-85 -88t-109 -58t-126 -21q-81 0 -152.5 31t-125 84t-84 124.5t-30.5 152.5t30.5 152t84 124t125 84t152.5 31q66 0 126 -21t109 -58t85 -88.5t54 -111.5l-262 -73
q-13 35 -43.5 57.5t-68.5 22.5q-24 0 -45.5 -8.5t-37 -24.5t-25 -38t-9.5 -49z" />
    <glyph glyph-name="d" unicode="d" horiz-adv-x="747" 
d="M371 694q72 0 135.5 -27.5t111 -74.5t75 -110.5t27.5 -135.5t-27.5 -135.5t-75 -111t-111 -75t-135.5 -27.5h-344v697h344zM371 254q19 0 36 7t29.5 19.5t19.5 29t7 35.5t-7 35.5t-19.5 29t-29.5 19.5t-36 7h-87v-182h87z" />
    <glyph glyph-name="e" unicode="e" horiz-adv-x="655" 
d="M300 483v-81h240v-114h-240v-81h327v-210h-600v697h600v-210z" />
    <glyph glyph-name="f" unicode="f" horiz-adv-x="688" 
d="M711 421q-104 0 -206 -0.5t-205 -0.5v-81h324v-153h-324v-189h-273v697h684v-273v0z" />
    <glyph glyph-name="g" unicode="g" horiz-adv-x="885" 
d="M867 330q0 -20 -0.5 -40.5t-0.5 -40.5h-100q-17 -61 -51.5 -112.5t-83 -89t-107.5 -59t-125 -21.5q-79 0 -148.5 30t-121.5 82t-82 121.5t-30 148.5t30 148t82 121t121.5 82t148.5 30q72 0 136.5 -25.5t115 -70.5t83 -106t40.5 -131h-277q-11 21 -36.5 39.5t-59.5 18.5
q-22 0 -41.5 -8.5t-34.5 -23t-23.5 -34t-8.5 -42.5t8.5 -43t22.5 -34.5t33.5 -23t41.5 -8.5q36 0 60.5 17t35.5 43h-48v32h420v0z" />
    <glyph glyph-name="h" unicode="h" horiz-adv-x="793" 
d="M765 694v-697h-271v258h-194v-258h-273v697h273v-286h194v286h271z" />
    <glyph glyph-name="i" unicode="i" horiz-adv-x="327" 
d="M27 -3v697h273v-697h-273z" />
    <glyph glyph-name="j" unicode="j" horiz-adv-x="793" 
d="M765 693v-361q0 -77 -29 -144t-79 -117t-117 -79t-143 -29q-74 0 -139 27t-115 73.5t-81 110t-35 135.5h276q8 -32 33 -52.5t60 -20.5q20 0 37.5 7.5t31 21t21 31.5t7.5 38v360z" />
    <glyph glyph-name="k" unicode="k" horiz-adv-x="865" 
d="M653 -105l-353 376v-272h-273v697h273v-272l353 375l191 -191l-261 -260l261 -262z" />
    <glyph glyph-name="l" unicode="l" horiz-adv-x="659" 
d="M631 270v-273h-604v697h273v-424h331z" />
    <glyph glyph-name="m" unicode="m" horiz-adv-x="951" 
d="M923 790v-793h-272v191l-176 -185l-175 185v-191h-273v793l448 -425z" />
    <glyph glyph-name="n" unicode="n" horiz-adv-x="875" 
d="M575 694q69 0 136.5 0.5t136.5 0.5v-819l-548 411v-289h-273v806l548 -412v302v0z" />
    <glyph glyph-name="o" unicode="o" horiz-adv-x="817" 
d="M409 738q81 0 152 -31t124.5 -84t84 -124.5t30.5 -152.5t-30.5 -152t-84 -124t-124.5 -84t-152 -31t-152.5 31t-125 84t-84 124t-30.5 152t30.5 152.5t84 124.5t125 84t152.5 31zM409 227q24 0 46 9.5t38 25.5t25.5 37.5t9.5 46.5t-9.5 46.5t-25.5 38t-38 26t-46 9.5
q-25 0 -46.5 -9.5t-38 -26t-26 -38t-9.5 -46.5t9.5 -46.5t26 -37.5t38 -25.5t46.5 -9.5z" />
    <glyph glyph-name="p" unicode="p" horiz-adv-x="751" 
d="M450 694q57 0 107 -21.5t87 -58.5t58 -87t21 -107t-21 -106.5t-58 -86.5t-87 -58.5t-107 -21.5h-150v-150h-273v697h423zM402 323q29 0 47 18.5t18 45.5q0 32 -18 49t-49 17h-100v-130h102z" />
    <glyph glyph-name="q" unicode="q" horiz-adv-x="810" 
d="M644 -107l-102 102q-33 -14 -69 -22t-75 -8q-79 0 -148.5 30t-121 81.5t-81.5 121t-30 148.5t30 148t81.5 121t121 82t148.5 30t148 -30t121 -82t82 -121t30 -148q0 -63 -19 -118.5t-53 -102.5l86 -86zM290 347q0 -23 8.5 -43t23 -35t34.5 -23.5t43 -8.5q22 0 42 8.5
t35 23.5t24 35t9 43q0 22 -9 42t-24 35t-35 23.5t-42 8.5q-23 0 -43 -8.5t-34.5 -23.5t-23 -35t-8.5 -42z" />
    <glyph glyph-name="r" unicode="r" horiz-adv-x="768" 
d="M386 161h-86v-165h-272v697h423q56 0 105.5 -21.5t86.5 -59t58.5 -87t21.5 -106.5q0 -51 -20.5 -93.5t-54.5 -71.5l152 -156l-179 -178zM468 387q0 35 -24.5 50.5t-56.5 15.5h-87v-131h87q32 0 56.5 15t24.5 50z" />
    <glyph glyph-name="s" unicode="s" horiz-adv-x="924" 
d="M904 694v-273h-237q-31 0 -50 -33t-20 -91q-5 -70 -27.5 -125.5t-66 -94.5t-110 -59.5t-157.5 -20.5h-216v273h241q31 0 48 33t18 91q4 69 24.5 124.5t58 94.5t93.5 60t130 21h271z" />
    <glyph glyph-name="t" unicode="t" horiz-adv-x="796" 
d="M779 694q0 -69 -0.5 -136.5t-0.5 -136.5h-243v-424h-273v424h-244v273h761v0z" />
    <glyph glyph-name="u" unicode="u" 
d="M785 694v-350q0 -78 -30 -147t-81.5 -120.5t-120.5 -81.5t-147 -30t-147 30t-120.5 81.5t-81.5 120.5t-30 147v350h273v-350q0 -23 8.5 -42.5t23 -34t34 -23t41.5 -8.5t41.5 8.5t34 23t23 34t8.5 42.5v350h271z" />
    <glyph glyph-name="v" unicode="v" horiz-adv-x="925" 
d="M947 694l-485 -780l-485 780h323l162 -271l163 271h322z" />
    <glyph glyph-name="w" unicode="w" horiz-adv-x="1230" 
d="M1253 694l-419 -787l-219 362l-219 -362l-419 787h312l131 -264l195 327l195 -327l132 264h311z" />
    <glyph glyph-name="x" unicode="x" horiz-adv-x="887" 
d="M617 346l292 -349h-328l-137 156l-138 -156h-329l292 349l-292 348h329l138 -156l137 156h328z" />
    <glyph glyph-name="y" unicode="y" horiz-adv-x="883" 
d="M578 268v-270h-273v270l-327 327l193 193l271 -271l271 271l193 -193z" />
    <glyph glyph-name="z" unicode="z" horiz-adv-x="952" 
d="M567 270h346v-273h-886l344 424h-321v273h860z" />
    <glyph glyph-name="braceleft" unicode="{" horiz-adv-x="464" 
d="M28 431q54 0 80.5 14.5t37 37.5t11.5 53t3.5 61t12 61t38.5 53t82 37.5t143 14.5v-194q-44 1 -64.5 -10t-27.5 -29.5t-7 -41.5t-3.5 -47.5t-17 -48.5t-46.5 -42q33 -19 46.5 -42.5t17 -48t3.5 -47.5t7 -41.5t27.5 -29.5t64.5 -10v-193q-90 0 -143 14t-82 37.5t-38.5 53
t-12 61t-3.5 61t-11.5 53t-37 37.5t-80.5 14v162z" />
    <glyph glyph-name="bar" unicode="|" horiz-adv-x="298" 
d="M28 749h241v-938h-241v938z" />
    <glyph glyph-name="braceright" unicode="}" horiz-adv-x="464" 
d="M436 270q-54 0 -80.5 -14.5t-37 -37.5t-11.5 -53t-3.5 -61t-12 -61t-38.5 -53t-82 -37.5t-143 -14.5v194q44 -1 64.5 10t27.5 29t7 41t4 47.5t17 48t47 42.5q-34 19 -47 42.5t-17 48t-4 48t-7 41.5t-27.5 29t-64.5 11v193q90 0 143 -14t82 -37.5t38.5 -53t12 -61t3.5 -61
t11.5 -53t37 -37.5t80.5 -14v-162z" />
    <glyph glyph-name="asciitilde" unicode="~" horiz-adv-x="647" 
d="M580 453q35 -62 38 -121t-20 -104.5t-68.5 -73.5t-106.5 -28q-39 0 -66 10t-45.5 24.5t-31 32t-22 32t-17.5 24.5t-19 10q-12 0 -15.5 -11.5t2.5 -30t21.5 -42.5t41.5 -49h-206q-36 67 -37 127t23.5 104t69 70t100.5 26q40 0 68 -10t47.5 -24.5t33 -32t23 -32t18 -24.5
t18.5 -10t11 14t-6 34.5t-22 43.5t-36 41h203v0z" />
    <glyph glyph-name="uni00A0" unicode="&#xa0;" horiz-adv-x="420" 
 />
    <glyph glyph-name="exclamdown" unicode="&#xa1;" horiz-adv-x="355" 
d="M89 295h178l55 -395h-288zM49 472q0 24 8 47t23.5 41t39.5 29t57 11q32 0 56 -11t39.5 -29t23.5 -41t8 -47t-7.5 -47t-23 -40.5t-39.5 -28.5t-57 -11t-57 11t-39.5 28.5t-23.5 40.5t-8 47z" />
    <glyph glyph-name="cent" unicode="&#xa2;" horiz-adv-x="630" 
d="M602 120q-57 -33 -115.5 -51t-115.5 -19l-31 -134h-114l34 146q-55 13 -98 40.5t-73 65t-45.5 84t-15.5 98.5q0 63 23 118t66 95.5t105.5 63.5t141.5 23q8 0 17 -0.5t18 -1.5l32 136h114l-38 -159q54 -18 95 -45l-85 -147q-11 5 -24 9t-27 7l-49 -206q29 2 55.5 9
t39.5 16zM264 350q0 -27 10.5 -49t33.5 -36l44 186q-45 -10 -66.5 -37t-21.5 -64z" />
    <glyph glyph-name="sterling" unicode="&#xa3;" horiz-adv-x="640" 
d="M393 439q4 36 -9 55.5t-38 19.5q-33 0 -47 -34.5t2 -109.5h159v-114h-152q-13 -53 -75 -77h379v-179h-584v154q43 6 63 28t18 74h-70v114h52q-13 77 -0.5 138t46 104t86.5 65.5t121 22.5q57 0 104.5 -18.5t80.5 -52.5t49 -82.5t9 -107.5h-194v0z" />
    <glyph glyph-name="currency" unicode="&#xa4;" horiz-adv-x="715" 
d="M604 350q0 -33 -5.5 -61t-14.5 -51l103 -86l-132 -139l-87 105q-50 -22 -111 -22q-29 0 -55 5t-49 16l-86 -104l-139 139l108 90q-18 45 -18 108q0 56 17 102l-107 88l139 132l76 -95q24 13 52.5 20t61.5 7q66 0 121 -29l77 97l132 -132l-101 -89q8 -21 13 -46.5t5 -54.5
zM416 350q0 27 -14.5 43.5t-41.5 16.5q-26 0 -40.5 -15.5t-14.5 -44.5t13.5 -45t41.5 -16q29 0 42.5 17t13.5 44z" />
    <glyph glyph-name="yen" unicode="&#xa5;" horiz-adv-x="796" 
d="M511 46v-46h-226v46h-104v114h104v36h-104v114h82l-235 390h280l89 -286l91 286h280l-232 -390h72v-114h-97v-36h97v-114h-97z" />
    <glyph glyph-name="brokenbar" unicode="&#xa6;" horiz-adv-x="290" 
d="M261 249v-438h-233v438h233zM28 311v438h233v-438h-233z" />
    <glyph glyph-name="section" unicode="&#xa7;" horiz-adv-x="694" 
d="M648 246q7 -14 11 -31.5t4 -39.5q1 -35 -19 -72.5t-61.5 -68.5t-103.5 -51t-145 -20q-53 0 -98.5 8.5t-83 23t-65.5 32.5t-44 37l124 95q32 -14 68.5 -20.5t89.5 -6.5q51 0 83 10t31 26q-1 15 -19 20.5t-47 6t-66 -0.5t-75 1.5t-75 11t-65.5 28t-46 53t-17.5 85.5l21 31
q-8 16 -13 35.5t-6 45.5q0 35 20 72.5t61 68.5t103 51t146 20q52 0 98 -9t83 -23t65 -32.5t45 -37.5l-126 -85q-28 14 -65.5 19.5t-90.5 5.5q-51 0 -83 -10t-31 -25q1 -13 19 -17.5t47 -5.5t65.5 -0.5t75 -3t75 -14t65.5 -32t46.5 -58t17.5 -91.5zM455 301q-3 24 -25.5 32.5
t-55.5 9.5t-71.5 -0.5t-72.5 4.5q1 -25 23.5 -33t56 -9.5t72 0t73.5 -3.5z" />
    <glyph glyph-name="dieresis" unicode="&#xa8;" horiz-adv-x="635" 
d="M283 579q0 -24 -8 -47t-23.5 -41t-39.5 -29t-57 -11q-32 0 -56 11t-39.5 29t-23.5 41t-8 47t7.5 47t23 40.5t39.5 28.5t57 11t57 -11t39.5 -28.5t23.5 -40.5t8 -47zM607 579q0 -24 -8 -47t-23.5 -41t-39.5 -29t-57 -11q-32 0 -56 11t-39.5 29t-23.5 41t-8 47t7.5 47
t23 40.5t39.5 28.5t57 11t57 -11t39.5 -28.5t23.5 -40.5t8 -47z" />
    <glyph glyph-name="copyright" unicode="&#xa9;" horiz-adv-x="1003" 
d="M833 350q0 69 -21.5 131t-63.5 108.5t-104 73.5t-143 27q-79 0 -140.5 -27t-104 -73.5t-65 -108.5t-22.5 -131q0 -70 22.5 -131.5t65 -108t104 -73.5t140.5 -27q81 0 143 27t104 73.5t63.5 108t21.5 131.5zM974 350q0 -107 -35 -194t-98 -149t-150 -96t-190 -34
q-110 0 -197.5 37.5t-148.5 101.5t-94 150t-33 184q0 97 33 183.5t94 150.5t148.5 101.5t197.5 37.5q103 0 190 -34t150 -96t98 -149.5t35 -193.5zM720 156q-45 -51 -103.5 -72.5t-116.5 -21.5q-59 0 -109 22t-86.5 60.5t-57 91t-20.5 114.5q0 61 20.5 113.5t57 91
t86.5 60.5t109 22q29 0 59.5 -5.5t59.5 -17.5t55 -31.5t46 -46.5l-101 -116q-21 11 -38 17.5t-44 6.5q-31 0 -56.5 -25.5t-25.5 -68.5t25.5 -68.5t56.5 -25.5t47 7t30 18z" />
    <glyph glyph-name="ordfeminine" unicode="&#xaa;" horiz-adv-x="920" 
d="M942 -2h-322l-49 82l-108 -84l-114 84l-49 -82h-323l483 780zM391 152h137l-68 116z" />
    <glyph glyph-name="guillemotleft" unicode="&#xab;" horiz-adv-x="899" 
d="M387 49l-359 294l359 295l106 -124l-174 -173l174 -176zM766 49l-359 294l359 295l106 -124l-174 -173l174 -176z" />
    <glyph glyph-name="logicalnot" unicode="&#xac;" horiz-adv-x="638" 
d="M610 60h-194v190h-388v193h582v-383z" />
    <glyph glyph-name="uni00AD" unicode="&#xad;" horiz-adv-x="544" 
d="M28 210v234h488v-234h-488z" />
    <glyph glyph-name="registered" unicode="&#xae;" horiz-adv-x="1003" 
d="M974 350q0 -107 -35 -194t-98 -149t-150 -96t-190 -34q-110 0 -197.5 37.5t-148.5 101.5t-94 150t-33 184q0 97 33 183.5t94 150.5t148.5 101.5t197.5 37.5q103 0 190 -34t150 -96t98 -149.5t35 -193.5zM519 246h-55v-135h-201v485q-46 -47 -70 -110.5t-24 -135.5
q0 -70 22.5 -131.5t65 -108t104 -73.5t140.5 -27q82 0 144 27t104 74h-169zM833 350q0 69 -21.5 131t-63.5 108.5t-104 73.5t-143 27q-76 0 -135.5 -25t-102.5 -68h326q47 0 82.5 -15t59 -39.5t35.5 -56t12 -63.5q0 -41 -22 -80.5t-64 -65.5l86 -128q55 87 55 201zM464 443
v-75h54q29 0 40.5 11t11.5 26q0 17 -11 27.5t-41 10.5h-54z" />
    <glyph glyph-name="macron" unicode="&#xaf;" horiz-adv-x="514" 
d="M28 490v170h457v-170h-457z" />
    <glyph glyph-name="degree" unicode="&#xb0;" horiz-adv-x="443" 
d="M221 697q40 0 75 -15t61.5 -41.5t41.5 -61.5t15 -75t-15 -75t-41.5 -61.5t-61.5 -41.5t-75 -15t-75 15t-61.5 41.5t-41.5 61.5t-15 75t15 75t41.5 61.5t61.5 41.5t75 15zM221 465q16 0 27.5 11.5t11.5 27.5q0 17 -11.5 28.5t-27.5 11.5t-27.5 -11.5t-11.5 -28.5
q0 -16 11.5 -27.5t27.5 -11.5z" />
    <glyph glyph-name="plusminus" unicode="&#xb1;" horiz-adv-x="638" 
d="M419 543h191v-193h-191v-190h-193v190h-198v193h198v183h193v-183zM28 -74v193h582v-193h-582z" />
    <glyph glyph-name="twosuperior" unicode="&#xb2;" horiz-adv-x="519" 
d="M35 479q-6 41 6.5 81t42.5 71t77 50t109 19q65 0 111 -23.5t70.5 -59t26.5 -77.5t-22 -79q-22 -34 -63.5 -61t-82.5 -44h181v-146h-463v146q57 20 99 36t72.5 30.5t50.5 28.5t32 29q10 13 11 26.5t-4.5 24.5t-16.5 17.5t-26 6.5q-16 0 -27.5 -7t-18 -18t-9 -24.5
t-0.5 -26.5h-156v0z" />
    <glyph glyph-name="threesuperior" unicode="&#xb3;" horiz-adv-x="540" 
d="M54 541q0 29 14.5 57.5t42.5 51t67.5 36.5t89.5 14q58 0 98 -11.5t64.5 -30t35 -41t10.5 -43.5q0 -31 -17 -56t-49 -40q47 -12 72.5 -39.5t28.5 -68.5q2 -32 -13 -61t-46.5 -51t-79.5 -35t-111 -13q-58 0 -102.5 15t-74.5 40.5t-44 59t-11 71.5h165q-2 -19 13.5 -33.5
t45.5 -14.5q27 0 40.5 11t13.5 28q0 14 -12.5 24.5t-54.5 10.5h-72v92h75q65 0 65 28q0 11 -9 19.5t-38 8.5q-26 0 -36 -9t-10 -20h-161v0z" />
    <glyph glyph-name="acute" unicode="&#xb4;" horiz-adv-x="468" 
d="M438 624l-318 -227l-93 95l257 303z" />
    <glyph glyph-name="mu" unicode="&#xb5;" 
d="M785 694v-350q0 -78 -30 -147t-81.5 -120.5t-120.5 -81.5t-147 -30t-147 30t-120.5 81.5t-81.5 120.5t-30 147v350h273v-350q0 -23 8.5 -42.5t23 -34t34 -23t41.5 -8.5t41.5 8.5t34 23t23 34t8.5 42.5v350h271z" />
    <glyph glyph-name="paragraph" unicode="&#xb6;" horiz-adv-x="968" 
d="M231 380q-40 0 -76 13.5t-63.5 38t-43.5 59.5t-16 78q0 44 16 77.5t43.5 56.5t63.5 34.5t76 11.5h699v-196h-100v-742h-241v742h-117v-742h-241v569z" />
    <glyph glyph-name="periodcentered" unicode="&#xb7;" horiz-adv-x="312" 
d="M283 349q0 -24 -8 -47t-23.5 -41t-39.5 -29t-57 -11q-32 0 -56 11t-39.5 29t-23.5 41t-8 47t7.5 47t23 40.5t39.5 28.5t57 11t57 -11t39.5 -28.5t23.5 -40.5t8 -47z" />
    <glyph glyph-name="cedilla" unicode="&#xb8;" horiz-adv-x="453" 
d="M266 0q42 0 72 -13t49 -33t28 -45t9 -49q0 -51 -30 -88t-83 -53t-125.5 -7t-157.5 50v92q79 -20 120.5 -14t41.5 28q0 17 -26.5 25t-89.5 2v71l84 129h154z" />
    <glyph glyph-name="onesuperior" unicode="&#xb9;" horiz-adv-x="361" 
d="M147 210v219h-119v154q61 0 89 21.5t30 82.5v13h186v-490h-186z" />
    <glyph glyph-name="ordmasculine" unicode="&#xba;" horiz-adv-x="590" 
d="M355 455q0 26 -17 46t-43 20t-43 -19t-17 -47t17 -47.5t43 -19.5t43 20.5t17 46.5zM561 455q0 -60 -23.5 -106t-61 -77t-85.5 -46.5t-96 -15.5q-55 0 -103.5 18.5t-85 51.5t-57.5 77.5t-21 97.5q0 52 20 97t55.5 78t84.5 51.5t107 18.5q48 0 96 -16.5t85.5 -48t61 -77
t23.5 -103.5z" />
    <glyph glyph-name="guillemotright" unicode="&#xbb;" horiz-adv-x="899" 
d="M135 637l359 -294l-359 -295l-106 124l174 173l-174 176zM514 637l359 -294l-359 -295l-106 124l174 173l-174 176z" />
    <glyph glyph-name="onequarter" unicode="&#xbc;" horiz-adv-x="1065" 
d="M992 490v-286h44v-130h-44v-74h-154v74h-266v99l258 317h162zM760 700h192l-578 -700h-191zM333 210h-186v219h-119v154q64 0 91.5 24.5t27.5 92.5h186v-490zM847 204l27 165l-107 -165h80z" />
    <glyph glyph-name="onehalf" unicode="&#xbd;" horiz-adv-x="1153" 
d="M321 210h-174v219h-119v154q64 0 91.5 24.5t27.5 92.5h186v-476l393 476h191l-577 -700h-192zM670 269q-7 41 5.5 81t42.5 71t77 50t109 19q66 0 112 -23.5t70.5 -59t26 -77.5t-22.5 -79q-11 -17 -27.5 -32.5t-36 -29t-41 -24.5t-41.5 -19h181v-146h-462v146q56 20 98 36
t72.5 30.5t50.5 28.5t32 29q10 13 11 26.5t-4.5 24.5t-16.5 17.5t-26 6.5q-16 0 -27 -7t-18 -18t-9.5 -24.5t-0.5 -26.5h-155z" />
    <glyph glyph-name="threequarters" unicode="&#xbe;" horiz-adv-x="1143" 
d="M54 541q0 29 14.5 57.5t42.5 51t67.5 36.5t89.5 14q58 0 98 -11.5t64.5 -30t35 -41t10.5 -43.5q0 -31 -17 -56t-49 -40q47 -12 72.5 -39.5t28.5 -68.5q2 -32 -13 -61t-46.5 -51t-79.5 -35t-111 -13q-58 0 -102.5 15t-74.5 40.5t-44 59t-11 71.5h165q-2 -19 13.5 -33.5
t45.5 -14.5q27 0 40.5 11t13.5 28q0 14 -12.5 24.5t-54.5 10.5h-72v92h75q65 0 65 28q0 11 -9 19.5t-38 8.5q-26 0 -36 -9t-10 -20h-161zM1070 490v-286h45v-130h-45v-74h-154v74h-266v99l258 317h162zM842 700h192l-577 -700h-192zM925 204l27 163l-106 -163h79z" />
    <glyph glyph-name="questiondown" unicode="&#xbf;" horiz-adv-x="631" 
d="M598 130q7 -39 -8.5 -79.5t-52 -74t-94 -55t-134.5 -21.5q-69 0 -122 18.5t-89 49t-54 68.5t-17 77q0 47 18 78t44 51t56 32t56 23t43 23.5t17 32.5h167q7 -50 0 -81t-23 -50.5t-36.5 -30.5t-40.5 -19.5t-35.5 -17.5t-19.5 -26q-2 -17 13.5 -31t46.5 -14q18 0 30 4.5
t19.5 11.5t10 15.5t1.5 15.5h204zM212 494q0 20 8 39t24 34t40.5 24t57.5 9q32 0 56.5 -9t40.5 -24t24 -34t8 -39t-7.5 -39t-23.5 -33.5t-40.5 -23.5t-57.5 -9t-57.5 9t-40.5 23.5t-24 33.5t-8 39z" />
    <glyph glyph-name="Agrave" unicode="&#xc0;" horiz-adv-x="920" 
d="M341 977l296 -263l-73 -105l378 -611h-322l-49 82l-108 -84l-114 84l-49 -82h-323l426 687l-200 106zM391 152h137l-68 116z" />
    <glyph glyph-name="Aacute" unicode="&#xc1;" horiz-adv-x="920" 
d="M676 818l-167 -119l433 -701h-322l-49 82l-108 -84l-114 84l-49 -82h-323l372 601l-84 87l257 303zM391 152h137l-68 116z" />
    <glyph glyph-name="Acircumflex" unicode="&#xc2;" horiz-adv-x="920" 
d="M942 -2h-322l-49 82l-108 -84l-114 84l-49 -82h-323l483 780zM374 995h169l189 -236h-222l-53 46l-52 -46h-222zM391 152h137l-68 116z" />
    <glyph glyph-name="Atilde" unicode="&#xc3;" horiz-adv-x="920" 
d="M717 996q35 -62 38 -121t-20 -104.5t-68.5 -73.5t-106.5 -28h-17.5t-16.5 2l416 -673h-322l-49 82l-108 -84l-114 84l-49 -82h-323l415 671h-189q-36 67 -37 127t23.5 104t69 70t100.5 26q40 0 68 -10t47.5 -24.5t33 -32t23 -32t18 -24.5t18.5 -10t11 14t-6 34.5
t-22 43.5t-36 41h203zM391 152h137l-68 116zM359 802q-12 0 -15.5 -10.5t1 -27.5t18 -39t36.5 -46l28 45q-12 13 -21 27t-16.5 25.5t-14.5 18.5t-16 7z" />
    <glyph glyph-name="Adieresis" unicode="&#xc4;" horiz-adv-x="920" 
d="M942 -2h-322l-49 82l-108 -84l-114 84l-49 -82h-323l483 780zM425 846q0 -24 -8 -47t-23.5 -41t-39.5 -29t-57 -11q-32 0 -56 11t-39.5 29t-23.5 41t-8 47t7.5 47t23 40.5t39.5 28.5t57 11t57 -11t39.5 -28.5t23.5 -40.5t8 -47zM749 846q0 -24 -8 -47t-23.5 -41
t-39.5 -29t-57 -11q-32 0 -56 11t-39.5 29t-23.5 41t-8 47t7.5 47t23 40.5t39.5 28.5t57 11t57 -11t39.5 -28.5t23.5 -40.5t8 -47zM391 152h137l-68 116z" />
    <glyph glyph-name="Aring" unicode="&#xc5;" horiz-adv-x="920" 
d="M459 974q40 0 75 -15t61.5 -41.5t41.5 -61.5t15 -75q0 -53 -25 -96t-67 -69l382 -618h-322l-49 82l-108 -84l-114 84l-49 -82h-323l382 618q-42 26 -67.5 69t-25.5 96q0 40 15 75t41.5 61.5t61.5 41.5t75 15zM391 152h137l-68 116zM479 747q8 5 13.5 14t5.5 20
q0 17 -11.5 28.5t-27.5 11.5t-27.5 -11.5t-11.5 -28.5q0 -23 20 -35l20 32z" />
    <glyph glyph-name="AE" unicode="&#xc6;" horiz-adv-x="1274" 
d="M925 483v-81h240v-114h-240v-81h327v-210h-600v63h-187l-51 -62h-369l607 696h600v-210zM652 177v108l-90 -108h90z" />
    <glyph glyph-name="Ccedilla" unicode="&#xc7;" horiz-adv-x="801" 
d="M292 346q0 -26 9.5 -47t26 -36t37.5 -23.5t45 -8.5q35 -1 66 18.5t45 57.5l262 -73q-16 -54 -46.5 -100.5t-71.5 -82.5t-91.5 -59.5t-106.5 -31.5l-14 -29q42 0 72 -13t49 -33t28 -45t9 -49q0 -51 -30 -88t-83 -53t-125.5 -7t-157.5 50v92q79 -20 120.5 -14t41.5 28
q0 17 -26.5 25t-89.5 2v71l46 72q-63 16 -116 52t-91.5 85.5t-60.5 111t-22 129.5q0 81 30.5 152t84 124t125 84t152.5 31q66 0 126 -21t109 -58t85 -88.5t54 -111.5l-262 -73q-13 35 -43.5 57.5t-68.5 22.5q-24 0 -45.5 -8.5t-37 -24.5t-25 -38t-9.5 -49z" />
    <glyph glyph-name="Egrave" unicode="&#xc8;" horiz-adv-x="655" 
d="M248 947l284 -253h95v-210l-327 -1v-81h240v-114h-240v-81h327v-210h-600v697h210l-127 67z" />
    <glyph glyph-name="Eacute" unicode="&#xc9;" horiz-adv-x="655" 
d="M538 816l-171 -122h260v-210l-327 -1v-81h240v-114h-240v-81h327v-210h-600v697h108l249 293z" />
    <glyph glyph-name="Ecircumflex" unicode="&#xca;" horiz-adv-x="655" 
d="M300 483v-81h240v-114h-240v-81h327v-210h-600v697h600v-210zM243 970h170l191 -263h-224l-53 51l-52 -51h-224z" />
    <glyph glyph-name="Edieresis" unicode="&#xcb;" horiz-adv-x="655" 
d="M616 761q0 -36 -17 -67h28v-210l-327 -1v-81h240v-114h-240v-81h327v-210h-600v697h27q-16 29 -16 67q0 24 7.5 47t23 40.5t39.5 28.5t57 11t57 -11t39.5 -28.5t23.5 -40.5t8 -47q0 -36 -17 -67h101q-16 29 -16 67q0 24 7.5 47t23 40.5t39.5 28.5t57 11t57 -11
t39.5 -28.5t23.5 -40.5t8 -47z" />
    <glyph glyph-name="Igrave" unicode="&#xcc;" horiz-adv-x="327" 
d="M27 -3v697h111l-205 108l138 186l296 -263l-67 -97v-631h-273z" />
    <glyph glyph-name="Iacute" unicode="&#xcd;" horiz-adv-x="327" 
d="M390 835l-198 -141h108v-697h-273v657l-48 49l257 303z" />
    <glyph glyph-name="Icircumflex" unicode="&#xce;" horiz-adv-x="327" 
d="M27 -3v697h273v-697h-273zM79 965h170l191 -263h-224l-53 51l-52 -51h-224z" />
    <glyph glyph-name="Idieresis" unicode="&#xcf;" horiz-adv-x="327" 
d="M27 -3v633q-6 -2 -12.5 -2h-13.5q-32 0 -56 11t-39.5 29t-23.5 41t-8 47t7.5 47t23 40.5t39.5 28.5t57 11t57 -11t39.5 -28.5t23.5 -40.5t8 -47q0 -32 -14 -62h97q-14 27 -14 62q0 24 7.5 47t23 40.5t39.5 28.5t57 11t57 -11t39.5 -28.5t23.5 -40.5t8 -47t-8 -47
t-23.5 -41t-39.5 -29t-57 -11h-13t-12 2v-633h-273z" />
    <glyph glyph-name="Eth" unicode="&#xd0;" horiz-adv-x="747" 
d="M371 694q72 0 135.5 -27.5t111 -74.5t75 -110.5t27.5 -135.5t-27.5 -135.5t-75 -111t-111 -75t-135.5 -27.5h-344v309h-69v84h69v304h344zM371 224q25 0 47 9.5t38.5 26t26.5 38.5t10 47t-10 47t-26.5 38.5t-38.5 26t-47 9.5h-87v-76h99v-84h-99v-82h87z" />
    <glyph glyph-name="Ntilde" unicode="&#xd1;" horiz-adv-x="875" 
d="M695 961q22 -39 31 -76.5t7 -72t-14.5 -65t-33.5 -53.5q41 1 81 1h82v-819l-548 411v-289h-273v806l124 -94q-13 54 -3.5 100t36 79.5t66 52.5t87.5 19q40 0 68 -10t47.5 -24.5t33 -32t23 -32t18 -24.5t18.5 -10t11 14t-6 34.5t-22 43.5t-36 41h203zM575 392v245
q-18 -3 -37 -3q-39 0 -66 10t-45.5 24.5t-31 32t-22 32t-17.5 24.5t-19 10q-12 0 -15.5 -11.5t2.5 -30t21.5 -42.5t41.5 -49h-134z" />
    <glyph glyph-name="Ograve" unicode="&#xd2;" horiz-adv-x="817" 
d="M296 953l290 -258q48 -24 87 -60.5t67.5 -81.5t44 -97.5t15.5 -109.5q0 -81 -30.5 -152t-84 -124t-124.5 -84t-152 -31t-152.5 31t-125 84t-84 124t-30.5 152q0 62 18 118.5t51 104t78.5 84t100.5 57.5l-107 57zM409 227q24 0 46 9.5t38 25.5t25.5 37.5t9.5 46.5
t-9.5 46.5t-25.5 38t-38 26t-46 9.5q-25 0 -46.5 -9.5t-38 -26t-26 -38t-9.5 -46.5t9.5 -46.5t26 -37.5t38 -25.5t46.5 -9.5z" />
    <glyph glyph-name="Oacute" unicode="&#xd3;" horiz-adv-x="817" 
d="M634 815l-126 -90q63 -17 116.5 -52.5t92.5 -85.5t61 -111.5t22 -129.5q0 -81 -30.5 -152t-84 -124t-124.5 -84t-152 -31t-152.5 31t-125 84t-84 124t-30.5 152q0 57 16 110t44.5 98.5t68.5 82t89 60.5l245 289zM409 227q24 0 46 9.5t38 25.5t25.5 37.5t9.5 46.5
t-9.5 46.5t-25.5 38t-38 26t-46 9.5q-25 0 -46.5 -9.5t-38 -26t-26 -38t-9.5 -46.5t9.5 -46.5t26 -37.5t38 -25.5t46.5 -9.5z" />
    <glyph glyph-name="Ocircumflex" unicode="&#xd4;" horiz-adv-x="817" 
d="M324 996h170l191 -263h-213q70 -12 130 -46.5t104 -86t69 -116.5t25 -138q0 -81 -30.5 -152t-84 -124t-124.5 -84t-152 -31t-152.5 31t-125 84t-84 124t-30.5 152q0 73 25 138t69 116.5t104 86t130 46.5h-213zM409 227q24 0 46 9.5t38 25.5t25.5 37.5t9.5 46.5t-9.5 46.5
t-25.5 38t-38 26t-46 9.5q-25 0 -46.5 -9.5t-38 -26t-26 -38t-9.5 -46.5t9.5 -46.5t26 -37.5t38 -25.5t46.5 -9.5zM409 738q13 0 25 -1t25 -3l-51 50l-51 -50q13 2 25.5 3t26.5 1z" />
    <glyph glyph-name="Otilde" unicode="&#xd5;" horiz-adv-x="817" 
d="M669 1010q29 -52 35.5 -102t-5.5 -92t-41.5 -74t-71.5 -47q48 -24 87 -60.5t67.5 -81.5t44 -97.5t15.5 -109.5q0 -81 -30.5 -152t-84 -124t-124.5 -84t-152 -31t-152.5 31t-125 84t-84 124t-30.5 152q0 54 14 103.5t39 93t60.5 79t78.5 61.5h-54q-36 67 -37 127t23.5 104
t69 70t100.5 26q40 0 68 -10t47.5 -24.5t33 -32t23 -32t18 -24.5t18.5 -10t11 14t-6 34.5t-22 43.5t-36 41h203zM409 227q24 0 46 9.5t38 25.5t25.5 37.5t9.5 46.5t-9.5 46.5t-25.5 38t-38 26t-46 9.5q-25 0 -46.5 -9.5t-38 -26t-26 -38t-9.5 -46.5t9.5 -46.5t26 -37.5
t38 -25.5t46.5 -9.5zM322 728q14 3 28.5 5t29.5 3q-13 14 -22 28t-16.5 25.5t-14.5 19t-16 7.5q-19 0 -17 -26t28 -62z" />
    <glyph glyph-name="Odieresis" unicode="&#xd6;" horiz-adv-x="817" 
d="M373 774q0 -17 -5 -39q19 3 41 3q10 0 19 -0.5t19 -1.5q-3 9 -4 18.5t-1 19.5q0 24 7.5 47t23 40.5t39.5 28.5t57 11t57 -11t39.5 -28.5t23.5 -40.5t8 -47q0 -34 -14.5 -64t-44.5 -47q74 -54 118 -136.5t44 -180.5q0 -81 -30.5 -152t-84 -124t-124.5 -84t-152 -31
t-152.5 31t-125 84t-84 124t-30.5 152q0 98 43.5 180t117.5 136q-30 17 -45 47.5t-15 64.5q0 24 7.5 47t23 40.5t39.5 28.5t57 11t57 -11t39.5 -28.5t23.5 -40.5t8 -47zM409 227q24 0 46 9.5t38 25.5t25.5 37.5t9.5 46.5t-9.5 46.5t-25.5 38t-38 26t-46 9.5
q-25 0 -46.5 -9.5t-38 -26t-26 -38t-9.5 -46.5t9.5 -46.5t26 -37.5t38 -25.5t46.5 -9.5z" />
    <glyph glyph-name="multiply" unicode="&#xd7;" horiz-adv-x="653" 
d="M469 344l156 -154l-147 -139l-150 152l-152 -152l-148 155l150 150l-150 152l140 132l148 -146l146 146l155 -148z" />
    <glyph glyph-name="Oslash" unicode="&#xd8;" horiz-adv-x="817" 
d="M409 738q16 0 31 -1.5t30 -3.5l39 72l233 -108l-46 -85q48 -53 76 -121t28 -145q0 -81 -30.5 -152t-84 -124t-124.5 -84t-152 -31q-13 0 -25.5 1t-24.5 3l-33 -64l-240 96l42 82q-52 53 -81.5 123t-29.5 150q0 81 30.5 152.5t84 124.5t125 84t152.5 31zM409 227
q24 0 46 9.5t38 25.5t25.5 37.5t9.5 46.5t-9.5 46.5t-25.5 38t-38 26t-46 9.5q-25 0 -46.5 -9.5t-38 -26t-26 -38t-9.5 -46.5t9.5 -46.5t26 -37.5t38 -25.5t46.5 -9.5z" />
    <glyph glyph-name="Ugrave" unicode="&#xd9;" 
d="M285 997l296 -263l-28 -40h232v-350q0 -78 -30 -147t-81.5 -120.5t-120.5 -81.5t-147 -30t-147 30t-120.5 81.5t-81.5 120.5t-30 147v350h273v-350q0 -23 8.5 -42.5t23 -34t34 -23t41.5 -8.5t41.5 8.5t34 23t23 34t8.5 42.5v293l-10 -14l-357 188z" />
    <glyph glyph-name="Uacute" unicode="&#xda;" 
d="M641 856l-318 -227l-23 23v-308q0 -23 8.5 -42.5t23 -34t34 -23t41.5 -8.5t41.5 8.5t34 23t23 34t8.5 42.5v350h271v-350q0 -78 -30 -147t-81.5 -120.5t-120.5 -81.5t-147 -30t-147 30t-120.5 81.5t-81.5 120.5t-30 147v350h232l-29 30l257 303z" />
    <glyph glyph-name="Ucircumflex" unicode="&#xdb;" 
d="M785 694v-350q0 -78 -30 -147t-81.5 -120.5t-120.5 -81.5t-147 -30t-147 30t-120.5 81.5t-81.5 120.5t-30 147v350h273v-350q0 -23 8.5 -42.5t23 -34t34 -23t41.5 -8.5t41.5 8.5t34 23t23 34t8.5 42.5v350h271zM321 989h170l191 -263h-224l-53 51l-52 -51h-224z" />
    <glyph glyph-name="Udieresis" unicode="&#xdc;" 
d="M785 694v-350q0 -78 -30 -147t-81.5 -120.5t-120.5 -81.5t-147 -30t-147 30t-120.5 81.5t-81.5 120.5t-30 147v350h273v-350q0 -23 8.5 -42.5t23 -34t34 -23t41.5 -8.5t41.5 8.5t34 23t23 34t8.5 42.5v350h271zM371 846q0 -24 -8 -47t-23.5 -41t-39.5 -29t-57 -11
q-32 0 -56 11t-39.5 29t-23.5 41t-8 47t7.5 47t23 40.5t39.5 28.5t57 11t57 -11t39.5 -28.5t23.5 -40.5t8 -47zM695 846q0 -24 -8 -47t-23.5 -41t-39.5 -29t-57 -11q-32 0 -56 11t-39.5 29t-23.5 41t-8 47t7.5 47t23 40.5t39.5 28.5t57 11t57 -11t39.5 -28.5t23.5 -40.5
t8 -47z" />
    <glyph glyph-name="Yacute" unicode="&#xdd;" horiz-adv-x="883" 
d="M578 268v-270h-273v270l-327 327l193 193l271 -271l271 271l193 -193zM698 880l-318 -227l-93 95l257 303z" />
    <glyph glyph-name="Thorn" unicode="&#xde;" horiz-adv-x="785" 
d="M480 622q57 0 107 -21.5t86.5 -58.5t58 -87t21.5 -106q0 -57 -21.5 -106.5t-58.5 -87t-86.5 -59t-106.5 -21.5h-180v-78h-273v697h273v-72h180zM402 281q27 0 46 19t19 46q0 31 -18.5 48.5t-50.5 17.5h-98v-131h102z" />
    <glyph glyph-name="germandbls" unicode="&#xdf;" horiz-adv-x="753" 
d="M255 -3h-228v468q0 49 17 94t51 78.5t85.5 53.5t119.5 20q57 0 99.5 -10t73 -27.5t49.5 -39.5t29 -46q15 -30 11 -68t-23 -66q88 -14 137 -72t49 -142q0 -54 -21 -99t-56.5 -77t-81.5 -49.5t-96 -17.5h-155v211h93q29 0 49 21t20 50t-20 50t-49 21h-96v88h26q14 0 23 9
t9 22q0 17 -13.5 30.5t-43.5 13.5q-28 0 -43 -17t-15 -38v-461z" />
    <glyph glyph-name="agrave" unicode="&#xe0;" horiz-adv-x="920" 
d="M341 977l296 -263l-73 -105l378 -611h-322l-49 82l-108 -84l-114 84l-49 -82h-323l426 687l-200 106zM391 152h137l-68 116z" />
    <glyph glyph-name="aacute" unicode="&#xe1;" horiz-adv-x="920" 
d="M676 818l-167 -119l433 -701h-322l-49 82l-108 -84l-114 84l-49 -82h-323l372 601l-84 87l257 303zM391 152h137l-68 116z" />
    <glyph glyph-name="acircumflex" unicode="&#xe2;" horiz-adv-x="920" 
d="M942 -2h-322l-49 82l-108 -84l-114 84l-49 -82h-323l483 780zM374 995h169l189 -236h-222l-53 46l-52 -46h-222zM391 152h137l-68 116z" />
    <glyph glyph-name="atilde" unicode="&#xe3;" horiz-adv-x="920" 
d="M717 996q35 -62 38 -121t-20 -104.5t-68.5 -73.5t-106.5 -28h-17.5t-16.5 2l416 -673h-322l-49 82l-108 -84l-114 84l-49 -82h-323l415 671h-189q-36 67 -37 127t23.5 104t69 70t100.5 26q40 0 68 -10t47.5 -24.5t33 -32t23 -32t18 -24.5t18.5 -10t11 14t-6 34.5
t-22 43.5t-36 41h203zM391 152h137l-68 116zM359 802q-12 0 -15.5 -10.5t1 -27.5t18 -39t36.5 -46l28 45q-12 13 -21 27t-16.5 25.5t-14.5 18.5t-16 7z" />
    <glyph glyph-name="adieresis" unicode="&#xe4;" horiz-adv-x="920" 
d="M942 -2h-322l-49 82l-108 -84l-114 84l-49 -82h-323l483 780zM425 846q0 -24 -8 -47t-23.5 -41t-39.5 -29t-57 -11q-32 0 -56 11t-39.5 29t-23.5 41t-8 47t7.5 47t23 40.5t39.5 28.5t57 11t57 -11t39.5 -28.5t23.5 -40.5t8 -47zM749 846q0 -24 -8 -47t-23.5 -41
t-39.5 -29t-57 -11q-32 0 -56 11t-39.5 29t-23.5 41t-8 47t7.5 47t23 40.5t39.5 28.5t57 11t57 -11t39.5 -28.5t23.5 -40.5t8 -47zM391 152h137l-68 116z" />
    <glyph glyph-name="aring" unicode="&#xe5;" horiz-adv-x="920" 
d="M459 974q40 0 75 -15t61.5 -41.5t41.5 -61.5t15 -75q0 -53 -25 -96t-67 -69l382 -618h-322l-49 82l-108 -84l-114 84l-49 -82h-323l382 618q-42 26 -67.5 69t-25.5 96q0 40 15 75t41.5 61.5t61.5 41.5t75 15zM391 152h137l-68 116zM479 747q8 5 13.5 14t5.5 20
q0 17 -11.5 28.5t-27.5 11.5t-27.5 -11.5t-11.5 -28.5q0 -23 20 -35l20 32z" />
    <glyph glyph-name="ae" unicode="&#xe6;" horiz-adv-x="1274" 
d="M925 483v-81h240v-114h-240v-81h327v-210h-600v63h-187l-51 -62h-369l607 696h600v-210zM652 177v108l-90 -108h90z" />
    <glyph glyph-name="ccedilla" unicode="&#xe7;" horiz-adv-x="801" 
d="M292 346q0 -26 9.5 -47t26 -36t37.5 -23.5t45 -8.5q35 -1 66 18.5t45 57.5l262 -73q-16 -54 -46.5 -100.5t-71.5 -82.5t-91.5 -59.5t-106.5 -31.5l-14 -29q42 0 72 -13t49 -33t28 -45t9 -49q0 -51 -30 -88t-83 -53t-125.5 -7t-157.5 50v92q79 -20 120.5 -14t41.5 28
q0 17 -26.5 25t-89.5 2v71l46 72q-63 16 -116 52t-91.5 85.5t-60.5 111t-22 129.5q0 81 30.5 152t84 124t125 84t152.5 31q66 0 126 -21t109 -58t85 -88.5t54 -111.5l-262 -73q-13 35 -43.5 57.5t-68.5 22.5q-24 0 -45.5 -8.5t-37 -24.5t-25 -38t-9.5 -49z" />
    <glyph glyph-name="egrave" unicode="&#xe8;" horiz-adv-x="655" 
d="M248 947l284 -253h95v-210l-327 -1v-81h240v-114h-240v-81h327v-210h-600v697h210l-127 67z" />
    <glyph glyph-name="eacute" unicode="&#xe9;" horiz-adv-x="655" 
d="M538 816l-171 -122h260v-210l-327 -1v-81h240v-114h-240v-81h327v-210h-600v697h108l249 293z" />
    <glyph glyph-name="ecircumflex" unicode="&#xea;" horiz-adv-x="655" 
d="M300 483v-81h240v-114h-240v-81h327v-210h-600v697h600v-210zM243 970h170l191 -263h-224l-53 51l-52 -51h-224z" />
    <glyph glyph-name="edieresis" unicode="&#xeb;" horiz-adv-x="655" 
d="M616 761q0 -36 -17 -67h28v-210l-327 -1v-81h240v-114h-240v-81h327v-210h-600v697h27q-16 29 -16 67q0 24 7.5 47t23 40.5t39.5 28.5t57 11t57 -11t39.5 -28.5t23.5 -40.5t8 -47q0 -36 -17 -67h101q-16 29 -16 67q0 24 7.5 47t23 40.5t39.5 28.5t57 11t57 -11
t39.5 -28.5t23.5 -40.5t8 -47z" />
    <glyph glyph-name="igrave" unicode="&#xec;" horiz-adv-x="327" 
d="M27 -3v697h111l-205 108l138 186l296 -263l-67 -97v-631h-273z" />
    <glyph glyph-name="iacute" unicode="&#xed;" horiz-adv-x="327" 
d="M390 835l-198 -141h108v-697h-273v657l-48 49l257 303z" />
    <glyph glyph-name="icircumflex" unicode="&#xee;" horiz-adv-x="327" 
d="M27 -3v697h273v-697h-273zM79 965h170l191 -263h-224l-53 51l-52 -51h-224z" />
    <glyph glyph-name="idieresis" unicode="&#xef;" horiz-adv-x="327" 
d="M27 -3v633q-6 -2 -12.5 -2h-13.5q-32 0 -56 11t-39.5 29t-23.5 41t-8 47t7.5 47t23 40.5t39.5 28.5t57 11t57 -11t39.5 -28.5t23.5 -40.5t8 -47q0 -32 -14 -62h97q-14 27 -14 62q0 24 7.5 47t23 40.5t39.5 28.5t57 11t57 -11t39.5 -28.5t23.5 -40.5t8 -47t-8 -47
t-23.5 -41t-39.5 -29t-57 -11h-13t-12 2v-633h-273z" />
    <glyph glyph-name="eth" unicode="&#xf0;" horiz-adv-x="747" 
d="M371 694q72 0 135.5 -27.5t111 -74.5t75 -110.5t27.5 -135.5t-27.5 -135.5t-75 -111t-111 -75t-135.5 -27.5h-344v309h-69v84h69v304h344zM371 224q25 0 47 9.5t38.5 26t26.5 38.5t10 47t-10 47t-26.5 38.5t-38.5 26t-47 9.5h-87v-76h99v-84h-99v-82h87z" />
    <glyph glyph-name="ntilde" unicode="&#xf1;" horiz-adv-x="875" 
d="M695 961q22 -39 31 -76.5t7 -72t-14.5 -65t-33.5 -53.5q41 1 81 1h82v-819l-548 411v-289h-273v806l124 -94q-13 54 -3.5 100t36 79.5t66 52.5t87.5 19q40 0 68 -10t47.5 -24.5t33 -32t23 -32t18 -24.5t18.5 -10t11 14t-6 34.5t-22 43.5t-36 41h203zM575 392v245
q-18 -3 -37 -3q-39 0 -66 10t-45.5 24.5t-31 32t-22 32t-17.5 24.5t-19 10q-12 0 -15.5 -11.5t2.5 -30t21.5 -42.5t41.5 -49h-134z" />
    <glyph glyph-name="ograve" unicode="&#xf2;" horiz-adv-x="817" 
d="M296 953l290 -258q48 -24 87 -60.5t67.5 -81.5t44 -97.5t15.5 -109.5q0 -81 -30.5 -152t-84 -124t-124.5 -84t-152 -31t-152.5 31t-125 84t-84 124t-30.5 152q0 62 18 118.5t51 104t78.5 84t100.5 57.5l-107 57zM409 227q24 0 46 9.5t38 25.5t25.5 37.5t9.5 46.5
t-9.5 46.5t-25.5 38t-38 26t-46 9.5q-25 0 -46.5 -9.5t-38 -26t-26 -38t-9.5 -46.5t9.5 -46.5t26 -37.5t38 -25.5t46.5 -9.5z" />
    <glyph glyph-name="oacute" unicode="&#xf3;" horiz-adv-x="817" 
d="M634 815l-126 -90q63 -17 116.5 -52.5t92.5 -85.5t61 -111.5t22 -129.5q0 -81 -30.5 -152t-84 -124t-124.5 -84t-152 -31t-152.5 31t-125 84t-84 124t-30.5 152q0 57 16 110t44.5 98.5t68.5 82t89 60.5l245 289zM409 227q24 0 46 9.5t38 25.5t25.5 37.5t9.5 46.5
t-9.5 46.5t-25.5 38t-38 26t-46 9.5q-25 0 -46.5 -9.5t-38 -26t-26 -38t-9.5 -46.5t9.5 -46.5t26 -37.5t38 -25.5t46.5 -9.5z" />
    <glyph glyph-name="ocircumflex" unicode="&#xf4;" horiz-adv-x="817" 
d="M324 996h170l191 -263h-213q70 -12 130 -46.5t104 -86t69 -116.5t25 -138q0 -81 -30.5 -152t-84 -124t-124.5 -84t-152 -31t-152.5 31t-125 84t-84 124t-30.5 152q0 73 25 138t69 116.5t104 86t130 46.5h-213zM409 227q24 0 46 9.5t38 25.5t25.5 37.5t9.5 46.5t-9.5 46.5
t-25.5 38t-38 26t-46 9.5q-25 0 -46.5 -9.5t-38 -26t-26 -38t-9.5 -46.5t9.5 -46.5t26 -37.5t38 -25.5t46.5 -9.5zM409 738q13 0 25 -1t25 -3l-51 50l-51 -50q13 2 25.5 3t26.5 1z" />
    <glyph glyph-name="otilde" unicode="&#xf5;" horiz-adv-x="817" 
d="M669 1010q29 -52 35.5 -102t-5.5 -92t-41.5 -74t-71.5 -47q48 -24 87 -60.5t67.5 -81.5t44 -97.5t15.5 -109.5q0 -81 -30.5 -152t-84 -124t-124.5 -84t-152 -31t-152.5 31t-125 84t-84 124t-30.5 152q0 54 14 103.5t39 93t60.5 79t78.5 61.5h-54q-36 67 -37 127t23.5 104
t69 70t100.5 26q40 0 68 -10t47.5 -24.5t33 -32t23 -32t18 -24.5t18.5 -10t11 14t-6 34.5t-22 43.5t-36 41h203zM409 227q24 0 46 9.5t38 25.5t25.5 37.5t9.5 46.5t-9.5 46.5t-25.5 38t-38 26t-46 9.5q-25 0 -46.5 -9.5t-38 -26t-26 -38t-9.5 -46.5t9.5 -46.5t26 -37.5
t38 -25.5t46.5 -9.5zM322 728q14 3 28.5 5t29.5 3q-13 14 -22 28t-16.5 25.5t-14.5 19t-16 7.5q-19 0 -17 -26t28 -62z" />
    <glyph glyph-name="odieresis" unicode="&#xf6;" horiz-adv-x="817" 
d="M373 774q0 -17 -5 -39q19 3 41 3q10 0 19 -0.5t19 -1.5q-3 9 -4 18.5t-1 19.5q0 24 7.5 47t23 40.5t39.5 28.5t57 11t57 -11t39.5 -28.5t23.5 -40.5t8 -47q0 -34 -14.5 -64t-44.5 -47q74 -54 118 -136.5t44 -180.5q0 -81 -30.5 -152t-84 -124t-124.5 -84t-152 -31
t-152.5 31t-125 84t-84 124t-30.5 152q0 98 43.5 180t117.5 136q-30 17 -45 47.5t-15 64.5q0 24 7.5 47t23 40.5t39.5 28.5t57 11t57 -11t39.5 -28.5t23.5 -40.5t8 -47zM409 227q24 0 46 9.5t38 25.5t25.5 37.5t9.5 46.5t-9.5 46.5t-25.5 38t-38 26t-46 9.5
q-25 0 -46.5 -9.5t-38 -26t-26 -38t-9.5 -46.5t9.5 -46.5t26 -37.5t38 -25.5t46.5 -9.5z" />
    <glyph glyph-name="divide" unicode="&#xf7;" horiz-adv-x="535" 
d="M395 519q0 -37 -17 -68h181v-193h-183q10 -16 14.5 -34t4.5 -36q0 -24 -8 -47t-23.5 -41t-39.5 -29t-57 -11q-32 0 -56 11t-39.5 29t-23.5 41t-8 47q0 38 18 70h-181v193h180q-9 15 -13 32.5t-4 35.5q0 24 7.5 47t23 40.5t39.5 28.5t57 11t57 -11t39.5 -28.5t23.5 -40.5
t8 -47z" />
    <glyph glyph-name="oslash" unicode="&#xf8;" horiz-adv-x="817" 
d="M409 738q16 0 31 -1.5t30 -3.5l39 72l233 -108l-46 -85q48 -53 76 -121t28 -145q0 -81 -30.5 -152t-84 -124t-124.5 -84t-152 -31q-13 0 -25.5 1t-24.5 3l-33 -64l-240 96l42 82q-52 53 -81.5 123t-29.5 150q0 81 30.5 152.5t84 124.5t125 84t152.5 31zM409 227
q24 0 46 9.5t38 25.5t25.5 37.5t9.5 46.5t-9.5 46.5t-25.5 38t-38 26t-46 9.5q-25 0 -46.5 -9.5t-38 -26t-26 -38t-9.5 -46.5t9.5 -46.5t26 -37.5t38 -25.5t46.5 -9.5z" />
    <glyph glyph-name="ugrave" unicode="&#xf9;" 
d="M285 997l296 -263l-28 -40h232v-350q0 -78 -30 -147t-81.5 -120.5t-120.5 -81.5t-147 -30t-147 30t-120.5 81.5t-81.5 120.5t-30 147v350h273v-350q0 -23 8.5 -42.5t23 -34t34 -23t41.5 -8.5t41.5 8.5t34 23t23 34t8.5 42.5v293l-10 -14l-357 188z" />
    <glyph glyph-name="uacute" unicode="&#xfa;" 
d="M641 856l-318 -227l-23 23v-308q0 -23 8.5 -42.5t23 -34t34 -23t41.5 -8.5t41.5 8.5t34 23t23 34t8.5 42.5v350h271v-350q0 -78 -30 -147t-81.5 -120.5t-120.5 -81.5t-147 -30t-147 30t-120.5 81.5t-81.5 120.5t-30 147v350h232l-29 30l257 303z" />
    <glyph glyph-name="ucircumflex" unicode="&#xfb;" 
d="M785 694v-350q0 -78 -30 -147t-81.5 -120.5t-120.5 -81.5t-147 -30t-147 30t-120.5 81.5t-81.5 120.5t-30 147v350h273v-350q0 -23 8.5 -42.5t23 -34t34 -23t41.5 -8.5t41.5 8.5t34 23t23 34t8.5 42.5v350h271zM321 989h170l191 -263h-224l-53 51l-52 -51h-224z" />
    <glyph glyph-name="udieresis" unicode="&#xfc;" 
d="M785 694v-350q0 -78 -30 -147t-81.5 -120.5t-120.5 -81.5t-147 -30t-147 30t-120.5 81.5t-81.5 120.5t-30 147v350h273v-350q0 -23 8.5 -42.5t23 -34t34 -23t41.5 -8.5t41.5 8.5t34 23t23 34t8.5 42.5v350h271zM371 846q0 -24 -8 -47t-23.5 -41t-39.5 -29t-57 -11
q-32 0 -56 11t-39.5 29t-23.5 41t-8 47t7.5 47t23 40.5t39.5 28.5t57 11t57 -11t39.5 -28.5t23.5 -40.5t8 -47zM695 846q0 -24 -8 -47t-23.5 -41t-39.5 -29t-57 -11q-32 0 -56 11t-39.5 29t-23.5 41t-8 47t7.5 47t23 40.5t39.5 28.5t57 11t57 -11t39.5 -28.5t23.5 -40.5
t8 -47z" />
    <glyph glyph-name="yacute" unicode="&#xfd;" horiz-adv-x="883" 
d="M578 268v-270h-273v270l-327 327l193 193l271 -271l271 271l193 -193zM698 880l-318 -227l-93 95l257 303z" />
    <glyph glyph-name="thorn" unicode="&#xfe;" horiz-adv-x="785" 
d="M480 622q57 0 107 -21.5t86.5 -58.5t58 -87t21.5 -106q0 -57 -21.5 -106.5t-58.5 -87t-86.5 -59t-106.5 -21.5h-180v-78h-273v697h273v-72h180zM402 281q27 0 46 19t19 46q0 31 -18.5 48.5t-50.5 17.5h-98v-131h102z" />
    <glyph glyph-name="ydieresis" unicode="&#xff;" horiz-adv-x="883" 
d="M723 801q0 -5 -0.5 -11t-1.5 -11l185 -184l-328 -327v-270h-273v270l-327 327l183 183q-1 5 -1.5 11t-0.5 12q0 24 7.5 47t23 40.5t39.5 28.5t57 11t57 -11t39.5 -28.5t23.5 -40.5t8 -47t-8 -47t-23.5 -41t-39.5 -29t-57 -11l156 -156l156 156h-3q-32 0 -56 11t-39.5 29
t-23.5 41t-8 47t7.5 47t23 40.5t39.5 28.5t57 11t57 -11t39.5 -28.5t23.5 -40.5t8 -47z" />
    <glyph glyph-name="Amacron" unicode="&#x100;" horiz-adv-x="920" 
d="M518 683l424 -685h-322l-49 82l-108 -84l-114 84l-49 -82h-323l424 685h-170v170h457v-170h-170zM391 152h137l-68 116z" />
    <glyph glyph-name="amacron" unicode="&#x101;" horiz-adv-x="920" 
d="M518 683l424 -685h-322l-49 82l-108 -84l-114 84l-49 -82h-323l424 685h-170v170h457v-170h-170zM391 152h137l-68 116z" />
    <glyph glyph-name="Abreve" unicode="&#x102;" horiz-adv-x="920" 
d="M736 893q15 -47 11 -88.5t-27.5 -74t-67.5 -54.5t-111 -30l401 -648h-322l-49 82l-108 -84l-114 84l-49 -82h-323l401 648q-65 9 -109 31t-67 55t-26 74t15 87h225q-11 -39 0 -52.5t44 -13.5q35 0 47.5 13.5t3.5 52.5h225zM391 152h137l-68 116z" />
    <glyph glyph-name="abreve" unicode="&#x103;" horiz-adv-x="920" 
d="M736 893q15 -47 11 -88.5t-27.5 -74t-67.5 -54.5t-111 -30l401 -648h-322l-49 82l-108 -84l-114 84l-49 -82h-323l401 648q-65 9 -109 31t-67 55t-26 74t15 87h225q-11 -39 0 -52.5t44 -13.5q35 0 47.5 13.5t3.5 52.5h225zM391 152h137l-68 116z" />
    <glyph glyph-name="Aogonek" unicode="&#x104;" horiz-adv-x="920" 
d="M730 -120q0 -13 11 -22.5t30.5 -12t47 2.5t62.5 21v-139q-84 -41 -160.5 -50.5t-135 6t-92.5 53t-33 90.5q1 38 15 66t36 48t49.5 34.5t56.5 25.5l-46 77l-108 -84l-114 84l-49 -82h-323l483 780l482 -780h-65q-21 -29 -46.5 -45t-48 -27t-37.5 -20.5t-15 -25.5zM391 152
h137l-68 116z" />
    <glyph glyph-name="aogonek" unicode="&#x105;" horiz-adv-x="920" 
d="M730 -120q0 -13 11 -22.5t30.5 -12t47 2.5t62.5 21v-139q-84 -41 -160.5 -50.5t-135 6t-92.5 53t-33 90.5q1 38 15 66t36 48t49.5 34.5t56.5 25.5l-46 77l-108 -84l-114 84l-49 -82h-323l483 780l482 -780h-65q-21 -29 -46.5 -45t-48 -27t-37.5 -20.5t-15 -25.5zM391 152
h137l-68 116z" />
    <glyph glyph-name="Cacute" unicode="&#x106;" horiz-adv-x="801" 
d="M667 831l-151 -108q96 -28 167 -98t100 -166l-262 -73q-13 35 -43.5 57.5t-68.5 22.5q-24 0 -45.5 -8.5t-37 -24.5t-25 -38t-9.5 -49q0 -26 9.5 -47t26 -36t37.5 -23.5t45 -8.5q35 -1 66 18.5t45 57.5l262 -73q-18 -61 -54 -112t-85 -88t-109 -58t-126 -21
q-81 0 -152.5 31t-125 84t-84 124.5t-30.5 152.5q0 62 18.5 118.5t51.5 104t78.5 84t100.5 57.5l247 291z" />
    <glyph glyph-name="cacute" unicode="&#x107;" horiz-adv-x="801" 
d="M667 831l-151 -108q96 -28 167 -98t100 -166l-262 -73q-13 35 -43.5 57.5t-68.5 22.5q-24 0 -45.5 -8.5t-37 -24.5t-25 -38t-9.5 -49q0 -26 9.5 -47t26 -36t37.5 -23.5t45 -8.5q35 -1 66 18.5t45 57.5l262 -73q-18 -61 -54 -112t-85 -88t-109 -58t-126 -21
q-81 0 -152.5 31t-125 84t-84 124.5t-30.5 152.5q0 62 18.5 118.5t51.5 104t78.5 84t100.5 57.5l247 291z" />
    <glyph glyph-name="Ccircumflex" unicode="&#x108;" horiz-adv-x="801" 
d="M292 346q0 -26 9.5 -47t26 -36t37.5 -23.5t45 -8.5q35 -1 66 18.5t45 57.5l262 -73q-18 -61 -54 -112t-85 -88t-109 -58t-126 -21q-81 0 -152.5 31t-125 84t-84 124.5t-30.5 152.5t30.5 152t84 124t125 84t152.5 31q66 0 126 -21t109 -58t85 -88.5t54 -111.5l-262 -73
q-13 35 -43.5 57.5t-68.5 22.5q-24 0 -45.5 -8.5t-37 -24.5t-25 -38t-9.5 -49zM343 1011h170l191 -263h-224l-53 51l-52 -51h-224z" />
    <glyph glyph-name="ccircumflex" unicode="&#x109;" horiz-adv-x="801" 
d="M292 346q0 -26 9.5 -47t26 -36t37.5 -23.5t45 -8.5q35 -1 66 18.5t45 57.5l262 -73q-18 -61 -54 -112t-85 -88t-109 -58t-126 -21q-81 0 -152.5 31t-125 84t-84 124.5t-30.5 152.5t30.5 152t84 124t125 84t152.5 31q66 0 126 -21t109 -58t85 -88.5t54 -111.5l-262 -73
q-13 35 -43.5 57.5t-68.5 22.5q-24 0 -45.5 -8.5t-37 -24.5t-25 -38t-9.5 -49zM343 1011h170l191 -263h-224l-53 51l-52 -51h-224z" />
    <glyph glyph-name="Cdotaccent" unicode="&#x10a;" horiz-adv-x="801" 
d="M550 804q0 -23 -6.5 -44.5t-20.5 -38.5q46 -14 87.5 -39.5t75 -59t58.5 -75t39 -88.5l-262 -73q-13 35 -43.5 57.5t-68.5 22.5q-24 0 -45.5 -8.5t-37 -24.5t-25 -38t-9.5 -49q0 -26 9.5 -47t26 -36t37.5 -23.5t45 -8.5q35 -1 66 18.5t45 57.5l262 -73q-18 -61 -54 -112
t-85 -88t-109 -58t-126 -21q-81 0 -152.5 31t-125 84t-84 124.5t-30.5 152.5q0 69 22.5 131t63 112.5t95 86t119.5 50.5q-11 17 -16.5 36.5t-5.5 40.5q0 24 7.5 47t23 40.5t39.5 28.5t57 11t57 -11t39.5 -28.5t23.5 -40.5t8 -47z" />
    <glyph glyph-name="cdotaccent" unicode="&#x10b;" horiz-adv-x="801" 
d="M550 804q0 -23 -6.5 -44.5t-20.5 -38.5q46 -14 87.5 -39.5t75 -59t58.5 -75t39 -88.5l-262 -73q-13 35 -43.5 57.5t-68.5 22.5q-24 0 -45.5 -8.5t-37 -24.5t-25 -38t-9.5 -49q0 -26 9.5 -47t26 -36t37.5 -23.5t45 -8.5q35 -1 66 18.5t45 57.5l262 -73q-18 -61 -54 -112
t-85 -88t-109 -58t-126 -21q-81 0 -152.5 31t-125 84t-84 124.5t-30.5 152.5q0 69 22.5 131t63 112.5t95 86t119.5 50.5q-11 17 -16.5 36.5t-5.5 40.5q0 24 7.5 47t23 40.5t39.5 28.5t57 11t57 -11t39.5 -28.5t23.5 -40.5t8 -47z" />
    <glyph glyph-name="Ccaron" unicode="&#x10c;" horiz-adv-x="801" 
d="M547 712q85 -32 147.5 -99t88.5 -154l-262 -73q-13 35 -43.5 57.5t-68.5 22.5q-24 0 -45.5 -8.5t-37 -24.5t-25 -38t-9.5 -49q0 -26 9.5 -47t26 -36t37.5 -23.5t45 -8.5q35 -1 66 18.5t45 57.5l262 -73q-18 -61 -54 -112t-85 -88t-109 -58t-126 -21q-81 0 -152.5 31
t-125 84t-84 124.5t-30.5 152.5q0 65 20.5 124t56.5 107.5t85.5 85t108.5 55.5l-144 199h224l53 -51l52 51h224z" />
    <glyph glyph-name="ccaron" unicode="&#x10d;" horiz-adv-x="801" 
d="M547 712q85 -32 147.5 -99t88.5 -154l-262 -73q-13 35 -43.5 57.5t-68.5 22.5q-24 0 -45.5 -8.5t-37 -24.5t-25 -38t-9.5 -49q0 -26 9.5 -47t26 -36t37.5 -23.5t45 -8.5q35 -1 66 18.5t45 57.5l262 -73q-18 -61 -54 -112t-85 -88t-109 -58t-126 -21q-81 0 -152.5 31
t-125 84t-84 124.5t-30.5 152.5q0 65 20.5 124t56.5 107.5t85.5 85t108.5 55.5l-144 199h224l53 -51l52 51h224z" />
    <glyph glyph-name="Dcaron" unicode="&#x10e;" horiz-adv-x="747" 
d="M472 679q54 -17 99.5 -49t78.5 -75.5t51.5 -97t18.5 -111.5q0 -72 -27.5 -135.5t-75 -111t-111 -75t-135.5 -27.5h-344v697h171l-133 184h224l53 -51l52 51h224zM371 254q19 0 36 7t29.5 19.5t19.5 29t7 35.5t-7 35.5t-19.5 29t-29.5 19.5t-36 7h-87v-182h87z" />
    <glyph glyph-name="dcaron" unicode="&#x10f;" horiz-adv-x="747" 
d="M472 679q54 -17 99.5 -49t78.5 -75.5t51.5 -97t18.5 -111.5q0 -72 -27.5 -135.5t-75 -111t-111 -75t-135.5 -27.5h-344v697h171l-133 184h224l53 -51l52 51h224zM371 254q19 0 36 7t29.5 19.5t19.5 29t7 35.5t-7 35.5t-19.5 29t-29.5 19.5t-36 7h-87v-182h87z" />
    <glyph glyph-name="Dcroat" unicode="&#x110;" horiz-adv-x="747" 
d="M371 694q72 0 135.5 -27.5t111 -74.5t75 -110.5t27.5 -135.5t-27.5 -135.5t-75 -111t-111 -75t-135.5 -27.5h-344v313h-63v78h63v306h344zM371 254q19 0 36 7t29.5 19.5t19.5 29t7 35.5t-7 35.5t-19.5 29t-29.5 19.5t-36 7h-87v-48h87v-78h-87v-56h87z" />
    <glyph glyph-name="dcroat" unicode="&#x111;" horiz-adv-x="747" 
d="M371 694q72 0 135.5 -27.5t111 -74.5t75 -110.5t27.5 -135.5t-27.5 -135.5t-75 -111t-111 -75t-135.5 -27.5h-344v313h-63v78h63v306h344zM371 254q19 0 36 7t29.5 19.5t19.5 29t7 35.5t-7 35.5t-19.5 29t-29.5 19.5t-36 7h-87v-48h87v-78h-87v-56h87z" />
    <glyph glyph-name="Emacron" unicode="&#x112;" horiz-adv-x="655" 
d="M300 483v-81h240v-114h-240v-81h327v-210h-600v697h600v-210zM98 727v170h457v-170h-457z" />
    <glyph glyph-name="emacron" unicode="&#x113;" horiz-adv-x="655" 
d="M300 483v-81h240v-114h-240v-81h327v-210h-600v697h600v-210zM98 727v170h457v-170h-457z" />
    <glyph glyph-name="Edotaccent" unicode="&#x116;" horiz-adv-x="655" 
d="M454 793q0 -29 -10.5 -55t-31.5 -44h215v-210l-327 -1v-81h240v-114h-240v-81h327v-210h-600v697h214q-21 18 -31.5 44t-10.5 55q0 24 7.5 47t23 40.5t39.5 28.5t57 11t57 -11t39.5 -28.5t23.5 -40.5t8 -47z" />
    <glyph glyph-name="edotaccent" unicode="&#x117;" horiz-adv-x="655" 
d="M454 793q0 -29 -10.5 -55t-31.5 -44h215v-210l-327 -1v-81h240v-114h-240v-81h327v-210h-600v697h214q-21 18 -31.5 44t-10.5 55q0 24 7.5 47t23 40.5t39.5 28.5t57 11t57 -11t39.5 -28.5t23.5 -40.5t8 -47z" />
    <glyph glyph-name="Eogonek" unicode="&#x118;" horiz-adv-x="655" 
d="M377 -116q0 -13 11 -22.5t30.5 -12t47 2.5t62.5 21v-139q-84 -41 -160.5 -50.5t-135 6t-92.5 53t-33 90.5q1 34 12 59.5t29.5 45t42 34t48.5 25.5h-212v697h600v-210l-327 -1v-81h240v-114h-240v-81h327v-210h-107q-21 -27 -45.5 -42t-46.5 -25.5t-36.5 -20.5t-14.5 -25z
" />
    <glyph glyph-name="eogonek" unicode="&#x119;" horiz-adv-x="655" 
d="M377 -116q0 -13 11 -22.5t30.5 -12t47 2.5t62.5 21v-139q-84 -41 -160.5 -50.5t-135 6t-92.5 53t-33 90.5q1 34 12 59.5t29.5 45t42 34t48.5 25.5h-212v697h600v-210l-327 -1v-81h240v-114h-240v-81h327v-210h-107q-21 -27 -45.5 -42t-46.5 -25.5t-36.5 -20.5t-14.5 -25z
" />
    <glyph glyph-name="Ecaron" unicode="&#x11a;" horiz-adv-x="655" 
d="M489 694h138v-210l-327 -1v-81h240v-114h-240v-81h327v-210h-600v697h176l-133 183h224l53 -51l52 51h224z" />
    <glyph glyph-name="ecaron" unicode="&#x11b;" horiz-adv-x="655" 
d="M489 694h138v-210l-327 -1v-81h240v-114h-240v-81h327v-210h-600v697h176l-133 183h224l53 -51l52 51h224z" />
    <glyph glyph-name="Gcircumflex" unicode="&#x11c;" horiz-adv-x="885" 
d="M326 983h170l191 -263h-202q57 -14 107 -43.5t88 -72t62.5 -95.5t31.5 -112h-277q-11 21 -36.5 39.5t-59.5 18.5q-22 0 -41.5 -8.5t-34.5 -23t-23.5 -34t-8.5 -42.5t8.5 -43t22.5 -34.5t33.5 -23t41.5 -8.5q36 0 60.5 17t35.5 43h-48v32h420q0 -20 -0.5 -40.5t-0.5 -40.5
h-100q-17 -61 -51.5 -112.5t-83 -89t-107.5 -59t-125 -21.5q-79 0 -148.5 30t-121.5 82t-82 121.5t-30 148.5q0 67 22.5 128t62 110t93.5 83.5t117 49.5h-178zM399 730q15 0 29.5 -1.5t28.5 -3.5l-47 46l-44 -43q8 1 16.5 1.5t16.5 0.5z" />
    <glyph glyph-name="gcircumflex" unicode="&#x11d;" horiz-adv-x="885" 
d="M326 983h170l191 -263h-202q57 -14 107 -43.5t88 -72t62.5 -95.5t31.5 -112h-277q-11 21 -36.5 39.5t-59.5 18.5q-22 0 -41.5 -8.5t-34.5 -23t-23.5 -34t-8.5 -42.5t8.5 -43t22.5 -34.5t33.5 -23t41.5 -8.5q36 0 60.5 17t35.5 43h-48v32h420q0 -20 -0.5 -40.5t-0.5 -40.5
h-100q-17 -61 -51.5 -112.5t-83 -89t-107.5 -59t-125 -21.5q-79 0 -148.5 30t-121.5 82t-82 121.5t-30 148.5q0 67 22.5 128t62 110t93.5 83.5t117 49.5h-178zM399 730q15 0 29.5 -1.5t28.5 -3.5l-47 46l-44 -43q8 1 16.5 1.5t16.5 0.5z" />
    <glyph glyph-name="Gbreve" unicode="&#x11e;" horiz-adv-x="885" 
d="M685 838q19 -60 8 -109.5t-55 -84.5q56 -45 91.5 -108.5t44.5 -138.5h-277q-11 21 -36.5 39.5t-59.5 18.5q-22 0 -41.5 -8.5t-34.5 -23t-23.5 -34t-8.5 -42.5t8.5 -43t22.5 -34.5t33.5 -23t41.5 -8.5q36 0 60.5 17t35.5 43h-48v32h420q0 -20 -0.5 -40.5t-0.5 -40.5h-100
q-17 -61 -51.5 -112.5t-83 -89t-107.5 -59t-125 -21.5q-79 0 -148.5 30t-121.5 82t-82 121.5t-30 148.5q0 94 41.5 173.5t112.5 131.5q-37 35 -44.5 82t13.5 102h225q-11 -39 0 -52.5t44 -13.5q35 0 47.5 13.5t3.5 52.5h225v0z" />
    <glyph glyph-name="gbreve" unicode="&#x11f;" horiz-adv-x="885" 
d="M685 838q19 -60 8 -109.5t-55 -84.5q56 -45 91.5 -108.5t44.5 -138.5h-277q-11 21 -36.5 39.5t-59.5 18.5q-22 0 -41.5 -8.5t-34.5 -23t-23.5 -34t-8.5 -42.5t8.5 -43t22.5 -34.5t33.5 -23t41.5 -8.5q36 0 60.5 17t35.5 43h-48v32h420q0 -20 -0.5 -40.5t-0.5 -40.5h-100
q-17 -61 -51.5 -112.5t-83 -89t-107.5 -59t-125 -21.5q-79 0 -148.5 30t-121.5 82t-82 121.5t-30 148.5q0 94 41.5 173.5t112.5 131.5q-37 35 -44.5 82t13.5 102h225q-11 -39 0 -52.5t44 -13.5q35 0 47.5 13.5t3.5 52.5h225v0z" />
    <glyph glyph-name="Gdotaccent" unicode="&#x120;" horiz-adv-x="885" 
d="M532 811q0 -26 -9 -50.5t-27 -43.5q55 -15 103 -45t84.5 -72t60 -93.5t30.5 -109.5h-277q-11 21 -36.5 39.5t-59.5 18.5q-22 0 -41.5 -8.5t-34.5 -23t-23.5 -34t-8.5 -42.5t8.5 -43t22.5 -34.5t33.5 -23t41.5 -8.5q36 0 60.5 17t35.5 43h-48v32h420q0 -20 -0.5 -40.5
t-0.5 -40.5h-100q-17 -61 -51.5 -112.5t-83 -89t-107.5 -59t-125 -21.5q-79 0 -148.5 30t-121.5 82t-82 121.5t-30 148.5q0 67 22 128t61.5 110t93.5 83.5t117 49.5q-17 18 -25.5 41.5t-8.5 49.5q0 24 7.5 47t23 40.5t39.5 28.5t57 11t57 -11t39.5 -28.5t23.5 -40.5t8 -47z
" />
    <glyph glyph-name="gdotaccent" unicode="&#x121;" horiz-adv-x="885" 
d="M532 811q0 -26 -9 -50.5t-27 -43.5q55 -15 103 -45t84.5 -72t60 -93.5t30.5 -109.5h-277q-11 21 -36.5 39.5t-59.5 18.5q-22 0 -41.5 -8.5t-34.5 -23t-23.5 -34t-8.5 -42.5t8.5 -43t22.5 -34.5t33.5 -23t41.5 -8.5q36 0 60.5 17t35.5 43h-48v32h420q0 -20 -0.5 -40.5
t-0.5 -40.5h-100q-17 -61 -51.5 -112.5t-83 -89t-107.5 -59t-125 -21.5q-79 0 -148.5 30t-121.5 82t-82 121.5t-30 148.5q0 67 22 128t61.5 110t93.5 83.5t117 49.5q-17 18 -25.5 41.5t-8.5 49.5q0 24 7.5 47t23 40.5t39.5 28.5t57 11t57 -11t39.5 -28.5t23.5 -40.5t8 -47z
" />
    <glyph glyph-name="uni0122" unicode="&#x122;" horiz-adv-x="885" 
d="M867 330q0 -20 -0.5 -40.5t-0.5 -40.5h-100q-17 -61 -51.5 -112.5t-83 -89t-107.5 -59t-125 -21.5q-79 0 -148.5 30t-121.5 82t-82 121.5t-30 148.5t30 148t82 121t121.5 82t148.5 30q72 0 136.5 -25.5t115 -70.5t83 -106t40.5 -131h-277q-11 21 -36.5 39.5t-59.5 18.5
q-22 0 -41.5 -8.5t-34.5 -23t-23.5 -34t-8.5 -42.5t8.5 -43t22.5 -34.5t33.5 -23t41.5 -8.5q36 0 60.5 17t35.5 43h-48v32h420zM268 -52h256l-132 -339h-162z" />
    <glyph glyph-name="uni0123" unicode="&#x123;" horiz-adv-x="885" 
d="M867 330q0 -20 -0.5 -40.5t-0.5 -40.5h-100q-17 -61 -51.5 -112.5t-83 -89t-107.5 -59t-125 -21.5q-79 0 -148.5 30t-121.5 82t-82 121.5t-30 148.5t30 148t82 121t121.5 82t148.5 30q72 0 136.5 -25.5t115 -70.5t83 -106t40.5 -131h-277q-11 21 -36.5 39.5t-59.5 18.5
q-22 0 -41.5 -8.5t-34.5 -23t-23.5 -34t-8.5 -42.5t8.5 -43t22.5 -34.5t33.5 -23t41.5 -8.5q36 0 60.5 17t35.5 43h-48v32h420zM268 -52h256l-132 -339h-162z" />
    <glyph glyph-name="Hcircumflex" unicode="&#x124;" horiz-adv-x="793" 
d="M765 694v-697h-271v258h-194v-258h-273v697h273v-286h194v286h271zM315 975h170l191 -263h-224l-53 51l-52 -51h-224z" />
    <glyph glyph-name="hcircumflex" unicode="&#x125;" horiz-adv-x="793" 
d="M765 694v-697h-271v258h-194v-258h-273v697h273v-286h194v286h271zM315 975h170l191 -263h-224l-53 51l-52 -51h-224z" />
    <glyph glyph-name="Hbar" unicode="&#x126;" horiz-adv-x="793" 
d="M765 694v-697h-271v258h-194v-258h-273v697h273v-78h194v78h271zM494 408v49h-194v-49h194z" />
    <glyph glyph-name="hbar" unicode="&#x127;" horiz-adv-x="793" 
d="M765 694v-697h-271v258h-194v-258h-273v697h273v-78h194v78h271zM494 408v49h-194v-49h194z" />
    <glyph glyph-name="Itilde" unicode="&#x128;" horiz-adv-x="327" 
d="M27 -3v663h-119q-36 67 -37 127t23.5 104t69 70t100.5 26q40 0 68 -10t47.5 -24.5t33 -32t23 -32t18 -24.5t18.5 -10t11 14t-6 34.5t-22 43.5t-36 41h203q32 -57 37 -112t-13 -99.5t-56 -75t-90 -38.5v-665h-273zM64 793q-20 0 -16 -29.5t35 -69.5h71q-19 15 -31 32
t-21.5 32t-18 25t-19.5 10z" />
    <glyph glyph-name="itilde" unicode="&#x129;" horiz-adv-x="327" 
d="M27 -3v663h-119q-36 67 -37 127t23.5 104t69 70t100.5 26q40 0 68 -10t47.5 -24.5t33 -32t23 -32t18 -24.5t18.5 -10t11 14t-6 34.5t-22 43.5t-36 41h203q32 -57 37 -112t-13 -99.5t-56 -75t-90 -38.5v-665h-273zM64 793q-20 0 -16 -29.5t35 -69.5h71q-19 15 -31 32
t-21.5 32t-18 25t-19.5 10z" />
    <glyph glyph-name="Imacron" unicode="&#x12a;" horiz-adv-x="327" 
d="M27 -3v697h273v-697h-273zM-65 740v170h457v-170h-457z" />
    <glyph glyph-name="imacron" unicode="&#x12b;" horiz-adv-x="327" 
d="M27 -3v697h273v-697h-273zM-65 740v170h457v-170h-457z" />
    <glyph glyph-name="Iogonek" unicode="&#x12e;" horiz-adv-x="327" 
d="M135 -123q0 -13 11 -22.5t30.5 -12t47 2.5t62.5 21v-139q-84 -41 -160.5 -50.5t-135 6t-92.5 53t-33 90.5q1 39 15.5 67t37.5 48.5t51.5 35t57.5 25.5v692h273v-697h-17q-20 -29 -46 -45.5t-48.5 -28t-38 -21t-15.5 -25.5z" />
    <glyph glyph-name="iogonek" unicode="&#x12f;" horiz-adv-x="327" 
d="M135 -123q0 -13 11 -22.5t30.5 -12t47 2.5t62.5 21v-139q-84 -41 -160.5 -50.5t-135 6t-92.5 53t-33 90.5q1 39 15.5 67t37.5 48.5t51.5 35t57.5 25.5v692h273v-697h-17q-20 -29 -46 -45.5t-48.5 -28t-38 -21t-15.5 -25.5z" />
    <glyph glyph-name="Idotaccent" unicode="&#x130;" horiz-adv-x="327" 
d="M291 818q0 -42 -22.5 -77.5t-69.5 -46.5h101v-697h-273v697h100q-46 11 -68.5 46.5t-22.5 77.5q0 24 7.5 47t23 40.5t39.5 28.5t57 11t57 -11t39.5 -28.5t23.5 -40.5t8 -47z" />
    <glyph glyph-name="dotlessi" unicode="&#x131;" horiz-adv-x="327" 
d="M27 -3v697h273v-697h-273z" />
    <glyph glyph-name="Jcircumflex" unicode="&#x134;" horiz-adv-x="793" 
d="M765 693v-361q0 -77 -29 -144t-79 -117t-117 -79t-143 -29q-74 0 -139 27t-115 73.5t-81 110t-35 135.5h276q8 -32 33 -52.5t60 -20.5q20 0 37.5 7.5t31 21t21 31.5t7.5 38v360zM494 972h170l191 -263h-224l-53 51l-52 -51h-224z" />
    <glyph glyph-name="jcircumflex" unicode="&#x135;" horiz-adv-x="793" 
d="M765 693v-361q0 -77 -29 -144t-79 -117t-117 -79t-143 -29q-74 0 -139 27t-115 73.5t-81 110t-35 135.5h276q8 -32 33 -52.5t60 -20.5q20 0 37.5 7.5t31 21t21 31.5t7.5 38v360zM494 972h170l191 -263h-224l-53 51l-52 -51h-224z" />
    <glyph glyph-name="uni0136" unicode="&#x136;" horiz-adv-x="865" 
d="M653 -105l-353 376v-272h-273v697h273v-272l353 375l191 -191l-261 -260l261 -262zM238 -31h256l-132 -339h-162z" />
    <glyph glyph-name="uni0137" unicode="&#x137;" horiz-adv-x="865" 
d="M653 -105l-353 376v-272h-273v697h273v-272l353 375l191 -191l-261 -260l261 -262zM238 -31h256l-132 -339h-162z" />
    <glyph glyph-name="kgreenlandic" unicode="&#x138;" horiz-adv-x="865" 
d="M653 -105l-353 376v-272h-273v697h273v-272l353 375l191 -191l-261 -260l261 -262z" />
    <glyph glyph-name="Lacute" unicode="&#x139;" horiz-adv-x="659" 
d="M631 270v-273h-604v697h211l237 279l154 -171l-318 -227l-11 11v-316h331z" />
    <glyph glyph-name="lacute" unicode="&#x13a;" horiz-adv-x="659" 
d="M631 270v-273h-604v697h211l237 279l154 -171l-318 -227l-11 11v-316h331z" />
    <glyph glyph-name="uni013B" unicode="&#x13b;" horiz-adv-x="659" 
d="M631 270v-273h-604v697h273v-424h331zM268 -31h256l-132 -339h-162z" />
    <glyph glyph-name="uni013C" unicode="&#x13c;" horiz-adv-x="659" 
d="M631 270v-273h-604v697h273v-424h331zM268 -31h256l-132 -339h-162z" />
    <glyph glyph-name="Lcaron" unicode="&#x13d;" horiz-adv-x="659" 
d="M631 270v-273h-604v697h273v-424h331zM473 812h273l-147 -340h-194z" />
    <glyph glyph-name="lcaron" unicode="&#x13e;" horiz-adv-x="659" 
d="M631 270v-273h-604v697h273v-424h331zM473 812h273l-147 -340h-194z" />
    <glyph glyph-name="Lslash" unicode="&#x141;" horiz-adv-x="659" 
d="M631 270v-273h-604v244l-77 -31v234l77 31v219h273v-107l138 57v-234l-138 -57v-83h331z" />
    <glyph glyph-name="lslash" unicode="&#x142;" horiz-adv-x="659" 
d="M631 270v-273h-604v244l-77 -31v234l77 31v219h273v-107l138 57v-234l-138 -57v-83h331z" />
    <glyph glyph-name="Nacute" unicode="&#x143;" horiz-adv-x="875" 
d="M575 694q69 0 136.5 0.5t136.5 0.5v-819l-548 411v-289h-273v806l548 -412v302zM706 859l-318 -227l-93 95l257 303z" />
    <glyph glyph-name="nacute" unicode="&#x144;" horiz-adv-x="875" 
d="M575 694q69 0 136.5 0.5t136.5 0.5v-819l-548 411v-289h-273v806l548 -412v302zM706 859l-318 -227l-93 95l257 303z" />
    <glyph glyph-name="uni0145" unicode="&#x145;" horiz-adv-x="875" 
d="M575 694q69 0 136.5 0.5t136.5 0.5v-819l-548 411v-289h-273v806l548 -412v302zM268 -31h256l-132 -339h-162z" />
    <glyph glyph-name="uni0146" unicode="&#x146;" horiz-adv-x="875" 
d="M575 694q69 0 136.5 0.5t136.5 0.5v-819l-548 411v-289h-273v806l548 -412v302zM268 -31h256l-132 -339h-162z" />
    <glyph glyph-name="Ncaron" unicode="&#x147;" horiz-adv-x="875" 
d="M575 694q69 0 136.5 0.5t136.5 0.5v-819l-548 411v-289h-273v806l548 -412v302zM509 680h-170l-191 263h224l53 -51l52 51h224z" />
    <glyph glyph-name="ncaron" unicode="&#x148;" horiz-adv-x="875" 
d="M575 694q69 0 136.5 0.5t136.5 0.5v-819l-548 411v-289h-273v806l548 -412v302zM509 680h-170l-191 263h224l53 -51l52 51h224z" />
    <glyph glyph-name="Eng" unicode="&#x14a;" horiz-adv-x="875" 
d="M575 694q69 0 136.5 0.5t136.5 0.5v-718q0 -77 -29 -144t-79 -117t-117.5 -79t-143.5 -29q-74 0 -139 27t-114.5 73.5t-80.5 109.5t-35 135h276q8 -31 33 -51.5t60 -20.5q20 0 37.5 7.5t31 20.5t21 31t7.5 38v86l-276 223v-289h-273v806l548 -412v302v0z" />
    <glyph glyph-name="eng" unicode="&#x14b;" horiz-adv-x="875" 
d="M575 694q69 0 136.5 0.5t136.5 0.5v-718q0 -77 -29 -144t-79 -117t-117.5 -79t-143.5 -29q-74 0 -139 27t-114.5 73.5t-80.5 109.5t-35 135h276q8 -31 33 -51.5t60 -20.5q20 0 37.5 7.5t31 20.5t21 31t7.5 38v86l-276 223v-289h-273v806l548 -412v302v0z" />
    <glyph glyph-name="Omacron" unicode="&#x14c;" horiz-adv-x="817" 
d="M409 738q81 0 152 -31t124.5 -84t84 -124.5t30.5 -152.5t-30.5 -152t-84 -124t-124.5 -84t-152 -31t-152.5 31t-125 84t-84 124t-30.5 152t30.5 152.5t84 124.5t125 84t152.5 31zM409 227q24 0 46 9.5t38 25.5t25.5 37.5t9.5 46.5t-9.5 46.5t-25.5 38t-38 26t-46 9.5
q-25 0 -46.5 -9.5t-38 -26t-26 -38t-9.5 -46.5t9.5 -46.5t26 -37.5t38 -25.5t46.5 -9.5zM179 741v170h457v-170h-457z" />
    <glyph glyph-name="omacron" unicode="&#x14d;" horiz-adv-x="817" 
d="M409 738q81 0 152 -31t124.5 -84t84 -124.5t30.5 -152.5t-30.5 -152t-84 -124t-124.5 -84t-152 -31t-152.5 31t-125 84t-84 124t-30.5 152t30.5 152.5t84 124.5t125 84t152.5 31zM409 227q24 0 46 9.5t38 25.5t25.5 37.5t9.5 46.5t-9.5 46.5t-25.5 38t-38 26t-46 9.5
q-25 0 -46.5 -9.5t-38 -26t-26 -38t-9.5 -46.5t9.5 -46.5t26 -37.5t38 -25.5t46.5 -9.5zM179 741v170h457v-170h-457z" />
    <glyph glyph-name="Ohungarumlaut" unicode="&#x150;" horiz-adv-x="817" 
d="M855 847l-238 -170q41 -26 75 -61.5t58 -78t37 -91t13 -100.5q0 -81 -30.5 -152t-84 -124t-124.5 -84t-152 -31t-152.5 31t-125 84t-84 124t-30.5 152q0 53 13.5 102.5t38.5 93t60.5 79t78.5 61.5l-32 33l257 303l138 -153l130 153zM409 227q24 0 46 9.5t38 25.5
t25.5 37.5t9.5 46.5t-9.5 46.5t-25.5 38t-38 26t-46 9.5q-25 0 -46.5 -9.5t-38 -26t-26 -38t-9.5 -46.5t9.5 -46.5t26 -37.5t38 -25.5t46.5 -9.5zM460 734l48 56l-75 -53z" />
    <glyph glyph-name="ohungarumlaut" unicode="&#x151;" horiz-adv-x="817" 
d="M855 847l-238 -170q41 -26 75 -61.5t58 -78t37 -91t13 -100.5q0 -81 -30.5 -152t-84 -124t-124.5 -84t-152 -31t-152.5 31t-125 84t-84 124t-30.5 152q0 53 13.5 102.5t38.5 93t60.5 79t78.5 61.5l-32 33l257 303l138 -153l130 153zM409 227q24 0 46 9.5t38 25.5
t25.5 37.5t9.5 46.5t-9.5 46.5t-25.5 38t-38 26t-46 9.5q-25 0 -46.5 -9.5t-38 -26t-26 -38t-9.5 -46.5t9.5 -46.5t26 -37.5t38 -25.5t46.5 -9.5zM460 734l48 56l-75 -53z" />
    <glyph glyph-name="OE" unicode="&#x152;" horiz-adv-x="1154" 
d="M807 483v-81h240v-114h-240v-81h327v-210h-550q-40 -20 -83.5 -31t-91.5 -11q-81 0 -152.5 31t-125 84t-84 124t-30.5 152t30.5 152.5t84 124.5t125 84t152.5 31q49 0 93.5 -11.5t85.5 -32.5h546v-210zM409 227q24 0 46 9.5t38 25.5t25.5 37.5t9.5 46.5t-9.5 46.5
t-25.5 38t-38 26t-46 9.5q-25 0 -46.5 -9.5t-38 -26t-26 -38t-9.5 -46.5t9.5 -46.5t26 -37.5t38 -25.5t46.5 -9.5z" />
    <glyph glyph-name="oe" unicode="&#x153;" horiz-adv-x="1154" 
d="M807 483v-81h240v-114h-240v-81h327v-210h-550q-40 -20 -83.5 -31t-91.5 -11q-81 0 -152.5 31t-125 84t-84 124t-30.5 152t30.5 152.5t84 124.5t125 84t152.5 31q49 0 93.5 -11.5t85.5 -32.5h546v-210zM409 227q24 0 46 9.5t38 25.5t25.5 37.5t9.5 46.5t-9.5 46.5
t-25.5 38t-38 26t-46 9.5q-25 0 -46.5 -9.5t-38 -26t-26 -38t-9.5 -46.5t9.5 -46.5t26 -37.5t38 -25.5t46.5 -9.5z" />
    <glyph glyph-name="Racute" unicode="&#x154;" horiz-adv-x="768" 
d="M615 812l-167 -119h3q56 0 105.5 -21.5t86.5 -59t58.5 -87t21.5 -106.5q0 -51 -20.5 -93.5t-54.5 -71.5l152 -156l-179 -178l-235 241h-86v-165h-272v697h187l246 290zM468 387q0 35 -24.5 50.5t-56.5 15.5h-87v-131h87q32 0 56.5 15t24.5 50z" />
    <glyph glyph-name="racute" unicode="&#x155;" horiz-adv-x="768" 
d="M615 812l-167 -119h3q56 0 105.5 -21.5t86.5 -59t58.5 -87t21.5 -106.5q0 -51 -20.5 -93.5t-54.5 -71.5l152 -156l-179 -178l-235 241h-86v-165h-272v697h187l246 290zM468 387q0 35 -24.5 50.5t-56.5 15.5h-87v-131h87q32 0 56.5 15t24.5 50z" />
    <glyph glyph-name="uni0156" unicode="&#x156;" horiz-adv-x="768" 
d="M386 161h-86v-165h-272v697h423q56 0 105.5 -21.5t86.5 -59t58.5 -87t21.5 -106.5q0 -51 -20.5 -93.5t-54.5 -71.5l152 -156l-179 -178zM468 387q0 35 -24.5 50.5t-56.5 15.5h-87v-131h87q32 0 56.5 15t24.5 50zM268 -31h256l-132 -339h-162z" />
    <glyph glyph-name="uni0157" unicode="&#x157;" horiz-adv-x="768" 
d="M386 161h-86v-165h-272v697h423q56 0 105.5 -21.5t86.5 -59t58.5 -87t21.5 -106.5q0 -51 -20.5 -93.5t-54.5 -71.5l152 -156l-179 -178zM468 387q0 35 -24.5 50.5t-56.5 15.5h-87v-131h87q32 0 56.5 15t24.5 50zM268 -31h256l-132 -339h-162z" />
    <glyph glyph-name="Rcaron" unicode="&#x158;" horiz-adv-x="768" 
d="M453 693q56 -1 105 -22.5t86 -59t58 -87t21 -105.5q0 -51 -20.5 -93.5t-54.5 -71.5l152 -156l-179 -178l-235 241h-86v-165h-272v697h178l-152 210h224l53 -51l52 51h224zM468 387q0 35 -24.5 50.5t-56.5 15.5h-87v-131h87q32 0 56.5 15t24.5 50z" />
    <glyph glyph-name="rcaron" unicode="&#x159;" horiz-adv-x="768" 
d="M453 693q56 -1 105 -22.5t86 -59t58 -87t21 -105.5q0 -51 -20.5 -93.5t-54.5 -71.5l152 -156l-179 -178l-235 241h-86v-165h-272v697h178l-152 210h224l53 -51l52 51h224zM468 387q0 35 -24.5 50.5t-56.5 15.5h-87v-131h87q32 0 56.5 15t24.5 50z" />
    <glyph glyph-name="Sacute" unicode="&#x15a;" horiz-adv-x="924" 
d="M946 811l-164 -117h122v-273h-237q-31 0 -50 -33t-20 -91q-5 -70 -27.5 -125.5t-66 -94.5t-110 -59.5t-157.5 -20.5h-216v273h241q31 0 48 33t18 91q6 113 58 189t154 100l253 299z" />
    <glyph glyph-name="sacute" unicode="&#x15b;" horiz-adv-x="924" 
d="M946 811l-164 -117h122v-273h-237q-31 0 -50 -33t-20 -91q-5 -70 -27.5 -125.5t-66 -94.5t-110 -59.5t-157.5 -20.5h-216v273h241q31 0 48 33t18 91q6 113 58 189t154 100l253 299z" />
    <glyph glyph-name="Scircumflex" unicode="&#x15c;" horiz-adv-x="924" 
d="M904 694v-273h-237q-31 0 -50 -33t-20 -91q-5 -70 -27.5 -125.5t-66 -94.5t-110 -59.5t-157.5 -20.5h-216v273h241q31 0 48 33t18 91q4 69 24.5 124.5t58 94.5t93.5 60t130 21h271zM590 982h170l191 -263h-224l-53 51l-52 -51h-224z" />
    <glyph glyph-name="scircumflex" unicode="&#x15d;" horiz-adv-x="924" 
d="M904 694v-273h-237q-31 0 -50 -33t-20 -91q-5 -70 -27.5 -125.5t-66 -94.5t-110 -59.5t-157.5 -20.5h-216v273h241q31 0 48 33t18 91q4 69 24.5 124.5t58 94.5t93.5 60t130 21h271zM590 982h170l191 -263h-224l-53 51l-52 -51h-224z" />
    <glyph glyph-name="Scedilla" unicode="&#x15e;" horiz-adv-x="924" 
d="M904 694v-273h-237q-31 0 -50 -33t-20 -91q-5 -64 -24.5 -116t-56 -90.5t-92.5 -61.5t-132 -29l-25 -52q42 0 72 -13t49 -33t28 -45t9 -49q0 -51 -30 -88t-83 -53t-125.5 -7t-157.5 50v92q79 -20 120.5 -14t41.5 28q0 17 -26.5 25t-89.5 2v71l54 83h-109v273h241
q31 0 48 33t18 91q4 69 24.5 124.5t58 94.5t93.5 60t130 21h271z" />
    <glyph glyph-name="scedilla" unicode="&#x15f;" horiz-adv-x="924" 
d="M904 694v-273h-237q-31 0 -50 -33t-20 -91q-5 -64 -24.5 -116t-56 -90.5t-92.5 -61.5t-132 -29l-25 -52q42 0 72 -13t49 -33t28 -45t9 -49q0 -51 -30 -88t-83 -53t-125.5 -7t-157.5 50v92q79 -20 120.5 -14t41.5 28q0 17 -26.5 25t-89.5 2v71l54 83h-109v273h241
q31 0 48 33t18 91q4 69 24.5 124.5t58 94.5t93.5 60t130 21h271z" />
    <glyph glyph-name="Scaron" unicode="&#x160;" horiz-adv-x="924" 
d="M769 694h135v-273h-237q-31 0 -50 -33t-20 -91q-5 -70 -27.5 -125.5t-66 -94.5t-110 -59.5t-157.5 -20.5h-216v273h241q31 0 48 33t18 91q7 121 65.5 199t173.5 96l-176 243h224l53 -51l52 51h224z" />
    <glyph glyph-name="scaron" unicode="&#x161;" horiz-adv-x="924" 
d="M769 694h135v-273h-237q-31 0 -50 -33t-20 -91q-5 -70 -27.5 -125.5t-66 -94.5t-110 -59.5t-157.5 -20.5h-216v273h241q31 0 48 33t18 91q7 121 65.5 199t173.5 96l-176 243h224l53 -51l52 51h224z" />
    <glyph glyph-name="uni0162" unicode="&#x162;" horiz-adv-x="796" 
d="M779 694q0 -69 -0.5 -136.5t-0.5 -136.5h-243v-424h-273v424h-244v273h761zM268 -31h256l-132 -339h-162z" />
    <glyph glyph-name="uni0163" unicode="&#x163;" horiz-adv-x="796" 
d="M779 694q0 -69 -0.5 -136.5t-0.5 -136.5h-243v-424h-273v424h-244v273h761zM268 -31h256l-132 -339h-162z" />
    <glyph glyph-name="Tcaron" unicode="&#x164;" horiz-adv-x="796" 
d="M514 694h265q0 -69 -0.5 -136.5t-0.5 -136.5h-243v-424h-273v424h-244v273h254l-155 214h224l53 -51l52 51h224z" />
    <glyph glyph-name="tcaron" unicode="&#x165;" horiz-adv-x="796" 
d="M514 694h265q0 -69 -0.5 -136.5t-0.5 -136.5h-243v-424h-273v424h-244v273h254l-155 214h224l53 -51l52 51h224z" />
    <glyph glyph-name="Tbar" unicode="&#x166;" horiz-adv-x="796" 
d="M535 148v-151h-273v151h-93v170h93v103h-244v273h761q0 -69 -0.5 -136.5t-0.5 -136.5h-243v-103h91v-170h-91z" />
    <glyph glyph-name="tbar" unicode="&#x167;" horiz-adv-x="796" 
d="M535 148v-151h-273v151h-93v170h93v103h-244v273h761q0 -69 -0.5 -136.5t-0.5 -136.5h-243v-103h91v-170h-91z" />
    <glyph glyph-name="Utilde" unicode="&#x168;" 
d="M664 1005q28 -50 35 -99t-4 -90.5t-38 -73.5t-67 -48h195v-350q0 -78 -30 -147t-81.5 -120.5t-120.5 -81.5t-147 -30t-147 30t-120.5 81.5t-81.5 120.5t-30 147v350h115q-30 64 -29 121t26 99t69 66.5t98 24.5q40 0 68 -10t47.5 -24.5t33 -32t23 -32t18 -24.5t18.5 -10
t11 14t-6 34.5t-22 43.5t-36 41h203zM407 236q22 0 41.5 8.5t34 23t23 34t8.5 42.5v334h-7q-39 0 -66 10t-45.5 24.5t-31 32t-22 32t-17.5 24.5t-19 10q-12 0 -15.5 -11.5t2.5 -30t21.5 -42.5t41.5 -49h-56v-334q0 -23 8.5 -42.5t23 -34t34 -23t41.5 -8.5z" />
    <glyph glyph-name="utilde" unicode="&#x169;" 
d="M664 1005q28 -50 35 -99t-4 -90.5t-38 -73.5t-67 -48h195v-350q0 -78 -30 -147t-81.5 -120.5t-120.5 -81.5t-147 -30t-147 30t-120.5 81.5t-81.5 120.5t-30 147v350h115q-30 64 -29 121t26 99t69 66.5t98 24.5q40 0 68 -10t47.5 -24.5t33 -32t23 -32t18 -24.5t18.5 -10
t11 14t-6 34.5t-22 43.5t-36 41h203zM407 236q22 0 41.5 8.5t34 23t23 34t8.5 42.5v334h-7q-39 0 -66 10t-45.5 24.5t-31 32t-22 32t-17.5 24.5t-19 10q-12 0 -15.5 -11.5t2.5 -30t21.5 -42.5t41.5 -49h-56v-334q0 -23 8.5 -42.5t23 -34t34 -23t41.5 -8.5z" />
    <glyph glyph-name="Umacron" unicode="&#x16a;" 
d="M785 694v-350q0 -78 -30 -147t-81.5 -120.5t-120.5 -81.5t-147 -30t-147 30t-120.5 81.5t-81.5 120.5t-30 147v350h273v-350q0 -23 8.5 -42.5t23 -34t34 -23t41.5 -8.5t41.5 8.5t34 23t23 34t8.5 42.5v350h271zM177 725v170h457v-170h-457z" />
    <glyph glyph-name="umacron" unicode="&#x16b;" 
d="M785 694v-350q0 -78 -30 -147t-81.5 -120.5t-120.5 -81.5t-147 -30t-147 30t-120.5 81.5t-81.5 120.5t-30 147v350h273v-350q0 -23 8.5 -42.5t23 -34t34 -23t41.5 -8.5t41.5 8.5t34 23t23 34t8.5 42.5v350h271zM177 725v170h457v-170h-457z" />
    <glyph glyph-name="Ubreve" unicode="&#x16c;" 
d="M686 935q13 -44 11 -82.5t-20.5 -70t-55.5 -54t-92 -34.5h256v-350q0 -78 -30 -147t-81.5 -120.5t-120.5 -81.5t-147 -30t-147 30t-120.5 81.5t-81.5 120.5t-30 147v350h268q-56 12 -93 34.5t-56 54t-20.5 70.5t15.5 82h225q-11 -39 0 -52.5t44 -13.5q35 0 47.5 13.5
t3.5 52.5h225zM407 236q22 0 41.5 8.5t34 23t23 34t8.5 42.5v347q-23 -5 -49 -6.5t-55 -1.5q-64 0 -110 10v-349q0 -23 8.5 -42.5t23 -34t34 -23t41.5 -8.5z" />
    <glyph glyph-name="ubreve" unicode="&#x16d;" 
d="M686 935q13 -44 11 -82.5t-20.5 -70t-55.5 -54t-92 -34.5h256v-350q0 -78 -30 -147t-81.5 -120.5t-120.5 -81.5t-147 -30t-147 30t-120.5 81.5t-81.5 120.5t-30 147v350h268q-56 12 -93 34.5t-56 54t-20.5 70.5t15.5 82h225q-11 -39 0 -52.5t44 -13.5q35 0 47.5 13.5
t3.5 52.5h225zM407 236q22 0 41.5 8.5t34 23t23 34t8.5 42.5v347q-23 -5 -49 -6.5t-55 -1.5q-64 0 -110 10v-349q0 -23 8.5 -42.5t23 -34t34 -23t41.5 -8.5z" />
    <glyph glyph-name="Uring" unicode="&#x16e;" 
d="M405 948q40 0 75 -15t61.5 -41.5t41.5 -61.5t15 -75q0 -16 -2.5 -31.5t-7.5 -29.5h197v-350q0 -78 -30 -147t-81.5 -120.5t-120.5 -81.5t-147 -30t-147 30t-120.5 81.5t-81.5 120.5t-30 147v350h195q-10 27 -10 61q0 40 15 75t41.5 61.5t61.5 41.5t75 15zM407 236
q22 0 41.5 8.5t34 23t23 34t8.5 42.5v251q-23 -16 -51 -24.5t-58 -8.5q-59 0 -105 31v-249q0 -23 8.5 -42.5t23 -34t34 -23t41.5 -8.5zM405 716q16 0 27.5 11.5t11.5 27.5q0 17 -11.5 28.5t-27.5 11.5t-27.5 -11.5t-11.5 -28.5q0 -16 11.5 -27.5t27.5 -11.5z" />
    <glyph glyph-name="uring" unicode="&#x16f;" 
d="M405 948q40 0 75 -15t61.5 -41.5t41.5 -61.5t15 -75q0 -16 -2.5 -31.5t-7.5 -29.5h197v-350q0 -78 -30 -147t-81.5 -120.5t-120.5 -81.5t-147 -30t-147 30t-120.5 81.5t-81.5 120.5t-30 147v350h195q-10 27 -10 61q0 40 15 75t41.5 61.5t61.5 41.5t75 15zM407 236
q22 0 41.5 8.5t34 23t23 34t8.5 42.5v251q-23 -16 -51 -24.5t-58 -8.5q-59 0 -105 31v-249q0 -23 8.5 -42.5t23 -34t34 -23t41.5 -8.5zM405 716q16 0 27.5 11.5t11.5 27.5q0 17 -11.5 28.5t-27.5 11.5t-27.5 -11.5t-11.5 -28.5q0 -16 11.5 -27.5t27.5 -11.5z" />
    <glyph glyph-name="Uhungarumlaut" unicode="&#x170;" 
d="M823 819l-175 -125h137v-350q0 -78 -30 -147t-81.5 -120.5t-120.5 -81.5t-147 -30t-147 30t-120.5 81.5t-81.5 120.5t-30 147v350h123l251 296l138 -154l130 154zM407 236q22 0 41.5 8.5t34 23t23 34t8.5 42.5v254l-9 -6l-93 95l64 76l-176 -126v-293q0 -23 8.5 -42.5
t23 -34t34 -23t41.5 -8.5z" />
    <glyph glyph-name="uhungarumlaut" unicode="&#x171;" 
d="M823 819l-175 -125h137v-350q0 -78 -30 -147t-81.5 -120.5t-120.5 -81.5t-147 -30t-147 30t-120.5 81.5t-81.5 120.5t-30 147v350h123l251 296l138 -154l130 154zM407 236q22 0 41.5 8.5t34 23t23 34t8.5 42.5v254l-9 -6l-93 95l64 76l-176 -126v-293q0 -23 8.5 -42.5
t23 -34t34 -23t41.5 -8.5z" />
    <glyph glyph-name="Uogonek" unicode="&#x172;" 
d="M405 -123q0 -13 11 -22.5t30.5 -12t47 2.5t62.5 21v-139q-84 -41 -160.5 -50.5t-135 6t-92.5 53t-33 90.5q1 34 12.5 60t30 45.5t42 34t49.5 25.5q-53 21 -97.5 56t-76.5 81t-50 101t-18 115v350h273v-350q0 -23 8.5 -42.5t23 -34t34 -23t41.5 -8.5t41.5 8.5t34 23t23 34
t8.5 42.5v350h271v-350q0 -59 -17.5 -113t-48.5 -99.5t-74 -81t-94 -56.5q-21 -28 -46 -44t-47.5 -27t-37.5 -20.5t-15 -25.5z" />
    <glyph glyph-name="uogonek" unicode="&#x173;" 
d="M405 -123q0 -13 11 -22.5t30.5 -12t47 2.5t62.5 21v-139q-84 -41 -160.5 -50.5t-135 6t-92.5 53t-33 90.5q1 34 12.5 60t30 45.5t42 34t49.5 25.5q-53 21 -97.5 56t-76.5 81t-50 101t-18 115v350h273v-350q0 -23 8.5 -42.5t23 -34t34 -23t41.5 -8.5t41.5 8.5t34 23t23 34
t8.5 42.5v350h271v-350q0 -59 -17.5 -113t-48.5 -99.5t-74 -81t-94 -56.5q-21 -28 -46 -44t-47.5 -27t-37.5 -20.5t-15 -25.5z" />
    <glyph glyph-name="Wcircumflex" unicode="&#x174;" horiz-adv-x="1230" 
d="M1253 694l-419 -787l-219 362l-219 -362l-419 787h312l131 -264l195 327l195 -327l132 264h311zM531 979h170l191 -263h-224l-53 51l-52 -51h-224z" />
    <glyph glyph-name="wcircumflex" unicode="&#x175;" horiz-adv-x="1230" 
d="M1253 694l-419 -787l-219 362l-219 -362l-419 787h312l131 -264l195 327l195 -327l132 264h311zM531 979h170l191 -263h-224l-53 51l-52 -51h-224z" />
    <glyph glyph-name="Ycircumflex" unicode="&#x176;" horiz-adv-x="883" 
d="M578 268v-270h-273v270l-327 327l193 193l44 -45l142 194h170l141 -194l45 45l193 -193zM442 517l157 157h-105l-53 51l-52 -51h-104z" />
    <glyph glyph-name="ycircumflex" unicode="&#x177;" horiz-adv-x="883" 
d="M578 268v-270h-273v270l-327 327l193 193l44 -45l142 194h170l141 -194l45 45l193 -193zM442 517l157 157h-105l-53 51l-52 -51h-104z" />
    <glyph glyph-name="Ydieresis" unicode="&#x178;" horiz-adv-x="883" 
d="M723 801q0 -5 -0.5 -11t-1.5 -11l185 -184l-328 -327v-270h-273v270l-327 327l183 183q-1 5 -1.5 11t-0.5 12q0 24 7.5 47t23 40.5t39.5 28.5t57 11t57 -11t39.5 -28.5t23.5 -40.5t8 -47t-8 -47t-23.5 -41t-39.5 -29t-57 -11l156 -156l156 156h-3q-32 0 -56 11t-39.5 29
t-23.5 41t-8 47t7.5 47t23 40.5t39.5 28.5t57 11t57 -11t39.5 -28.5t23.5 -40.5t8 -47z" />
    <glyph glyph-name="Zacute" unicode="&#x179;" horiz-adv-x="952" 
d="M794 817l-173 -123h289l-343 -424h346v-273h-886l344 424h-321v273h340l250 294z" />
    <glyph glyph-name="zacute" unicode="&#x17a;" horiz-adv-x="952" 
d="M794 817l-173 -123h289l-343 -424h346v-273h-886l344 424h-321v273h340l250 294z" />
    <glyph glyph-name="Zdotaccent" unicode="&#x17b;" horiz-adv-x="952" 
d="M593 785q0 -26 -8.5 -49.5t-25.5 -41.5h351l-343 -424h346v-273h-886l344 424h-321v273h322q-17 18 -25.5 41.5t-8.5 49.5q0 24 7.5 47t23 40.5t39.5 28.5t57 11t57 -11t39.5 -28.5t23.5 -40.5t8 -47z" />
    <glyph glyph-name="zdotaccent" unicode="&#x17c;" horiz-adv-x="952" 
d="M593 785q0 -26 -8.5 -49.5t-25.5 -41.5h351l-343 -424h346v-273h-886l344 424h-321v273h322q-17 18 -25.5 41.5t-8.5 49.5q0 24 7.5 47t23 40.5t39.5 28.5t57 11t57 -11t39.5 -28.5t23.5 -40.5t8 -47z" />
    <glyph glyph-name="Zcaron" unicode="&#x17d;" horiz-adv-x="952" 
d="M585 694h325l-343 -424h346v-273h-886l344 424h-321v273h301l-159 219h224l53 -51l52 51h224z" />
    <glyph glyph-name="zcaron" unicode="&#x17e;" horiz-adv-x="952" 
d="M585 694h325l-343 -424h346v-273h-886l344 424h-321v273h301l-159 219h224l53 -51l52 51h224z" />
    <glyph glyph-name="florin" unicode="&#x192;" horiz-adv-x="523" 
d="M68 -31q37 0 55 20.5t24 56t2.5 83t-9.5 101.5h-112v178h98q-1 46 3.5 90t18 83.5t38 72.5t63.5 57.5t93.5 38t129.5 13.5v-194q-31 0 -50.5 -12t-29.5 -33.5t-13 -51t-1 -64.5h117v-178h-100q6 -54 8 -108.5t-5 -105t-27 -94.5t-58 -76.5t-98 -51t-147 -18.5v193z" />
    <glyph glyph-name="circumflex" unicode="&#x2c6;" horiz-adv-x="609" 
d="M220 689h170l191 -263h-224l-53 51l-52 -51h-224z" />
    <glyph glyph-name="caron" unicode="&#x2c7;" horiz-adv-x="609" 
d="M389 426h-170l-191 263h224l53 -51l52 51h224z" />
    <glyph glyph-name="breve" unicode="&#x2d8;" horiz-adv-x="630" 
d="M589 689q17 -53 10 -99t-40.5 -80t-94 -53.5t-151.5 -19.5q-88 0 -148.5 19.5t-94 54t-40 80t13.5 98.5h225q-11 -39 0 -52.5t44 -13.5q35 0 47.5 13.5t3.5 52.5h225v0z" />
    <glyph glyph-name="dotaccent" unicode="&#x2d9;" horiz-adv-x="312" 
d="M283 579q0 -24 -8 -47t-23.5 -41t-39.5 -29t-57 -11q-32 0 -56 11t-39.5 29t-23.5 41t-8 47t7.5 47t23 40.5t39.5 28.5t57 11t57 -11t39.5 -28.5t23.5 -40.5t8 -47z" />
    <glyph glyph-name="ring" unicode="&#x2da;" horiz-adv-x="443" 
d="M221 697q40 0 75 -15t61.5 -41.5t41.5 -61.5t15 -75t-15 -75t-41.5 -61.5t-61.5 -41.5t-75 -15t-75 15t-61.5 41.5t-41.5 61.5t-15 75t15 75t41.5 61.5t61.5 41.5t75 15zM221 465q16 0 27.5 11.5t11.5 27.5q0 17 -11.5 28.5t-27.5 11.5t-27.5 -11.5t-11.5 -28.5
q0 -16 11.5 -27.5t27.5 -11.5z" />
    <glyph glyph-name="ogonek" unicode="&#x2db;" horiz-adv-x="484" 
d="M299 -111q0 -13 11 -22.5t30.5 -12t47 2.5t62.5 21v-139q-84 -41 -160.5 -50.5t-135 6t-92.5 53t-33 90.5q1 42 18 71.5t43 50.5t57.5 35.5t62.5 26t57 22.5t42 25l146 -48q-20 -34 -47 -52.5t-51 -30.5t-41 -22.5t-17 -26.5z" />
    <glyph glyph-name="tilde" unicode="&#x2dc;" horiz-adv-x="647" 
d="M580 761q35 -62 38 -121t-20 -104.5t-68.5 -73.5t-106.5 -28q-39 0 -66 10t-45.5 24.5t-31 32t-22 32t-17.5 24.5t-19 10q-12 0 -15.5 -11.5t2.5 -30t21.5 -42.5t41.5 -49h-206q-36 67 -37 127t23.5 104t69 70t100.5 26q40 0 68 -10t47.5 -24.5t33 -32t23 -32t18 -24.5
t18.5 -10t11 14t-6 34.5t-22 43.5t-36 41h203v0z" />
    <glyph glyph-name="hungarumlaut" unicode="&#x2dd;" horiz-adv-x="671" 
d="M706 624l-318 -227l-93 95l64 76l-239 -171l-93 95l257 303l138 -154l130 154z" />
    <glyph glyph-name="uni1E02" unicode="&#x1e02;" horiz-adv-x="753" 
d="M382 783q0 -52 -32 -89h24q56 0 106 -25t72 -76q7 -15 9.5 -33.5t0.5 -37t-8 -36.5t-15 -32q88 -14 137 -72t49 -142q0 -54 -21 -99t-56.5 -77t-81.5 -49.5t-96 -17.5h-443v697h132q-17 18 -24.5 41t-7.5 48q0 24 7.5 47t23 40.5t39.5 28.5t57 11t57 -11t39.5 -28.5
t23.5 -40.5t8 -47zM408 208q29 0 49 21t20 50t-20 50t-49 21h-153v-142h153zM255 438h83q14 0 23 9.5t9 23.5q0 17 -12.5 24.5t-29.5 7.5h-73v-65z" />
    <glyph glyph-name="uni1E03" unicode="&#x1e03;" horiz-adv-x="753" 
d="M382 783q0 -52 -32 -89h24q56 0 106 -25t72 -76q7 -15 9.5 -33.5t0.5 -37t-8 -36.5t-15 -32q88 -14 137 -72t49 -142q0 -54 -21 -99t-56.5 -77t-81.5 -49.5t-96 -17.5h-443v697h132q-17 18 -24.5 41t-7.5 48q0 24 7.5 47t23 40.5t39.5 28.5t57 11t57 -11t39.5 -28.5
t23.5 -40.5t8 -47zM408 208q29 0 49 21t20 50t-20 50t-49 21h-153v-142h153zM255 438h83q14 0 23 9.5t9 23.5q0 17 -12.5 24.5t-29.5 7.5h-73v-65z" />
    <glyph glyph-name="uni1E0A" unicode="&#x1e0a;" horiz-adv-x="747" 
d="M429 768q0 -20 -5.5 -39.5t-16.5 -36.5q66 -7 123 -36.5t99 -76t66.5 -106.5t24.5 -127q0 -72 -27.5 -135.5t-75 -111t-111 -75t-135.5 -27.5h-344v697h167q-11 16 -15.5 35t-4.5 39q0 24 7.5 47t23 40.5t39.5 28.5t57 11t57 -11t39.5 -28.5t23.5 -40.5t8 -47zM371 254
q19 0 36 7t29.5 19.5t19.5 29t7 35.5t-7 35.5t-19.5 29t-29.5 19.5t-36 7h-87v-182h87z" />
    <glyph glyph-name="uni1E0B" unicode="&#x1e0b;" horiz-adv-x="747" 
d="M429 768q0 -20 -5.5 -39.5t-16.5 -36.5q66 -7 123 -36.5t99 -76t66.5 -106.5t24.5 -127q0 -72 -27.5 -135.5t-75 -111t-111 -75t-135.5 -27.5h-344v697h167q-11 16 -15.5 35t-4.5 39q0 24 7.5 47t23 40.5t39.5 28.5t57 11t57 -11t39.5 -28.5t23.5 -40.5t8 -47zM371 254
q19 0 36 7t29.5 19.5t19.5 29t7 35.5t-7 35.5t-19.5 29t-29.5 19.5t-36 7h-87v-182h87z" />
    <glyph glyph-name="uni1E1E" unicode="&#x1e1e;" horiz-adv-x="688" 
d="M501 813q0 -38 -19 -71.5t-57 -47.5h286v-273q-104 0 -206 -0.5t-205 -0.5v-81h324v-153h-324v-189h-273v697h295q-38 14 -57 47.5t-19 71.5q0 24 7.5 47t23 40.5t39.5 28.5t57 11t57 -11t39.5 -28.5t23.5 -40.5t8 -47z" />
    <glyph glyph-name="uni1E1F" unicode="&#x1e1f;" horiz-adv-x="688" 
d="M501 813q0 -38 -19 -71.5t-57 -47.5h286v-273q-104 0 -206 -0.5t-205 -0.5v-81h324v-153h-324v-189h-273v697h295q-38 14 -57 47.5t-19 71.5q0 24 7.5 47t23 40.5t39.5 28.5t57 11t57 -11t39.5 -28.5t23.5 -40.5t8 -47z" />
    <glyph glyph-name="uni1E40" unicode="&#x1e40;" horiz-adv-x="951" 
d="M923 790v-793h-272v191l-176 -185l-175 185v-191h-273v793l448 -425zM600 703q0 -24 -8 -47t-23.5 -41t-39.5 -29t-57 -11q-32 0 -56 11t-39.5 29t-23.5 41t-8 47t7.5 47t23 40.5t39.5 28.5t57 11t57 -11t39.5 -28.5t23.5 -40.5t8 -47z" />
    <glyph glyph-name="uni1E41" unicode="&#x1e41;" horiz-adv-x="951" 
d="M923 790v-793h-272v191l-176 -185l-175 185v-191h-273v793l448 -425zM600 703q0 -24 -8 -47t-23.5 -41t-39.5 -29t-57 -11q-32 0 -56 11t-39.5 29t-23.5 41t-8 47t7.5 47t23 40.5t39.5 28.5t57 11t57 -11t39.5 -28.5t23.5 -40.5t8 -47z" />
    <glyph glyph-name="uni1E56" unicode="&#x1e56;" horiz-adv-x="751" 
d="M489 803q0 -33 -13.5 -62.5t-42.5 -46.5h17q57 0 107 -21.5t87 -58.5t58 -87t21 -107t-21 -106.5t-58 -86.5t-87 -58.5t-107 -21.5h-150v-150h-273v697h263q-29 17 -42.5 46.5t-13.5 62.5q0 24 7.5 47t23 40.5t39.5 28.5t57 11t57 -11t39.5 -28.5t23.5 -40.5t8 -47z
M402 323q29 0 47 18.5t18 45.5q0 32 -18 49t-49 17h-100v-130h102z" />
    <glyph glyph-name="uni1E57" unicode="&#x1e57;" horiz-adv-x="751" 
d="M489 803q0 -33 -13.5 -62.5t-42.5 -46.5h17q57 0 107 -21.5t87 -58.5t58 -87t21 -107t-21 -106.5t-58 -86.5t-87 -58.5t-107 -21.5h-150v-150h-273v697h263q-29 17 -42.5 46.5t-13.5 62.5q0 24 7.5 47t23 40.5t39.5 28.5t57 11t57 -11t39.5 -28.5t23.5 -40.5t8 -47z
M402 323q29 0 47 18.5t18 45.5q0 32 -18 49t-49 17h-100v-130h102z" />
    <glyph glyph-name="uni1E60" unicode="&#x1e60;" horiz-adv-x="924" 
d="M817 813q0 -38 -19 -71.5t-57 -47.5h163v-273h-237q-31 0 -50 -33t-20 -91q-5 -70 -27.5 -125.5t-66 -94.5t-110 -59.5t-157.5 -20.5h-216v273h241q31 0 48 33t18 91q4 69 24.5 124.5t58 94.5t93.5 60t130 21h5q-38 14 -57 47.5t-19 71.5q0 24 7.5 47t23 40.5t39.5 28.5
t57 11t57 -11t39.5 -28.5t23.5 -40.5t8 -47z" />
    <glyph glyph-name="uni1E61" unicode="&#x1e61;" horiz-adv-x="924" 
d="M817 813q0 -38 -19 -71.5t-57 -47.5h163v-273h-237q-31 0 -50 -33t-20 -91q-5 -70 -27.5 -125.5t-66 -94.5t-110 -59.5t-157.5 -20.5h-216v273h241q31 0 48 33t18 91q4 69 24.5 124.5t58 94.5t93.5 60t130 21h5q-38 14 -57 47.5t-19 71.5q0 24 7.5 47t23 40.5t39.5 28.5
t57 11t57 -11t39.5 -28.5t23.5 -40.5t8 -47z" />
    <glyph glyph-name="uni1E6A" unicode="&#x1e6a;" horiz-adv-x="796" 
d="M525 815q0 -39 -20 -73t-62 -48h336q0 -69 -0.5 -136.5t-0.5 -136.5h-243v-424h-273v424h-244v273h333q-42 14 -61.5 48t-19.5 73q0 24 7.5 47t23 40.5t39.5 28.5t57 11t57 -11t39.5 -28.5t23.5 -40.5t8 -47z" />
    <glyph glyph-name="uni1E6B" unicode="&#x1e6b;" horiz-adv-x="796" 
d="M525 815q0 -39 -20 -73t-62 -48h336q0 -69 -0.5 -136.5t-0.5 -136.5h-243v-424h-273v424h-244v273h333q-42 14 -61.5 48t-19.5 73q0 24 7.5 47t23 40.5t39.5 28.5t57 11t57 -11t39.5 -28.5t23.5 -40.5t8 -47z" />
    <glyph glyph-name="Wgrave" unicode="&#x1e80;" horiz-adv-x="1230" 
d="M492 1064l296 -263l-77 -111l-82 43l181 -303l132 264h311l-419 -787l-219 362l-219 -362l-419 787h312l131 -264l187 314l-253 134z" />
    <glyph glyph-name="wgrave" unicode="&#x1e81;" horiz-adv-x="1230" 
d="M492 1064l296 -263l-77 -111l-82 43l181 -303l132 264h311l-419 -787l-219 362l-219 -362l-419 787h312l131 -264l187 314l-253 134z" />
    <glyph glyph-name="Wacute" unicode="&#x1e82;" horiz-adv-x="1230" 
d="M869 856l-220 -157l161 -269l132 264h311l-419 -787l-219 362l-219 -362l-419 787h312l131 -264l123 207l-85 87l257 303z" />
    <glyph glyph-name="wacute" unicode="&#x1e83;" horiz-adv-x="1230" 
d="M869 856l-220 -157l161 -269l132 264h311l-419 -787l-219 362l-219 -362l-419 787h312l131 -264l123 207l-85 87l257 303z" />
    <glyph glyph-name="Wdieresis" unicode="&#x1e84;" horiz-adv-x="1230" 
d="M1253 694l-419 -787l-219 362l-219 -362l-419 787h312l131 -264l195 327l195 -327l132 264h311zM580 831q0 -24 -8 -47t-23.5 -41t-39.5 -29t-57 -11q-32 0 -56 11t-39.5 29t-23.5 41t-8 47t7.5 47t23 40.5t39.5 28.5t57 11t57 -11t39.5 -28.5t23.5 -40.5t8 -47zM904 831
q0 -24 -8 -47t-23.5 -41t-39.5 -29t-57 -11q-32 0 -56 11t-39.5 29t-23.5 41t-8 47t7.5 47t23 40.5t39.5 28.5t57 11t57 -11t39.5 -28.5t23.5 -40.5t8 -47z" />
    <glyph glyph-name="wdieresis" unicode="&#x1e85;" horiz-adv-x="1230" 
d="M1253 694l-419 -787l-219 362l-219 -362l-419 787h312l131 -264l195 327l195 -327l132 264h311zM580 831q0 -24 -8 -47t-23.5 -41t-39.5 -29t-57 -11q-32 0 -56 11t-39.5 29t-23.5 41t-8 47t7.5 47t23 40.5t39.5 28.5t57 11t57 -11t39.5 -28.5t23.5 -40.5t8 -47zM904 831
q0 -24 -8 -47t-23.5 -41t-39.5 -29t-57 -11q-32 0 -56 11t-39.5 29t-23.5 41t-8 47t7.5 47t23 40.5t39.5 28.5t57 11t57 -11t39.5 -28.5t23.5 -40.5t8 -47z" />
    <glyph glyph-name="Ygrave" unicode="&#x1ef2;" horiz-adv-x="883" 
d="M578 268v-270h-273v270l-327 327l193 193l271 -271l271 271l193 -193zM264 1037l296 -263l-77 -111l-357 188z" />
    <glyph glyph-name="ygrave" unicode="&#x1ef3;" horiz-adv-x="883" 
d="M578 268v-270h-273v270l-327 327l193 193l271 -271l271 271l193 -193zM264 1037l296 -263l-77 -111l-357 188z" />
    <glyph glyph-name="endash" unicode="&#x2013;" horiz-adv-x="786" 
d="M27 210v234h732v-234h-732z" />
    <glyph glyph-name="emdash" unicode="&#x2014;" horiz-adv-x="1030" 
d="M27 210v234h976v-234h-976z" />
    <glyph glyph-name="quoteleft" unicode="&#x2018;" horiz-adv-x="397" 
d="M300 376h-273l147 340h194z" />
    <glyph glyph-name="quoteright" unicode="&#x2019;" horiz-adv-x="397" 
d="M96 716h273l-147 -340h-194z" />
    <glyph glyph-name="quotesinglbase" unicode="&#x201a;" horiz-adv-x="397" 
d="M96 216h273l-147 -340h-194z" />
    <glyph glyph-name="quotedblleft" unicode="&#x201c;" horiz-adv-x="680" 
d="M301 376h-273l147 340h194zM584 376h-273l147 340h194z" />
    <glyph glyph-name="quotedblright" unicode="&#x201d;" horiz-adv-x="680" 
d="M96 716h273l-147 -340h-194zM379 716h273l-147 -340h-194z" />
    <glyph glyph-name="quotedblbase" unicode="&#x201e;" horiz-adv-x="683" 
d="M95 216h273l-147 -340h-194zM382 216h273l-147 -340h-194z" />
    <glyph glyph-name="dagger" unicode="&#x2020;" horiz-adv-x="584" 
d="M385 399v-588h-193v588h-164v193h164v157h193v-157h170v-193h-170z" />
    <glyph glyph-name="daggerdbl" unicode="&#x2021;" horiz-adv-x="584" 
d="M385 -19v-170h-193v170h-164v194h164v224h-164v193h164v157h193v-157h170v-193h-170v-224h170v-194h-170z" />
    <glyph glyph-name="bullet" unicode="&#x2022;" horiz-adv-x="455" 
d="M426 366q0 -43 -14.5 -78t-41 -59.5t-63 -38t-80.5 -13.5q-39 0 -75 13.5t-63.5 38t-44 59.5t-16.5 78q0 44 16.5 77.5t44 56.5t63.5 34.5t75 11.5q44 0 80.5 -11.5t63 -34.5t41 -56.5t14.5 -77.5z" />
    <glyph glyph-name="ellipsis" unicode="&#x2026;" horiz-adv-x="955" 
d="M929 128q0 -24 -8 -47t-23.5 -41t-39.5 -29t-57 -11q-32 0 -56 11t-39.5 29t-23.5 41t-8 47t7.5 47t23 40.5t39.5 28.5t57 11t57 -11t39.5 -28.5t23.5 -40.5t8 -47zM283 128q0 -24 -8 -47t-23.5 -41t-39.5 -29t-57 -11q-32 0 -56 11t-39.5 29t-23.5 41t-8 47t7.5 47
t23 40.5t39.5 28.5t57 11t57 -11t39.5 -28.5t23.5 -40.5t8 -47zM606 128q0 -24 -8 -47t-23.5 -41t-39.5 -29t-57 -11q-32 0 -56 11t-39.5 29t-23.5 41t-8 47t7.5 47t23 40.5t39.5 28.5t57 11t57 -11t39.5 -28.5t23.5 -40.5t8 -47z" />
    <glyph glyph-name="perthousand" unicode="&#x2030;" horiz-adv-x="1218" 
d="M253 262q-57 1 -99 19.5t-70 48.5t-42 69t-14 81q0 41 14.5 80.5t44 70.5t74 50t104.5 19q78 0 138 -33.5t89 -93.5l98 127h278l-201 -262q80 -2 139 -38q28 18 63 28t79 10q52 0 97 -15.5t78.5 -44.5t52.5 -69.5t19 -90.5t-19 -90t-52.5 -68.5t-78.5 -44t-97 -15.5
q-45 0 -80 9.5t-63 26.5q-30 -17 -66 -26.5t-77 -9.5q-92 0 -147.5 39.5t-76.5 99.5l-107 -139h-279zM313 480q0 20 -10 36.5t-35 16.5q-23 0 -32.5 -16.5t-9.5 -36.5q0 -19 9.5 -35t32.5 -16q25 0 35 16t10 35zM997 218q0 20 -10 36t-36 16q-23 0 -32.5 -16t-9.5 -36
q0 -19 9.5 -35t32.5 -16q26 0 36 16t10 35zM710 224q-2 18 -12 32t-33 14t-32.5 -16t-9.5 -36q0 -19 9.5 -35t32.5 -16q25 0 35 16t10 35v6z" />
    <glyph glyph-name="guilsinglleft" unicode="&#x2039;" horiz-adv-x="522" 
d="M387 49l-359 294l359 295l106 -124l-174 -173l174 -176z" />
    <glyph glyph-name="guilsinglright" unicode="&#x203a;" horiz-adv-x="522" 
d="M135 637l359 -294l-359 -295l-106 124l174 173l-174 176z" />
    <glyph glyph-name="fraction" unicode="&#x2044;" horiz-adv-x="788" 
d="M472 700h288l-444 -840h-288z" />
    <glyph glyph-name="Euro" unicode="&#x20ac;" horiz-adv-x="693" 
d="M340 367v-34h172v-79h-151q19 -32 50 -46.5t71 -14.5q32 0 55.5 7.5t37.5 17.5l90 -148q-16 -16 -40.5 -29t-54 -22t-60.5 -14t-60 -5q-66 0 -123.5 17t-103 50t-76.5 80t-45 107h-74v79h63v34h-63v80h74q14 60 45.5 107t76.5 79.5t102.5 49.5t123.5 17q29 0 60 -5
t60.5 -14t54 -22t40.5 -29l-85 -147q-21 11 -46 17t-52 6q-40 0 -70.5 -14t-49.5 -45h150v-80h-172z" />
    <glyph glyph-name="trademark" unicode="&#x2122;" horiz-adv-x="1441" 
d="M1219 217v240l-141 -211h-100l-134 206v-235h-193v532h208l173 -253l172 253h209v-532h-194zM424 547v-330h-233v330h-163v202h567v-202h-171z" />
    <glyph glyph-name="minus" unicode="&#x2212;" horiz-adv-x="638" 
d="M28 250v193h582v-193h-582z" />
    <glyph glyph-name="fi" unicode="&#xfb01;" horiz-adv-x="1016" 
d="M711 421q-104 0 -206 -0.5t-205 -0.5v-81h324v-153h-324v-189h-273v697h684v-273zM719 -3v697h273v-697h-273z" />
    <glyph glyph-name="fl" unicode="&#xfb02;" horiz-adv-x="1347" 
d="M708 421q-104 0 -206 -0.5t-205 -0.5v-81h324v-153h-324v-189h-273v697h684v-273zM1330 270v-273h-604v697h273v-424h331z" />
    </font>
</defs>
</svg>
